<svg width="24" height="24" viewBox="0 0 24 24" fill="none" xmlns="http://www.w3.org/2000/svg">
<path d="M21.75 12C21.75 6.61547 17.3845 2.25 12 2.25C6.61547 2.25 2.25 6.61547 2.25 12C2.25 17.3845 6.61547 21.75 12 21.75C17.3845 21.75 21.75 17.3845 21.75 12Z" stroke="url(#paint0_linear_559_10852)" stroke-width="1.5" stroke-miterlimit="10"/>
<mask id="path-2-inside-1_559_10852" fill="white">
<path d="M20.8861 8.06877C20.1333 8.07345 20.2073 9.46236 19.2694 8.80705C18.9211 8.56423 18.7069 8.21127 18.2695 8.10392C17.8875 8.01017 17.4961 8.10767 17.1187 8.17283C16.6898 8.24689 16.1812 8.28017 15.8559 8.60502C15.5414 8.91767 15.375 9.3372 15.0403 9.65174C14.3929 10.2611 14.1197 10.9263 14.5387 11.7878C14.9419 12.6161 15.7851 13.0656 16.695 13.0066C17.5889 12.947 18.5175 12.4286 18.4917 13.7275C18.4823 14.1869 18.5784 14.5056 18.7195 14.9327C18.8503 15.3264 18.8414 15.708 18.8714 16.1144C18.9267 16.8738 19.0664 17.725 19.4433 18.3958L20.1464 17.4039C20.2331 17.2811 20.4145 17.1091 20.4576 16.9642C20.534 16.7078 20.3836 16.2672 20.3662 15.9799C20.3489 15.6925 20.3573 15.4014 20.3133 15.1141C20.2514 14.7114 20.0133 14.3341 19.9804 13.9361C19.92 13.195 20.0554 12.6035 19.4845 11.9838C18.9333 11.3861 18.1251 11.2427 17.3531 11.3641C16.964 11.425 15.3979 11.6753 16.0265 10.7861C16.1508 10.6113 16.3678 10.4678 16.5075 10.3014C16.6289 10.1566 16.7344 9.89033 16.8769 9.77736C17.0194 9.66439 17.6737 9.53455 17.8612 9.5922C18.0487 9.64986 18.2442 9.92033 18.4069 10.0403C18.7074 10.2667 19.0581 10.4172 19.4292 10.4791C20.0695 10.5728 21.4083 10.2006 21.3979 9.37939C21.3961 8.98564 21.0304 8.4372 20.8861 8.06877V8.06877ZM13.4742 14.8263C13.2244 13.7744 11.7951 13.4228 11.0245 12.8524C10.5815 12.5242 10.1873 12.0175 9.6056 11.9763C9.33748 11.957 9.11294 12.0152 8.84716 11.9463C8.60341 11.8835 8.41216 11.7522 8.15248 11.7864C7.66732 11.8502 7.36123 12.3686 6.83998 12.2983C6.34544 12.2317 5.83591 11.6533 5.72341 11.1822C5.57904 10.5766 6.0581 10.3802 6.57138 10.3263C6.7856 10.3038 7.02607 10.2794 7.23185 10.3577C7.50279 10.4585 7.63076 10.7238 7.87404 10.8578C8.33013 11.1077 8.42248 10.7083 8.35263 10.3033C8.2481 9.69673 8.12623 9.44923 8.66716 9.03205C9.04216 8.74424 9.36279 8.53611 9.30279 8.01908C9.26716 7.71533 9.10076 7.57798 9.25591 7.27564C9.37357 7.04548 9.69654 6.83783 9.90701 6.70048C10.4503 6.34611 12.2344 6.37236 11.5054 5.38048C11.2912 5.08939 10.8961 4.56908 10.5211 4.49783C10.0523 4.40923 9.84419 4.93236 9.51748 5.16298C9.17998 5.40158 8.52279 5.67252 8.18482 5.30361C7.73013 4.8072 8.48623 4.64408 8.65357 4.29767C8.82091 3.95127 8.26591 3.29642 7.96873 3.13048L6.57138 4.69752C6.53124 4.95995 6.54521 5.22782 6.61245 5.48465C6.67968 5.74149 6.79874 5.98185 6.96232 6.19095C7.24029 6.54861 7.68279 6.66345 7.70294 7.15189C7.72263 7.62064 7.64951 7.86064 7.34294 8.19017C7.21029 8.3308 7.11654 8.53049 6.98154 8.6622C6.81607 8.82299 6.87748 8.77377 6.61919 8.81783C6.13357 8.89986 5.72013 9.02642 5.25091 9.1558C4.46904 9.37189 4.39685 8.09455 4.0406 7.59345L2.86873 8.53986C2.85607 8.69502 3.06091 8.98049 3.11669 9.14924C3.43685 10.1135 4.08279 10.8592 4.49998 11.7817C4.93919 12.7586 6.11857 12.4877 6.63935 13.3436C7.10154 14.103 6.60794 15.0644 6.95388 15.8594C7.20513 16.4364 7.79763 16.5625 8.20638 16.9844C8.62404 17.4105 8.61513 17.9936 8.67888 18.5481C8.75078 19.2004 8.86746 19.8469 9.0281 20.4831C9.08482 20.703 9.13685 20.9936 9.28732 21.175C9.39044 21.2997 9.74435 21.407 9.60138 21.4483C9.80107 21.4811 10.1569 21.6677 10.3233 21.5308C10.5426 21.3508 10.484 20.7967 10.522 20.5464C10.6359 19.8011 11.009 19.0722 11.5125 18.5144C12.0098 17.9641 12.6914 17.5914 13.1114 16.9675C13.5206 16.3591 13.6439 15.5383 13.4742 14.8263V14.8263ZM11.909 16.06C11.6278 16.562 11.0015 16.8981 10.5989 17.297C10.4897 17.4053 10.2572 17.7803 10.1203 17.6992C10.0223 17.6411 9.98904 17.1545 9.95294 17.043C9.76674 16.4812 9.41126 15.9908 8.93529 15.6391C8.78857 15.528 8.42482 15.3836 8.34091 15.2313C8.24716 15.0658 8.33154 14.6753 8.33482 14.4953C8.33998 14.2328 8.22044 13.7964 8.28513 13.5578C8.36013 13.2827 8.21576 13.4486 8.46185 13.3942C8.59169 13.3652 9.12794 13.4594 9.28966 13.4931C9.54654 13.5466 9.6881 13.7064 9.8906 13.8681C10.4231 14.2952 11.0095 14.6256 11.6062 14.9528C12.0684 15.2088 12.2044 15.5327 11.909 16.06ZM8.64654 3.14455C8.86873 3.36158 9.07779 3.61845 9.40919 3.64002C9.72279 3.66111 10.0186 3.49142 10.2923 3.7047C10.5961 3.93908 10.815 4.2358 11.2181 4.30892C11.6081 4.3797 12.0211 4.15189 12.1176 3.75298C12.2114 3.37283 12.0094 2.95939 11.9972 2.57783C11.9972 2.52486 12.0258 2.28955 11.9892 2.2497C11.962 2.2197 11.7351 2.25345 11.7004 2.25439C11.4464 2.26189 11.1929 2.27939 10.9401 2.30689C10.0185 2.40665 9.11589 2.6379 8.25982 2.99361C8.37373 3.07236 8.51669 3.10377 8.64654 3.14455V3.14455ZM16.7062 5.77798C17.1042 5.77798 17.5083 5.59986 17.3798 5.13955C17.272 4.75377 17.0883 4.33517 16.6411 4.5433C16.3565 4.67548 15.9534 5.01205 15.9201 5.3458C15.8822 5.72455 16.4409 5.77798 16.7062 5.77798ZM16.3884 7.7922C16.7948 8.03549 17.3976 7.92111 17.7042 7.57377C17.9437 7.30189 18.0848 6.82986 18.5156 6.83033C18.7053 6.82993 18.8874 6.90419 19.0228 7.03705C19.2009 7.22127 19.1658 7.39423 19.2037 7.62486C19.2886 8.14283 19.844 7.65439 19.9889 7.45377C20.0826 7.32299 20.2097 7.12892 20.167 6.95877C20.1276 6.79986 19.942 6.63064 19.8595 6.48486C19.6186 6.06299 19.4203 5.5722 19.0594 5.23142C18.712 4.9033 18.285 4.94127 17.9554 5.28205C17.6854 5.5633 17.3719 5.78595 17.1872 6.12814C17.0569 6.36861 16.9101 6.48345 16.6462 6.5458C16.5009 6.58002 16.335 6.59267 16.2131 6.69017C15.8737 6.95736 16.0669 7.59908 16.3884 7.7922Z"/>
</mask>
<path d="M20.8861 8.06877C20.1333 8.07345 20.2073 9.46236 19.2694 8.80705C18.9211 8.56423 18.7069 8.21127 18.2695 8.10392C17.8875 8.01017 17.4961 8.10767 17.1187 8.17283C16.6898 8.24689 16.1812 8.28017 15.8559 8.60502C15.5414 8.91767 15.375 9.3372 15.0403 9.65174C14.3929 10.2611 14.1197 10.9263 14.5387 11.7878C14.9419 12.6161 15.7851 13.0656 16.695 13.0066C17.5889 12.947 18.5175 12.4286 18.4917 13.7275C18.4823 14.1869 18.5784 14.5056 18.7195 14.9327C18.8503 15.3264 18.8414 15.708 18.8714 16.1144C18.9267 16.8738 19.0664 17.725 19.4433 18.3958L20.1464 17.4039C20.2331 17.2811 20.4145 17.1091 20.4576 16.9642C20.534 16.7078 20.3836 16.2672 20.3662 15.9799C20.3489 15.6925 20.3573 15.4014 20.3133 15.1141C20.2514 14.7114 20.0133 14.3341 19.9804 13.9361C19.92 13.195 20.0554 12.6035 19.4845 11.9838C18.9333 11.3861 18.1251 11.2427 17.3531 11.3641C16.964 11.425 15.3979 11.6753 16.0265 10.7861C16.1508 10.6113 16.3678 10.4678 16.5075 10.3014C16.6289 10.1566 16.7344 9.89033 16.8769 9.77736C17.0194 9.66439 17.6737 9.53455 17.8612 9.5922C18.0487 9.64986 18.2442 9.92033 18.4069 10.0403C18.7074 10.2667 19.0581 10.4172 19.4292 10.4791C20.0695 10.5728 21.4083 10.2006 21.3979 9.37939C21.3961 8.98564 21.0304 8.4372 20.8861 8.06877V8.06877ZM13.4742 14.8263C13.2244 13.7744 11.7951 13.4228 11.0245 12.8524C10.5815 12.5242 10.1873 12.0175 9.6056 11.9763C9.33748 11.957 9.11294 12.0152 8.84716 11.9463C8.60341 11.8835 8.41216 11.7522 8.15248 11.7864C7.66732 11.8502 7.36123 12.3686 6.83998 12.2983C6.34544 12.2317 5.83591 11.6533 5.72341 11.1822C5.57904 10.5766 6.0581 10.3802 6.57138 10.3263C6.7856 10.3038 7.02607 10.2794 7.23185 10.3577C7.50279 10.4585 7.63076 10.7238 7.87404 10.8578C8.33013 11.1077 8.42248 10.7083 8.35263 10.3033C8.2481 9.69673 8.12623 9.44923 8.66716 9.03205C9.04216 8.74424 9.36279 8.53611 9.30279 8.01908C9.26716 7.71533 9.10076 7.57798 9.25591 7.27564C9.37357 7.04548 9.69654 6.83783 9.90701 6.70048C10.4503 6.34611 12.2344 6.37236 11.5054 5.38048C11.2912 5.08939 10.8961 4.56908 10.5211 4.49783C10.0523 4.40923 9.84419 4.93236 9.51748 5.16298C9.17998 5.40158 8.52279 5.67252 8.18482 5.30361C7.73013 4.8072 8.48623 4.64408 8.65357 4.29767C8.82091 3.95127 8.26591 3.29642 7.96873 3.13048L6.57138 4.69752C6.53124 4.95995 6.54521 5.22782 6.61245 5.48465C6.67968 5.74149 6.79874 5.98185 6.96232 6.19095C7.24029 6.54861 7.68279 6.66345 7.70294 7.15189C7.72263 7.62064 7.64951 7.86064 7.34294 8.19017C7.21029 8.3308 7.11654 8.53049 6.98154 8.6622C6.81607 8.82299 6.87748 8.77377 6.61919 8.81783C6.13357 8.89986 5.72013 9.02642 5.25091 9.1558C4.46904 9.37189 4.39685 8.09455 4.0406 7.59345L2.86873 8.53986C2.85607 8.69502 3.06091 8.98049 3.11669 9.14924C3.43685 10.1135 4.08279 10.8592 4.49998 11.7817C4.93919 12.7586 6.11857 12.4877 6.63935 13.3436C7.10154 14.103 6.60794 15.0644 6.95388 15.8594C7.20513 16.4364 7.79763 16.5625 8.20638 16.9844C8.62404 17.4105 8.61513 17.9936 8.67888 18.5481C8.75078 19.2004 8.86746 19.8469 9.0281 20.4831C9.08482 20.703 9.13685 20.9936 9.28732 21.175C9.39044 21.2997 9.74435 21.407 9.60138 21.4483C9.80107 21.4811 10.1569 21.6677 10.3233 21.5308C10.5426 21.3508 10.484 20.7967 10.522 20.5464C10.6359 19.8011 11.009 19.0722 11.5125 18.5144C12.0098 17.9641 12.6914 17.5914 13.1114 16.9675C13.5206 16.3591 13.6439 15.5383 13.4742 14.8263V14.8263ZM11.909 16.06C11.6278 16.562 11.0015 16.8981 10.5989 17.297C10.4897 17.4053 10.2572 17.7803 10.1203 17.6992C10.0223 17.6411 9.98904 17.1545 9.95294 17.043C9.76674 16.4812 9.41126 15.9908 8.93529 15.6391C8.78857 15.528 8.42482 15.3836 8.34091 15.2313C8.24716 15.0658 8.33154 14.6753 8.33482 14.4953C8.33998 14.2328 8.22044 13.7964 8.28513 13.5578C8.36013 13.2827 8.21576 13.4486 8.46185 13.3942C8.59169 13.3652 9.12794 13.4594 9.28966 13.4931C9.54654 13.5466 9.6881 13.7064 9.8906 13.8681C10.4231 14.2952 11.0095 14.6256 11.6062 14.9528C12.0684 15.2088 12.2044 15.5327 11.909 16.06ZM8.64654 3.14455C8.86873 3.36158 9.07779 3.61845 9.40919 3.64002C9.72279 3.66111 10.0186 3.49142 10.2923 3.7047C10.5961 3.93908 10.815 4.2358 11.2181 4.30892C11.6081 4.3797 12.0211 4.15189 12.1176 3.75298C12.2114 3.37283 12.0094 2.95939 11.9972 2.57783C11.9972 2.52486 12.0258 2.28955 11.9892 2.2497C11.962 2.2197 11.7351 2.25345 11.7004 2.25439C11.4464 2.26189 11.1929 2.27939 10.9401 2.30689C10.0185 2.40665 9.11589 2.6379 8.25982 2.99361C8.37373 3.07236 8.51669 3.10377 8.64654 3.14455V3.14455ZM16.7062 5.77798C17.1042 5.77798 17.5083 5.59986 17.3798 5.13955C17.272 4.75377 17.0883 4.33517 16.6411 4.5433C16.3565 4.67548 15.9534 5.01205 15.9201 5.3458C15.8822 5.72455 16.4409 5.77798 16.7062 5.77798ZM16.3884 7.7922C16.7948 8.03549 17.3976 7.92111 17.7042 7.57377C17.9437 7.30189 18.0848 6.82986 18.5156 6.83033C18.7053 6.82993 18.8874 6.90419 19.0228 7.03705C19.2009 7.22127 19.1658 7.39423 19.2037 7.62486C19.2886 8.14283 19.844 7.65439 19.9889 7.45377C20.0826 7.32299 20.2097 7.12892 20.167 6.95877C20.1276 6.79986 19.942 6.63064 19.8595 6.48486C19.6186 6.06299 19.4203 5.5722 19.0594 5.23142C18.712 4.9033 18.285 4.94127 17.9554 5.28205C17.6854 5.5633 17.3719 5.78595 17.1872 6.12814C17.0569 6.36861 16.9101 6.48345 16.6462 6.5458C16.5009 6.58002 16.335 6.59267 16.2131 6.69017C15.8737 6.95736 16.0669 7.59908 16.3884 7.7922Z" fill="url(#paint1_linear_559_10852)" stroke="url(#paint2_linear_559_10852)" stroke-width="0.09375" mask="url(#path-2-inside-1_559_10852)"/>
<defs>
<linearGradient id="paint0_linear_559_10852" x1="12" y1="-1.62234" x2="12" y2="16.9096" gradientUnits="userSpaceOnUse">
<stop stop-color="#80FF00"/>
<stop offset="1" stop-color="#00F9FF"/>
</linearGradient>
<linearGradient id="paint1_linear_559_10852" x1="12.1331" y1="-1.60387" x2="12.1331" y2="16.7789" gradientUnits="userSpaceOnUse">
<stop stop-color="#80FF00"/>
<stop offset="1" stop-color="#00F9FF"/>
</linearGradient>
<linearGradient id="paint2_linear_559_10852" x1="12.1331" y1="-1.60387" x2="12.1331" y2="16.7789" gradientUnits="userSpaceOnUse">
<stop stop-color="#80FF00"/>
<stop offset="1" stop-color="#00F9FF"/>
</linearGradient>
</defs>
</svg>
