<svg xmlns="http://www.w3.org/2000/svg" viewBox="0 0 516.72 518.98"><g id="圖層_2" data-name="圖層 2"><g id="圖層_1-2" data-name="圖層 1"><path d="M335.53,486.35c-12.77-2.84-35.48-8.52-35.48-8.52a169.91,169.91,0,0,1-25.27-9.37,191.31,191.31,0,0,0,46.31-50.22l-23.55,4.54s-11.31,19.55-39.18,36.83c-27.87-17.28-39.18-36.83-39.18-36.83l-23.55-4.54a191.47,191.47,0,0,0,46.31,50.22,169.49,169.49,0,0,1-25.27,9.37s-22.71,5.68-35.47,8.52c0,0-21.86,5.39-24.41,16.17L166.44,519s19.86-19,42.28-20.43c0,0,22.11-2.93,49.64-19.14C285.89,495.62,308,498.55,308,498.55,330.42,500,350.28,519,350.28,519l9.65-16.46C357.38,491.74,335.53,486.35,335.53,486.35Z"/><path d="M303.24,461.65s12-3.39,17-12.72c0,0,14.72-21.93,18-29.51.49-1.13,1-2.26,1.56-3.34,4.48-8.35,21.82-37.58,41.35-29.9a94.13,94.13,0,0,0-5.95,22.18s-5.19,32.95-31.64,38.95c0,0,8.64-11,12.79-23.21,2.19-6.43,4.72-12.74,7.31-19l.09-.2s-6.49,1.27-17.48,25.5C346.26,430.38,329.26,470.23,303.24,461.65Z"/><path d="M326.79,464.82s15.24,1.66,19.61,6a116.51,116.51,0,0,1,24.81-2.38,93.17,93.17,0,0,0,22.28-2.34c16.32-3.91,38.49-13.94,40.21-39.67,0,0-13.09,6.57-25.61,7.81,0,0-41.21,4.64-51.21,15.94a107,107,0,0,1,16.59-.48,101.24,101.24,0,0,0,12.06.38c8.18-.31,20.18-1.35,26.86-4.75,0,0-7.91,10.17-35.34,10.17C377.05,455.54,340.75,452.48,326.79,464.82Z"/><path d="M374.47,432.62s10.32-4.19,14.84-2.09c0,0,10-8.07,11.46-35.51,0,0,2.58-28.4,4.36-35l-11-3.06s-5.68,13.84-6.23,28a133.33,133.33,0,0,1-2.51,22.2C383.3,417.09,379.8,428.67,374.47,432.62Z"/><path d="M409.6,361l11.6,3.13s1.22,21.14-13.44,37.27C407.76,401.41,411.85,365.1,409.6,361Z"/><path d="M431.72,366.62l16.47,5.15-3.14,4.09s-7.24-2.38-18.86,3.24C426.19,379.1,425.62,372.72,431.72,366.62Z"/><path d="M457.24,375.48l13.52,5.73s-8.86,5.71-12.38,8.45A46.89,46.89,0,0,1,452,393.9a72.62,72.62,0,0,1-34.46,8.34s4.87-10.45,24.38-19.13c2.47-1.1,4.89-2.32,7.31-3.54Z"/><path d="M398.37,430.46s25.11-7.67,35.15-10a98.84,98.84,0,0,0,19.76-6.59c11.06-5.12,24.62-13.74,29.63-26.6l-10.43-5.52s-3.9,15.66-27.52,22.08c-2.8.76-5.6,1.51-8.37,2.35a164,164,0,0,1-30.24,5.9A37.26,37.26,0,0,1,398.37,430.46Z"/><path d="M402,155h29.28s-20.64-17.27-19.16-22.66C412.07,132.3,402,143.63,402,155Z"/><path d="M465.33,155h13.42l1.5-19.43s6.46,9.91,5,19.43H499s5.34-29.13-30.71-44C468.31,110.92,469.81,123.22,465.33,155Z"/><path d="M446.54,155h3.91s1.61-6.2,6.22-7.93c0,0-1.15-13.13,2.33-24.91,0,0,24-55.16-24.13-67.19,0,0,3.46,11.84,2.64,15.42,0,0-1.59,37.81,6.39,47.22,0,0,1.2-9.41,2.55-13.51a31.08,31.08,0,0,0,1.38-5.79A71.74,71.74,0,0,0,446,72.94s14.35,10.5,3.88,38.91C449.92,111.85,441.48,138.18,446.54,155Z"/><path d="M438.84,146.43V132.94s-12.14-9.3-16.18-11c0,0-21.79-11.4-21.79-24,0,0,11.4,15.29,24.68,19.62,0,0,11.43,5.34,13.29,9.24,0,0,.34-17.53-21.66-30.59,0,0-23.23-12.7-22.66-18.19,0,0-17.17,22.52,10.25,43.58l.17.13c8.61,6,17.26,11.9,26.08,17.56C434.54,141.57,438.53,144.52,438.84,146.43Z"/><path d="M422.23,91.45s-3.52-5.57-15.66-12.4c-1.55-.86-3.13-1.66-4.72-2.45-6.85-3.39-40.43-22-21.73-52.82,0,0,1.92,6.8,16.41,12.56,0,0,40.17,13.91,33.15,49.74,0,0-8-18.5-25.22-30.46a27.38,27.38,0,0,0-3.72-2.14c-3.36-1.64-10.36-5.37-10.67-8.24,0,0-2.11,3.87,7.17,12.91a62.56,62.56,0,0,0,6.62,5.53C408.92,67.39,422.23,78.42,422.23,91.45Z"/><path d="M213.48,461.65s-12-3.39-17-12.72c0,0-14.72-21.93-17.95-29.51-.48-1.13-1-2.26-1.56-3.34-4.48-8.35-21.82-37.58-41.35-29.9a93.57,93.57,0,0,1,5.95,22.18s5.19,32.95,31.65,38.95c0,0-8.65-11-12.8-23.21-2.19-6.43-4.72-12.74-7.31-19l-.08-.2s6.48,1.27,17.47,25.5C170.46,430.38,187.46,470.23,213.48,461.65Z"/><path d="M189.94,464.82s-15.25,1.66-19.62,6a116.51,116.51,0,0,0-24.81-2.38,93.17,93.17,0,0,1-22.28-2.34C106.91,462.23,84.74,452.2,83,426.47c0,0,13.1,6.57,25.61,7.81,0,0,41.21,4.64,51.22,15.94a107.19,107.19,0,0,0-16.6-.48,101.11,101.11,0,0,1-12.06.38c-8.18-.31-20.17-1.35-26.86-4.75,0,0,7.91,10.17,35.34,10.17C139.67,455.54,176,452.48,189.94,464.82Z"/><path d="M142.25,432.62s-10.32-4.19-14.84-2.09c0,0-10-8.07-11.46-35.51,0,0-2.58-28.4-4.36-35l11-3.06s5.68,13.84,6.24,28a132.26,132.26,0,0,0,2.5,22.2C133.42,417.09,136.92,428.67,142.25,432.62Z"/><path d="M107.12,361l-11.6,3.13S94.3,385.28,109,401.41C109,401.41,104.87,365.1,107.12,361Z"/><path d="M85,366.62l-16.47,5.15,3.14,4.09s7.24-2.38,18.86,3.24C90.53,379.1,91.1,372.72,85,366.62Z"/><path d="M59.48,375.48,46,381.21s8.86,5.71,12.38,8.45a46.89,46.89,0,0,0,6.39,4.24,72.62,72.62,0,0,0,34.46,8.34s-4.87-10.45-24.38-19.13c-2.47-1.1-4.89-2.32-7.3-3.54Z"/><path d="M118.35,430.46s-25.11-7.67-35.15-10a98.84,98.84,0,0,1-19.76-6.59c-11.06-5.12-24.62-13.74-29.63-26.6l10.43-5.52s3.9,15.66,27.52,22.08c2.8.76,5.6,1.51,8.38,2.35a163.68,163.68,0,0,0,30.23,5.9A37.37,37.37,0,0,0,118.35,430.46Z"/><path d="M114.77,155H85.49s20.65-17.27,19.16-22.66C104.65,132.3,114.77,143.63,114.77,155Z"/><path d="M51.39,155H38l-1.5-19.43S30,145.44,31.5,155H17.71s-5.35-29.13,30.7-44C48.41,110.92,46.92,123.22,51.39,155Z"/><path d="M70.18,155H66.27s-1.61-6.2-6.21-7.93c0,0,1.14-13.13-2.34-24.91,0,0-24-55.16,24.13-67.19,0,0-3.46,11.84-2.64,15.42,0,0,1.59,37.81-6.38,47.22,0,0-1.2-9.41-2.56-13.51a31.08,31.08,0,0,1-1.38-5.79,72,72,0,0,1,1.79-25.33s-14.35,10.5-3.88,38.91C66.8,111.85,75.24,138.18,70.18,155Z"/><path d="M77.88,146.43V132.94s12.14-9.3,16.18-11c0,0,21.79-11.4,21.79-24,0,0-11.4,15.29-24.68,19.62,0,0-11.42,5.34-13.29,9.24,0,0-.34-17.53,21.66-30.59,0,0,23.24-12.7,22.66-18.19,0,0,17.17,22.52-10.25,43.58l-.17.13c-8.61,6-17.26,11.9-26.08,17.56C82.18,141.57,78.19,144.52,77.88,146.43Z"/><path d="M94.49,91.45s3.52-5.57,15.66-12.4c1.55-.86,3.13-1.66,4.72-2.45,6.86-3.39,40.43-22,21.73-52.82,0,0-1.92,6.8-16.4,12.56,0,0-40.18,13.91-33.16,49.74,0,0,8-18.5,25.22-30.46A28,28,0,0,1,116,53.48c3.37-1.64,10.36-5.37,10.67-8.24,0,0,2.12,3.87-7.17,12.91a62.56,62.56,0,0,1-6.62,5.53C107.81,67.39,94.49,78.42,94.49,91.45Z"/><path d="M195.23,54.93s52.8-13.45,126.89,0L340.57,14l-5.09-1.59s-10.81,20.67-43.57,16.86S263.29,0,263.29,0h-9.22s5.4,22.58-29.42,29.42-41.82-17.65-41.82-17.65l-6.68,2.86Z"/><path d="M18,366.62l6,8.86s80.85-45.91,233.44-45.91c0,0,138.07-2.81,234.2,45.91l7-8.86S434.3,314,257.48,314C257.48,314,114.36,308.11,18,366.62Z"/><path d="M174.43,93.55l7.75-15.49h40.37l8,15.49-7.28,4.69s-4-7.74-15.25-7.74v42.71s.58,5.31,3.19,7.91l-2.61,9h-12L193.22,141s3.23-2.6,3.23-9.17V90.58s-10-1.61-14.75,7.56Z"/><path d="M239.23,78.06h12.45l3.12,8.74a13.19,13.19,0,0,0-3.38,8.3v13.37h21.8V93.93s-.13-4.8-3.12-6.35l3.64-9.52h11.41l3.51,8.61s-3.64,4-3.64,11.68v33.34s-.77,7.52,3.64,10.51l-2.86,8H273.09L270,141.81s3.24-2.08,3.24-7.79v-13.1h-21.8V134s0,6.36,3.12,7.92l-2.73,8.22H239.23l-3-7.58a16.66,16.66,0,0,0,3.38-9.47V94.71s-.13-6-3.38-7.91Z"/><path d="M297.3,94.63a11,11,0,0,0-3.23-7.35l3.23-9.22h36.31l8.68,16-7.94,4.71s-5.44-8.09-11.47-8.09H309.5V108.3h14.7l3.24,12.79H309.5v17.35h13.23s5.44.88,11.62-7.64l7.94,4.26-7.65,15.1h-37l-3.53-7.31s3.53-4.7,3.53-10.14S297.3,94.63,297.3,94.63Z"/><path d="M75,235.6l-18.3,26.27S61.23,291,74.81,299.7l-3.36,20L51.32,326.4l-7.48-13.88,1.37-6.87-11.74-40-7,1.84v34s.45,8.52,5,11.43l-4.89,22L5,343.78,0,324.56a70.07,70.07,0,0,0,4.43-23.73V212.65S5,204.08,0,192.24l4.45-21.89h55L77.21,188.1a44.56,44.56,0,0,0-5,20.72v19.23S72.49,233.13,75,235.6ZM50.09,205l-4.27-6.26-19.36.78v38.43l18.6-2.9,5-7Z"/><path d="M81.37,188.15l5.06-19,54.45.38,14,28.81-14.53,10.36s-6.82-14.28-19.2-14.28H108.79l-.89,32.22,16.68-1.77,5,24.64-22.23,2.9v31.46s21.67,1.58,32.22-20.59l13.13,6.82L139,302.62s-38,6.57-53.44,12.76l-5.81-18.45s5.18-8.59,5.18-13.39V201.31S85.29,192.07,81.37,188.15Z"/><path d="M159.42,187l5.24-17.77h21.65L213.2,241l28.07-71.82h21l5.9,16.72-5.24,10v69.39s1.7,7.74,5.77,10.37l-5.51,15.74h-22.3l-5.38-15.87,4.72-7.22V233.41l-10.1,28.2s-3.8,8,1,14.69l-6.56,16L201,293.88l-5.77-16s4.06-6,2.36-11.55-11.41-29.51-11.41-29.51v31.35s1,7.48,5.24,10.49l-6.16,16.8-21.78,3-5-16.53S164,273,164,266.6V200.22S164.4,192,159.42,187Z"/><path d="M357.72,281.27l-4,17.41-20.17-2.88L327,277.47l2.42-4.49-2.31-8.07-23.16-2.18L302.63,270l2.55,4.95-7,17.42-20.28-.7-4.16-17.41s5.66-5.17,7.27-12.56l12.79-63s1.16-9.22-1.62-12a3.67,3.67,0,0,1-.22-4.38l7.48-13.08h31.23l8,15.05-2.77,8.17,14.64,73.87S352,275.51,357.72,281.27ZM323,243.7l-7.32-38.83-7.9,38.37Z"/><path d="M440.09,290.51l-18.62,22.07s-42.14-9.95-53.36-11.58l-5.42-18.09s4.88-5.06,4.88-11.2V199.35s-.66-8.75-6.38-12.69l4.95-16.47h53.7L439,196.8l-4.61,8.76V280Zm-27.49-85.9L407,195l-18.44-.73,1.63,86.09,17.72,3.81,4.7-7.79Z"/><path d="M443.53,189.41l4.7-20.44,54.08,1.22,14.41,38.21-13.5,10.49s-8.18-21.16-20.73-20.25l-11.65-.55v36.54L488,237.16l4.89,30.75-21.53-4.71v36l9.09,2.65c1.72.51,3.41,1.1,5.11,1.65,2.86.93,10.44,1.63,17.45-13L516.72,307l-13.87,32.74s-39.06-15.74-53.35-19l-4.7-20.8a20.11,20.11,0,0,0,4.7-13.21c0-8.31-.72-79.21-.72-79.21S448.78,194.66,443.53,189.41Z"/><polygon points="187.8 367.29 192.68 369.36 192.68 365.31 193.8 363.27 189.72 359.92 180.32 359.92 176.17 362.83 176.17 364.64 177.38 365.85 177.38 374.34 187.82 377.98 187.82 381.33 187.02 383.01 181.78 383.01 181.78 380.61 177.48 378.86 177.48 382.79 176.17 384.54 179.88 388.25 189.35 388.25 193.8 385.05 193.8 383.74 192.78 382.72 192.78 374.7 181.78 370.12 181.78 366.25 183.34 364.69 187.68 364.69 187.8 367.29"/><polygon points="196.13 359.92 201.3 359.92 202.61 362.98 201.01 365.38 201.01 383.08 202.61 384.69 201.16 388.25 196.57 388.25 194.82 385.05 196.2 383.3 196.2 365.89 194.82 363.27 196.13 359.92"/><polygon points="205.09 359.92 210.77 359.92 216.53 375.14 216.53 365.09 215.14 362.76 216.53 359.92 221.48 359.92 222.94 362.98 221.12 364.8 221.12 382.43 222.94 384.54 221.41 388.25 216.24 388.25 209.97 372.3 209.97 382.5 211.72 385.41 210.04 388.25 205.46 388.25 203.56 384.76 205.16 382.43 205.16 365.16 203.85 362.9 205.09 359.92"/><polygon points="227.95 359.92 237.83 359.92 241.19 363.28 240.23 364.25 240.23 368.75 235.29 367.12 235.29 364.34 231.3 364.34 229.82 365.82 229.82 381.12 231.4 382.69 235.38 382.69 235.38 376.35 240.57 378.46 240.57 383.01 241.86 384.29 237.9 388.25 227.95 388.25 223.83 384.72 225.51 383.05 225.51 364.76 223.83 363.09 227.95 359.92"/><polygon points="243.75 359.92 256.54 359.92 259.98 365.62 256.77 367.85 253.37 364.25 248.81 364.25 248.81 370.99 252.55 370.99 254.52 376.18 248.73 376.18 248.73 382.71 253.58 382.71 256.45 379.83 259.98 381.72 256.5 388.25 244.31 388.25 242.33 384.29 243.77 382.86 243.77 365.36 242.33 363.13 243.75 359.92"/><polygon points="274.79 359.92 284.67 359.92 288.71 362.6 286.79 364.52 286.79 370.58 288.71 372.11 284.56 376.27 276.97 376.27 276.97 382.93 282.68 382.93 285.65 379.5 288.9 381.95 285.51 388.25 274.46 388.25 270.75 384.91 272.23 382.19 272.23 377.41 270.75 374.9 274.48 371.16 281.29 371.16 282.9 369.55 282.9 364.55 276.97 364.55 276.97 366.64 271.81 368.82 271.81 364.96 270.75 362.78 274.79 359.92"/><path d="M308.53,384.47l-3.91,3.9H294.33l-4.19-4.17,1.4-1.41V365.62l-1.4-2.93,4-2.77h10l3.64,3.64-1.22,1.22v17.69ZM302,366.07l-1.39-1.38h-3l-1.39,1.38.07,15.3,1.05,1.05h3.38l1.26-1.26Z"/><polygon points="309.46 365.89 312.9 359.92 319.3 359.92 320.83 362.9 319.16 365.48 319.16 383.3 320.83 384.46 319.44 388.37 314.8 388.37 312.9 384.46 314.62 382.74 314.62 365.66 313.5 368.31 309.46 365.89"/><polygon points="325.29 359.92 336.66 359.92 340.1 365.34 337.08 367.7 333.74 364.18 328.22 364.18 328.22 368.96 329.51 370.26 335.6 370.26 339.01 373.67 339.01 382.47 340.55 384.01 336.4 388.16 326.45 388.16 322.37 384.91 322.37 379.03 327.89 381.17 327.89 383.12 334.02 383.12 334.02 377.59 332.35 375.92 326.22 375.92 322.11 371.81 323.41 370.51 323.41 364.36 322.18 363.13 325.29 359.92"/><polygon points="272.36 420.66 262.04 420.66 258.36 410.6 254.69 420.66 244.37 420.66 252.41 427.4 248.83 437.81 258.36 431.25 267.89 437.81 264.31 427.4 272.36 420.66"/></g></g></svg>