<svg width="682" height="72" viewBox="0 0 682 72" fill="none" xmlns="http://www.w3.org/2000/svg">
<path d="M14.4845 14.245H71.1445V0.915039H27.7945L14.4845 14.245Z" fill="#80FF00"/>
<path d="M0.894531 71.085H14.4845V14.235L0.894531 27.555V71.085Z" fill="#80FF00"/>
<path d="M90.4645 71.085V0.915039L77.1445 14.235V71.085H90.4645Z" fill="#80FF00"/>
<path d="M90.4645 42.645H120.805L134.085 29.375V71.085H147.295L147.395 0.915039L134.085 14.235V29.375L103.735 29.365L90.4645 42.645Z" fill="#80FF00"/>
<path d="M223.565 0.915039H180.035L166.715 14.245H223.565V0.915039Z" fill="#80FF00"/>
<path d="M223.565 42.665V29.345H180.035L166.715 42.665H223.565Z" fill="#80FF00"/>
<path d="M166.725 14.235V71.085H153.395V31.915L153.405 27.555L166.725 14.235Z" fill="#80FF00"/>
<path d="M223.565 57.765H180.035L166.715 71.085H223.565V57.765Z" fill="#80FF00"/>
<path d="M229.565 27.765L243.085 14.245V42.555L256.275 29.375H286.615L273.345 42.645H243.085L243.145 71.085H229.565V27.765Z" fill="#80FF00"/>
<path d="M299.805 0.915039V16.105L286.665 29.245V14.245H243.085V14.235L256.405 0.915039H299.805Z" fill="#80FF00"/>
<path d="M299.805 42.615V68.905L299.795 71.085H286.435L286.665 29.375L299.805 42.615Z" fill="#80FF00"/>
<path d="M376.185 14.245H319.335V14.235L332.655 0.915039H376.185V14.245Z" fill="#80FF00"/>
<path d="M319.335 14.245V42.655L332.655 29.335H376.185V42.665H319.335V57.755H376.175L376.065 71.085H305.805V27.765L319.325 14.245H319.335Z" fill="#80FF00"/>
<path d="M410.734 71.085V14.245L424.055 27.545V71.085H410.734Z" fill="#80FF00"/>
<path d="M439.155 14.245H382.315L395.615 27.545L395.375 71.085H382.185V0.915039H425.845L439.155 14.235V14.245Z" fill="#80FF00"/>
<path d="M452.354 27.435V71.085H438.875L439.155 14.245L452.354 27.435Z" fill="#80FF00"/>
<path d="M528.594 0.915039V71.085H515.195L515.424 29.405L502.194 42.645H471.934V57.775L458.354 71.085V27.825L471.934 14.245V42.555L485.124 29.375H515.424L515.505 14.245H471.934L485.254 0.915039H528.594Z" fill="#80FF00"/>
<path d="M604.935 27.555V44.465L578.315 71.085H534.594V0.915039H578.305L591.625 14.245H548.094V57.775H591.625V14.255L604.935 27.555Z" fill="#80FF00"/>
<path d="M681.094 0.92004H637.565L624.245 14.24H681.094V0.92004Z" fill="#80FF00"/>
<path d="M681.094 29.34H637.565L624.245 42.66H681.094V29.34Z" fill="#80FF00"/>
<path d="M610.935 27.55V71.08H624.245V42.66V14.24V14.23L610.935 27.55Z" fill="#80FF00"/>
<path d="M681.104 57.76H637.565L624.245 71.08H681.104V57.76Z" fill="#80FF00"/>
</svg>
