<svg width="115" height="116" viewBox="0 0 115 116" fill="none" xmlns="http://www.w3.org/2000/svg">
<path d="M74.5839 108.71C71.7558 108.065 66.7079 106.792 66.7079 106.792C64.7808 106.251 62.9003 105.554 61.0845 104.709C65.1577 101.619 68.6443 97.8166 71.3776 93.4844L66.1488 94.4928C63.9059 97.8776 60.9257 100.704 57.4342 102.758C53.9428 100.704 50.9625 97.8776 48.7196 94.4928L43.4908 93.4844C46.2281 97.8136 49.7142 101.615 53.784 104.709C51.9693 105.557 50.0885 106.254 48.1606 106.792C48.1606 106.792 43.1127 108.065 40.2845 108.71C40.2845 108.71 35.3517 109.9 34.8585 112.314L36.996 116C36.996 116 41.4191 111.751 46.4012 111.437C50.3073 110.697 54.0462 109.246 57.4342 107.156C60.8222 109.246 64.5611 110.697 68.4673 111.437C73.4001 111.751 77.8725 116 77.8725 116L80.01 112.314C79.451 109.9 74.5839 108.71 74.5839 108.71Z" fill="url(#paint0_linear_568_11409)"/>
<path d="M67.4149 103.188C68.972 102.723 70.3129 101.715 71.1967 100.345C72.6404 98.211 73.974 96.0039 75.1923 93.7324C75.3074 93.4679 75.4061 93.2199 75.5376 92.9719C76.5406 91.1204 80.4704 84.5906 84.7291 86.3594C84.0951 87.9538 83.6535 89.6188 83.4136 91.3188C83.4136 91.3188 82.2462 98.6917 76.3762 100.031C77.5718 98.4497 78.5302 96.7008 79.2208 94.84C79.6976 93.4017 80.2731 91.9966 80.865 90.5914C80.865 90.5914 79.4181 90.8725 76.9846 96.2947C76.9846 96.1955 73.2027 105.106 67.4149 103.188Z" fill="url(#paint1_linear_568_11409)"/>
<path d="M72.6437 103.899C74.1813 104.019 75.6741 104.476 77.0174 105.238C78.8295 104.865 80.6761 104.687 82.5257 104.709C84.1855 104.739 85.8424 104.561 87.4585 104.18C91.0924 103.321 96.0252 101.072 96.4033 95.3194C94.6094 96.1981 92.6898 96.7893 90.7142 97.0717C90.7142 97.0717 81.5392 98.0966 79.3194 100.626C80.5427 100.496 81.7742 100.463 83.0026 100.527C83.9008 100.576 84.801 100.576 85.6992 100.527C87.7354 100.532 89.7564 100.174 91.6679 99.4687C91.6679 99.4687 89.9249 101.816 83.8576 101.816C83.8576 101.816 75.7514 101.138 72.6437 103.899Z" fill="url(#paint2_linear_568_11409)"/>
<path d="M83.2492 96.6915C83.2492 96.6915 85.5512 95.7657 86.5377 96.2286C86.5377 96.2286 88.7575 94.4267 89.0864 88.2936C89.0864 88.2936 89.6454 81.9456 90.04 80.4577L87.6065 79.78C86.8277 81.7844 86.3618 83.8978 86.2253 86.0453C86.1782 87.7113 85.9912 89.3704 85.6663 91.0047C85.2059 93.2199 84.4331 95.8814 83.2492 96.6915Z" fill="url(#paint3_linear_568_11409)"/>
<path d="M91.0595 80.6892L93.641 81.3835C93.6712 84.412 92.6079 87.3488 90.6484 89.6491C90.6484 89.6491 91.5528 81.5984 91.0595 80.6892Z" fill="url(#paint4_linear_568_11409)"/>
<path d="M95.9758 81.9456L99.6425 83.0862L98.9355 84.012C97.4964 83.7361 96.0066 83.9946 94.7426 84.7393C94.7467 84.2135 94.8583 83.6942 95.0705 83.2136C95.2826 82.733 95.5908 82.3014 95.9758 81.9456Z" fill="url(#paint5_linear_568_11409)"/>
<path d="M101.649 83.9293L104.658 85.2022C104.658 85.2022 102.684 86.4751 101.895 87.0868C101.454 87.4495 100.981 87.7704 100.481 88.0456C98.1164 89.2844 95.4852 89.9202 92.8188 89.8971C92.8188 89.8971 93.9041 87.5662 98.2449 85.632L99.8892 84.8385L101.649 83.9293Z" fill="url(#paint6_linear_568_11409)"/>
<path d="M88.5602 96.2121C88.5602 96.2121 94.1507 94.5589 96.3705 93.9803C97.8843 93.6688 99.3614 93.1979 100.777 92.5752C103.227 91.4345 106.236 89.5004 107.354 86.6404L105.036 85.4006C105.036 85.4006 104.164 88.9052 98.9191 90.36L97.0117 90.7898C94.8169 91.4442 92.565 91.887 90.2867 92.1123C90.095 93.6119 89.4978 95.0299 88.5602 96.2121Z" fill="url(#paint7_linear_568_11409)"/>
<path d="M89.3659 34.7157H95.8607C95.8607 34.7157 91.2732 30.8639 91.6021 29.6571C90.3583 31.0728 89.5776 32.8388 89.3659 34.7157Z" fill="url(#paint8_linear_568_11409)"/>
<path d="M103.441 34.7157H106.433L106.762 30.368C107.578 31.6634 107.964 33.1857 107.864 34.7157H110.939C110.939 34.7157 112.123 28.1032 104.115 24.7969C104.262 28.1181 104.036 31.4454 103.441 34.7157Z" fill="url(#paint9_linear_568_11409)"/>
<path d="M99.2644 34.7157H100.136C100.232 34.3407 100.404 33.9899 100.642 33.6854C100.879 33.3809 101.177 33.1294 101.517 32.9468C101.393 31.0735 101.57 29.1922 102.043 27.3758C102.043 27.3758 107.371 14.9608 96.6829 12.2827C97.0305 13.397 97.2241 14.554 97.2584 15.7212C97.2584 15.7212 96.9131 24.1687 98.6889 26.2847C98.8097 25.2652 98.9964 24.2546 99.2479 23.2595C99.3907 22.8401 99.4952 22.4085 99.5603 21.9701C99.7601 20.0713 99.6266 18.1521 99.1657 16.2998C99.1657 16.2998 102.356 18.6473 100.021 24.9953C100.021 24.9953 98.1463 30.8804 99.2644 34.7157Z" fill="url(#paint10_linear_568_11409)"/>
<path d="M97.5543 32.7319V29.7563C96.4115 28.8613 95.2143 28.0387 93.9698 27.2931C93.9698 27.2931 89.1192 24.7473 89.1192 21.937C90.5458 23.8508 92.4366 25.3648 94.6111 26.3343C94.6111 26.3343 97.1433 27.5246 97.5543 28.4007C97.5543 28.4007 97.6365 24.4828 92.7366 21.5568C92.7366 21.5568 87.5736 18.7134 87.7052 17.4901C87.7052 17.4901 83.8905 22.4495 89.9907 27.227C91.8981 28.5661 93.8218 29.8886 95.795 31.1449C96.6007 31.6409 97.4886 32.3021 97.5543 32.7319Z" fill="url(#paint11_linear_568_11409)"/>
<path d="M93.8712 20.4327C92.9395 19.2716 91.7666 18.3293 90.4347 17.6719C90.0894 17.4736 89.7441 17.2917 89.3823 17.1264C87.8532 16.366 80.3882 12.167 84.5482 5.30654C84.5482 5.30654 84.9757 6.82742 88.1985 8.11686C88.1985 8.11686 97.1268 11.2247 95.5648 19.2424C94.2897 16.5377 92.3623 14.1964 89.9578 12.4315C89.6976 12.2489 89.4226 12.0885 89.1357 11.9521C88.3958 11.5884 86.8337 10.7453 86.7679 10.1171C86.7679 10.1171 86.2911 10.9768 88.4122 12.9936C88.873 13.438 89.3619 13.8521 89.8756 14.2334C90.9115 15.06 93.8712 17.5232 93.8712 20.4327Z" fill="url(#paint12_linear_568_11409)"/>
<path d="M47.4535 103.188C45.8985 102.719 44.5587 101.712 43.6717 100.345C42.2281 98.211 40.8945 96.0039 39.6761 93.7324C39.5779 93.4715 39.4625 93.2175 39.3309 92.9719C38.3443 91.1204 34.3981 84.5906 30.1394 86.3594C30.7841 87.9513 31.2314 89.617 31.4713 91.3188C31.4713 91.3188 32.6222 98.6917 38.4923 100.031C37.3034 98.4453 36.3456 96.6974 35.6477 94.84C35.1709 93.4017 34.6118 91.9966 34.0034 90.5914C34.0034 90.5914 35.4504 90.8725 37.9003 96.2947C37.9003 96.1955 41.6822 105.106 47.4535 103.188Z" fill="url(#paint13_linear_568_11409)"/>
<path d="M42.2248 103.899C40.692 104.018 39.2041 104.475 37.8675 105.238C36.0497 104.865 34.1977 104.688 32.3427 104.709C30.683 104.738 29.0262 104.56 27.4099 104.18C23.7925 103.321 18.8597 101.072 18.4816 95.3194C20.2755 96.1981 22.1951 96.7893 24.1707 97.0717C24.1707 97.0717 33.3293 98.0966 35.549 100.626C34.3258 100.496 33.0943 100.463 31.8659 100.527C30.9732 100.576 30.0784 100.576 29.1857 100.527C27.1493 100.536 25.1277 100.177 23.217 99.4687C23.217 99.4687 24.9764 101.734 31.0602 101.734C31.0438 101.816 39.1171 101.138 42.2248 103.899Z" fill="url(#paint14_linear_568_11409)"/>
<path d="M31.6192 96.6915C31.6192 96.6915 29.3337 95.7657 28.3307 96.2286C28.3307 96.2286 26.0945 94.4267 25.7821 88.2936C25.7821 88.2936 25.2066 81.9456 24.812 80.4577L27.2455 79.78C28.0252 81.7849 28.4965 83.8976 28.6431 86.0453C28.6846 87.7109 28.8662 89.3699 29.1857 91.0047C29.5968 93.2199 30.4354 95.8814 31.6192 96.6915Z" fill="url(#paint15_linear_568_11409)"/>
<path d="M23.809 80.6892L21.2275 81.3835C21.1973 84.412 22.2605 87.3488 24.22 89.6491C24.22 89.6491 23.3157 81.5984 23.809 80.6892Z" fill="url(#paint16_linear_568_11409)"/>
<path d="M18.8926 81.9456L15.2424 83.0862L15.9329 84.012C17.3721 83.7361 18.8619 83.9946 20.1258 84.7393C20.1268 84.2127 20.0174 83.6918 19.805 83.2105C19.5925 82.7292 19.2816 82.2982 18.8926 81.9456Z" fill="url(#paint17_linear_568_11409)"/>
<path d="M13.1541 83.9293L10.1451 85.2022C10.1451 85.2022 12.1182 86.4751 12.9075 87.0868C13.3512 87.4457 13.8243 87.7665 14.3216 88.0456C16.6863 89.2844 19.3175 89.9202 21.9838 89.8971C21.9838 89.8971 20.8986 87.5662 16.5578 85.632C16.0152 85.3841 15.4725 85.103 14.9135 84.8385L13.1541 83.9293Z" fill="url(#paint18_linear_568_11409)"/>
<path d="M26.3083 96.2121C26.3083 96.2121 20.7342 94.5589 18.498 93.9803C16.9888 93.6713 15.5169 93.2003 14.1078 92.5752C11.6414 91.4345 8.6324 89.5004 7.53074 86.6404L9.8656 85.3345C9.8656 85.3345 10.7371 88.8391 15.9823 90.2939L17.8403 90.8063C20.0352 91.4607 22.287 91.9035 24.5653 92.1288C24.7647 93.6243 25.3675 95.0364 26.3083 96.2121Z" fill="url(#paint19_linear_568_11409)"/>
<path d="M25.519 34.7157H18.942C18.942 34.7157 23.5295 30.8639 23.2006 29.6571C24.4761 31.061 25.2863 32.8287 25.519 34.7157Z" fill="url(#paint20_linear_568_11409)"/>
<path d="M11.5099 34.7157H8.43509L8.10623 30.368C7.29042 31.6634 6.90468 33.1857 7.00458 34.7157H3.9298C3.9298 34.7157 2.74593 28.1032 10.7535 24.7969C10.6338 28.1213 10.8875 31.4486 11.5099 34.7157Z" fill="url(#paint21_linear_568_11409)"/>
<path d="M15.6041 34.7157H14.7984C14.7026 34.3407 14.5304 33.9899 14.2926 33.6854C14.0549 33.3809 13.7568 33.1294 13.4172 32.9468C13.5415 31.0735 13.3638 29.1922 12.891 27.3758C12.891 27.3758 7.49785 14.9608 18.202 12.2827C17.8474 13.3959 17.6482 14.5531 17.6101 15.7212C17.6101 15.7212 17.9554 24.1687 16.196 26.2847C16.0671 25.2653 15.8749 24.2549 15.6205 23.2595C15.4855 22.8379 15.381 22.4069 15.3081 21.9701C15.1074 20.0705 15.2466 18.1501 15.7192 16.2998C15.7192 16.2998 12.5293 18.6473 14.7984 24.9953C14.7984 24.9953 16.7222 30.8804 15.6041 34.7157Z" fill="url(#paint22_linear_568_11409)"/>
<path d="M17.3141 32.7319V29.7563C18.4604 28.8581 19.6632 28.0353 20.9151 27.2931C20.9151 27.2931 25.7492 24.7473 25.7492 21.937C24.3262 23.8475 22.4415 25.3611 20.2738 26.3343C20.2738 26.3343 17.7252 27.5246 17.3141 28.4007C17.3141 28.4007 17.3141 24.4828 22.1318 21.5568C22.1318 21.5568 27.2948 18.7134 27.1633 17.4901C27.1633 17.4901 30.978 22.4495 24.8942 27.227C22.9868 28.5661 21.0631 29.8886 19.1064 31.1449C18.2678 31.6409 17.3799 32.3021 17.3141 32.7319Z" fill="url(#paint23_linear_568_11409)"/>
<path d="M21.0137 20.4327C21.9498 19.2626 23.1355 18.3191 24.4831 17.6719C24.8284 17.4736 25.1902 17.2917 25.5355 17.1264C27.0646 16.366 34.5296 12.167 30.3696 5.30654C30.3696 5.30654 29.9421 6.82742 26.7193 8.11686C26.7193 8.11686 17.791 11.2247 19.353 19.2424C20.6281 16.5377 22.5555 14.1964 24.96 12.4315C25.2246 12.2559 25.4991 12.0958 25.7821 11.9521C26.5385 11.5884 28.0841 10.7453 28.1498 10.1171C28.1498 10.1171 28.6267 10.9768 26.5056 12.9936C26.0484 13.442 25.5593 13.8564 25.0422 14.2334C23.9734 15.06 21.0137 17.5232 21.0137 20.4327Z" fill="url(#paint24_linear_568_11409)"/>
<path d="M43.4086 12.2827C52.7174 10.4232 62.2991 10.4232 71.6078 12.2827L75.7185 3.12441L74.5839 2.77726C74.5839 2.77726 72.1833 7.38948 64.8992 6.61251C57.6151 5.83554 58.5359 0 58.5359 0H56.4806C56.4806 0 57.6809 5.04204 49.9035 6.61251C42.1261 8.18298 40.6134 2.66154 40.6134 2.66154L39.1335 3.30626L43.4086 12.2827Z" fill="url(#paint25_linear_568_11409)"/>
<path d="M4.01201 81.9456L5.34387 83.9293C5.34387 83.9293 23.3157 73.6634 57.2369 73.6634C57.2369 73.6634 87.9354 73.0352 109.311 83.9293L110.955 81.9456C110.955 81.9456 96.6335 70.1918 57.3191 70.1918C57.2369 70.1918 25.4204 68.8693 4.01201 81.9456Z" fill="url(#paint26_linear_568_11409)"/>
<path d="M38.7718 20.9121L40.4983 17.4405H49.476L51.2518 20.9121L49.6075 21.9535C49.2393 21.4009 48.7316 20.9566 48.1364 20.6661C47.5413 20.3756 46.88 20.2494 46.2203 20.3004V29.7563C46.2898 30.4001 46.5344 31.0121 46.9274 31.5252L46.3683 33.5585H43.7046L42.9482 31.5086C43.2083 31.2393 43.4075 30.9167 43.5323 30.563C43.6572 30.2093 43.7047 29.8326 43.6717 29.4587V20.2508C43.0221 20.1657 42.3621 20.2776 41.7762 20.5722C41.1903 20.8667 40.7052 21.3304 40.3832 21.9039L38.7718 20.9121Z" fill="url(#paint27_linear_568_11409)"/>
<path d="M53.1756 17.4405H55.9051L56.5956 19.4077C56.1587 19.9256 55.9146 20.5802 55.9051 21.2592V24.2349H60.7556V20.9286C60.7556 20.9286 60.7556 19.8541 60.0651 19.5069L60.8379 17.4405H63.37L64.1264 19.3747C63.5648 20.1251 63.2799 21.0484 63.3207 21.9866V29.4257C63.3207 29.4257 63.1398 31.0788 64.1264 31.7897L63.4851 33.5585H60.7063L60.0157 31.6905C60.2676 31.4821 60.4651 31.2151 60.5912 30.9126C60.7173 30.6102 60.7681 30.2813 60.7392 29.9547V27.0286H55.9051V29.9547C55.9051 29.9547 55.9051 31.3764 56.5956 31.7235L56.0037 33.5585H53.1756L52.5179 31.9054C52.9885 31.2868 53.2532 30.5348 53.2742 29.7563V21.1766C53.2742 21.1766 53.2742 19.8375 52.5179 19.4077L53.1756 17.4405Z" fill="url(#paint28_linear_568_11409)"/>
<path d="M66.0995 21.1435C66.0769 20.5199 65.8181 19.9285 65.376 19.4904L66.0995 17.424H74.1729L76.0967 21.0113L74.3208 22.0527C74.3208 22.0527 73.1205 20.2508 71.7722 20.2508H68.8125V24.1853H72.1011L72.8246 27.0452H68.8125V30.93H71.7393C71.7393 30.93 72.9561 31.1284 74.3208 29.2769L76.0967 30.2357L74.4524 33.542H66.2311L65.4418 31.8888C65.9167 31.2263 66.1908 30.4397 66.2311 29.6241C66.1653 28.4503 66.0995 21.1435 66.0995 21.1435Z" fill="url(#paint29_linear_568_11409)"/>
<path d="M16.048 50.9659V46.6678C16.0412 45.0565 16.425 43.4678 17.1661 42.039L13.1541 38.0219H0.98656L0 42.9813C0.652477 44.4128 0.989037 45.9693 0.98656 47.544V67.2327C0.96549 69.0456 0.631685 70.8411 0 72.5393L1.10166 76.8374L5.91936 74.8536L7.00458 69.8943C5.98513 69.2495 5.88647 67.3484 5.88647 67.3484V59.7441L7.53074 59.3308L10.1287 68.2577L9.83271 69.7951L11.477 72.9029L15.9494 71.3986L16.6893 66.9352C13.6803 65.001 12.6609 58.4877 12.6609 58.4877L16.7222 52.6025C16.3427 52.1353 16.1082 51.5661 16.048 50.9659ZM11.1152 50.9659L9.99714 52.6191L5.87003 53.2638V44.6345L10.1616 44.4691L11.1152 45.8578V50.9659Z" fill="url(#paint30_linear_568_11409)"/>
<path d="M18.0869 42.0556L19.2215 37.8236L31.3233 37.9062L34.4309 44.3369L31.1424 46.6513C31.1424 46.6513 29.6297 43.4607 26.8673 43.4607H24.1872L23.9898 50.6684L27.6894 50.2716L28.824 55.7765L23.8912 56.4213V63.4636C25.4045 63.4869 26.8911 63.062 28.1659 62.2419C29.4407 61.4217 30.4472 60.2426 31.0602 58.8514L33.9705 60.3722L30.9122 67.6295C26.8929 68.3005 22.9259 69.2561 19.0406 70.4894L17.7416 66.3731C18.3087 65.4572 18.6991 64.4421 18.8926 63.3809V44.9981C18.9501 43.9552 18.6672 42.922 18.0869 42.0556Z" fill="url(#paint31_linear_568_11409)"/>
<path d="M35.4339 41.7911L36.6014 37.8236H41.4191L47.4042 53.8754L53.636 37.8236H58.3057L59.6211 41.5596L58.4537 43.7748V59.2977C58.6344 60.1834 59.0822 60.9915 59.7362 61.6121L58.503 65.1333H53.5702L52.3699 61.579L53.4222 59.9259V52.1727L51.1696 58.4711C50.9331 58.9992 50.8319 59.5783 50.8749 60.1558C50.918 60.7333 51.1041 61.2907 51.4162 61.7774L49.9528 65.3482L44.7076 65.6953L43.4251 62.1246C43.6756 61.7439 43.8483 61.3169 43.933 60.8685C44.0177 60.42 44.0127 59.9591 43.9184 59.5126C43.5402 58.2728 41.3862 52.9001 41.3862 52.9001V59.9094C41.5017 60.8016 41.913 61.6286 42.5536 62.2568L41.1889 66.1251L36.3383 66.7864L35.2366 63.0999C35.9026 62.01 36.3183 60.7845 36.4534 59.5126V44.6345C36.4672 43.5938 36.1049 42.5835 35.4339 41.7911Z" fill="url(#paint32_linear_568_11409)"/>
<path d="M77.9053 59.5126L74.6168 42.9813L75.2252 41.1464L73.4494 37.8401H66.5599L64.9156 40.7496C64.8114 40.8937 64.7552 41.0673 64.7552 41.2455C64.7552 41.4238 64.8114 41.5974 64.9156 41.7415C65.5405 42.3531 65.2774 44.4196 65.2774 44.4196L62.4821 58.4877C62.2009 59.5584 61.6321 60.5307 60.8379 61.298L61.7587 65.1828L66.2639 65.3482L67.826 61.4468L67.2669 60.3392L67.5465 58.686L72.693 59.182L73.2027 60.9839L72.6766 61.9758L74.14 66.1251L78.6288 66.7698L79.5332 62.8189C78.7073 61.8822 78.1453 60.7408 77.9053 59.5126ZM68.4344 54.3714L70.1937 45.7917L71.838 54.4706L68.4344 54.3714Z" fill="url(#paint33_linear_568_11409)"/>
<path d="M96.5678 62.5874V45.9404L97.5872 43.9897L93.3286 38.0219H81.3912L80.2895 41.7084C80.7114 42.0744 81.0555 42.5221 81.3013 43.0249C81.5471 43.5277 81.6895 44.0751 81.72 44.6345V60.8186C81.6158 61.7299 81.2105 62.5797 80.5691 63.2322L81.7694 67.2823C84.2687 67.646 93.6245 69.8612 93.6245 69.8612L97.7681 64.9018L96.5678 62.5874ZM91.7336 61.7774L90.6813 63.5132L86.7351 62.6701L86.3733 43.4277L90.484 43.593L91.7336 45.7255V61.7774Z" fill="url(#paint34_linear_568_11409)"/>
<path d="M98.656 42.3366L99.6919 37.774L111.711 38.0385L115 46.5852L111.81 48.9161C111.81 48.9161 109.985 44.1881 107.19 44.403L104.608 44.2708V52.4372L108.423 52.9993L109.508 59.8763L104.723 58.8348V66.869L106.746 67.4642L107.88 67.8278C108.522 68.0428 110.199 68.1915 111.761 64.9349L114.803 68.6048L111.81 75.9282C111.81 75.9282 103.128 72.407 99.9385 71.6796L98.9026 67.0343C99.5888 66.2042 99.9563 65.1544 99.9385 64.0752C99.9385 62.2237 99.7905 46.3702 99.7905 46.3702C99.8284 44.9411 99.4326 43.5342 98.656 42.3366Z" fill="url(#paint35_linear_568_11409)"/>
<path d="M41.7479 82.0943L42.8331 82.5572V81.648L43.0798 81.2017L42.1754 80.4412H40.0872L39.1664 81.1025V81.4992L39.4295 81.7637V83.6648L41.7479 84.4748V85.2353L41.5835 85.599H40.4161V85.07L39.4624 84.6732V85.5659L39.1664 85.9461L39.9886 86.7727H42.0932L43.0798 86.0619V85.7643L42.8496 85.5329V83.7475L40.4161 82.7225V81.8629L40.7614 81.5158H41.7315L41.7479 82.0943Z" fill="url(#paint36_linear_568_11409)"/>
<path d="M43.6059 80.4412H44.7569L45.0365 81.1355L44.6912 81.6645V85.6155L45.0365 85.9792L44.724 86.7727H43.7046L43.31 86.0619L43.6224 85.6651V81.7803L43.31 81.2017L43.6059 80.4412Z" fill="url(#paint37_linear_568_11409)"/>
<path d="M45.5955 80.4412H46.8616L48.1277 83.8467V81.5984L47.8317 81.0859L48.1277 80.4412H49.2458L49.5582 81.1355L49.1636 81.5323V85.4667L49.5582 85.9461L49.2129 86.7727H48.0784L46.6807 83.2185V85.4998L47.0753 86.1445L46.6972 86.7727H45.6777L45.2502 85.9957L45.612 85.4667V81.6149L45.316 81.119L45.5955 80.4412Z" fill="url(#paint38_linear_568_11409)"/>
<path d="M50.6763 80.4412H52.8796L53.6195 81.2017L53.4058 81.4166V82.425L52.3041 82.0613V81.4331H51.4162L51.0874 81.7637V85.1857L51.4491 85.5329H52.3206V84.1112L53.488 84.5906V85.599L53.7675 85.8965L52.8796 86.7727H50.6763L49.7555 85.9957L50.1337 85.6155V81.5323L49.7555 81.1521L50.6763 80.4412Z" fill="url(#paint39_linear_568_11409)"/>
<path d="M54.195 80.4412H57.0396L57.796 81.7141L57.0889 82.2101L56.3326 81.4166H55.3131V82.9209H56.1517L56.5792 84.0781H55.2967V85.5329H56.3655L57.0067 84.8881L57.796 85.3179L57.0232 86.7727H54.3101L53.8662 85.8965L54.195 85.5659V81.6645L53.8662 81.1686L54.195 80.4412Z" fill="url(#paint40_linear_568_11409)"/>
<path d="M61.0845 80.4412H63.2878L64.1757 81.0363L63.7482 81.4662V82.8217L64.1757 83.1689L63.2549 84.0946H61.5778V85.5824H62.8439L63.5016 84.822L64.2251 85.3675L63.4687 86.7727H61.0187L60.1966 86.0288L60.5255 85.4171V84.3591L60.1966 83.7971L61.0187 82.954H62.5315L62.8932 82.5903V81.4827H61.5778V81.9456L60.4268 82.4415V81.5653L60.1966 81.0859L61.0845 80.4412Z" fill="url(#paint41_linear_568_11409)"/>
<path d="M68.1384 85.4833V81.5323L68.4179 81.2513L67.6122 80.4412H65.3925L64.5046 81.0694L64.817 81.7141V85.5494L64.5046 85.8635L65.4254 86.8058H67.7273L68.5824 85.9296L68.1384 85.4833ZM67.1354 85.1857L66.8559 85.4667H66.0995L65.8693 85.2353V81.8133L66.1817 81.5158H66.8394L67.1518 81.8133L67.1354 85.1857Z" fill="url(#paint42_linear_568_11409)"/>
<path d="M68.7961 81.7803L69.5525 80.4412H70.983L71.3283 81.119L70.9501 81.6811V85.6651L71.3283 85.9296L71.0159 86.8058H69.98L69.5525 85.9296L69.9471 85.5494V81.7307L69.7005 82.3258L68.7961 81.7803Z" fill="url(#paint43_linear_568_11409)"/>
<path d="M72.3148 80.4412H74.847L75.6034 81.6645L74.9457 82.1935L74.1893 81.4H72.9725V82.458L73.2521 82.7556H74.6004L75.3732 83.516V85.4833L75.702 85.8304L74.7812 86.7562H72.5779L71.6736 86.0288V84.7228L72.8903 85.1857V85.632H74.2551V84.3922L73.8769 84.0285H72.5286L71.6078 83.1028L71.9038 82.8052V81.4331L71.6243 81.1686L72.3148 80.4412Z" fill="url(#paint44_linear_568_11409)"/>
<path d="M60.5419 94.0299H58.2564L57.4342 91.7817L56.6121 94.0299H54.3266L56.1188 95.5177L55.3131 97.8487L57.4342 96.3939L59.5553 97.8487L58.7496 95.5177L60.5419 94.0299Z" fill="url(#paint45_linear_568_11409)"/>
<defs>
<linearGradient id="paint0_linear_568_11409" x1="57.5" y1="-23.0355" x2="57.5" y2="87.2057" gradientUnits="userSpaceOnUse">
<stop stop-color="#80FF00"/>
<stop offset="1" stop-color="#00F9FF"/>
</linearGradient>
<linearGradient id="paint1_linear_568_11409" x1="57.5" y1="-23.0355" x2="57.5" y2="87.2057" gradientUnits="userSpaceOnUse">
<stop stop-color="#80FF00"/>
<stop offset="1" stop-color="#00F9FF"/>
</linearGradient>
<linearGradient id="paint2_linear_568_11409" x1="57.5" y1="-23.0355" x2="57.5" y2="87.2057" gradientUnits="userSpaceOnUse">
<stop stop-color="#80FF00"/>
<stop offset="1" stop-color="#00F9FF"/>
</linearGradient>
<linearGradient id="paint3_linear_568_11409" x1="57.5" y1="-23.0355" x2="57.5" y2="87.2057" gradientUnits="userSpaceOnUse">
<stop stop-color="#80FF00"/>
<stop offset="1" stop-color="#00F9FF"/>
</linearGradient>
<linearGradient id="paint4_linear_568_11409" x1="57.5" y1="-23.0355" x2="57.5" y2="87.2057" gradientUnits="userSpaceOnUse">
<stop stop-color="#80FF00"/>
<stop offset="1" stop-color="#00F9FF"/>
</linearGradient>
<linearGradient id="paint5_linear_568_11409" x1="57.5" y1="-23.0355" x2="57.5" y2="87.2057" gradientUnits="userSpaceOnUse">
<stop stop-color="#80FF00"/>
<stop offset="1" stop-color="#00F9FF"/>
</linearGradient>
<linearGradient id="paint6_linear_568_11409" x1="57.5" y1="-23.0355" x2="57.5" y2="87.2057" gradientUnits="userSpaceOnUse">
<stop stop-color="#80FF00"/>
<stop offset="1" stop-color="#00F9FF"/>
</linearGradient>
<linearGradient id="paint7_linear_568_11409" x1="57.5" y1="-23.0355" x2="57.5" y2="87.2057" gradientUnits="userSpaceOnUse">
<stop stop-color="#80FF00"/>
<stop offset="1" stop-color="#00F9FF"/>
</linearGradient>
<linearGradient id="paint8_linear_568_11409" x1="57.5" y1="-23.0355" x2="57.5" y2="87.2057" gradientUnits="userSpaceOnUse">
<stop stop-color="#80FF00"/>
<stop offset="1" stop-color="#00F9FF"/>
</linearGradient>
<linearGradient id="paint9_linear_568_11409" x1="57.5" y1="-23.0355" x2="57.5" y2="87.2057" gradientUnits="userSpaceOnUse">
<stop stop-color="#80FF00"/>
<stop offset="1" stop-color="#00F9FF"/>
</linearGradient>
<linearGradient id="paint10_linear_568_11409" x1="57.5" y1="-23.0355" x2="57.5" y2="87.2057" gradientUnits="userSpaceOnUse">
<stop stop-color="#80FF00"/>
<stop offset="1" stop-color="#00F9FF"/>
</linearGradient>
<linearGradient id="paint11_linear_568_11409" x1="57.5" y1="-23.0355" x2="57.5" y2="87.2057" gradientUnits="userSpaceOnUse">
<stop stop-color="#80FF00"/>
<stop offset="1" stop-color="#00F9FF"/>
</linearGradient>
<linearGradient id="paint12_linear_568_11409" x1="57.5" y1="-23.0355" x2="57.5" y2="87.2057" gradientUnits="userSpaceOnUse">
<stop stop-color="#80FF00"/>
<stop offset="1" stop-color="#00F9FF"/>
</linearGradient>
<linearGradient id="paint13_linear_568_11409" x1="57.5" y1="-23.0355" x2="57.5" y2="87.2057" gradientUnits="userSpaceOnUse">
<stop stop-color="#80FF00"/>
<stop offset="1" stop-color="#00F9FF"/>
</linearGradient>
<linearGradient id="paint14_linear_568_11409" x1="57.5" y1="-23.0355" x2="57.5" y2="87.2057" gradientUnits="userSpaceOnUse">
<stop stop-color="#80FF00"/>
<stop offset="1" stop-color="#00F9FF"/>
</linearGradient>
<linearGradient id="paint15_linear_568_11409" x1="57.5" y1="-23.0355" x2="57.5" y2="87.2057" gradientUnits="userSpaceOnUse">
<stop stop-color="#80FF00"/>
<stop offset="1" stop-color="#00F9FF"/>
</linearGradient>
<linearGradient id="paint16_linear_568_11409" x1="57.5" y1="-23.0355" x2="57.5" y2="87.2057" gradientUnits="userSpaceOnUse">
<stop stop-color="#80FF00"/>
<stop offset="1" stop-color="#00F9FF"/>
</linearGradient>
<linearGradient id="paint17_linear_568_11409" x1="57.5" y1="-23.0355" x2="57.5" y2="87.2057" gradientUnits="userSpaceOnUse">
<stop stop-color="#80FF00"/>
<stop offset="1" stop-color="#00F9FF"/>
</linearGradient>
<linearGradient id="paint18_linear_568_11409" x1="57.5" y1="-23.0355" x2="57.5" y2="87.2057" gradientUnits="userSpaceOnUse">
<stop stop-color="#80FF00"/>
<stop offset="1" stop-color="#00F9FF"/>
</linearGradient>
<linearGradient id="paint19_linear_568_11409" x1="57.5" y1="-23.0355" x2="57.5" y2="87.2057" gradientUnits="userSpaceOnUse">
<stop stop-color="#80FF00"/>
<stop offset="1" stop-color="#00F9FF"/>
</linearGradient>
<linearGradient id="paint20_linear_568_11409" x1="57.5" y1="-23.0355" x2="57.5" y2="87.2057" gradientUnits="userSpaceOnUse">
<stop stop-color="#80FF00"/>
<stop offset="1" stop-color="#00F9FF"/>
</linearGradient>
<linearGradient id="paint21_linear_568_11409" x1="57.5" y1="-23.0355" x2="57.5" y2="87.2057" gradientUnits="userSpaceOnUse">
<stop stop-color="#80FF00"/>
<stop offset="1" stop-color="#00F9FF"/>
</linearGradient>
<linearGradient id="paint22_linear_568_11409" x1="57.5" y1="-23.0355" x2="57.5" y2="87.2057" gradientUnits="userSpaceOnUse">
<stop stop-color="#80FF00"/>
<stop offset="1" stop-color="#00F9FF"/>
</linearGradient>
<linearGradient id="paint23_linear_568_11409" x1="57.5" y1="-23.0355" x2="57.5" y2="87.2057" gradientUnits="userSpaceOnUse">
<stop stop-color="#80FF00"/>
<stop offset="1" stop-color="#00F9FF"/>
</linearGradient>
<linearGradient id="paint24_linear_568_11409" x1="57.5" y1="-23.0355" x2="57.5" y2="87.2057" gradientUnits="userSpaceOnUse">
<stop stop-color="#80FF00"/>
<stop offset="1" stop-color="#00F9FF"/>
</linearGradient>
<linearGradient id="paint25_linear_568_11409" x1="57.5" y1="-23.0355" x2="57.5" y2="87.2057" gradientUnits="userSpaceOnUse">
<stop stop-color="#80FF00"/>
<stop offset="1" stop-color="#00F9FF"/>
</linearGradient>
<linearGradient id="paint26_linear_568_11409" x1="57.5" y1="-23.0355" x2="57.5" y2="87.2057" gradientUnits="userSpaceOnUse">
<stop stop-color="#80FF00"/>
<stop offset="1" stop-color="#00F9FF"/>
</linearGradient>
<linearGradient id="paint27_linear_568_11409" x1="57.5" y1="-23.0355" x2="57.5" y2="87.2057" gradientUnits="userSpaceOnUse">
<stop stop-color="#80FF00"/>
<stop offset="1" stop-color="#00F9FF"/>
</linearGradient>
<linearGradient id="paint28_linear_568_11409" x1="57.5" y1="-23.0355" x2="57.5" y2="87.2057" gradientUnits="userSpaceOnUse">
<stop stop-color="#80FF00"/>
<stop offset="1" stop-color="#00F9FF"/>
</linearGradient>
<linearGradient id="paint29_linear_568_11409" x1="57.5" y1="-23.0355" x2="57.5" y2="87.2057" gradientUnits="userSpaceOnUse">
<stop stop-color="#80FF00"/>
<stop offset="1" stop-color="#00F9FF"/>
</linearGradient>
<linearGradient id="paint30_linear_568_11409" x1="57.5" y1="-23.0355" x2="57.5" y2="87.2057" gradientUnits="userSpaceOnUse">
<stop stop-color="#80FF00"/>
<stop offset="1" stop-color="#00F9FF"/>
</linearGradient>
<linearGradient id="paint31_linear_568_11409" x1="57.5" y1="-23.0355" x2="57.5" y2="87.2057" gradientUnits="userSpaceOnUse">
<stop stop-color="#80FF00"/>
<stop offset="1" stop-color="#00F9FF"/>
</linearGradient>
<linearGradient id="paint32_linear_568_11409" x1="57.5" y1="-23.0355" x2="57.5" y2="87.2057" gradientUnits="userSpaceOnUse">
<stop stop-color="#80FF00"/>
<stop offset="1" stop-color="#00F9FF"/>
</linearGradient>
<linearGradient id="paint33_linear_568_11409" x1="57.5" y1="-23.0355" x2="57.5" y2="87.2057" gradientUnits="userSpaceOnUse">
<stop stop-color="#80FF00"/>
<stop offset="1" stop-color="#00F9FF"/>
</linearGradient>
<linearGradient id="paint34_linear_568_11409" x1="57.5" y1="-23.0355" x2="57.5" y2="87.2057" gradientUnits="userSpaceOnUse">
<stop stop-color="#80FF00"/>
<stop offset="1" stop-color="#00F9FF"/>
</linearGradient>
<linearGradient id="paint35_linear_568_11409" x1="57.5" y1="-23.0355" x2="57.5" y2="87.2057" gradientUnits="userSpaceOnUse">
<stop stop-color="#80FF00"/>
<stop offset="1" stop-color="#00F9FF"/>
</linearGradient>
<linearGradient id="paint36_linear_568_11409" x1="57.5" y1="-23.0355" x2="57.5" y2="87.2057" gradientUnits="userSpaceOnUse">
<stop stop-color="#80FF00"/>
<stop offset="1" stop-color="#00F9FF"/>
</linearGradient>
<linearGradient id="paint37_linear_568_11409" x1="57.5" y1="-23.0355" x2="57.5" y2="87.2057" gradientUnits="userSpaceOnUse">
<stop stop-color="#80FF00"/>
<stop offset="1" stop-color="#00F9FF"/>
</linearGradient>
<linearGradient id="paint38_linear_568_11409" x1="57.5" y1="-23.0355" x2="57.5" y2="87.2057" gradientUnits="userSpaceOnUse">
<stop stop-color="#80FF00"/>
<stop offset="1" stop-color="#00F9FF"/>
</linearGradient>
<linearGradient id="paint39_linear_568_11409" x1="57.5" y1="-23.0355" x2="57.5" y2="87.2057" gradientUnits="userSpaceOnUse">
<stop stop-color="#80FF00"/>
<stop offset="1" stop-color="#00F9FF"/>
</linearGradient>
<linearGradient id="paint40_linear_568_11409" x1="57.5" y1="-23.0355" x2="57.5" y2="87.2057" gradientUnits="userSpaceOnUse">
<stop stop-color="#80FF00"/>
<stop offset="1" stop-color="#00F9FF"/>
</linearGradient>
<linearGradient id="paint41_linear_568_11409" x1="57.5" y1="-23.0355" x2="57.5" y2="87.2057" gradientUnits="userSpaceOnUse">
<stop stop-color="#80FF00"/>
<stop offset="1" stop-color="#00F9FF"/>
</linearGradient>
<linearGradient id="paint42_linear_568_11409" x1="57.5" y1="-23.0355" x2="57.5" y2="87.2057" gradientUnits="userSpaceOnUse">
<stop stop-color="#80FF00"/>
<stop offset="1" stop-color="#00F9FF"/>
</linearGradient>
<linearGradient id="paint43_linear_568_11409" x1="57.5" y1="-23.0355" x2="57.5" y2="87.2057" gradientUnits="userSpaceOnUse">
<stop stop-color="#80FF00"/>
<stop offset="1" stop-color="#00F9FF"/>
</linearGradient>
<linearGradient id="paint44_linear_568_11409" x1="57.5" y1="-23.0355" x2="57.5" y2="87.2057" gradientUnits="userSpaceOnUse">
<stop stop-color="#80FF00"/>
<stop offset="1" stop-color="#00F9FF"/>
</linearGradient>
<linearGradient id="paint45_linear_568_11409" x1="57.5" y1="-23.0355" x2="57.5" y2="87.2057" gradientUnits="userSpaceOnUse">
<stop stop-color="#80FF00"/>
<stop offset="1" stop-color="#00F9FF"/>
</linearGradient>
</defs>
</svg>
