<svg width="140" height="686" viewBox="0 0 140 686" fill="none" xmlns="http://www.w3.org/2000/svg">
<g filter="url(#filter0_d_422_10267)">
<path d="M70.36 558.62V575.52L43.74 602.15H0.02V531.97H43.73L57.05 545.3H13.52V588.83H57.05V545.31L70.36 558.62Z" fill="#80FF00"/>
<path d="M70.31 455.99V526.16H56.91L57.14 484.48L43.91 497.72H13.65V512.85L0.07 526.16V482.9L13.65 469.32V497.63L26.84 484.45H57.14L57.22 469.32H13.65L26.97 455.99H70.31Z" fill="#80FF00"/>
<path d="M70.27 607.92H26.74L13.42 621.24H70.27V607.92Z" fill="#80FF00"/>
<path d="M70.27 636.34H26.74L13.42 649.66H70.27V636.34Z" fill="#80FF00"/>
<path d="M0.1 634.55V678.08H13.42V649.66V621.24V621.23L0.1 634.55Z" fill="#80FF00"/>
<path d="M70.27 664.76H26.74L13.42 678.08H70.27V664.76Z" fill="#80FF00"/>
<path d="M70.38 317.31H13.54V317.3L26.85 303.98H70.38V317.31Z" fill="#80FF00"/>
<path d="M13.54 317.31V345.72L26.85 332.4H70.38V345.73H13.54V360.82H70.37L70.27 374.15H0V330.83L13.52 317.31H13.54Z" fill="#80FF00"/>
<path d="M28.65 450.07V393.23L41.97 406.53V450.07H28.65Z" fill="#80FF00"/>
<path d="M57.07 393.23H0.23L13.53 406.53L13.29 450.07H0.1V379.9H43.76L57.07 393.22V393.23Z" fill="#80FF00"/>
<path d="M70.28 406.42V450.07H56.79L57.07 393.23L70.28 406.42Z" fill="#80FF00"/>
<path d="M0.07 254.83L13.59 241.31V269.62L26.78 256.44H57.12L43.85 269.71H13.59L13.65 298.15H0.07V254.83Z" fill="#80FF00"/>
<path d="M70.31 227.98V243.17L57.17 256.31V241.31H13.59V241.3L26.91 227.98H70.31Z" fill="#80FF00"/>
<path d="M70.31 269.69V295.97L70.3 298.15H56.94L57.17 256.44L70.31 269.69Z" fill="#80FF00"/>
<path d="M13.65 13.32H70.31V0H26.97L13.65 13.32Z" fill="#80FF00"/>
<path d="M0.06 70.16H13.65V13.31L0.06 26.63V70.16Z" fill="#80FF00"/>
<path d="M13.38 146.11V75.94L0.06 89.26V146.11H13.38Z" fill="#80FF00"/>
<path d="M13.38 117.67H43.72L57 104.39V146.11H70.21L70.31 75.94L57 89.26V104.39H26.65L13.38 117.67Z" fill="#80FF00"/>
<path d="M70.27 151.92H26.74L13.42 165.24H70.27V151.92Z" fill="#80FF00"/>
<path d="M70.27 193.67V180.35H26.74L13.42 193.67H70.27Z" fill="#80FF00"/>
<path d="M13.43 165.24V222.08H0.1V182.91L0.11 178.55L13.43 165.24Z" fill="#80FF00"/>
<path d="M70.27 208.77H26.74L13.42 222.09H70.27V208.77Z" fill="#80FF00"/>
</g>
<g filter="url(#filter1_d_422_10267)">
<path d="M99.7931 677.984C96.8621 677.984 94.4787 675.6 94.4787 672.669V533.576H135.52V672.667C135.52 675.598 133.135 677.982 130.202 677.982H99.7931V677.984Z" fill="#FFFF00"/>
<path d="M135.422 533.675V672.668C135.422 675.543 133.082 677.883 130.202 677.883H99.793C96.9172 677.883 94.5771 675.543 94.5771 672.668V533.675H135.422ZM135.619 533.478H94.3801V672.668C94.3801 675.652 96.8088 678.08 99.793 678.08H130.202C133.188 678.08 135.619 675.652 135.619 672.668V533.478Z" fill="black"/>
<path d="M130.202 677.594C132.924 677.594 135.128 675.386 135.128 672.668V533.968H94.8704V672.668C94.8704 675.384 97.0765 677.594 99.7928 677.594H130.202Z" fill="#FFFF00"/>
<path d="M133.479 535.66H96.5189V667.314H133.479V535.66Z" fill="white"/>
<path d="M133.355 535.783H96.6412V571.596H133.355V535.783Z" fill="#FFFF00"/>
<path d="M133.259 535.882V571.498H96.7396V535.882H133.259ZM133.456 535.685H96.5426V571.695H133.456V535.685Z" fill="black"/>
<path d="M133.353 571.622H96.6412V607.656H133.353V571.622Z" fill="#FFFF00"/>
<path d="M133.257 571.721V607.558H96.7395V571.721H133.257ZM133.454 571.524H96.5426V607.755H133.454V571.524Z" fill="black"/>
<path d="M102.326 607.68H96.6412V667.188H102.326V607.68Z" fill="#FFFF00"/>
<path d="M102.227 607.778V667.089H96.7396V607.778H102.227ZM102.424 607.581H96.5426V667.286H102.424V607.581Z" fill="black"/>
<path d="M128.25 607.68H102.35V667.188H128.25V607.68Z" fill="#FFFF00"/>
<path d="M128.151 607.778V667.089H102.448V607.778H128.151ZM128.348 607.581H102.251V667.286H128.348V607.581Z" fill="black"/>
<path d="M133.355 607.68H128.273V667.188H133.355V607.68Z" fill="#FFFF00"/>
<path d="M133.257 607.778V667.089H128.372V607.778H133.257ZM133.454 607.581H128.175V667.286H133.454V607.581Z" fill="black"/>
<path d="M118.021 564.098C117.412 563.962 116.331 563.692 116.331 563.692C115.885 563.566 115.486 563.413 115.127 563.245C115.874 562.686 116.65 561.916 117.333 560.854L116.212 561.071C116.212 561.071 115.675 562.002 114.347 562.824C113.019 562 112.482 561.071 112.482 561.071L111.361 560.854C112.042 561.916 112.82 562.686 113.567 563.245C113.209 563.413 112.809 563.564 112.364 563.692C112.364 563.692 111.282 563.962 110.673 564.098C110.673 564.098 109.633 564.354 109.511 564.868L109.97 565.652C109.97 565.652 110.916 564.746 111.983 564.679C111.983 564.679 113.037 564.539 114.347 563.767C115.659 564.539 116.711 564.679 116.711 564.679C117.778 564.746 118.724 565.652 118.724 565.652L119.183 564.868C119.061 564.354 118.021 564.098 118.021 564.098Z" fill="black"/>
<path d="M116.484 562.92C116.484 562.92 117.058 562.758 117.296 562.315C117.296 562.315 117.997 561.271 118.151 560.909C118.174 560.856 118.198 560.801 118.226 560.749C118.438 560.351 119.264 558.961 120.195 559.325C120.195 559.325 119.988 559.802 119.912 560.381C119.912 560.381 119.663 561.951 118.405 562.237C118.405 562.237 118.816 561.711 119.013 561.131C119.118 560.826 119.238 560.525 119.362 560.225L119.366 560.216C119.366 560.216 119.057 560.277 118.535 561.431C118.535 561.431 117.725 563.328 116.486 562.92H116.484Z" fill="black"/>
<path d="M117.605 563.072C117.605 563.072 118.332 563.151 118.539 563.36C118.539 563.36 119.035 563.243 119.721 563.247C120.077 563.249 120.434 563.218 120.782 563.135C121.558 562.95 122.616 562.471 122.697 561.246C122.697 561.246 122.072 561.559 121.478 561.618C121.478 561.618 119.516 561.839 119.039 562.377C119.039 562.377 119.494 562.328 119.829 562.355C120.02 562.371 120.211 562.381 120.404 562.373C120.794 562.359 121.365 562.308 121.682 562.146C121.682 562.146 121.306 562.631 119.998 562.631C119.998 562.631 118.269 562.485 117.605 563.072Z" fill="black"/>
<path d="M119.876 561.54C119.876 561.54 120.369 561.341 120.583 561.439C120.583 561.439 121.06 561.055 121.129 559.749C121.129 559.749 121.251 558.396 121.336 558.081L120.814 557.935C120.814 557.935 120.544 558.595 120.516 559.269C120.503 559.623 120.471 559.978 120.396 560.326C120.296 560.799 120.128 561.351 119.874 561.54H119.876Z" fill="black"/>
<path d="M121.549 558.128L122.102 558.278C122.102 558.278 122.159 559.285 121.462 560.053C121.462 560.053 121.657 558.323 121.549 558.128Z" fill="black"/>
<path d="M122.602 558.395L123.386 558.64L123.237 558.835C123.237 558.835 122.892 558.72 122.338 558.988C122.338 558.988 122.311 558.685 122.602 558.393V558.395Z" fill="black"/>
<path d="M123.818 558.817L124.462 559.089C124.462 559.089 124.04 559.36 123.873 559.49C123.776 559.565 123.676 559.634 123.569 559.693C123.266 559.857 122.699 560.091 121.929 560.091C121.929 560.091 122.161 559.593 123.089 559.179C123.207 559.126 123.321 559.069 123.437 559.01L123.82 558.815L123.818 558.817Z" fill="black"/>
<path d="M121.015 561.435C121.015 561.435 122.21 561.07 122.689 560.96C123.012 560.887 123.329 560.785 123.631 560.647C124.156 560.403 124.803 559.993 125.041 559.38L124.544 559.118C124.544 559.118 124.359 559.865 123.235 560.17C123.101 560.206 122.969 560.241 122.837 560.283C122.573 560.361 122.057 560.497 121.397 560.564C121.397 560.564 121.353 561.029 121.017 561.439L121.015 561.435Z" fill="black"/>
<path d="M121.186 548.315H122.581C122.581 548.315 121.598 547.491 121.669 547.235C121.669 547.235 121.186 547.775 121.186 548.315Z" fill="black"/>
<path d="M124.204 548.314H124.844L124.915 547.388C124.915 547.388 125.222 547.861 125.151 548.314H125.809C125.809 548.314 126.063 546.927 124.348 546.216C124.348 546.216 124.418 546.803 124.206 548.314H124.204Z" fill="black"/>
<path d="M123.31 548.314H123.497C123.497 548.314 123.573 548.019 123.792 547.936C123.792 547.936 123.737 547.31 123.902 546.75C123.902 546.75 125.045 544.123 122.754 543.549C122.754 543.549 122.92 544.113 122.88 544.284C122.88 544.284 122.805 546.084 123.183 546.534C123.183 546.534 123.241 546.086 123.306 545.889C123.335 545.799 123.361 545.708 123.371 545.614C123.4 545.377 123.416 544.956 123.286 544.408C123.286 544.408 123.969 544.909 123.471 546.262C123.471 546.262 123.069 547.516 123.31 548.316V548.314Z" fill="black"/>
<path d="M122.941 547.909V547.267C122.941 547.267 122.364 546.824 122.171 546.741C122.171 546.741 121.133 546.197 121.133 545.6C121.133 545.6 121.676 546.329 122.309 546.536C122.309 546.536 122.852 546.79 122.941 546.975C122.941 546.975 122.957 546.14 121.909 545.518C121.909 545.518 120.802 544.913 120.83 544.651C120.83 544.651 120.012 545.722 121.318 546.727L121.326 546.733C121.736 547.019 122.147 547.3 122.567 547.57C122.734 547.678 122.925 547.818 122.939 547.909H122.941Z" fill="black"/>
<path d="M122.151 545.291C122.151 545.291 121.984 545.025 121.405 544.7C121.332 544.658 121.255 544.621 121.18 544.584C120.853 544.422 119.254 543.536 120.146 542.068C120.146 542.068 120.237 542.393 120.928 542.667C120.928 542.667 122.841 543.329 122.508 545.037C122.508 545.037 122.126 544.156 121.306 543.587C121.251 543.547 121.19 543.516 121.129 543.484C120.97 543.406 120.635 543.228 120.621 543.092C120.621 543.092 120.52 543.278 120.962 543.707C121.06 543.804 121.167 543.888 121.277 543.971C121.517 544.148 122.151 544.672 122.151 545.295V545.291Z" fill="black"/>
<path d="M112.21 562.92C112.21 562.92 111.637 562.758 111.399 562.315C111.399 562.315 110.697 561.271 110.544 560.909C110.52 560.856 110.496 560.801 110.469 560.749C110.256 560.351 109.431 558.961 108.499 559.325C108.499 559.325 108.706 559.802 108.783 560.381C108.783 560.381 109.031 561.951 110.29 562.237C110.29 562.237 109.878 561.711 109.681 561.131C109.577 560.826 109.456 560.525 109.332 560.225L109.328 560.216C109.328 560.216 109.638 560.277 110.16 561.431C110.16 561.431 110.969 563.328 112.208 562.92H112.21Z" fill="black"/>
<path d="M111.087 563.072C111.087 563.072 110.36 563.151 110.154 563.36C110.154 563.36 109.657 563.243 108.972 563.247C108.615 563.249 108.259 563.218 107.91 563.135C107.134 562.95 106.076 562.471 105.996 561.246C105.996 561.246 106.62 561.559 107.215 561.618C107.215 561.618 109.177 561.839 109.653 562.377C109.653 562.377 109.198 562.328 108.863 562.355C108.672 562.371 108.481 562.381 108.288 562.373C107.898 562.359 107.327 562.308 107.01 562.146C107.01 562.146 107.386 562.631 108.694 562.631C108.694 562.631 110.424 562.485 111.087 563.072Z" fill="black"/>
<path d="M108.816 561.54C108.816 561.54 108.324 561.341 108.109 561.439C108.109 561.439 107.632 561.055 107.563 559.749C107.563 559.749 107.441 558.396 107.356 558.081L107.878 557.935C107.878 557.935 108.148 558.595 108.176 559.269C108.19 559.623 108.221 559.978 108.296 560.326C108.396 560.799 108.564 561.351 108.818 561.54H108.816Z" fill="black"/>
<path d="M107.144 558.128L106.59 558.278C106.59 558.278 106.533 559.285 107.231 560.053C107.231 560.053 107.036 558.323 107.144 558.128Z" fill="black"/>
<path d="M106.09 558.395L105.306 558.64L105.456 558.835C105.456 558.835 105.8 558.72 106.354 558.988C106.354 558.988 106.382 558.685 106.09 558.393V558.395Z" fill="black"/>
<path d="M104.875 558.817L104.231 559.089C104.231 559.089 104.652 559.36 104.82 559.49C104.916 559.565 105.016 559.634 105.123 559.693C105.426 559.857 105.993 560.091 106.764 560.091C106.764 560.091 106.531 559.593 105.603 559.179C105.485 559.126 105.371 559.069 105.255 559.01L104.873 558.815L104.875 558.817Z" fill="black"/>
<path d="M107.68 561.435C107.68 561.435 106.484 561.07 106.005 560.96C105.682 560.887 105.365 560.785 105.064 560.647C104.538 560.403 103.892 559.993 103.653 559.38L104.15 559.118C104.15 559.118 104.335 559.865 105.46 560.17C105.594 560.206 105.726 560.241 105.858 560.283C106.122 560.361 106.638 560.497 107.297 560.564C107.297 560.564 107.341 561.029 107.678 561.439L107.68 561.435Z" fill="black"/>
<path d="M107.508 548.315H106.114C106.114 548.315 107.096 547.491 107.026 547.235C107.026 547.235 107.508 547.775 107.508 548.315Z" fill="black"/>
<path d="M104.489 548.314H103.849L103.778 547.388C103.778 547.388 103.47 547.861 103.541 548.314H102.883C102.883 548.314 102.629 546.927 104.345 546.216C104.345 546.216 104.274 546.803 104.487 548.314H104.489Z" fill="black"/>
<path d="M105.385 548.314H105.198C105.198 548.314 105.121 548.019 104.902 547.936C104.902 547.936 104.957 547.31 104.792 546.75C104.792 546.75 103.65 544.123 105.94 543.549C105.94 543.549 105.775 544.113 105.814 544.284C105.814 544.284 105.889 546.084 105.511 546.534C105.511 546.534 105.454 546.086 105.389 545.889C105.359 545.799 105.334 545.708 105.324 545.614C105.294 545.377 105.279 544.956 105.409 544.408C105.409 544.408 104.725 544.909 105.223 546.262C105.223 546.262 105.625 547.516 105.385 548.316V548.314Z" fill="black"/>
<path d="M105.751 547.909V547.267C105.751 547.267 106.328 546.824 106.521 546.741C106.521 546.741 107.559 546.197 107.559 545.6C107.559 545.6 107.016 546.329 106.384 546.536C106.384 546.536 105.84 546.79 105.751 546.975C105.751 546.975 105.736 546.14 106.783 545.518C106.783 545.518 107.89 544.913 107.863 544.651C107.863 544.651 108.68 545.722 107.374 546.727L107.366 546.733C106.957 547.019 106.545 547.3 106.126 547.57C105.958 547.678 105.767 547.818 105.753 547.909H105.751Z" fill="black"/>
<path d="M106.543 545.291C106.543 545.291 106.71 545.025 107.29 544.7C107.362 544.658 107.439 544.621 107.514 544.584C107.841 544.422 109.44 543.536 108.548 542.068C108.548 542.068 108.458 542.393 107.766 542.667C107.766 542.667 105.854 543.329 106.186 545.037C106.186 545.037 106.569 544.156 107.388 543.587C107.443 543.547 107.504 543.516 107.565 543.484C107.725 543.406 108.06 543.228 108.073 543.092C108.073 543.092 108.174 543.278 107.733 543.707C107.634 543.804 107.528 543.888 107.418 543.971C107.177 544.148 106.543 544.672 106.543 545.295V545.291Z" fill="black"/>
<path d="M111.339 543.549C111.339 543.549 113.853 542.909 117.382 543.549L118.261 541.599L118.019 541.524C118.019 541.524 117.505 542.509 115.945 542.328C114.385 542.147 114.581 540.935 114.581 540.935H114.142C114.142 540.935 114.4 542.011 112.742 542.336C111.083 542.661 110.75 541.495 110.75 541.495L110.433 541.631L111.341 543.549H111.339Z" fill="black"/>
<path d="M102.901 558.396L103.187 558.817C103.187 558.817 107.038 556.631 114.304 556.631C114.304 556.631 120.879 556.497 125.459 558.817L125.791 558.396C125.791 558.396 122.725 555.892 114.304 555.892C114.304 555.892 107.489 555.609 102.899 558.396H102.901Z" fill="black"/>
<path d="M110.35 545.39L110.719 544.651H112.641L113.021 545.39L112.675 545.612C112.675 545.612 112.486 545.244 111.948 545.244V547.279C111.948 547.279 111.976 547.531 112.1 547.655L111.976 548.086H111.402L111.243 547.649C111.243 547.649 111.396 547.525 111.396 547.212V545.248C111.396 545.248 110.918 545.171 110.695 545.609L110.348 545.39H110.35Z" fill="black"/>
<path d="M113.435 544.654H114.028L114.176 545.069C114.176 545.069 114.014 545.237 114.014 545.465V546.101H115.052V545.41C115.052 545.41 115.046 545.182 114.905 545.107L115.078 544.654H115.622L115.789 545.063C115.789 545.063 115.616 545.254 115.616 545.619V547.206C115.616 547.206 115.578 547.565 115.789 547.707L115.653 548.087H115.048L114.901 547.689C114.901 547.689 115.054 547.591 115.054 547.319V546.694H114.016V547.319C114.016 547.319 114.016 547.622 114.164 547.695L114.034 548.087H113.435L113.293 547.727C113.293 547.727 113.455 547.53 113.455 547.275V545.448C113.455 545.448 113.449 545.164 113.293 545.071L113.435 544.656V544.654Z" fill="black"/>
<path d="M116.201 545.441C116.201 545.441 116.204 545.248 116.047 545.09L116.201 544.651H117.93L118.344 545.414L117.965 545.638C117.965 545.638 117.705 545.254 117.42 545.254H116.784V546.095H117.483L117.636 546.704H116.782V547.529H117.412C117.412 547.529 117.672 547.57 117.965 547.165L118.344 547.368L117.979 548.086H116.214L116.047 547.738C116.047 547.738 116.214 547.513 116.214 547.255C116.214 546.997 116.201 545.441 116.201 545.441Z" fill="black"/>
<path d="M105.479 551.796V550.88C105.479 550.301 105.72 549.893 105.72 549.893L104.875 549.048H102.255L102.042 550.09C102.28 550.653 102.253 551.063 102.253 551.063V555.262C102.253 555.875 102.042 556.393 102.042 556.393L102.278 557.309L103.311 556.887L103.543 555.842C103.324 555.704 103.303 555.298 103.303 555.298V553.677L103.638 553.59L104.197 555.493L104.132 555.82L104.488 556.482L105.448 556.161L105.607 555.209C104.961 554.796 104.743 553.407 104.743 553.407L105.613 552.156C105.495 552.038 105.481 551.798 105.481 551.798L105.479 551.796ZM104.427 551.796L104.187 552.131L103.301 552.268V550.439L104.223 550.401L104.425 550.699V551.796H104.427Z" fill="black"/>
<path d="M105.917 549.897L106.157 548.995L108.751 549.012L109.419 550.383L108.727 550.876C108.727 550.876 108.402 550.196 107.813 550.196H107.224L107.183 551.731L107.977 551.646L108.217 552.82L107.158 552.958V554.457C107.158 554.457 108.19 554.532 108.692 553.476L109.318 553.801L108.662 555.347C108.662 555.347 106.852 555.66 106.117 555.956L105.84 555.077C105.84 555.077 106.086 554.668 106.086 554.439V550.523C106.086 550.523 106.104 550.084 105.917 549.897Z" fill="black"/>
<path d="M109.633 549.84L109.884 548.993H110.914L112.194 552.413L113.532 548.993H114.53L114.812 549.789L114.562 550.264V553.569C114.562 553.569 114.642 553.937 114.837 554.063L114.576 554.814H113.514L113.258 554.057L113.482 553.715V552.052L113.002 553.395C113.002 553.395 112.82 553.776 113.051 554.095L112.738 554.857L111.613 554.932L111.337 554.17C111.337 554.17 111.53 553.882 111.45 553.62C111.369 553.358 110.906 552.214 110.906 552.214V553.707C110.906 553.707 110.955 554.063 111.156 554.207L110.863 555.007L109.824 555.15L109.586 554.363C109.586 554.363 109.848 553.937 109.848 553.632V550.47C109.848 550.47 109.868 550.076 109.629 549.84H109.633Z" fill="black"/>
<path d="M118.733 553.618L118.036 550.1L118.168 549.71L117.788 548.993H116.301L115.944 549.615C115.873 549.738 115.954 549.824 115.954 549.824C116.086 549.956 116.031 550.396 116.031 550.396L115.422 553.397C115.345 553.75 115.076 553.996 115.076 553.996L115.275 554.825L116.24 554.859L116.575 554.03L116.452 553.793L116.514 553.449L117.617 553.553L117.727 553.937L117.613 554.15L117.926 555.022L118.887 555.16L119.078 554.331C118.804 554.057 118.733 553.618 118.733 553.618ZM116.703 552.521L117.079 550.693L117.428 552.543L116.703 552.521Z" fill="black"/>
<path d="M122.728 554.272V550.724L122.947 550.307L122.035 549.038H119.478L119.242 549.822C119.514 550.009 119.545 550.427 119.545 550.427V553.872C119.545 554.165 119.313 554.406 119.313 554.406L119.571 555.266C120.105 555.343 122.112 555.818 122.112 555.818L122.998 554.766L122.726 554.268L122.728 554.272ZM121.692 554.098L121.468 554.469L120.625 554.287L120.548 550.186L121.426 550.222L121.694 550.679V554.098H121.692Z" fill="black"/>
<path d="M123.166 549.956L123.39 548.983L125.967 549.04L126.652 550.86L126.008 551.361C126.008 551.361 125.618 550.352 125.021 550.396L124.466 550.37V552.109L125.283 552.229L125.516 553.693L124.491 553.468V555.182L124.925 555.308C125.007 555.332 125.086 555.361 125.169 555.387C125.305 555.43 125.665 555.464 126 554.768L126.652 555.552L125.992 557.112C125.992 557.112 124.131 556.364 123.451 556.208L123.227 555.217C123.227 555.217 123.451 554.985 123.451 554.589C123.451 554.193 123.418 550.817 123.418 550.817C123.418 550.817 123.418 550.206 123.168 549.956H123.166Z" fill="black"/>
<path d="M110.987 558.428L111.219 558.527V558.334L111.273 558.237L111.078 558.078H110.63L110.431 558.215V558.302L110.491 558.359V558.763L110.987 558.936V559.096L110.949 559.177H110.699V559.062L110.494 558.98V559.167L110.431 559.25L110.609 559.427H111.06L111.273 559.273V559.212L111.223 559.163V558.781L110.699 558.562V558.379L110.774 558.304H110.981L110.987 558.428Z" fill="black"/>
<path d="M111.383 558.078H111.629L111.692 558.223L111.615 558.338V559.181L111.692 559.255L111.623 559.427H111.405L111.32 559.273L111.387 559.19V558.361L111.32 558.237L111.383 558.078Z" fill="black"/>
<path d="M111.81 558.078H112.08L112.354 558.802V558.324L112.289 558.212L112.354 558.078H112.59L112.659 558.223L112.572 558.31V559.149L112.659 559.25L112.586 559.427H112.34L112.043 558.667V559.153L112.125 559.291L112.047 559.427H111.828L111.737 559.259L111.812 559.149V558.326L111.751 558.219L111.81 558.078Z" fill="black"/>
<path d="M112.898 558.078H113.368L113.53 558.237L113.483 558.282V558.497L113.248 558.42V558.286H113.057L112.988 558.357V559.086L113.063 559.161H113.252V558.86L113.5 558.96V559.177L113.561 559.238L113.372 559.427H112.898L112.703 559.257L112.781 559.179V558.308L112.703 558.227L112.898 558.078Z" fill="black"/>
<path d="M113.65 558.078H114.261L114.424 558.349L114.271 558.456L114.109 558.282H113.892V558.604H114.07L114.164 558.852H113.888V559.163H114.119L114.257 559.025L114.424 559.116L114.259 559.427H113.678L113.583 559.238L113.652 559.169V558.336L113.583 558.229L113.65 558.078Z" fill="black"/>
<path d="M115.129 558.078H115.6L115.793 558.204L115.701 558.296V558.584L115.793 558.659L115.594 558.856H115.234V559.173H115.506L115.646 559.009L115.801 559.125L115.64 559.427H115.114L114.936 559.267L115.007 559.137V558.909L114.936 558.791L115.116 558.613H115.439L115.516 558.537V558.298H115.234V558.397L114.988 558.501V558.318L114.936 558.214L115.129 558.078Z" fill="black"/>
<path d="M116.642 559.151V558.308L116.701 558.248L116.528 558.075H116.053L115.862 558.207L115.929 558.347V559.164L115.862 559.231L116.061 559.43H116.551L116.739 559.245L116.644 559.151H116.642ZM116.425 559.088L116.366 559.147H116.205L116.156 559.097L116.152 558.369L116.219 558.302H116.36L116.427 558.369V559.088H116.425Z" fill="black"/>
<path d="M116.78 558.361L116.943 558.078H117.249L117.322 558.219L117.243 558.342V559.19L117.322 559.246L117.257 559.433H117.034L116.943 559.246L117.026 559.165V558.351L116.973 558.475L116.78 558.361Z" fill="black"/>
<path d="M117.534 558.078H118.076L118.24 558.336L118.096 558.448L117.936 558.28H117.674V558.507L117.735 558.57H118.025L118.188 558.732V559.151L118.261 559.224L118.064 559.421H117.59L117.395 559.267V558.988L117.658 559.088V559.183H117.95V558.919L117.871 558.84H117.578L117.383 558.643L117.446 558.582V558.288L117.387 558.229L117.534 558.078Z" fill="black"/>
<path d="M115.013 560.968H114.522L114.347 560.489L114.172 560.968H113.679L114.063 561.289L113.892 561.785L114.347 561.472L114.8 561.785L114.631 561.289L115.013 560.968Z" fill="black"/>
<path d="M99.0895 612.287C98.536 612.279 98.0889 611.767 98.0889 611.137C98.0889 610.506 98.538 609.994 99.0895 609.986H100.886V610.392H99.1013C98.7664 610.392 98.4946 610.727 98.4946 611.137C98.4946 611.547 98.7664 611.881 99.1013 611.881H100.888V612.287H99.0895Z" fill="black"/>
<path d="M100.019 614.552C99.5423 614.552 99.1543 614.184 99.1543 613.733V613.152H98.0887V612.746H100.884V613.733C100.884 614.186 100.496 614.552 100.019 614.552ZM100.019 614.146C100.271 614.146 100.478 613.961 100.478 613.731V613.152H99.562V613.731C99.562 613.959 99.7669 614.146 100.021 614.146H100.019Z" fill="black"/>
<path d="M99.4872 616.881C98.6638 616.881 98.0887 616.37 98.0887 615.638V614.803H100.886V615.638C100.886 616.554 100.163 616.881 99.4872 616.881ZM99.4872 616.475C100.129 616.475 100.482 616.177 100.482 615.638V615.208H98.4925V615.638C98.4925 616.146 98.8825 616.475 99.4872 616.475Z" fill="black"/>
<path d="M98.0887 619.485V619.049L98.9356 618.714V617.605L98.0887 617.271V616.835L100.888 617.942V618.378L98.0887 619.485ZM99.3414 618.553L100.338 618.159L99.3414 617.765V618.553Z" fill="black"/>
<path d="M100.882 621.167H100.476V620.367H98.0887V619.962H100.476V619.162H100.882V621.167Z" fill="black"/>
<path d="M100.478 621.791H99.7237V622.764H99.3179V621.791H98.4926V623.06H98.0868V621.385H100.882V623.06H100.476V621.791H100.478Z" fill="black"/>
<path d="M98.4591 627.194L98.0868 627.033L98.2089 626.755C98.2365 626.692 98.2779 626.637 98.3271 626.591C98.1774 626.39 98.0927 626.142 98.0927 625.861V625.853C98.0927 625.118 98.6659 624.604 99.4873 624.604C100.161 624.604 100.882 624.933 100.882 625.853V625.861C100.882 626.78 100.161 627.109 99.4873 627.109C99.1544 627.109 98.8629 627.025 98.6344 626.875C98.6108 626.881 98.5911 626.897 98.5812 626.918L98.4591 627.196V627.194ZM99.4873 626.702C100.125 626.702 100.476 626.402 100.476 625.859V625.851C100.476 625.307 100.125 625.008 99.4873 625.008C98.8865 625.008 98.4985 625.339 98.4985 625.851V625.859C98.4985 626.371 98.8865 626.702 99.4873 626.702Z" fill="black"/>
<path d="M99.0893 629.769C98.5358 629.761 98.0887 629.249 98.0887 628.618C98.0887 627.988 98.5378 627.476 99.0893 627.468H100.886V627.874H99.1011C98.7662 627.874 98.4944 628.209 98.4944 628.618C98.4944 629.028 98.7662 629.363 99.1011 629.363H100.888V629.769H99.0893Z" fill="black"/>
<path d="M98.0887 632.465V632.03L98.9356 631.695V630.586L98.0887 630.251V629.816L100.888 630.923V631.358L98.0887 632.465ZM99.3414 631.534L100.338 631.14L99.3414 630.746V631.534Z" fill="black"/>
<path d="M98.0887 634.502V634.049L99.1484 633.529V633.09H98.0887V632.684H100.874V633.669C100.874 634.12 100.486 634.489 100.011 634.489C99.6408 634.489 99.3257 634.266 99.2035 633.955L98.0887 634.502ZM100.011 634.083C100.263 634.083 100.468 633.898 100.468 633.669V633.09H99.5522V633.669C99.5522 633.898 99.757 634.083 100.009 634.083H100.011Z" fill="black"/>
<path d="M100.882 636.609H100.476V635.81H98.0887V635.404H100.476V634.604H100.882V636.609Z" fill="black"/>
<path d="M100.478 637.233H99.7237V638.206H99.3179V637.233H98.4926V638.502H98.0868V636.828H100.882V638.502H100.476V637.233H100.478Z" fill="black"/>
<path d="M98.0887 640.637V640.184L99.1484 639.664V639.225H98.0887V638.819H100.874V639.804C100.874 640.255 100.486 640.624 100.011 640.624C99.6408 640.624 99.3257 640.401 99.2035 640.09L98.0887 640.637ZM100.011 640.218C100.263 640.218 100.468 640.033 100.468 639.804V639.225H99.5522V639.804C99.5522 640.033 99.757 640.218 100.009 640.218H100.011Z" fill="black"/>
<path d="M98.4944 642.696H98.0887V640.986H100.892V641.39H98.4944V642.696Z" fill="black"/>
<path d="M100.89 644.806L99.5168 643.695H98.0868V643.289H99.5168L100.89 642.178V642.7L99.9108 643.492L100.89 644.284V644.806Z" fill="black"/>
<path d="M104.613 636.384C104.631 636.339 104.642 636.289 104.664 636.246C106.858 631.824 109.053 627.4 111.247 622.978C111.345 622.779 111.406 622.742 111.597 622.864C111.901 623.057 112.204 623.256 112.472 623.496C113.439 624.361 114.385 625.251 115.352 626.118C116.029 626.724 116.762 627.252 117.639 627.546C118.807 627.94 119.876 627.816 120.794 626.933C121.206 626.537 121.499 626.057 121.752 625.548C121.783 625.485 121.817 625.422 121.88 625.371C120.323 629.768 118.765 634.164 117.225 638.513C117.501 638.62 117.779 638.689 118.021 638.826C118.732 639.234 119.423 639.671 120.126 640.093C120.745 640.463 121.405 640.666 122.136 640.558C122.957 640.436 123.568 639.973 124.062 639.337C124.486 638.795 124.795 638.188 125.031 637.544C125.059 637.471 125.088 637.398 125.143 637.335C122.784 645.902 120.426 654.466 118.066 663.033L118.033 663.025C118.18 662.389 121.824 646.763 122.167 645.24C122.272 644.777 122.167 644.326 121.964 643.903C121.927 643.826 121.817 643.776 121.73 643.735C121.558 643.654 121.363 643.615 121.21 643.512C120.495 643.038 119.798 642.534 119.077 642.069C118.665 641.803 118.228 641.574 117.786 641.36C117.572 641.255 117.327 641.198 117.089 641.168C116.567 641.103 116.238 641.318 116.057 641.817C115.777 642.587 115.507 643.361 115.234 644.133C114.337 646.666 112.496 651.856 112.441 651.91C112.47 651.799 114.735 644.094 115.838 640.351C116.547 637.95 117.259 635.549 117.964 633.146C118.161 632.474 117.97 631.852 117.672 631.251C117.647 631.202 117.603 631.148 117.554 631.125C116.947 630.835 116.508 630.339 116.033 629.892C115.09 629.001 114.164 628.091 113.219 627.203C112.996 626.994 112.74 626.811 112.476 626.659C111.619 626.163 110.839 626.356 110.305 627.189C109.955 627.735 109.622 628.292 109.283 628.846C107.768 631.31 106.256 633.774 104.741 636.236C104.707 636.291 104.672 636.345 104.636 636.398L104.613 636.386V636.384Z" fill="black"/>
<path d="M113.616 646.687C114.442 640.561 114.357 634.423 113.808 628.264C113.926 628.372 114.048 628.476 114.164 628.587C114.355 628.766 114.532 628.961 114.735 629.128C114.991 629.341 115.113 629.589 115.145 629.93C115.305 631.673 115.492 633.412 115.663 635.154C115.716 635.705 115.663 636.272 115.864 636.804C115.921 636.956 115.98 637.112 116.067 637.249C116.126 637.346 116.232 637.413 116.341 637.517C115.44 640.547 114.528 643.618 113.616 646.687Z" fill="black"/>
<path d="M118.978 642.441C119.293 642.654 119.587 642.847 119.874 643.05C119.912 643.078 119.93 643.152 119.933 643.206C120.083 644.943 120.225 646.68 120.385 648.416C120.412 648.711 120.501 649.003 120.589 649.288C120.621 649.391 120.735 649.465 120.836 649.58C120.191 652.339 119.538 655.146 118.884 657.951H118.874C118.974 656.667 119.098 655.385 119.167 654.1C119.236 652.812 119.274 651.52 119.281 650.23C119.287 648.932 119.26 647.634 119.209 646.338C119.157 645.051 119.059 643.767 118.978 642.441Z" fill="black"/>
<path d="M114.528 624.857C114.142 624.487 113.754 624.119 113.372 623.742C113.329 623.699 113.315 623.612 113.311 623.544C113.221 622.368 113.134 621.192 113.045 620.014C113.016 619.614 113.089 619.247 113.274 618.879C114.698 616.037 116.106 613.189 117.519 610.34C117.546 610.283 117.578 610.228 117.645 610.189C117.58 610.364 117.519 610.541 117.452 610.717C116.573 613.074 115.695 615.432 114.818 617.792C114.485 618.69 114.406 619.63 114.373 620.575C114.324 621.92 114.41 623.262 114.554 624.599C114.562 624.676 114.568 624.755 114.574 624.832L114.528 624.855V624.857Z" fill="black"/>
<path d="M119.545 639.293C119.26 639.11 118.988 638.939 118.724 638.759C118.679 638.73 118.645 638.655 118.641 638.598C118.576 637.761 118.519 636.924 118.46 636.087C118.456 636.035 118.458 635.978 118.474 635.931C118.722 635.214 118.974 634.497 119.218 633.8C119.325 635.612 119.433 637.44 119.543 639.293H119.545Z" fill="black"/>
<path d="M100.027 674.138L99.4835 672.253H99.8302L100.191 673.734H100.199L100.563 672.253H100.916L101.284 673.734H101.292L101.674 672.253H101.991L101.443 674.138H101.116L100.734 672.679H100.726L100.358 674.138H100.027Z" fill="black"/>
<path d="M102.708 674.138L102.164 672.253H102.511L102.872 673.734H102.879L103.244 672.253H103.596L103.965 673.734H103.973L104.355 672.253H104.672L104.124 674.138H103.797L103.415 672.679H103.407L103.039 674.138H102.708Z" fill="black"/>
<path d="M105.389 674.138L104.845 672.253H105.192L105.552 673.734H105.56L105.925 672.253H106.277L106.645 673.734H106.653L107.035 672.253H107.353L106.805 674.138H106.478L106.096 672.679H106.088L105.72 674.138H105.389Z" fill="black"/>
<path d="M107.896 674.138H107.522V673.756H107.896V674.138Z" fill="black"/>
<path d="M107.908 671.552H110.008V671.861H109.133V674.138H108.785V671.861H107.91V671.552H107.908Z" fill="black"/>
<path d="M111.501 674.138V672.905C111.501 672.649 111.428 672.483 111.127 672.483C110.867 672.483 110.601 672.635 110.601 673.109V674.136H110.284V671.549H110.601V672.505H110.609C110.699 672.387 110.857 672.199 111.16 672.199C111.464 672.199 111.82 672.318 111.82 672.855V674.138H111.501Z" fill="black"/>
<path d="M113.87 673.547C113.861 673.638 113.774 673.904 113.536 674.063C113.449 674.12 113.327 674.193 113.023 674.193C112.494 674.193 112.18 673.793 112.18 673.25C112.18 672.667 112.462 672.202 113.085 672.202C113.628 672.202 113.894 672.633 113.894 673.301H112.517C112.517 673.693 112.7 673.921 113.065 673.921C113.364 673.921 113.54 673.691 113.551 673.551H113.868L113.87 673.547ZM113.567 673.047C113.549 672.755 113.427 672.485 113.041 672.485C112.75 672.485 112.519 672.755 112.519 673.047H113.567Z" fill="black"/>
<path d="M114.674 674.138H114.326V671.552H115.521C115.947 671.552 116.372 671.7 116.372 672.247C116.372 672.629 116.177 672.769 116.012 672.868C116.16 672.929 116.307 672.994 116.321 673.354L116.343 673.823C116.347 673.967 116.364 674.022 116.473 674.083V674.14H116.043C115.992 673.983 115.982 673.589 115.982 673.492C115.982 673.279 115.939 673.031 115.521 673.031H114.674V674.14V674.138ZM114.674 672.73H115.486C115.742 672.73 116.012 672.665 116.012 672.283C116.012 671.901 115.72 671.849 115.547 671.849H114.674V672.73Z" fill="black"/>
<path d="M118.417 673.547C118.407 673.638 118.32 673.904 118.082 674.063C117.995 674.12 117.873 674.193 117.57 674.193C117.04 674.193 116.727 673.793 116.727 673.25C116.727 672.667 117.008 672.202 117.631 672.202C118.174 672.202 118.44 672.633 118.44 673.301H117.064C117.064 673.693 117.247 673.921 117.611 673.921C117.911 673.921 118.086 673.691 118.098 673.551H118.415L118.417 673.547ZM118.113 673.047C118.096 672.755 117.974 672.485 117.588 672.485C117.296 672.485 117.066 672.755 117.066 673.047H118.113Z" fill="black"/>
<path d="M118.805 672.254H119.104V672.52H119.112C119.181 672.42 119.342 672.199 119.681 672.199C120.02 672.199 120.128 672.404 120.182 672.505C120.341 672.327 120.465 672.199 120.759 672.199C120.96 672.199 121.342 672.304 121.342 672.833V674.137H121.025V672.92C121.025 672.66 120.946 672.485 120.676 672.485C120.406 672.485 120.233 672.737 120.233 672.989V674.139H119.916V672.835C119.916 672.676 119.855 672.487 119.62 672.487C119.441 672.487 119.124 672.603 119.124 673.113V674.139H118.807V672.254H118.805Z" fill="black"/>
<path d="M121.787 672.828C121.801 672.377 122.1 672.202 122.565 672.202C122.717 672.202 123.264 672.245 123.264 672.728V673.811C123.264 673.89 123.304 673.923 123.369 673.923C123.398 673.923 123.438 673.915 123.473 673.909V674.14C123.42 674.154 123.373 674.175 123.3 674.175C123.018 674.175 122.975 674.032 122.965 673.888C122.843 674.022 122.652 674.195 122.283 674.195C121.937 674.195 121.692 673.974 121.692 673.651C121.692 673.492 121.74 673.125 122.266 673.06L122.788 672.995C122.862 672.988 122.953 672.96 122.953 672.773C122.953 672.574 122.809 672.468 122.51 672.468C122.149 672.468 122.098 672.686 122.079 672.832H121.787V672.828ZM122.947 673.177C122.896 673.216 122.817 673.246 122.425 673.295C122.27 673.317 122.021 673.364 122.021 673.6C122.021 673.805 122.126 673.927 122.364 673.927C122.66 673.927 122.947 673.736 122.947 673.484V673.175V673.177Z" fill="black"/>
<path d="M125.323 674.138H125.023V673.878H125.015C124.879 674.134 124.663 674.191 124.48 674.191C123.837 674.191 123.65 673.589 123.65 673.14C123.65 672.61 123.934 672.2 124.436 672.2C124.779 672.2 124.923 672.413 124.998 672.521L125.006 672.495V671.552H125.323V674.138ZM124.488 673.918C124.688 673.918 125.004 673.784 125.004 673.283C125.004 672.978 124.952 672.484 124.495 672.484C124.005 672.484 123.979 672.948 123.979 673.191C123.979 673.604 124.141 673.918 124.488 673.918Z" fill="black"/>
<path d="M127.367 673.547C127.355 673.638 127.271 673.904 127.032 674.063C126.946 674.12 126.824 674.193 126.52 674.193C125.99 674.193 125.677 673.793 125.677 673.25C125.677 672.667 125.959 672.202 126.581 672.202C127.125 672.202 127.393 672.633 127.393 673.301H126.016C126.016 673.693 126.199 673.921 126.564 673.921C126.863 673.921 127.038 673.691 127.05 673.551H127.367V673.547ZM127.064 673.047C127.046 672.755 126.924 672.485 126.538 672.485C126.246 672.485 126.016 672.755 126.016 673.047H127.064Z" fill="black"/>
<path d="M128.149 674.138H127.775V673.756H128.149V674.138Z" fill="black"/>
<path d="M128.646 671.912V671.552H128.963V671.912H128.646ZM128.963 674.138H128.646V672.253H128.963V674.138Z" fill="black"/>
<path d="M130.196 672.202C130.797 672.202 131.07 672.71 131.07 673.196C131.07 673.683 130.797 674.191 130.196 674.191C129.595 674.191 129.319 673.683 129.319 673.196C129.319 672.71 129.593 672.202 130.196 672.202ZM130.196 673.917C130.649 673.917 130.743 673.449 130.743 673.196C130.743 672.944 130.651 672.475 130.196 672.475C129.741 672.475 129.648 672.944 129.648 673.196C129.648 673.449 129.743 673.917 130.196 673.917Z" fill="black"/>
<path d="M109.448 582.214V591.68H113.849V595.592H99.4932V591.68H104.223V586.455L100.151 587.759V583.518L104.223 582.214H109.448Z" fill="black"/>
<path d="M118.537 592.795V595.677H114.694V592.795H118.537Z" fill="black"/>
<path d="M131.145 590.14V591.344C131.145 593.199 130.31 594.349 129.099 595.025C128.555 595.319 127.97 595.531 127.332 595.671C126.532 595.846 125.689 595.913 124.889 595.913C124.089 595.913 123.246 595.848 122.455 595.671C120.402 595.224 118.641 594.02 118.641 591.344V590.14C118.641 588.285 119.476 587.132 120.688 586.467C121.223 586.165 121.816 585.952 122.455 585.815C123.246 585.639 124.089 585.572 124.889 585.572C125.689 585.572 126.532 585.637 127.332 585.815C129.384 586.262 131.145 587.471 131.145 590.142V590.14ZM127.294 590.382C127.294 589.583 126.993 589.106 126.546 588.82C126.083 588.549 125.498 588.462 124.889 588.462C123.701 588.462 122.484 588.793 122.484 590.382V591.101C122.484 591.901 122.778 592.391 123.239 592.663C123.701 592.935 124.294 593.03 124.889 593.03C126.093 593.03 127.294 592.699 127.294 591.101V590.382Z" fill="black"/>
<path d="M129.4 612.109V611.632L130.519 611.083V610.618H129.4V610.189H132.341V611.229C132.341 611.705 131.933 612.093 131.429 612.093C131.039 612.093 130.704 611.859 130.576 611.53L129.4 612.107V612.109ZM131.429 611.668C131.695 611.668 131.911 611.471 131.911 611.231V610.62H130.946V611.231C130.946 611.471 131.163 611.668 131.429 611.668Z" fill="black"/>
<path d="M130.871 614.956C130.005 614.956 129.4 614.414 129.4 613.638V613.63C129.4 612.854 130.005 612.312 130.871 612.312C131.582 612.312 132.343 612.659 132.343 613.63V613.638C132.343 614.609 131.582 614.956 130.871 614.956ZM130.871 614.528C131.545 614.528 131.915 614.213 131.915 613.638V613.63C131.915 613.057 131.545 612.742 130.871 612.742C130.237 612.742 129.827 613.09 129.827 613.63V613.638C129.827 614.178 130.237 614.528 130.871 614.528Z" fill="black"/>
<path d="M129.4 617.706V617.245L130.292 616.892V615.722L129.4 615.37V614.909L132.355 616.077V616.538L129.4 617.706ZM130.722 616.723L131.774 616.307L130.722 615.892V616.723Z" fill="black"/>
<path d="M130.877 620.132C130.009 620.132 129.402 619.592 129.402 618.82V617.938H132.355V618.82C132.355 619.787 131.592 620.132 130.879 620.132H130.877ZM130.877 619.704C131.555 619.704 131.927 619.391 131.927 618.822V618.369H129.827V618.822C129.827 619.358 130.239 619.704 130.877 619.704Z" fill="black"/>
<path d="M132.25 623.098H129.4V622.671H131.313L129.902 621.993V621.607L131.305 620.935H129.4V620.508H132.248L132.341 620.916L130.489 621.802L132.343 622.694L132.25 623.102V623.098Z" fill="black"/>
<path d="M129.4 626.13V625.669L130.292 625.316V624.146L129.4 623.794V623.333L132.355 624.501V624.962L129.4 626.13ZM130.722 625.147L131.774 624.731L130.722 624.316V625.147Z" fill="black"/>
<path d="M131.437 628.269C130.934 628.269 130.525 627.881 130.525 627.404V626.792H129.4V626.362H132.349V627.403C132.349 627.879 131.939 628.267 131.437 628.267V628.269ZM131.437 627.842C131.703 627.842 131.921 627.645 131.921 627.404V626.792H130.954V627.404C130.954 627.647 131.171 627.842 131.437 627.842Z" fill="black"/>
<path d="M132.357 632.534L129.402 631.332V630.938L132.357 629.737V630.197L130.052 631.133L132.357 632.069V632.534Z" fill="black"/>
<path d="M132.355 633.623H129.402V633.199H131.709L131.523 632.778L131.91 632.608L132.355 633.623Z" fill="black"/>
<path d="M129.4 634.056H129.916V634.499H129.4V634.056Z" fill="black"/>
<path d="M130.877 636.97C130.009 636.97 129.402 636.505 129.402 635.841V635.833C129.402 635.17 130.009 634.705 130.877 634.705C131.59 634.705 132.353 635.002 132.353 635.833C132.353 636.665 131.59 636.97 130.877 636.97ZM130.877 636.548C131.557 636.548 131.931 636.296 131.931 635.841C131.931 635.386 131.557 635.126 130.877 635.126C130.247 635.126 129.824 635.41 129.824 635.833V635.841C129.824 636.265 130.247 636.548 130.877 636.548Z" fill="black"/>
</g>
<defs>
<filter id="filter0_d_422_10267" x="0" y="0" width="77.3799" height="685.08" filterUnits="userSpaceOnUse" color-interpolation-filters="sRGB">
<feFlood flood-opacity="0" result="BackgroundImageFix"/>
<feColorMatrix in="SourceAlpha" type="matrix" values="0 0 0 0 0 0 0 0 0 0 0 0 0 0 0 0 0 0 127 0" result="hardAlpha"/>
<feOffset dx="7" dy="7"/>
<feComposite in2="hardAlpha" operator="out"/>
<feColorMatrix type="matrix" values="0 0 0 0 0.059375 0 0 0 0 0.395833 0 0 0 0 0.238371 0 0 0 1 0"/>
<feBlend mode="normal" in2="BackgroundImageFix" result="effect1_dropShadow_422_10267"/>
<feBlend mode="normal" in="SourceGraphic" in2="effect1_dropShadow_422_10267" result="shape"/>
</filter>
<filter id="filter1_d_422_10267" x="94.3801" y="533.478" width="45.2385" height="148.603" filterUnits="userSpaceOnUse" color-interpolation-filters="sRGB">
<feFlood flood-opacity="0" result="BackgroundImageFix"/>
<feColorMatrix in="SourceAlpha" type="matrix" values="0 0 0 0 0 0 0 0 0 0 0 0 0 0 0 0 0 0 127 0" result="hardAlpha"/>
<feOffset dx="4" dy="4"/>
<feComposite in2="hardAlpha" operator="out"/>
<feColorMatrix type="matrix" values="0 0 0 0 0.983333 0 0 0 0 0.804244 0 0 0 0 0.405625 0 0 0 1 0"/>
<feBlend mode="normal" in2="BackgroundImageFix" result="effect1_dropShadow_422_10267"/>
<feBlend mode="normal" in="SourceGraphic" in2="effect1_dropShadow_422_10267" result="shape"/>
</filter>
</defs>
</svg>
