<svg width="24" height="24" viewBox="0 0 24 24" fill="none" xmlns="http://www.w3.org/2000/svg">
<path d="M12 2.25C6.61638 2.25 2.25 6.61638 2.25 12C2.25 17.3836 6.61638 21.75 12 21.75C17.3836 21.75 21.75 17.3836 21.75 12C21.75 6.61638 17.3861 2.25 12 2.25ZM7.06 12.3274L7.10144 12.2616L9.63887 8.29338C9.64737 8.28033 9.65922 8.26981 9.67317 8.26291C9.68713 8.256 9.70268 8.25298 9.71821 8.25414C9.73373 8.2553 9.74866 8.26061 9.76143 8.26951C9.7742 8.27842 9.78435 8.29059 9.79081 8.30475C10.2133 9.25456 10.5806 10.4359 10.4083 11.1712C10.3368 11.4735 10.1361 11.883 9.90944 12.2616C9.88036 12.317 9.84863 12.371 9.81438 12.4233C9.80617 12.435 9.79519 12.4444 9.78243 12.4508C9.76966 12.4572 9.75551 12.4603 9.74125 12.4599H7.13556C7.12001 12.4601 7.10468 12.4561 7.09121 12.4484C7.07773 12.4406 7.06661 12.4293 7.05903 12.4157C7.05145 12.4022 7.04769 12.3868 7.04814 12.3712C7.0486 12.3557 7.05326 12.3406 7.06162 12.3274H7.06ZM18.3651 13.6924C18.3653 13.7098 18.3604 13.7268 18.351 13.7414C18.3417 13.756 18.3282 13.7675 18.3123 13.7745C18.1149 13.8582 17.4429 14.1686 17.1634 14.5561C16.4501 15.549 15.9057 16.9692 14.6869 16.9692H9.60556C9.17653 16.9686 8.75184 16.8834 8.35574 16.7186C7.95964 16.5537 7.59992 16.3125 7.29711 16.0085C6.99431 15.7046 6.75437 15.344 6.591 14.9472C6.42763 14.5505 6.34404 14.1255 6.345 13.6965V13.638C6.345 13.5909 6.384 13.5519 6.43275 13.5519H9.26431C9.32119 13.5519 9.36181 13.6031 9.35775 13.6591C9.33663 13.8427 9.37156 14.0321 9.45931 14.2035C9.62669 14.5447 9.97606 14.7576 10.3523 14.7576H11.7546V13.6632H10.3669C10.3506 13.663 10.3347 13.6584 10.3209 13.6499C10.307 13.6413 10.2958 13.6292 10.2883 13.6147C10.2809 13.6002 10.2776 13.584 10.2787 13.5678C10.2797 13.5516 10.2852 13.536 10.2946 13.5226L10.3457 13.4495C10.4757 13.2618 10.6634 12.9734 10.8503 12.6435C10.9771 12.4209 11.1006 12.1836 11.1997 11.9448C11.2192 11.9025 11.2346 11.8578 11.2525 11.8148C11.2793 11.7384 11.3069 11.6669 11.3264 11.5962C11.3456 11.5362 11.3632 11.4758 11.3793 11.415C11.4256 11.2119 11.4451 10.9974 11.4451 10.7756C11.4451 10.6878 11.4418 10.596 11.4337 10.5099C11.4296 10.4148 11.4174 10.3189 11.4061 10.2239C11.397 10.1388 11.384 10.0542 11.3671 9.97037C11.3452 9.84269 11.3186 9.71585 11.2874 9.59013L11.2761 9.54137C11.2517 9.45362 11.2306 9.37075 11.2029 9.28381C11.1256 9.01683 11.0367 8.75333 10.9364 8.49406C10.9015 8.39654 10.863 8.30033 10.8211 8.20562C10.7626 8.061 10.7024 7.93019 10.648 7.8075C10.6209 7.75494 10.5954 7.70156 10.5716 7.64744C10.5452 7.58905 10.5173 7.53134 10.4879 7.47437C10.4684 7.43131 10.4449 7.38987 10.4294 7.35087L10.258 7.03562C10.2344 6.99256 10.2734 6.93975 10.3206 6.95356L11.3931 7.24362H11.4012L11.5417 7.28425L11.6978 7.32812L11.7546 7.34356V6.70738C11.7546 6.39944 12 6.15 12.3063 6.15C12.3786 6.14981 12.4503 6.16425 12.5169 6.19245C12.5835 6.22066 12.6437 6.26204 12.6939 6.31412C12.7976 6.41876 12.856 6.56003 12.8564 6.70738V7.65313L12.9709 7.68481C12.9791 7.68888 12.9888 7.69294 12.9961 7.69862C13.0237 7.71812 13.0644 7.749 13.1156 7.788C13.1562 7.81887 13.1993 7.85788 13.2496 7.89931C13.4101 8.03003 13.5656 8.16662 13.716 8.30881C13.8899 8.4705 14.0849 8.65981 14.2717 8.87025C14.3246 8.93037 14.3749 8.98887 14.4277 9.05387C14.4781 9.11806 14.535 9.18062 14.5821 9.24237C14.6463 9.32687 14.7121 9.41463 14.7731 9.50563C14.7999 9.54869 14.8332 9.59337 14.8584 9.63644C14.9364 9.75181 15.003 9.87044 15.0672 9.98988C15.0948 10.0443 15.1216 10.1044 15.1452 10.1629C15.2175 10.323 15.2744 10.4847 15.3093 10.6488C15.3209 10.6836 15.3288 10.7196 15.3329 10.7561V10.7642C15.3442 10.8105 15.3483 10.8617 15.3524 10.9137C15.3753 11.1538 15.3459 11.3961 15.2663 11.6238C15.2411 11.6921 15.2175 11.7619 15.1866 11.8302C15.1257 11.9683 15.0558 12.1089 14.9721 12.2381C14.9445 12.2868 14.9112 12.3372 14.8803 12.3859C14.8454 12.4371 14.808 12.4859 14.7771 12.5322C14.7324 12.5937 14.6856 12.6536 14.6366 12.7118C14.5935 12.7703 14.5504 12.8288 14.5017 12.8816C14.4359 12.9612 14.3717 13.0359 14.3026 13.1074C14.2636 13.1546 14.2214 13.2033 14.1759 13.2456C14.1336 13.2943 14.0881 13.3374 14.0491 13.3764C13.9809 13.4446 13.9273 13.4958 13.8801 13.5405L13.7688 13.6396C13.7533 13.6552 13.7323 13.6639 13.7103 13.664H12.8564V14.7576H13.9305C14.1702 14.7576 14.3985 14.6731 14.5838 14.5155C14.6463 14.4611 14.9209 14.223 15.2468 13.8639C15.2574 13.8516 15.2716 13.8431 15.2874 13.8395L18.253 12.9807C18.266 12.9769 18.2797 12.9762 18.2931 12.9786C18.3064 12.9811 18.319 12.9866 18.3299 12.9947C18.3407 13.0028 18.3496 13.0133 18.3557 13.0254C18.3618 13.0375 18.365 13.0508 18.3651 13.0644V13.6924Z" fill="#80FF00"/>
</svg>
