<svg width="280" height="288" viewBox="0 0 280 288" fill="none" xmlns="http://www.w3.org/2000/svg">
<path d="M41.1701 223.811C40.806 224.463 40.4815 225.136 40.1984 225.827C37.4168 225.387 34.5834 225.387 31.8018 225.827C31.5187 225.136 31.1942 224.463 30.8301 223.811C28.2099 224.258 25.6627 225.06 23.2584 226.194C18.9592 232.398 17.0094 239.931 17.7584 247.442C20.5602 249.548 23.7048 251.155 27.0534 252.191C27.8159 251.183 28.4964 250.117 29.0884 249.001C27.9959 248.598 26.9458 248.088 25.9534 247.479C26.2256 247.298 26.4831 247.095 26.7234 246.874C29.6173 248.268 32.788 248.992 36.0001 248.992C39.2122 248.992 42.3829 248.268 45.2768 246.874C45.5334 247.094 45.7901 247.296 46.0468 247.479C45.049 248.083 43.9999 248.599 42.9118 249.019C43.4792 250.16 44.1415 251.252 44.8918 252.282C48.2362 251.25 51.3754 249.643 54.1684 247.534C54.9354 240.021 52.9841 232.483 48.6684 226.286C46.2912 225.128 43.7692 224.296 41.1701 223.811V223.811ZM29.9134 243.152C28.996 243.086 28.1398 242.668 27.5244 241.984C26.9091 241.3 26.5826 240.405 26.6134 239.486C26.578 238.565 26.9029 237.667 27.5191 236.982C28.1353 236.298 28.9943 235.88 29.9134 235.819C30.8325 235.88 31.6915 236.298 32.3077 236.982C32.924 237.667 33.2489 238.565 33.2134 239.486C33.2489 240.406 32.924 241.304 32.3077 241.989C31.6915 242.673 30.8325 243.091 29.9134 243.152V243.152ZM42.0868 243.152C41.1693 243.086 40.3131 242.668 39.6978 241.984C39.0825 241.3 38.756 240.405 38.7868 239.486C38.7513 238.565 39.0762 237.667 39.6924 236.982C40.3087 236.298 41.1676 235.88 42.0868 235.819C43.0076 235.876 43.8693 236.292 44.4865 236.977C45.1037 237.663 45.427 238.564 45.3868 239.486C45.427 240.407 45.1037 241.308 44.4865 241.994C43.8693 242.679 43.0076 243.095 42.0868 243.152V243.152Z" fill="#80FF00"/>
<path d="M26.176 165.56L43 165.56L43 153.392C43 151.328 42.832 149.504 42.472 147.944C42.136 146.36 41.704 145.112 41.176 144.176C40.648 143.264 40 142.52 39.232 141.92C38.488 141.344 37.768 140.96 37.048 140.768C36.352 140.552 35.608 140.456 34.816 140.456L34.12 140.456C33.448 140.456 32.824 140.528 32.224 140.696C31.624 140.84 31.024 141.104 30.4 141.44C29.776 141.8 29.224 142.304 28.744 142.952C28.24 143.6 27.808 144.392 27.4 145.328C26.992 146.24 26.704 147.392 26.488 148.784C26.272 150.152 26.176 151.712 26.176 153.416L26.176 165.56ZM30.136 159.824L30.136 153.848C30.136 148.928 31.576 146.48 34.48 146.48L34.6 146.48C37.504 146.48 38.944 148.928 38.944 153.848L38.944 159.824L30.136 159.824ZM26.248 132.614L26.248 138.326L43 138.326L43 132.614L26.248 132.614ZM43.312 119.644L43.312 117.964C43.312 116.188 43.216 114.628 42.976 113.308C42.76 111.988 42.496 110.956 42.136 110.188C41.8 109.42 41.368 108.82 40.864 108.364C40.336 107.908 39.832 107.596 39.352 107.452C38.872 107.308 38.32 107.236 37.696 107.236L37.384 107.236C35.68 107.236 34.456 107.98 33.664 109.516C32.872 111.028 32.44 113.476 32.392 116.908L32.368 118.636L32.344 119.98C32.32 121.156 32.248 122.068 32.104 122.716C31.936 123.364 31.768 123.772 31.6 123.94C31.408 124.132 31.192 124.204 30.904 124.204C30.592 124.204 30.352 124.132 30.184 123.964C30.016 123.82 29.848 123.364 29.68 122.644C29.536 121.9 29.464 121.036 29.464 119.644L29.464 118.804C29.464 117.892 29.512 117.364 29.608 116.692C29.728 116.02 29.848 115.492 29.968 115.156C30.112 114.796 30.28 114.532 30.496 114.316C30.712 114.1 30.88 113.956 31 113.908C31.12 113.86 31.288 113.812 31.456 113.764L31.456 107.812L31.24 107.812C30.688 107.812 30.184 107.908 29.704 108.1C29.248 108.268 28.768 108.604 28.288 109.084C27.808 109.564 27.4 110.188 27.064 110.956C26.728 111.724 26.464 112.732 26.248 114.028C26.032 115.3 25.936 116.788 25.936 118.444L25.936 120.148C25.936 121.756 26.032 123.172 26.248 124.372C26.44 125.596 26.704 126.556 27.016 127.276C27.328 127.996 27.712 128.572 28.168 129.004C28.648 129.46 29.104 129.748 29.56 129.892C30.016 130.036 30.52 130.108 31.048 130.108L31.264 130.108C34.384 130.108 36.04 127.132 36.184 121.18L36.208 119.836L36.256 118.036C36.28 116.668 36.376 115.636 36.52 114.916C36.688 114.196 36.88 113.716 37.072 113.524C37.288 113.332 37.576 113.236 37.936 113.236C38.2 113.236 38.416 113.284 38.608 113.404C38.8 113.524 38.968 113.74 39.16 114.1C39.352 114.436 39.472 114.988 39.568 115.732C39.664 116.5 39.736 116.98 39.736 118.132L39.736 119.452C39.736 122.956 38.848 124.252 37.072 124.372L37.072 130.348L37.312 130.348C37.84 130.348 38.344 130.3 38.8 130.18C39.256 130.06 39.784 129.772 40.36 129.34C40.936 128.908 41.44 128.308 41.848 127.588C42.256 126.844 42.592 125.788 42.88 124.42C43.168 123.076 43.312 121.468 43.312 119.644ZM43.288 93.4301L43.288 92.4221C43.288 90.4301 43.12 88.6541 42.784 87.1181C42.424 85.5821 41.992 84.3821 41.512 83.5421C41.008 82.6781 40.432 81.9821 39.784 81.4301C39.112 80.9021 38.536 80.5421 38.008 80.3501C37.48 80.1821 36.952 80.1101 36.448 80.1101L36.208 80.1101L36.208 86.2061C36.232 86.2061 36.256 86.2061 36.28 86.2301C38.224 86.9021 39.208 89.1101 39.208 92.8781C39.208 94.1501 39.064 95.2541 38.776 96.1901C38.488 97.1261 38.104 97.8221 37.624 98.3021C37.144 98.7821 36.664 99.1421 36.16 99.3581C35.656 99.5741 35.128 99.6941 34.576 99.6941L34.312 99.6941C33.736 99.6941 33.208 99.5981 32.728 99.3821C32.248 99.1901 31.792 98.8541 31.336 98.3981C30.904 97.9181 30.568 97.2221 30.328 96.2861C30.064 95.3741 29.944 94.2461 29.944 92.9261C29.944 91.8221 30.04 90.8621 30.208 89.9981C30.376 89.1581 30.568 88.5101 30.784 88.0781C31 87.6461 31.264 87.2861 31.576 86.9741C31.888 86.6621 32.128 86.4701 32.272 86.3981C32.416 86.3261 32.56 86.2781 32.752 86.2301L32.752 80.1341L32.488 80.1341C32.032 80.1341 31.552 80.2061 31.048 80.3501C30.544 80.5181 29.968 80.8541 29.32 81.4061C28.672 81.9341 28.12 82.6301 27.616 83.4701C27.136 84.3101 26.728 85.5101 26.368 87.0461C26.032 88.6061 25.864 90.3821 25.864 92.4221L25.864 93.4301C25.864 95.4941 26.056 97.3181 26.464 98.8541C26.848 100.414 27.328 101.614 27.904 102.454C28.48 103.294 29.176 103.966 29.968 104.494C30.76 104.998 31.48 105.334 32.128 105.478C32.776 105.622 33.472 105.694 34.192 105.694L34.864 105.694C35.32 105.694 35.776 105.67 36.256 105.598C36.712 105.526 37.24 105.358 37.816 105.118C38.392 104.878 38.92 104.59 39.424 104.23C39.928 103.87 40.408 103.366 40.912 102.718C41.392 102.07 41.8 101.35 42.16 100.51C42.496 99.6941 42.76 98.6621 42.976 97.4381C43.192 96.2141 43.288 94.8941 43.288 93.4301ZM25.936 65.7592C25.936 67.3672 26.032 68.8072 26.248 70.1272C26.44 71.4232 26.704 72.5272 27.04 73.4152C27.376 74.2792 27.784 75.0472 28.264 75.6952C28.744 76.3672 29.224 76.8712 29.704 77.2552C30.184 77.6152 30.712 77.9032 31.288 78.1192C31.864 78.3592 32.392 78.5032 32.824 78.5512C33.28 78.6232 33.736 78.6472 34.24 78.6472L34.912 78.6472C35.392 78.6472 35.872 78.6232 36.328 78.5512C36.76 78.5032 37.288 78.3592 37.864 78.1192C38.44 77.9032 38.968 77.6152 39.472 77.2552C39.952 76.8712 40.432 76.3672 40.936 75.6952C41.416 75.0232 41.824 74.2552 42.184 73.3912C42.52 72.5272 42.784 71.4232 43 70.1272C43.216 68.8072 43.312 67.3672 43.312 65.7592L43.312 64.9912C43.312 63.3832 43.216 61.9432 43 60.6472C42.784 59.3272 42.52 58.2472 42.184 57.3832C41.824 56.5192 41.416 55.7512 40.936 55.0792C40.432 54.4072 39.952 53.9032 39.472 53.5432C38.968 53.1832 38.44 52.8952 37.864 52.6552C37.288 52.4392 36.76 52.2712 36.328 52.2232C35.872 52.1512 35.392 52.1272 34.912 52.1272L34.24 52.1272C33.736 52.1272 33.28 52.1512 32.824 52.2232C32.368 52.2712 31.864 52.4392 31.288 52.6552C30.712 52.8952 30.184 53.1832 29.704 53.5672C29.224 53.9272 28.744 54.4312 28.264 55.1032C27.784 55.7512 27.376 56.5192 27.04 57.3832C26.704 58.2712 26.44 59.3512 26.248 60.6472C26.032 61.9432 25.936 63.3832 25.936 64.9912L25.936 65.7592ZM34.72 58.1272C35.248 58.1272 35.776 58.2232 36.256 58.4392C36.736 58.6312 37.216 58.9912 37.672 59.4952C38.152 59.9992 38.536 60.7672 38.8 61.7992C39.064 62.6872 39.184 63.7672 39.232 64.9912C39.232 65.1832 39.232 65.4712 39.232 65.5912C39.208 66.9112 39.064 68.0632 38.8 69.0232C38.512 70.0552 38.128 70.7992 37.648 71.3032C37.168 71.7832 36.688 72.1432 36.208 72.3352C35.728 72.5512 35.2 72.6472 34.672 72.6472L34.408 72.6472C31.552 72.6472 30.088 70.3192 29.992 65.6872C29.992 65.5432 29.992 65.1112 30.016 64.8952C30.04 63.9592 30.112 63.1192 30.28 62.3752C30.472 61.4872 30.712 60.7672 31 60.2392C31.264 59.7112 31.624 59.2792 32.032 58.9672C32.44 58.6312 32.824 58.4152 33.208 58.2952C33.568 58.1752 33.976 58.1272 34.408 58.1272L34.72 58.1272ZM36.016 30.1668C35.368 30.7428 34.936 31.5108 34.672 32.4468C34 30.4068 32.8 29.3748 31.048 29.3748L30.784 29.3748C27.928 29.3748 26.488 31.7748 26.488 36.5748L26.488 49.9428L43 49.9428L43 44.7588L37.144 44.7588L37.144 37.9908C37.144 36.7188 37.384 35.8308 37.84 35.3028C38.296 34.7748 39.04 34.5108 40.048 34.5108L43 34.5108L43 29.3028L38.464 29.3028C37.456 29.3028 36.64 29.5908 36.016 30.1668ZM31.864 34.7988C32.344 34.7988 32.752 34.9668 33.04 35.3028C33.328 35.6388 33.496 36.1668 33.496 36.8868L33.496 44.7588L30.232 44.7588L30.232 36.8868C30.232 36.1668 30.4 35.6388 30.688 35.3028C30.976 34.9668 31.36 34.7988 31.84 34.7988L31.864 34.7988ZM26.176 26.7397L43 26.7397L43 14.5717C43 12.5077 42.832 10.6837 42.472 9.12369C42.136 7.53969 41.704 6.29169 41.176 5.35569C40.648 4.44369 40 3.69968 39.232 3.09969C38.488 2.52369 37.768 2.13969 37.048 1.94769C36.352 1.73169 35.608 1.63569 34.816 1.63569L34.12 1.63569C33.448 1.63569 32.824 1.70769 32.224 1.87569C31.624 2.01969 31.024 2.28369 30.4 2.61969C29.776 2.97969 29.224 3.48369 28.744 4.13169C28.24 4.77969 27.808 5.57169 27.4 6.50769C26.992 7.41969 26.704 8.57169 26.488 9.96369C26.272 11.3317 26.176 12.8917 26.176 14.5957L26.176 26.7397ZM30.136 21.0037L30.136 15.0277C30.136 10.1077 31.576 7.65969 34.48 7.65969L34.6 7.65969C37.504 7.65969 38.944 10.1077 38.944 15.0277L38.944 21.0037L30.136 21.0037Z" fill="white"/>
<path fill-rule="evenodd" clip-rule="evenodd" d="M66.477 0.231861C65.8526 0.484036 65.8355 47.2891 66.4594 47.9133C67.067 48.5209 113.333 48.5209 113.94 47.9133C114.259 47.5945 114.36 41.7963 114.36 23.9591C114.36 2.82226 114.304 0.40348 113.807 0.212598C113.145 -0.0416788 67.1079 -0.0227656 66.477 0.231861ZM121.801 0.228008C121.497 0.353395 121.364 1.36315 121.364 3.5315V6.65462H124.286C128.076 6.65462 128.553 7.07316 128.274 10.1525C127.936 13.8805 127.54 13.6595 134.558 13.6595C138.1 13.6595 140.953 13.8118 141.345 14.022C141.92 14.3295 142.023 14.7719 142.023 16.9322C142.023 18.4221 141.841 19.7246 141.585 20.0696C141.196 20.5939 140.061 20.6692 131.343 20.7495L121.539 20.8395L121.448 37.592C121.372 51.5015 121.272 54.4288 120.86 54.8414C120.466 55.2347 119.008 55.3384 113.86 55.3384H107.357V58.6657V61.993H104.95C103.626 61.993 102.05 61.8946 101.449 61.7741L100.354 61.5552V58.4468V55.3384H97.273C95.3433 55.3384 94.0347 55.4953 93.7714 55.7587C93.3064 56.2238 93.2451 58.9704 93.6755 60.0667C93.8726 60.57 93.7522 60.9399 93.2469 61.3801C92.6149 61.931 91.6036 61.9923 83.2308 61.9878C78.1087 61.9846 73.7276 61.8614 73.4954 61.7139C73.2349 61.5482 73.0336 60.3087 72.9702 58.4794L72.8673 55.5135H69.5408H66.2143V65.4955V75.4774H69.5408H72.8673L72.9702 72.5179C73.0266 70.8899 73.243 69.3534 73.4506 69.103C73.7332 68.7622 75.3166 68.6477 79.738 68.6477C85.2543 68.6477 85.6962 68.696 86.3751 69.3751C86.7754 69.7754 87.0117 70.34 86.9004 70.6297C86.7894 70.9197 86.6983 72.1683 86.6983 73.4047V75.6525H83.5676C81.529 75.6525 80.3472 75.7975 80.1799 76.0683C80.0388 76.297 79.9586 77.8731 80.0023 79.5707L80.0815 82.6574H73.2727C67.3874 82.6574 66.4356 82.7323 66.2518 83.2115C65.8645 84.2212 66.0221 88.8045 66.4594 89.242C66.7186 89.5011 67.991 89.6623 69.7793 89.6623C73.1817 89.6623 73.1418 89.6097 72.972 93.8694L72.8673 96.492L69.5408 96.6671L66.2143 96.8422L66.1117 99.7892C66.0379 101.911 66.1359 102.817 66.4619 103.024C66.7109 103.182 68.2936 103.313 69.9785 103.316L73.0423 103.322V106.824V110.327H70.0947C65.9234 110.327 66.0393 110.232 66.0393 113.621C66.0393 115.386 66.201 116.653 66.4594 116.911C67.0207 117.473 72.0609 117.473 72.6222 116.911C72.8855 116.648 73.0423 115.339 73.0423 113.409V110.327H76.5617H80.0815L79.9999 113.506C79.9036 117.264 79.9491 117.319 83.2062 117.326C86.6738 117.334 86.9613 117.011 86.768 113.327L86.6104 110.327H89.981C93.8061 110.327 93.5074 110.012 93.367 113.886C93.2889 116.041 93.3502 116.264 94.1688 116.801C94.7872 117.206 95.7246 117.365 97.267 117.329C98.4838 117.3 99.6761 117.289 99.9166 117.304C100.234 117.324 100.354 118.245 100.354 120.659V123.986H93.9465C89.4295 123.986 87.4147 124.11 87.1185 124.406C86.8128 124.712 86.6983 127.373 86.6983 134.184C86.6983 139.331 86.7939 143.792 86.9109 144.096C87.0824 144.544 87.7176 144.65 90.1999 144.65C93.8103 144.65 93.8043 144.656 93.4808 141.171C93.1576 137.696 93.2662 137.646 101.133 137.646H107.357V140.594C107.357 142.216 107.453 143.792 107.57 144.096C107.753 144.573 108.667 144.65 114.153 144.65C118.641 144.65 120.647 144.775 120.943 145.071C121.239 145.367 121.364 147.374 121.364 151.863C121.364 157.35 121.441 158.264 121.917 158.448C122.222 158.565 125.213 158.66 128.564 158.66C135.635 158.66 135.13 158.327 134.949 162.867L134.844 165.49L128.104 165.585L121.364 165.68V168.787C121.364 172.396 121.288 172.32 124.869 172.32C128.125 172.32 128.522 172.73 128.262 175.826C128.156 177.099 128.205 178.362 128.372 178.633C128.595 178.994 129.352 179.104 131.235 179.048C134.845 178.941 135.076 179.178 134.947 182.876L134.844 185.804L131.886 185.907C130.258 185.963 128.728 186.175 128.485 186.376C128.165 186.642 128.1 187.481 128.251 189.433C128.412 191.529 128.348 192.213 127.957 192.538C127.682 192.766 126.125 193 124.497 193.056L121.539 193.159L121.437 196.282C121.363 198.543 121.459 199.483 121.787 199.691C122.035 199.849 128.1 199.98 135.265 199.984C150.264 199.99 149.075 200.312 148.774 196.318C148.626 194.373 148.699 193.75 149.114 193.406C149.504 193.082 151.321 192.993 156.074 193.063L162.507 193.159L162.553 195.819C162.634 200.426 161.56 199.989 172.79 199.989C179.876 199.989 182.614 199.875 182.921 199.569C183.184 199.305 183.341 197.996 183.341 196.066V192.984H186.342C188.434 192.984 189.49 193.131 189.829 193.469C190.146 193.786 190.35 194.973 190.417 196.884L190.519 199.814L193.418 199.916C195.607 199.993 196.444 199.891 196.832 199.503C197.248 199.087 197.347 197.739 197.347 192.483V185.979H200.703H204.06L203.983 192.371C203.941 195.887 204.023 199.039 204.165 199.376C204.403 199.938 205.212 199.989 213.988 199.989C219.248 199.989 223.8 199.893 224.105 199.776C224.582 199.593 224.659 198.679 224.659 193.192C224.659 188.703 224.535 186.695 224.239 186.399C223.975 186.136 222.667 185.979 220.737 185.979H217.656V179.362C217.656 171.782 217.388 172.32 221.157 172.32C224.736 172.32 224.659 172.242 224.659 175.872V178.999L228.073 178.899L231.487 178.799L231.59 175.833C231.653 174.004 231.854 172.764 232.115 172.599C232.347 172.451 235.407 172.328 238.914 172.325L245.292 172.32L245.392 175.559L245.493 178.799L248.119 178.891C249.563 178.941 251.104 179.167 251.543 179.393L252.34 179.803L252.31 189.289C252.294 194.506 252.385 199.047 252.513 199.382C252.709 199.891 253.219 199.989 255.673 199.989C259.187 199.989 259.343 199.825 259.068 196.402C258.81 193.186 259.022 192.984 262.656 192.984C264.974 192.984 265.594 192.873 265.764 192.43C266.183 191.338 266 179.838 265.557 179.395C265.298 179.135 264.025 178.974 262.237 178.974C258.849 178.974 258.868 178.999 259.044 174.939L259.149 172.495L261.775 172.406C266.237 172.256 266.02 172.44 265.903 168.895L265.802 165.84L262.68 165.738C260.419 165.664 259.479 165.761 259.271 166.088C259.114 166.337 258.982 167.841 258.979 169.43L258.974 172.32H252.146H245.318V166.044C245.318 162.592 245.413 159.519 245.53 159.214C245.7 158.772 246.319 158.66 248.612 158.66C250.376 158.66 251.642 158.498 251.901 158.24C252.462 157.678 252.462 152.637 251.901 152.076C251.605 151.779 249.59 151.655 245.073 151.655C241.064 151.655 238.649 151.524 238.621 151.305C238.426 149.742 238.501 145.759 238.734 145.277C238.97 144.792 239.609 144.658 242.084 144.577L245.143 144.475L245.246 141.505C245.332 139.013 245.251 138.463 244.741 138.09C244.304 137.77 242.383 137.646 237.898 137.646H231.662V134.318V130.991H241.991H252.321V134.318V137.646H255.255C257.429 137.646 258.3 137.781 258.622 138.169C258.947 138.561 259.041 141.067 258.997 148.157C258.947 156.107 259.02 157.706 259.456 158.141C260.222 158.908 265.468 158.879 265.764 158.106C265.881 157.801 265.977 148.591 265.977 137.638C265.977 122.231 265.879 117.663 265.545 117.456C265.308 117.309 263.989 117.231 262.616 117.282C259.362 117.404 258.974 117.049 258.974 113.956C258.974 110.496 259.144 110.327 262.625 110.327C264.971 110.327 265.594 110.217 265.764 109.773C265.881 109.468 265.977 105.068 265.977 99.9944C265.977 94.9212 265.881 90.5211 265.764 90.2163C265.595 89.7736 264.976 89.6623 262.683 89.6623C260.919 89.6623 259.652 89.5004 259.394 89.242C258.803 88.6511 258.832 83.5614 259.429 83.0658C259.679 82.8581 261.216 82.6416 262.843 82.5852L265.802 82.4823V68.9979V55.5135L262.573 55.413C259.345 55.3125 259.344 55.3129 259.113 56.2322C258.986 56.738 258.97 58.0048 259.078 59.0475C259.378 61.9507 259.281 61.9941 252.559 61.9881C249.443 61.9857 246.539 61.8883 246.106 61.7724C245.364 61.5734 245.318 61.3801 245.318 58.4496V55.3384H228.486C214.138 55.3384 211.577 55.2624 211.138 54.8232C210.724 54.4092 210.629 53.1876 210.653 48.6064C210.67 45.4707 210.677 42.5503 210.668 42.1167C210.653 41.356 210.538 41.3287 207.326 41.3287H204V47.9711C204 55.7328 204.214 55.3384 199.996 55.3384H197.347V58.4531C197.347 60.9703 197.241 61.6085 196.793 61.7804C196.488 61.8974 194.913 61.993 193.291 61.993H190.344V58.6783V55.3636L193.758 55.2635L197.172 55.1633L197.267 48.259L197.362 41.3546L200.593 41.2541L203.825 41.1536L203.929 38.531C204.101 34.2209 204.187 34.3238 200.404 34.3231L197.172 34.3224L197.232 27.9312C197.265 24.4162 197.304 21.3431 197.32 21.1022C197.339 20.7841 198.267 20.6643 200.709 20.6643H204.071L203.951 23.5539C203.885 25.1429 203.957 26.6405 204.111 26.8812C204.301 27.1778 205.4 27.319 207.522 27.319C209.785 27.319 210.657 27.1978 210.667 26.8812C210.713 25.4798 210.731 21.7977 210.695 21.2773C210.658 20.74 210.246 20.6643 207.354 20.6643H204.055L203.923 17.95C203.727 13.9372 203.971 13.6595 207.684 13.6595C210.269 13.6595 210.655 13.5803 210.675 13.0466C210.822 9.06114 210.699 7.24828 210.262 6.96424C209.995 6.79051 206.941 6.68929 203.475 6.73938L197.172 6.82974L197.285 3.94094C197.435 0.116281 197.257 -0.0616429 193.418 0.0732007L190.519 0.175122L190.418 3.41487L190.318 6.65462H193.412C195.352 6.65462 196.663 6.81153 196.927 7.07491C197.545 7.69344 197.481 12.524 196.846 13.159C196.452 13.5534 195.086 13.6595 190.397 13.6595C187.126 13.6595 184.199 13.7551 183.895 13.8721C183.448 14.0437 183.341 14.679 183.341 17.1619C183.341 20.7498 183.252 20.6643 186.976 20.6643C188.475 20.6643 189.674 20.8353 189.924 21.0846C190.177 21.3386 190.344 22.5707 190.344 24.1994C190.344 27.3543 190.385 27.319 186.708 27.319C185.209 27.319 184.01 27.4899 183.761 27.7393C183.498 28.0026 183.341 29.3115 183.341 31.2417V34.3238H180.259C178.33 34.3238 177.021 34.4807 176.758 34.7441C176.463 35.0394 176.338 37.0074 176.338 41.356C176.338 46.2419 176.234 47.6334 175.846 47.9553C175.535 48.2138 174.286 48.3255 172.432 48.2607L169.51 48.1584L169.453 45.3565C169.421 43.8154 169.382 42.2789 169.365 41.9416C169.338 41.4057 168.94 41.3287 166.204 41.3287C164.084 41.3287 162.986 41.4695 162.804 41.7647C162.655 42.0047 162.528 43.5412 162.521 45.1796L162.507 48.1584L159.584 48.2607C157.73 48.3255 156.481 48.2138 156.17 47.9553C155.77 47.6233 155.679 45.7453 155.679 37.8536C155.679 30.7808 155.565 28.0461 155.258 27.7393C154.995 27.4759 153.687 27.319 151.757 27.319H148.676V20.9095C148.676 16.3914 148.799 14.3761 149.096 14.0798C149.756 13.4189 161.759 13.4942 162.313 14.1628C162.578 14.4815 162.694 15.644 162.631 17.3356C162.511 20.5498 162.618 20.6535 166.008 20.6535C169.408 20.6535 169.498 20.5628 169.385 17.2449C169.317 15.2468 169.423 14.3722 169.768 14.0861C170.03 13.8682 171.576 13.6437 173.204 13.5873L176.163 13.4844L176.263 10.0821L176.363 6.67984L179.764 6.57967L183.166 6.4795L183.268 3.53255C183.342 1.41113 183.244 0.5047 182.918 0.298057C182.393 -0.0353746 177.71 -0.10157 176.892 0.212598C176.444 0.384567 176.338 1.02271 176.338 3.53991V6.65462H173.035C169.201 6.65462 169.225 6.67879 169.387 3.06708C169.441 1.86189 169.363 0.678771 169.214 0.437804C169.008 0.104723 166.617 0 159.202 0C150.933 0 149.395 0.0802058 149.022 0.529918C148.72 0.893471 148.637 1.82827 148.757 3.50313C148.879 5.21162 148.801 6.05535 148.495 6.30858C148.22 6.53694 145.684 6.63536 141.627 6.57511L135.195 6.4795L135.02 3.32731L134.844 0.175122L128.542 0.111378C125.075 0.076003 122.042 0.128539 121.801 0.228008ZM218.093 0.23081C217.749 0.370557 217.656 5.42947 217.656 23.8708C217.656 43.7377 217.732 47.4096 218.156 47.8331C218.579 48.2569 222.254 48.3336 242.135 48.3336H265.613L265.804 47.5455C265.909 47.1119 265.952 36.2764 265.899 23.4663L265.802 0.175122L242.167 0.113829C229.167 0.080206 218.334 0.132742 218.093 0.23081ZM106.923 6.94532C107.27 7.16563 107.345 10.8505 107.273 24.1895L107.182 41.1536H90.1999H73.2174L73.1264 24.3818C73.0609 12.2893 73.146 7.47699 73.4321 7.13235C73.7566 6.74113 76.7869 6.65567 90.155 6.65987C99.1351 6.66303 106.681 6.79122 106.923 6.94532ZM258.586 7.1341C259.014 7.65036 259.222 40.2934 258.802 40.9739C258.563 41.3592 226.203 41.4961 225.213 41.1161C224.718 40.9263 224.659 39.1082 224.659 24.1994C224.659 11.6743 224.764 7.39013 225.079 7.07491C225.736 6.41786 258.039 6.47495 258.586 7.1341ZM80.4831 13.8913C80.147 14.0269 80.0454 16.4215 80.0454 24.1958V34.3238H90.1999H100.354V24.2043C100.354 15.2997 100.288 14.0591 99.8004 13.8721C99.14 13.6185 81.1144 13.6367 80.4831 13.8913ZM232.1 13.8913C231.763 14.0269 231.662 16.4215 231.662 24.1958V34.3238H241.779C250.681 34.3238 251.921 34.2573 252.108 33.7697C252.225 33.465 252.321 29.0047 252.321 23.8579C252.321 17.0467 252.206 14.3855 251.901 14.0798C251.593 13.7723 248.941 13.6668 242.009 13.6872C236.8 13.7022 232.34 13.7943 232.1 13.8913ZM134.342 27.6815C134.987 28.0265 135.02 28.5126 135.02 37.7685C135.02 44.8651 134.906 47.6065 134.599 47.9133C134.115 48.3973 129.497 48.4845 128.77 48.0236C128.091 47.5931 128.108 28.0492 128.787 27.6184C129.439 27.2048 133.539 27.2514 134.342 27.6815ZM148.676 37.476C148.805 44.8669 148.743 47.5714 148.438 47.8958C147.911 48.4544 142.86 48.4894 142.27 47.9385C141.956 47.6453 141.866 45.0598 141.921 37.8742C142.008 26.5453 141.748 27.2353 145.872 27.3932L148.5 27.4941L148.676 37.476ZM197.172 37.8263V41.1536L193.758 41.2537L190.344 41.3539V44.3436C190.344 46.4671 190.199 47.4776 189.843 47.8331C189.209 48.4681 184.379 48.5318 183.761 47.9133C183.464 47.6163 183.341 45.561 183.341 40.9011V34.3091L190.256 34.404L197.172 34.499V37.8263ZM169.335 51.3355C169.335 53.4475 169.481 54.4838 169.827 54.8302C170.206 55.2095 171.79 55.3444 176.742 55.4179L183.166 55.5135V58.6657V61.8179L180.539 61.9065C179.095 61.9552 177.555 62.0775 177.118 62.178L176.322 62.3604L176.417 68.9191L176.513 75.4774L179.441 75.5797C181.352 75.6466 182.539 75.8508 182.855 76.1677C183.476 76.7887 183.528 81.6291 182.921 82.2371C182.268 82.89 170.258 82.8234 169.711 82.1639C169.461 81.8627 169.334 80.6624 169.384 79.0849C169.429 77.6629 169.349 76.3089 169.205 76.076C169.034 75.7993 167.926 75.6525 166.011 75.6525C162.601 75.6525 162.473 75.7884 162.644 79.2194C162.815 82.6399 162.796 82.6574 158.982 82.6574H155.679V85.7395C155.679 87.6697 155.835 88.9786 156.099 89.242C156.414 89.5572 160.744 89.6623 173.431 89.6623H190.344V86.1598V82.6574H193.345C197.137 82.6574 197.347 82.4742 197.347 79.155C197.347 75.8357 197.137 75.6525 193.345 75.6525H190.344V72.3319C190.344 69.0515 190.355 69.0084 191.25 68.7836C191.749 68.6585 192.993 68.6424 194.015 68.7478C196.94 69.0497 197.347 68.5864 197.347 64.9501V61.993H203.625C208.959 61.993 209.988 62.0789 210.473 62.5636C210.786 62.8774 210.955 63.3632 210.848 63.643C210.741 63.9229 210.653 68.3156 210.653 73.4047V82.6574H207.525C203.935 82.6574 203.925 82.6661 203.84 86.1598C203.752 89.7992 203.47 89.6623 211.059 89.6623H217.656V83.1579C217.656 77.9876 217.758 76.5506 218.156 76.153C218.512 75.7972 219.523 75.6525 221.658 75.6525H224.659V72.6506C224.659 70.5155 224.803 69.5037 225.159 69.1482C225.774 68.5331 229.486 68.4687 230.762 69.0508L231.647 69.4536L231.742 75.9681L231.837 82.4823L234.76 82.5845C236.682 82.6518 237.858 82.5408 238.196 82.2599C238.618 81.9096 238.696 80.7461 238.631 75.7825C238.574 71.402 238.671 69.5884 238.983 69.2119C239.347 68.7734 240.896 68.6988 248.856 68.7363C256.169 68.7706 258.384 68.8841 258.679 69.2392C259.045 69.6809 259.324 74.3156 259.038 75.2147C258.941 75.5208 257.98 75.6525 255.841 75.6525C252.998 75.6525 252.761 75.7079 252.465 76.4406C252.289 76.8738 252.188 81.6025 252.239 86.9479L252.332 96.6671H255.653C258.056 96.6671 258.984 96.7883 259.012 97.1049C259.188 99.13 259.119 102.21 258.886 102.709C258.644 103.226 258.107 103.322 255.46 103.322H252.321V100.007V96.6923L248.907 96.5922L245.493 96.492L245.404 93.8652C245.356 92.4204 245.235 90.8839 245.135 90.4503L244.954 89.6623H231.313H217.671L217.576 96.4044L217.481 103.147L211.138 103.242C203.413 103.358 203.654 103.218 203.913 107.437L204.09 110.327H217.455C227.384 110.327 230.93 110.218 231.242 109.906C231.505 109.643 231.662 108.334 231.662 106.404V103.322H228.714C227.093 103.322 225.517 103.226 225.213 103.109C224.765 102.937 224.659 102.299 224.659 99.7818V96.6671H227.948C231.798 96.6671 231.662 96.5246 231.662 100.549V103.322H234.771C238.642 103.322 238.834 103.148 238.582 99.8981C238.482 98.6026 238.472 97.3459 238.561 97.1049C238.675 96.7974 239.7 96.6671 242.008 96.6671H245.292L245.392 99.9069L245.493 103.147L248.819 103.322L252.146 103.497L252.239 113.741L252.331 123.986H255.457C257.504 123.986 258.672 124.131 258.841 124.405C259.204 124.992 259.241 129.636 258.89 130.378C258.645 130.895 258.106 130.991 255.46 130.991H252.321V127.489V123.986H245.68C237.914 123.986 238.303 124.201 238.577 120.046L238.757 117.331H241.445C245.199 117.331 245.374 117.154 245.246 113.472L245.143 110.502L242.199 110.399C240.398 110.336 239.107 110.445 238.873 110.68C238.654 110.898 238.49 112.373 238.49 114.11V117.156L228.16 117.345C222.479 117.448 217.791 117.566 217.743 117.607C217.695 117.648 217.656 119.005 217.656 120.621C217.656 122.979 217.765 123.603 218.21 123.773C218.514 123.89 221.477 123.986 224.793 123.986C229.015 123.986 230.948 124.112 231.242 124.406C231.505 124.67 231.662 125.979 231.662 127.909V130.991L228.598 130.996C226.913 130.999 225.344 131.123 225.112 131.27C224.851 131.436 224.65 132.675 224.587 134.505L224.484 137.47H221.157H217.831L217.656 134.318L217.481 131.166L214.522 131.063C212.894 131.007 211.351 130.785 211.093 130.57C210.758 130.292 210.646 129.383 210.705 127.408C210.767 125.307 210.665 124.558 210.282 124.316C210.005 124.141 208.613 123.994 207.19 123.991C203.935 123.985 203.687 124.254 203.922 127.541C204.151 130.736 203.91 130.991 200.655 130.991C197.637 130.991 196.803 130.469 197.14 128.788C197.253 128.218 197.347 125.407 197.347 122.541V117.331H200.123C203.801 117.331 204 117.123 204 113.279V110.327H200.714C196.898 110.327 196.96 110.261 197.258 113.976C197.513 117.153 197.31 117.331 193.452 117.331H190.344V120.477C190.344 124.161 190.434 124.087 186.138 123.916L183.516 123.811L183.415 120.571L183.314 117.331H186.829H190.344V110.539C190.344 102.752 190.063 103.322 193.899 103.322C195.553 103.322 196.509 103.16 196.846 102.821C197.24 102.428 197.347 101.077 197.347 96.492C197.347 91.9073 197.24 90.5561 196.846 90.1627C196.491 89.8069 195.479 89.6623 193.345 89.6623H190.344V92.6642C190.344 96.5459 190.223 96.6671 186.342 96.6671H183.341V99.7818C183.341 103.398 183.416 103.322 179.839 103.322C176.262 103.322 176.338 103.398 176.338 99.7818V96.6671H162.719C150.624 96.6671 149.077 96.7291 148.888 97.2212C148.504 98.2211 148.659 102.465 149.096 102.901C149.347 103.153 150.577 103.324 152.16 103.327C153.613 103.33 154.998 103.456 155.235 103.607C155.558 103.812 155.691 106.41 155.761 113.846L155.854 123.811L162.306 123.907C165.91 123.96 168.9 123.86 169.08 123.68C169.458 123.302 169.639 118.174 169.294 117.616C169.152 117.387 168.025 117.258 166.478 117.294C162.515 117.386 162.629 117.598 162.629 110.174C162.629 105.364 162.736 103.853 163.093 103.627C163.721 103.228 168.332 103.252 168.972 103.657C169.364 103.905 169.461 104.607 169.385 106.65C169.322 108.342 169.439 109.505 169.703 109.823C170.037 110.225 171.339 110.327 176.177 110.327C179.508 110.327 182.482 110.422 182.787 110.539C183.234 110.711 183.341 111.349 183.341 113.86C183.341 117.458 183.565 117.269 179.139 117.418L176.513 117.507L176.417 123.961C176.344 128.889 176.427 130.481 176.767 130.697C177.012 130.853 178.343 130.983 179.723 130.986C183.433 130.993 183.341 130.903 183.341 134.531V137.646H186.342C188.476 137.646 189.488 137.79 189.843 138.146C190.478 138.781 190.542 143.612 189.924 144.23C189.66 144.494 188.349 144.65 186.409 144.65H183.315L183.416 148.065L183.516 151.48L186.548 151.581C188.449 151.644 189.716 151.847 189.946 152.124C190.148 152.367 190.36 153.898 190.416 155.525L190.519 158.485L196.981 158.581C201.614 158.649 203.52 158.798 203.716 159.106C203.866 159.342 203.991 160.752 203.995 162.238C204.001 165.508 203.819 165.665 200.034 165.665C198.265 165.665 197.369 165.806 197.258 166.103C197.168 166.344 197.172 167.841 197.266 169.43L197.437 172.32H203.67C208.962 172.32 209.988 172.406 210.473 172.89C210.786 173.204 210.955 173.69 210.848 173.97C210.741 174.249 210.653 177.066 210.653 180.229V185.979H207.326H204V182.839C204 179.07 203.901 178.974 199.996 178.974H197.347V175.647V172.32H194.399C192.778 172.32 191.202 172.415 190.898 172.532C190.45 172.704 190.344 173.342 190.344 175.86V178.974H193.425C195.355 178.974 196.663 179.131 196.927 179.395C197.364 179.832 197.522 184.415 197.134 185.425C196.961 185.876 196.309 185.979 193.633 185.979H190.344V182.477V178.974H186.842H183.341V175.86C183.341 173.342 183.235 172.704 182.787 172.532C181.974 172.22 177.287 172.283 176.767 172.613C176.427 172.83 176.344 174.421 176.417 179.35L176.513 185.804L179.441 185.906C181.352 185.973 182.539 186.177 182.855 186.494C183.194 186.833 183.341 187.89 183.341 189.982V192.984H173.026H162.711L162.609 190.27C162.451 186.078 162.535 185.979 166.24 185.979C168.472 185.979 169.34 185.857 169.353 185.541C169.363 185.301 169.378 182.364 169.386 179.015C169.397 174.288 169.295 172.86 168.929 172.629C168.671 172.465 167.356 172.326 166.008 172.32C164.66 172.314 163.352 172.178 163.101 172.019C162.754 171.799 162.645 170.247 162.647 165.538C162.648 162.133 162.744 159.192 162.861 159.003C163.189 158.472 169.324 158.561 169.383 159.098C169.41 159.339 169.393 160.688 169.346 162.097C169.226 165.676 169.154 165.64 176.45 165.654C181.176 165.663 182.442 165.563 182.855 165.15C183.243 164.762 183.345 163.925 183.268 161.735L183.166 158.835L180.237 158.733C178.374 158.668 177.137 158.459 176.838 158.16C176.539 157.86 176.33 156.624 176.265 154.76L176.163 151.83L166.207 151.737C158.476 151.665 156.189 151.743 155.971 152.088C155.816 152.331 155.687 153.661 155.684 155.041C155.676 158.714 155.724 158.66 152.465 158.66C150.586 158.66 149.521 158.505 149.202 158.186C148.821 157.805 148.749 155.855 148.833 148.292C148.959 137.047 149.166 137.646 145.162 137.646C143.412 137.646 142.34 137.491 142.122 137.208C141.741 136.713 141.773 132.028 142.161 131.4C142.322 131.141 143.488 130.991 145.349 130.991C147.002 130.991 148.382 130.832 148.509 130.627C148.633 130.427 148.734 125.941 148.734 120.659C148.734 115.376 148.633 110.891 148.509 110.691C148.383 110.487 147.035 110.327 145.454 110.327C141.964 110.327 141.69 110.067 141.936 106.993C142.21 103.59 141.934 103.322 138.159 103.322H135.02V106.404C135.02 108.334 134.863 109.643 134.599 109.906C134.345 110.161 133.108 110.327 131.46 110.327C128.185 110.327 128.001 110.531 128.269 113.868C128.44 116.003 128.391 116.224 127.632 116.756C127.041 117.17 126.047 117.331 124.087 117.331H121.364V123.949C121.364 129.659 121.44 130.595 121.917 130.778C122.222 130.895 123.621 130.991 125.026 130.991C128.291 130.991 128.518 130.745 128.284 127.464C128.046 124.145 128.282 123.928 131.994 124.06L134.844 124.161V130.816V137.47L121.101 137.562L107.357 137.654V134.322V130.991H104.276C102.346 130.991 101.038 130.834 100.774 130.571C100.511 130.307 100.354 128.998 100.354 127.068V123.986H103.856H107.357V120.871C107.357 117.241 107.265 117.331 110.993 117.331C112.492 117.331 113.691 117.161 113.94 116.911C114.199 116.653 114.36 115.386 114.36 113.621C114.36 110.268 114.425 110.327 110.725 110.327C109.226 110.327 108.027 110.156 107.778 109.906C107.216 109.345 107.216 104.303 107.778 103.742C108.027 103.493 109.226 103.322 110.725 103.322C114.453 103.322 114.36 103.412 114.36 99.7818V96.6671H111.359C107.578 96.6671 107.357 96.4773 107.357 93.2183C107.357 89.6251 107.324 89.6623 110.518 89.6623C114.45 89.6623 114.36 89.739 114.36 86.3675C114.36 84.6026 114.199 83.3362 113.94 83.0777C113.296 82.4332 101.52 82.4921 100.869 83.1428C100.552 83.4598 100.348 84.6468 100.281 86.5577L100.179 89.4871L96.9501 89.5876L93.7214 89.6882L93.4899 88.766C93.3624 88.2588 93.3551 86.9185 93.4734 85.7875C93.7998 82.6619 93.7949 82.6574 89.9873 82.6574H86.6983V85.6057C86.6983 87.2274 86.7939 88.8035 86.9109 89.1082C87.0828 89.5561 87.7208 89.6623 90.2373 89.6623H93.3512V92.5241C93.3512 96.4156 93.5995 96.6671 97.4456 96.6671H100.381L100.28 99.9069L100.179 103.147L93.8765 103.322C90.41 103.418 87.3766 103.624 87.136 103.78C86.8398 103.972 86.6983 105.074 86.6983 107.195V110.327H83.3719H80.0454V107.244C80.0454 105.314 79.8885 104.005 79.6252 103.742C79.3619 103.479 78.0534 103.322 76.1237 103.322H73.0423V99.9944V96.6671H76.0677C78.538 96.6671 79.1781 96.5547 79.558 96.0542C79.9043 95.5978 80.0261 93.8088 80.0342 89.0493L80.0454 82.6574H83.3719H86.6983V79.155V75.6525H93.5263H100.354V72.5567C100.354 69.5383 100.378 69.4497 101.293 69.0326C101.819 68.793 103.322 68.6403 104.707 68.6858L107.182 68.7667L107.282 65.3746L107.383 61.9825L117.787 62.0754L128.192 62.1682L128.257 71.975C128.293 77.3687 128.332 81.979 128.345 82.2196C128.361 82.5376 129.277 82.6574 131.693 82.6574H135.02V72.5378C135.02 63.6332 134.953 62.3927 134.466 62.2056C134.161 62.0887 132.681 61.993 131.176 61.993H128.441L128.293 59.1035C128.211 57.5145 128.211 56.0172 128.293 55.7762C128.405 55.4466 130.073 55.3384 135.034 55.3384C141.399 55.3384 141.633 55.3633 141.856 56.0659C141.983 56.4659 142.056 59.2632 142.017 62.2827C141.978 65.3018 141.964 67.9692 141.985 68.2099C142.012 68.5268 142.941 68.6477 145.349 68.6477H148.676L148.681 62.4308C148.684 59.0118 148.815 56.0105 148.973 55.7619C149.181 55.434 150.121 55.3377 152.382 55.4116L155.504 55.5135L155.599 62.0806L155.694 68.6477H152.185H148.676V75.0984C148.676 78.6464 148.771 81.7986 148.888 82.1033C149.061 82.5541 149.713 82.6574 152.382 82.6574H155.664L155.759 75.7401L155.854 68.8228L162.465 68.7685C166.582 68.7345 169.162 68.5773 169.301 68.3517C169.424 68.1524 169.506 66.7784 169.483 65.2979C169.433 62.0638 169.324 61.9671 165.63 61.8799C162.961 61.8169 162.111 61.3868 162.51 60.3007C162.605 60.0443 162.682 57.2465 162.682 54.0839V48.3336H166.008H169.335V51.3355ZM190.344 65.3204V68.6477H186.842H183.341V65.3204V61.993H186.842H190.344V65.3204ZM107.432 72.0625L107.532 75.4774H114.36H121.188L121.291 72.5497C121.378 70.07 121.297 69.5492 120.765 69.1461C120.291 68.786 118.577 68.6673 113.735 68.6589L107.332 68.6477L107.432 72.0625ZM134.939 89.5747L134.844 96.492L132.043 96.5817C130.503 96.6307 129.006 96.5186 128.717 96.3319C128.311 96.0693 128.216 95.3929 128.296 93.3202C128.36 91.6516 128.244 90.4626 127.989 90.1551C127.694 89.7992 126.716 89.6623 124.472 89.6623H121.364V96.2794C121.364 101.99 121.44 102.926 121.917 103.109C122.222 103.226 125.295 103.322 128.745 103.322H135.02V99.9944V96.6671H138.159C140.904 96.6671 141.343 96.582 141.66 95.9898C142.046 95.2686 142.176 84.1659 141.81 83.2115C141.637 82.7607 140.985 82.6574 138.316 82.6574H135.034L134.939 89.5747ZM141.472 117.531C142.209 118.269 142.255 123.007 141.531 123.608C141.22 123.866 139.971 123.978 138.117 123.913L135.195 123.811V120.659V117.507L137.996 117.308C139.536 117.199 140.825 117.081 140.86 117.045C140.894 117.01 141.17 117.229 141.472 117.531ZM66.4241 124.47C66.1471 124.804 66.0526 126.893 66.1184 131.212L66.2143 137.47L72.8417 137.566C77.9095 137.639 79.5356 137.557 79.752 137.216C80.2247 136.47 80.1102 124.891 79.6252 124.406C78.9806 123.762 66.9637 123.819 66.4241 124.47ZM107.357 127.489V130.991H110.305C111.926 130.991 113.502 130.895 113.807 130.778C114.254 130.607 114.36 129.971 114.36 127.489C114.36 125.006 114.254 124.37 113.807 124.199C113.502 124.082 111.926 123.986 110.305 123.986H107.357V127.489ZM162.732 131.589C162.548 131.918 162.482 133.008 162.585 134.01C162.689 135.012 162.671 136.24 162.546 136.739C162.326 137.614 162.226 137.646 159.676 137.646C155.883 137.646 155.679 137.815 155.679 140.956C155.679 142.379 155.774 143.792 155.891 144.096C156.08 144.588 157.627 144.65 169.722 144.65H183.341V141.148V137.646H176.519H169.698L169.47 136.739C169.345 136.24 169.328 135.012 169.431 134.01C169.72 131.213 169.467 130.991 166.008 130.991C163.598 130.991 163.006 131.099 162.732 131.589ZM203.45 138.196C203.843 138.589 204 139.431 204 141.144C204 144.723 204.072 144.65 200.498 144.65C198.354 144.65 197.375 144.518 197.266 144.213C196.899 143.184 197.275 138.257 197.743 137.96C198.607 137.412 202.841 137.587 203.45 138.196ZM231.242 145.071C231.908 145.738 231.834 164.492 231.162 165.165C230.753 165.574 228.927 165.665 221.157 165.665C213.387 165.665 211.562 165.574 211.153 165.165C210.466 164.478 210.409 145.949 211.09 145.174C211.681 144.504 230.578 144.407 231.242 145.071ZM66.2529 152.207C66.1352 152.513 66.0393 163.2 66.0393 175.956C66.0393 193.528 66.1412 199.25 66.4594 199.569C66.7781 199.887 72.5189 199.987 90.1823 199.984C102.999 199.98 113.683 199.852 113.925 199.699C114.273 199.478 114.346 194.428 114.275 175.625L114.185 151.83L90.3259 151.74C68.7957 151.659 66.4454 151.705 66.2529 152.207ZM218.088 152.063C217.458 152.693 217.512 157.516 218.156 158.16C218.847 158.851 223.709 158.858 224.281 158.169C224.539 157.857 224.651 156.608 224.586 154.754L224.484 151.83L221.502 151.731C219.483 151.663 218.381 151.77 218.088 152.063ZM107.357 175.826V192.991L90.2874 192.9L73.2174 192.809L73.1264 175.735L73.0357 158.66H90.1964H107.357V175.826ZM80.0454 175.822V185.979H90.1999H100.354V175.822V165.665H90.1999H80.0454V175.822ZM141.81 166.219C142.157 167.122 142.052 170.91 141.66 171.642C141.35 172.223 140.908 172.32 138.579 172.32C136.931 172.32 135.694 172.154 135.44 171.899C135.18 171.64 135.02 170.366 135.02 168.572V165.665H138.309C140.985 165.665 141.637 165.768 141.81 166.219ZM155.679 172.32V178.974H152.39C149.713 178.974 149.061 178.871 148.888 178.42C148.771 178.115 148.676 175.37 148.676 172.32C148.676 169.269 148.771 166.524 148.888 166.219C149.061 165.768 149.713 165.665 152.39 165.665H155.679V172.32ZM217.656 189.482V192.984H214.655C210.812 192.984 210.653 192.834 210.653 189.215C210.653 187.692 210.758 186.341 210.886 186.213C211.014 186.084 212.59 185.979 214.388 185.979H217.656V189.482ZM238.791 186.408C238.471 186.927 238.504 199.095 238.828 199.619C238.959 199.831 240.302 199.989 241.975 199.989C244.313 199.989 244.935 199.879 245.105 199.435C245.524 198.343 245.341 186.843 244.898 186.399C244.323 185.825 239.147 185.832 238.791 186.408Z" fill="#80FF00"/>
<path d="M79.6 225.88V231.1C78.28 230.04 76.44 229.5 74.08 229.5H73.76C71.44 229.5 69.74 229.96 68.64 230.9C67.56 231.84 67.02 233.04 67.02 234.52V234.88C67.02 236.4 67.58 237.66 68.74 238.62C69.88 239.6 71.62 240.08 73.94 240.08H74.2C75.02 240.08 75.78 240 76.48 239.86C77.18 239.72 77.72 239.54 78.16 239.32C78.58 239.12 78.9 238.92 79.14 238.76C79.36 238.58 79.54 238.44 79.64 238.3V239.84H84.18V225.88H79.6ZM79.6 234.74V234.8C79.6 235.5 79.24 236.12 78.5 236.64C77.76 237.16 76.76 237.42 75.48 237.42H75.38C74.14 237.42 73.2 237.16 72.6 236.64C71.98 236.12 71.68 235.5 71.68 234.8V234.74C71.68 233.98 71.96 233.36 72.5 232.88C73.06 232.38 74 232.14 75.34 232.14H75.44C76.72 232.14 77.72 232.4 78.48 232.92C79.22 233.42 79.6 234.04 79.6 234.74ZM90.7788 226H86.2388V228.88H90.7788V226ZM90.7788 229.86H86.2388V239.96H90.7788V229.86ZM99.4403 240.24H100.28C101.74 240.24 102.96 240.16 103.96 239.98C104.96 239.8 105.7 239.54 106.2 239.2C106.7 238.86 107.04 238.5 107.24 238.12C107.44 237.74 107.54 237.28 107.54 236.78V236.66C107.54 235.94 107.38 235.36 107.08 234.94C106.78 234.52 106.16 234.18 105.24 233.92C104.34 233.66 103.06 233.52 101.4 233.5L99.4403 233.46C98.5603 233.44 97.9603 233.36 97.6203 233.22C97.3003 233.1 97.1403 232.9 97.1403 232.64V232.62C97.1403 232.34 97.3203 232.14 97.6603 232.04C98.0203 231.92 98.7203 231.86 99.7603 231.86H99.7803C100.34 231.86 100.82 231.9 101.22 231.96C101.6 232.04 101.88 232.12 102.04 232.24C102.2 232.36 102.32 232.48 102.36 232.56C102.42 232.66 102.46 232.76 102.48 232.9H107.14V232.76C107.14 230.64 104.84 229.6 100.24 229.6H99.4203C98.2603 229.6 97.2403 229.66 96.3803 229.78C95.5203 229.9 94.8403 230.06 94.3603 230.24C93.8603 230.44 93.4803 230.68 93.1803 230.96C92.8803 231.24 92.7003 231.54 92.6003 231.8C92.5203 232.08 92.4803 232.4 92.4803 232.74V232.86C92.4803 233.26 92.5603 233.62 92.7403 233.96C92.9203 234.3 93.2203 234.62 93.6203 234.94C94.0403 235.24 94.6603 235.5 95.4603 235.68C96.2803 235.88 97.2603 235.98 98.4003 236L100.36 236.04C101.36 236.06 102 236.14 102.32 236.28C102.62 236.42 102.78 236.64 102.78 236.92V236.96C102.78 237.16 102.72 237.3 102.62 237.44C102.5 237.56 102.22 237.66 101.78 237.76C101.34 237.86 100.72 237.92 99.9403 237.92H99.9003C98.0203 237.92 97.0803 237.46 97.0803 236.54H92.3803V236.66C92.3803 239.06 94.7203 240.24 99.4403 240.24ZM116.789 240.08H117.909C119.249 240.08 120.409 239.96 121.409 239.72C122.409 239.5 123.169 239.22 123.689 238.9C124.209 238.58 124.629 238.2 124.949 237.76C125.249 237.32 125.449 236.92 125.529 236.6C125.609 236.26 125.649 235.92 125.649 235.58V235.54H120.969C120.649 236.78 119.429 237.4 117.329 237.4H117.269C116.069 237.4 115.169 237.14 114.609 236.62C114.069 236.1 113.789 235.46 113.789 234.7V234.56C113.789 233.84 114.049 233.24 114.609 232.78C115.169 232.3 116.049 232.06 117.269 232.06H117.329C119.449 232.06 120.669 232.68 120.969 233.88H125.649V233.84C125.649 233.5 125.609 233.18 125.529 232.84C125.429 232.52 125.229 232.14 124.909 231.7C124.569 231.28 124.149 230.9 123.629 230.58C123.109 230.26 122.349 229.98 121.369 229.76C120.389 229.54 119.229 229.42 117.929 229.42H116.769C115.569 229.42 114.509 229.54 113.569 229.74C112.649 229.96 111.909 230.22 111.349 230.56C110.809 230.9 110.349 231.28 110.009 231.74C109.669 232.22 109.429 232.66 109.309 233.1C109.189 233.56 109.129 234.02 109.129 234.5V234.88C109.129 235.36 109.189 235.84 109.309 236.28C109.429 236.74 109.669 237.2 110.009 237.68C110.369 238.16 110.829 238.56 111.369 238.9C111.909 239.24 112.649 239.52 113.589 239.74C114.529 239.96 115.589 240.08 116.789 240.08ZM136.624 240.06C141.864 240.06 144.484 238.32 144.484 234.84V234.5C144.484 231.1 141.864 229.4 136.624 229.4H135.164C133.944 229.4 132.844 229.5 131.904 229.72C130.964 229.92 130.204 230.18 129.624 230.52C129.044 230.86 128.584 231.24 128.224 231.72C127.864 232.18 127.624 232.62 127.484 233.08C127.344 233.54 127.284 234 127.284 234.5V234.84C127.284 235.34 127.344 235.82 127.484 236.28C127.624 236.74 127.864 237.2 128.244 237.68C128.604 238.14 129.064 238.56 129.644 238.9C130.224 239.24 130.984 239.5 131.924 239.72C132.864 239.94 133.964 240.06 135.184 240.06H136.624ZM135.904 237.34C134.484 237.34 133.464 237.08 132.864 236.56C132.244 236.06 131.944 235.44 131.944 234.74V234.64C131.944 233.9 132.244 233.28 132.844 232.8C133.444 232.32 134.464 232.08 135.904 232.08H135.924C137.324 232.08 138.344 232.32 138.944 232.82C139.564 233.3 139.864 233.92 139.864 234.64V234.74C139.864 235.44 139.564 236.06 138.944 236.56C138.344 237.08 137.324 237.34 135.904 237.34ZM154.621 229.36C153.821 229.36 153.121 229.5 152.461 229.78C151.821 230.06 151.361 230.34 151.081 230.6C150.821 230.86 150.601 231.14 150.421 231.4V229.58H146.161V239.9H150.441V234.58C150.441 233.86 150.641 233.28 151.041 232.8C151.441 232.32 152.241 231.86 152.761 231.8C153.281 231.74 159.361 231.74 159.361 231.74V229.36H154.621ZM173.37 225.88V231.1C172.05 230.04 170.21 229.5 167.85 229.5H167.53C165.21 229.5 163.51 229.96 162.41 230.9C161.33 231.84 160.79 233.04 160.79 234.52V234.88C160.79 236.4 161.35 237.66 162.51 238.62C163.65 239.6 165.39 240.08 167.71 240.08H167.97C168.79 240.08 169.55 240 170.25 239.86C170.95 239.72 171.49 239.54 171.93 239.32C172.35 239.12 172.67 238.92 172.91 238.76C173.13 238.58 173.31 238.44 173.41 238.3V239.84H177.95V225.88H173.37ZM173.37 234.74V234.8C173.37 235.5 173.01 236.12 172.27 236.64C171.53 237.16 170.53 237.42 169.25 237.42H169.15C167.91 237.42 166.97 237.16 166.37 236.64C165.75 236.12 165.45 235.5 165.45 234.8V234.74C165.45 233.98 165.73 233.36 166.27 232.88C166.83 232.38 167.77 232.14 169.11 232.14H169.21C170.49 232.14 171.49 232.4 172.25 232.92C172.99 233.42 173.37 234.04 173.37 234.74ZM183.608 237.68H179.468V240.44H183.608V237.68ZM197.205 229.38V230.86C195.965 229.7 194.045 229.12 191.445 229.12H191.025C188.725 229.12 187.045 229.6 185.985 230.58C184.905 231.54 184.385 232.76 184.385 234.24V234.66C184.385 236.2 184.965 237.46 186.145 238.44C187.345 239.42 189.145 239.92 191.585 239.92H191.845C194.185 239.92 195.985 239.36 197.245 238.26C197.245 240.22 196.105 241.28 193.845 241.42H184.385V244.4H194.045C195.345 244.4 196.465 244.26 197.445 243.96C198.425 243.68 199.185 243.32 199.725 242.88C200.265 242.46 200.705 241.94 201.025 241.36C201.365 240.78 201.585 240.26 201.685 239.8C201.765 239.34 201.825 238.86 201.825 238.4V229.38H197.205ZM197.125 234.58C197.125 235.26 196.765 235.86 196.065 236.36C195.345 236.86 194.305 237.12 192.945 237.12H192.825C191.525 237.12 190.565 236.86 189.965 236.36C189.345 235.86 189.045 235.26 189.045 234.56V234.46C189.045 233.74 189.345 233.14 189.925 232.68C190.505 232.22 191.465 232 192.825 232H192.945C194.305 232 195.345 232.22 196.065 232.7C196.765 233.18 197.125 233.78 197.125 234.48V234.58ZM215.975 229.38V230.86C214.735 229.7 212.815 229.12 210.215 229.12H209.795C207.495 229.12 205.815 229.6 204.755 230.58C203.675 231.54 203.155 232.76 203.155 234.24V234.66C203.155 236.2 203.735 237.46 204.915 238.44C206.115 239.42 207.915 239.92 210.355 239.92H210.615C212.955 239.92 214.755 239.36 216.015 238.26C216.015 240.22 214.875 241.28 212.615 241.42H203.155V244.4H212.815C214.115 244.4 215.235 244.26 216.215 243.96C217.195 243.68 217.955 243.32 218.495 242.88C219.035 242.46 219.475 241.94 219.795 241.36C220.135 240.78 220.355 240.26 220.455 239.8C220.535 239.34 220.595 238.86 220.595 238.4V229.38H215.975ZM215.895 234.58C215.895 235.26 215.535 235.86 214.835 236.36C214.115 236.86 213.075 237.12 211.715 237.12H211.595C210.295 237.12 209.335 236.86 208.735 236.36C208.115 235.86 207.815 235.26 207.815 234.56V234.46C207.815 233.74 208.115 233.14 208.695 232.68C209.275 232.22 210.235 232 211.595 232H211.715C213.075 232 214.115 232.22 214.835 232.7C215.535 233.18 215.895 233.78 215.895 234.48V234.58ZM230.445 226.14H227.525L221.565 240.96H224.465L230.445 226.14ZM71.88 259.9H75.82V257.14H74.58C74.2 257.14 73.96 257.06 73.84 256.92C73.72 256.78 73.66 256.56 73.66 256.26V252.6H75.82V249.82H73.66V246.88H69.16V249.82H67.02V252.6H69.16V257.04C69.16 258.96 70.06 259.9 71.88 259.9ZM77.8794 259.96H82.4194V255.2C82.4194 254.36 82.7394 253.7 83.3394 253.2C83.9594 252.7 84.7794 252.46 85.7994 252.46C86.7794 252.46 87.5194 252.68 88.0194 253.1C88.4994 253.54 88.7394 254.16 88.7394 254.96V259.96H93.3394V253.58C93.3394 252.5 92.8994 251.56 91.9994 250.8C91.0994 250.02 89.7594 249.64 87.9794 249.64H87.8394C85.6194 249.64 83.8194 250.28 82.4194 251.56V246H77.8794V259.96ZM111.839 256.28V256.26H107.339C107.339 256.34 107.299 256.42 107.239 256.5C107.199 256.58 107.079 256.68 106.939 256.82C106.779 256.94 106.579 257.06 106.319 257.16C106.079 257.28 105.739 257.36 105.299 257.44C104.859 257.52 104.339 257.56 103.779 257.56H103.759C101.459 257.56 100.159 256.9 99.8589 255.58H111.899V254.9C111.899 251.26 109.359 249.46 104.259 249.46H103.019C101.579 249.46 100.359 249.6 99.3189 249.88C98.2989 250.16 97.4989 250.54 96.9589 251.04C96.3989 251.54 95.9989 252.06 95.7589 252.64C95.5189 253.22 95.3989 253.84 95.3989 254.54V254.94C95.3989 255.64 95.5189 256.3 95.7789 256.88C96.0589 257.46 96.4789 258 97.0389 258.5C97.6189 259 98.4189 259.4 99.4589 259.68C100.499 259.96 101.719 260.1 103.139 260.1H104.299C105.559 260.1 106.659 260.02 107.599 259.84C108.559 259.66 109.279 259.42 109.799 259.16C110.319 258.88 110.739 258.58 111.079 258.2C111.399 257.84 111.599 257.52 111.699 257.2C111.799 256.9 111.839 256.6 111.839 256.28ZM103.619 251.8C105.759 251.8 106.979 252.36 107.299 253.5H99.9389C100.319 252.36 101.539 251.8 103.599 251.8H103.619ZM122.414 249.36C121.614 249.36 120.914 249.5 120.254 249.78C119.614 250.06 119.154 250.34 118.874 250.6C118.614 250.86 118.394 251.14 118.214 251.4V249.58H113.954V259.9H118.234V254.58C118.234 253.86 118.434 253.28 118.834 252.8C119.234 252.32 120.034 251.86 120.554 251.8C121.074 251.74 127.154 251.74 127.154 251.74V249.36H122.414ZM145.023 256.28V256.26H140.523C140.523 256.34 140.483 256.42 140.423 256.5C140.383 256.58 140.263 256.68 140.123 256.82C139.963 256.94 139.763 257.06 139.503 257.16C139.263 257.28 138.923 257.36 138.483 257.44C138.043 257.52 137.523 257.56 136.963 257.56H136.943C134.643 257.56 133.343 256.9 133.043 255.58H145.083V254.9C145.083 251.26 142.543 249.46 137.443 249.46H136.203C134.763 249.46 133.543 249.6 132.503 249.88C131.483 250.16 130.683 250.54 130.143 251.04C129.583 251.54 129.183 252.06 128.943 252.64C128.703 253.22 128.583 253.84 128.583 254.54V254.94C128.583 255.64 128.703 256.3 128.963 256.88C129.243 257.46 129.663 258 130.223 258.5C130.803 259 131.603 259.4 132.643 259.68C133.683 259.96 134.903 260.1 136.323 260.1H137.483C138.743 260.1 139.843 260.02 140.783 259.84C141.743 259.66 142.463 259.42 142.983 259.16C143.503 258.88 143.923 258.58 144.263 258.2C144.583 257.84 144.783 257.52 144.883 257.2C144.983 256.9 145.023 256.6 145.023 256.28ZM136.803 251.8C138.943 251.8 140.163 252.36 140.483 253.5H133.123C133.503 252.36 134.723 251.8 136.783 251.8H136.803ZM147.137 259.9H151.677V255.14C151.677 254.34 151.977 253.68 152.537 253.18C153.097 252.66 153.857 252.4 154.837 252.4C156.517 252.4 157.357 253.24 157.357 254.92V259.9H161.957V255.14C161.957 254.34 162.237 253.68 162.797 253.18C163.357 252.66 164.137 252.4 165.097 252.4C166.757 252.4 167.597 253.24 167.597 254.92V259.9H172.197V253.54C172.197 252.46 171.777 251.54 170.917 250.76C170.077 249.98 168.817 249.6 167.117 249.6H166.957C164.717 249.6 162.877 250.26 161.417 251.6C160.617 250.26 159.157 249.6 157.017 249.6H156.877C154.817 249.6 153.077 250.24 151.637 251.56V249.82H147.137V259.9ZM188.327 257.3C187.967 257.3 187.787 257.12 187.787 256.78V252.8C187.787 252.44 187.747 252.12 187.707 251.86C187.647 251.6 187.507 251.32 187.247 250.98C187.007 250.66 186.667 250.4 186.227 250.18C185.787 249.98 185.167 249.8 184.327 249.66C183.507 249.52 182.507 249.46 181.347 249.46H173.827V251.86L180.907 251.84C181.687 251.84 182.307 251.9 182.727 252C183.147 252.08 183.407 252.18 183.487 252.28C183.567 252.4 183.607 252.52 183.607 252.7C183.607 253 183.387 253.18 182.967 253.24L178.187 253.68C176.627 253.82 175.507 254.14 174.827 254.62C174.147 255.12 173.827 255.84 173.827 256.78V256.92C173.827 257.9 174.207 258.7 175.007 259.34C175.807 259.98 177.027 260.3 178.667 260.3H178.907C180.247 260.3 181.307 260.14 182.087 259.8C182.867 259.46 183.407 259.08 183.727 258.7C183.887 259.64 184.427 260.12 185.387 260.12H188.887V257.3H188.327ZM183.607 255.5C183.607 256.16 183.267 256.72 182.547 257.22C181.847 257.72 180.927 257.98 179.827 257.98C179.147 257.98 178.667 257.86 178.367 257.64C178.067 257.4 177.927 257.12 177.927 256.8V256.78C177.927 256.5 178.047 256.3 178.267 256.16C178.507 256.02 178.907 255.9 179.487 255.82L183.607 255.18V255.5ZM202.901 245.88V251.1C201.581 250.04 199.741 249.5 197.381 249.5H197.061C194.741 249.5 193.041 249.96 191.941 250.9C190.861 251.84 190.321 253.04 190.321 254.52V254.88C190.321 256.4 190.881 257.66 192.041 258.62C193.181 259.6 194.921 260.08 197.241 260.08H197.501C198.321 260.08 199.081 260 199.781 259.86C200.481 259.72 201.021 259.54 201.461 259.32C201.881 259.12 202.201 258.92 202.441 258.76C202.661 258.58 202.841 258.44 202.941 258.3V259.84H207.481V245.88H202.901ZM202.901 254.74V254.8C202.901 255.5 202.541 256.12 201.801 256.64C201.061 257.16 200.061 257.42 198.781 257.42H198.681C197.441 257.42 196.501 257.16 195.901 256.64C195.281 256.12 194.981 255.5 194.981 254.8V254.74C194.981 253.98 195.261 253.36 195.801 252.88C196.361 252.38 197.301 252.14 198.641 252.14H198.741C200.021 252.14 201.021 252.4 201.781 252.92C202.521 253.42 202.901 254.04 202.901 254.74ZM225.98 256.28V256.26H221.48C221.48 256.34 221.44 256.42 221.38 256.5C221.34 256.58 221.22 256.68 221.08 256.82C220.92 256.94 220.72 257.06 220.46 257.16C220.22 257.28 219.88 257.36 219.44 257.44C219 257.52 218.48 257.56 217.92 257.56H217.9C215.6 257.56 214.3 256.9 214 255.58H226.04V254.9C226.04 251.26 223.5 249.46 218.4 249.46H217.16C215.72 249.46 214.5 249.6 213.46 249.88C212.44 250.16 211.64 250.54 211.1 251.04C210.54 251.54 210.14 252.06 209.9 252.64C209.66 253.22 209.54 253.84 209.54 254.54V254.94C209.54 255.64 209.66 256.3 209.92 256.88C210.2 257.46 210.62 258 211.18 258.5C211.76 259 212.56 259.4 213.6 259.68C214.64 259.96 215.86 260.1 217.28 260.1H218.44C219.7 260.1 220.8 260.02 221.74 259.84C222.7 259.66 223.42 259.42 223.94 259.16C224.46 258.88 224.88 258.58 225.22 258.2C225.54 257.84 225.74 257.52 225.84 257.2C225.94 256.9 225.98 256.6 225.98 256.28ZM217.76 251.8C219.9 251.8 221.12 252.36 221.44 253.5H214.08C214.46 252.36 215.68 251.8 217.74 251.8H217.76Z" fill="#FFFF00"/>
</svg>
