<svg width="280" height="288" viewBox="0 0 280 288" fill="none" xmlns="http://www.w3.org/2000/svg">
<path d="M52.4044 231.227C52.3859 229.839 52.126 228.464 51.6363 227.165C51.2116 226.069 50.5629 225.073 49.7317 224.242C48.9006 223.411 47.9052 222.762 46.8091 222.338C45.5264 221.856 44.1713 221.596 42.8014 221.568C41.0378 221.489 40.4786 221.467 36.0016 221.467C31.5246 221.467 30.9508 221.467 29.1999 221.568C27.8307 221.596 26.4762 221.856 25.1941 222.338C24.0979 222.762 23.1023 223.411 22.2711 224.242C21.4399 225.073 20.7913 226.069 20.3669 227.165C19.8845 228.447 19.6247 229.801 19.5988 231.171C19.5199 232.936 19.4961 233.495 19.4961 237.972C19.4961 242.449 19.4961 243.021 19.5988 244.774C19.6263 246.145 19.8848 247.498 20.3669 248.783C20.792 249.879 21.4411 250.875 22.2726 251.705C23.104 252.536 24.0997 253.185 25.1959 253.609C26.4746 254.11 27.8293 254.389 29.2018 254.434C30.9673 254.513 31.5264 254.536 36.0034 254.536C40.4804 254.536 41.0543 254.536 42.8051 254.434C44.1749 254.407 45.5301 254.147 46.8128 253.666C47.9085 253.24 48.9037 252.592 49.7348 251.761C50.5659 250.929 51.2147 249.934 51.6399 248.838C52.1221 247.555 52.3806 246.202 52.4081 244.829C52.4869 243.065 52.5108 242.506 52.5108 238.027C52.5071 233.55 52.5071 232.982 52.4044 231.227V231.227ZM35.9906 246.439C31.3083 246.439 27.5151 242.645 27.5151 237.963C27.5151 233.281 31.3083 229.488 35.9906 229.488C38.2384 229.488 40.3942 230.381 41.9837 231.97C43.5731 233.56 44.4661 235.715 44.4661 237.963C44.4661 240.211 43.5731 242.367 41.9837 243.956C40.3942 245.546 38.2384 246.439 35.9906 246.439V246.439ZM44.8034 231.15C44.5438 231.151 44.2867 231.1 44.0468 231.001C43.8069 230.901 43.589 230.756 43.4054 230.572C43.2218 230.389 43.0763 230.171 42.977 229.931C42.8778 229.691 42.8269 229.434 42.8271 229.174C42.8271 228.915 42.8782 228.658 42.9775 228.418C43.0767 228.179 43.2222 227.961 43.4057 227.777C43.5891 227.594 43.8069 227.448 44.0466 227.349C44.2862 227.25 44.5431 227.199 44.8025 227.199C45.0619 227.199 45.3188 227.25 45.5585 227.349C45.7981 227.448 46.0159 227.594 46.1993 227.777C46.3828 227.961 46.5283 228.179 46.6276 228.418C46.7268 228.658 46.7779 228.915 46.7779 229.174C46.7779 230.267 45.8943 231.15 44.8034 231.15Z" fill="#80FF00"/>
<path d="M35.9899 243.466C39.0305 243.466 41.4954 241.001 41.4954 237.961C41.4954 234.92 39.0305 232.455 35.9899 232.455C32.9493 232.455 30.4844 234.92 30.4844 237.961C30.4844 241.001 32.9493 243.466 35.9899 243.466Z" fill="#80FF00"/>
<path d="M27.644 191.466L27.644 196.702L43 196.702L43 191.466L27.644 191.466ZM27.622 188.817L43.022 188.817L43.022 183.647L32.814 183.647L43.022 172.251L43.022 167.059L27.622 167.059L27.622 172.251L37.302 172.251L27.622 182.965L27.622 188.817ZM43.286 155.149L43.286 153.609C43.286 151.981 43.198 150.551 42.978 149.341C42.78 148.131 42.538 147.185 42.208 146.481C41.9 145.777 41.504 145.227 41.042 144.809C40.558 144.391 40.096 144.105 39.656 143.973C39.216 143.841 38.71 143.775 38.138 143.775L37.852 143.775C36.29 143.775 35.168 144.457 34.442 145.865C33.716 147.251 33.32 149.495 33.276 152.641L33.254 154.225L33.232 155.457C33.21 156.535 33.144 157.371 33.012 157.965C32.858 158.559 32.704 158.933 32.55 159.087C32.374 159.263 32.176 159.329 31.912 159.329C31.626 159.329 31.406 159.263 31.252 159.109C31.098 158.977 30.944 158.559 30.79 157.899C30.658 157.217 30.592 156.425 30.592 155.149L30.592 154.379C30.592 153.543 30.636 153.059 30.724 152.443C30.834 151.827 30.944 151.343 31.054 151.035C31.186 150.705 31.34 150.463 31.538 150.265C31.736 150.067 31.89 149.935 32 149.891C32.11 149.847 32.264 149.803 32.418 149.759L32.418 144.303L32.22 144.303C31.714 144.303 31.252 144.391 30.812 144.567C30.394 144.721 29.954 145.029 29.514 145.469C29.074 145.909 28.7 146.481 28.392 147.185C28.084 147.889 27.842 148.813 27.644 150.001C27.446 151.167 27.358 152.531 27.358 154.049L27.358 155.611C27.358 157.085 27.446 158.383 27.644 159.483C27.82 160.605 28.062 161.485 28.348 162.145C28.634 162.805 28.986 163.333 29.404 163.729C29.844 164.147 30.262 164.411 30.68 164.543C31.098 164.675 31.56 164.741 32.044 164.741L32.242 164.741C35.102 164.741 36.62 162.013 36.752 156.557L36.774 155.325L36.818 153.675C36.84 152.421 36.928 151.475 37.06 150.815C37.214 150.155 37.39 149.715 37.566 149.539C37.764 149.363 38.028 149.275 38.358 149.275C38.6 149.275 38.798 149.319 38.974 149.429C39.15 149.539 39.304 149.737 39.48 150.067C39.656 150.375 39.766 150.881 39.854 151.563C39.942 152.267 40.008 152.707 40.008 153.763L40.008 154.973C40.008 158.185 39.194 159.373 37.566 159.483L37.566 164.961L37.786 164.961C38.27 164.961 38.732 164.917 39.15 164.807C39.568 164.697 40.052 164.433 40.58 164.037C41.108 163.641 41.57 163.091 41.944 162.431C42.318 161.749 42.626 160.781 42.89 159.527C43.154 158.295 43.286 156.821 43.286 155.149ZM43.022 135.585L43.022 130.283L31.274 130.283L31.274 123.045L27.622 123.045L27.622 142.801L31.274 142.801L31.274 135.585L43.022 135.585ZM27.776 109.498L27.776 117.308L42.978 125.47L42.978 120.322L40.206 118.892L40.206 107.914L42.978 106.484L42.978 101.314L27.776 109.498ZM36.774 117.11L31.186 114.228L31.186 112.578L36.774 109.674L36.774 117.11ZM43.264 90.2694C43.264 86.5734 42.384 83.8894 40.602 82.1954C41.614 82.1734 43 82.1514 43 82.1514L43 78.3674L34.398 78.3674L34.398 90.1814L37.302 90.1814L37.302 83.6034L37.346 83.6034C37.434 83.6034 37.566 83.6694 37.742 83.7794C37.896 83.9114 38.094 84.1534 38.292 84.4614C38.512 84.7914 38.71 85.1874 38.886 85.6494C39.062 86.1114 39.216 86.7274 39.348 87.5194C39.458 88.2894 39.524 89.1474 39.524 90.0714C39.524 92.2054 39.128 93.7894 38.314 94.8454C37.5 95.8794 36.532 96.4074 35.41 96.4074L35.168 96.4074C32.418 96.4074 31.032 94.2734 31.032 90.0274C31.032 86.6174 31.758 84.6374 33.21 84.0654L33.21 78.4994L33.188 78.4994C32.704 78.4994 32.242 78.5874 31.78 78.7634C31.318 78.9174 30.812 79.2474 30.24 79.7534C29.69 80.2374 29.206 80.8754 28.81 81.6454C28.392 82.4154 28.062 83.4934 27.776 84.8574C27.512 86.2214 27.38 87.8054 27.38 89.5874L27.38 90.5554C27.38 92.4034 27.534 94.0314 27.886 95.4174C28.238 96.8254 28.656 97.9254 29.184 98.7174C29.69 99.5094 30.306 100.169 31.01 100.675C31.714 101.181 32.396 101.511 33.012 101.665C33.65 101.819 34.288 101.885 34.97 101.885L35.542 101.885C36.224 101.885 36.884 101.797 37.544 101.621C38.182 101.423 38.864 101.071 39.59 100.565C40.294 100.059 40.91 99.3994 41.438 98.6074C41.966 97.7934 42.406 96.7154 42.758 95.3734C43.088 94.0094 43.264 92.4694 43.264 90.7314L43.264 90.2694ZM36.598 57.8528C36.004 58.3808 35.608 59.0848 35.366 59.9428C34.75 58.0728 33.65 57.1268 32.044 57.1268L31.802 57.1268C29.184 57.1268 27.864 59.3268 27.864 63.7268L27.864 75.9808L43 75.9808L43 71.2288L37.632 71.2288L37.632 65.0248C37.632 63.8588 37.852 63.0448 38.27 62.5608C38.688 62.0768 39.37 61.8348 40.294 61.8348L43 61.8348L43 57.0608L38.842 57.0608C37.918 57.0608 37.17 57.3248 36.598 57.8528ZM32.792 62.0988C33.232 62.0988 33.606 62.2528 33.87 62.5608C34.134 62.8688 34.288 63.3528 34.288 64.0128L34.288 71.2288L31.296 71.2288L31.296 64.0128C31.296 63.3528 31.45 62.8688 31.714 62.5608C31.978 62.2528 32.33 62.0988 32.77 62.0988L32.792 62.0988ZM27.776 40.1032L27.776 47.9132L42.978 56.0752L42.978 50.9272L40.206 49.4972L40.206 38.5192L42.978 37.0892L42.978 31.9192L27.776 40.1032ZM36.774 47.7152L31.186 44.8332L31.186 43.1832L36.774 40.2792L36.774 47.7152ZM43.022 30.6273L43.022 25.5893L32.352 25.5893L43.022 18.9673L43.022 16.1513L32.352 9.55127L43.022 9.55126L43.022 4.35926L27.622 4.35926L27.622 11.5533L37.214 17.3833L27.622 23.1693L27.622 30.6273L43.022 30.6273Z" fill="white"/>
<path fill-rule="evenodd" clip-rule="evenodd" d="M66.554 0.389613C66.2917 0.651154 66.0771 11.5454 66.0771 24.5986V48.3309L90.0937 48.1465L114.11 47.9621V24.1218V0.281632L90.5705 0.0972202C77.6233 -0.00445131 66.8162 0.127371 66.554 0.389613ZM121.135 1.48276C120.927 2.36484 120.84 5.45285 120.94 8.34523L121.122 13.6041L124.453 13.818L127.784 14.0318V17.4606V20.8894L124.453 21.1032C121.245 21.3094 121.114 21.4027 120.899 23.6415C120.595 26.8102 121.828 28.0975 124.919 27.8388C127.387 27.632 127.437 27.5661 127.647 24.2971L127.861 20.9665H131.29H134.719L134.933 24.2971L135.147 27.6278L138.514 27.843L141.882 28.0583L141.669 31.3489L141.458 34.6396L138.127 34.8534L134.796 35.0673V41.7285V48.3898L131.465 48.1759L128.135 47.9621L127.784 44.8067C127.453 41.8302 127.301 41.6388 125.109 41.4284C121.341 41.0666 120.772 42.0742 120.772 49.0994V55.3245H110.566H100.359L100.573 58.6551L100.787 61.9857L110.761 62.1799L120.733 62.3749L120.928 72.3471L121.122 82.32L134.932 82.51L148.742 82.7L148.956 79.3547C149.143 76.4511 149.389 75.9785 150.82 75.7759C151.727 75.6476 153.226 75.7324 154.151 75.9645C155.612 76.3312 155.832 76.7975 155.832 79.5286V82.6706H162.423H169.015L169.269 85.8757C169.409 87.6378 169.388 89.2154 169.223 89.3816C169.057 89.5471 165.977 89.6824 162.377 89.6824H155.832V93.1883V96.6943H152.352H148.871L148.67 103.531L148.47 110.367L134.796 110.718L121.122 111.068L121.074 117.379L121.025 123.69L114.197 123.891L107.369 124.092L107.585 120.736C107.781 117.659 107.937 117.399 109.453 117.611C110.362 117.739 111.879 117.65 112.823 117.413C114.352 117.029 114.516 116.66 114.325 114.025C114.111 111.08 114.098 111.067 110.955 110.718L107.799 110.367L107.587 107.063L107.374 103.758L114.248 103.557C121.122 103.355 121.122 103.355 120.92 101.603C120.808 100.638 120.893 99.14 121.108 98.2719C121.441 96.9327 121.968 96.6943 124.603 96.6943H127.707L127.921 100.025L128.135 103.355H134.796H141.458L141.659 96.5L141.859 89.6446L131.491 89.8388L121.122 90.033L120.909 93.3636L120.695 96.6943H114.072H107.449V93.2269V89.7596L110.779 89.5457L114.11 89.3318V86.1765V83.0212H110.955H107.799L107.585 86.3518L107.372 89.6824H103.943H100.514L100.3 86.3518L100.086 83.0212L93.2491 82.8206L86.4123 82.6201V79.5651C86.4123 76.1882 87.0378 75.6588 91.0277 75.6588C93.4006 75.6588 93.4244 75.6279 93.4244 72.5034V69.3481H83.2821H73.1398L72.9392 62.5116L72.7387 55.6751L69.3819 55.4605L66.0252 55.2452L66.2265 62.1217L66.4277 68.9975L69.7585 69.2114L73.0893 69.4253V76.0094V82.5935L69.7585 82.8073L66.4277 83.0212L66.2139 86.3518L66 89.6824H69.5699H73.1398L72.9392 96.519L72.7387 103.355L69.3827 103.57L66.0273 103.785L66.2272 110.582L66.4277 117.379L69.7585 117.593L73.0893 117.807V114.262V110.718H76.2314C80.1568 110.718 80.2241 110.503 79.9534 98.7978L79.7508 90.033L76.42 89.8192L73.0893 89.6053V86.1379V82.6706H79.7122H86.3352L86.5491 86.0012L86.7629 89.3318L93.5998 89.5324L100.437 89.7329V93.175V96.6171L97.1058 96.831L93.7751 97.0448V100.2V103.355L97.1058 103.569L100.437 103.783V113.873V123.963L97.1058 124.177L93.7751 124.391L93.5633 127.682L93.3508 130.972L96.7187 131.188L100.086 131.403L100.3 134.733L100.514 138.064H103.943H107.372L107.585 141.395L107.799 144.725H110.955H114.11L114.324 141.395L114.538 138.064H117.655C119.369 138.064 120.781 138.38 120.793 138.765C120.804 139.151 120.883 145.225 120.968 152.263L121.122 165.06L127.784 165.41L134.445 165.761L134.658 169.065L134.871 172.37L127.996 172.571L121.122 172.773V179.434V186.095L131.503 186.289L141.883 186.483L141.671 189.795L141.458 193.107L138.127 193.321L134.796 193.535V196.651V199.768H141.808H148.82V193.068V186.369L152.151 186.582L155.482 186.796L155.832 193.348L156.183 199.901L162.372 199.898C165.776 199.896 168.747 199.709 168.975 199.481C169.202 199.253 169.391 197.884 169.392 196.437C169.396 193.83 169.37 193.806 166.307 193.584C164.608 193.462 163.055 193.1 162.856 192.781C162.657 192.462 162.595 189.328 162.719 185.817L162.944 179.434H169.517H176.09L176.304 182.764L176.518 186.095H179.674H182.829L183.18 182.94L183.53 179.784L186.861 179.571L190.192 179.357V182.901V186.446H197.204H204.216V189.11C204.216 192.997 203.384 193.457 196.363 193.457H190.192V196.613V199.768H200.359H210.527V193.107V186.446H214.008H217.489L217.689 179.609L217.89 172.773H224.551H231.213L231.427 176.103L231.641 179.434H228.071H224.501L224.701 186.27L224.902 193.107H228.057H231.213L231.413 186.27L231.614 179.434H238.639H245.665L245.451 182.764L245.237 186.095L241.906 186.309L238.576 186.523V193.184V199.845L241.906 199.631L245.237 199.418L245.439 192.932L245.64 186.446H248.77H251.899V193.107V199.768H255.405H258.911V193.145V186.523L262.242 186.309L265.572 186.095L265.774 179.219L265.975 172.343L262.618 172.558L259.261 172.773L259.061 179.609L258.86 186.446H255.379H251.899V182.94V179.434H248.743H245.588V175.966V172.499L248.898 172.285L252.209 172.071L252.001 168.741L251.793 165.41H255.351H258.911V158.787V152.165L262.242 151.951L265.572 151.737L265.785 148.432L265.998 145.128L259.123 144.926L252.249 144.725V134.558V124.391L255.561 124.178L258.873 123.965L259.067 114.011L259.261 104.057L262.417 103.706L265.572 103.355V96.6943V90.033L258.911 89.6824L252.249 89.3318L251.899 86.1765L251.548 83.0212L245.062 82.8192L238.576 82.618V72.5154V62.4134L241.906 62.1996L245.237 61.9857V58.8304V55.6751L241.906 55.4612L238.576 55.2473V58.8171V62.3868L231.739 62.1862L224.902 61.9857L224.687 58.6186L224.471 55.2508L221.181 55.4633L217.89 55.6751L217.676 59.0057L217.462 62.3363H207.314H197.167L197.36 51.9939C197.553 41.7341 197.568 41.6493 199.204 41.4179C200.111 41.2896 201.636 41.3808 202.592 41.6213C204.151 42.0125 204.307 42.3638 204.098 45.0101L203.866 47.9621L207.196 48.1759L210.527 48.3898V38.1841V27.9783H207.862C204.431 27.9783 203.765 27.2379 204.095 23.7867L204.363 20.9665H207.464H210.564L210.371 10.6241L210.176 0.281632H200.359H190.542L190.33 3.5863L190.117 6.89098L196.992 7.09222L203.866 7.29346V13.9547V20.6159L200.575 20.8277L197.284 21.0401L197.069 17.6724L196.853 14.3053L193.523 14.0914L190.192 13.8776V17.422V20.9665H186.647H183.103L183.316 24.2971L183.53 27.6278H186.686H189.841L190.055 24.2971L190.269 20.9665H193.736H197.204V27.5808C197.204 35.2777 197.338 35.1465 189.667 34.9839C187.063 34.9292 184.539 34.9074 184.056 34.9369C183.495 34.9712 183.18 36.1093 183.18 38.1069V41.2237L179.849 41.4376L176.518 41.6514V55.3245V68.9975L179.849 69.2114L183.18 69.4253V72.542C183.18 75.5971 183.544 76.0185 185.903 75.6896C186.438 75.6153 187.621 75.7415 188.533 75.9701C189.965 76.3298 190.192 76.8115 190.192 79.49V82.5935L186.861 82.8073L183.53 83.0212L183.315 86.3883L183.1 89.756L179.809 89.5436L176.518 89.3318L176.168 86.1765L175.817 83.0212L172.436 82.8052L169.054 82.59L169.242 79.9809C169.498 76.4413 168.845 75.6588 165.635 75.6588H162.897L162.696 69.1728L162.494 62.6869L159.203 62.4751L155.912 62.2627L155.697 65.6305L155.482 68.9975L152.177 69.21L148.872 69.4231L148.671 62.5487L148.47 55.6751L145.114 55.4605L141.758 55.2459L141.958 48.4487L142.159 41.6514H145.314H148.47L148.685 45.0185L148.9 48.3863L152.191 48.1738L155.482 47.9621L155.684 41.439L155.886 34.9158L159.19 35.1283L162.494 35.3408L162.696 41.8639L162.898 48.387L166.155 48.1745L169.412 47.9621L169.459 41.6514L169.506 35.3408L172.662 34.9902L175.817 34.6396L176.031 31.309L176.245 27.9783H173.064C170.292 27.9783 169.829 27.7624 169.461 26.2969C169.229 25.3721 169.144 23.8729 169.273 22.9663C169.475 21.5359 169.949 21.2891 172.837 21.1032L176.168 20.8894V17.4606V14.0318L172.837 13.818C169.564 13.6076 169.504 13.5613 169.391 11.15C169.328 9.80019 169.249 8.30176 169.216 7.81935C169.177 7.2584 168.032 6.94287 166.039 6.94287H162.922L162.708 3.61225L162.494 0.281632H152.326H142.159L141.958 7.11816L141.758 13.9547H134.732H127.707L127.921 10.6241L128.135 7.29346L131.502 7.0782L134.87 6.86293L134.657 3.57228L134.445 0.281632L127.979 0.0803903C121.744 -0.113837 121.5 -0.0640533 121.135 1.48276ZM176.462 0.875533C176.246 1.43928 176.17 2.95664 176.294 4.24682C176.51 6.51514 176.629 6.59929 179.889 6.80754L183.26 7.0228L183.044 3.65222L182.829 0.281632L179.843 0.0656682C177.719 -0.0878908 176.743 0.146303 176.462 0.875533ZM218.016 0.389613C217.754 0.651154 217.539 11.5412 217.539 24.5895V48.3126H241.74H265.941L265.757 24.2971L265.572 0.281632L242.033 0.0972202C229.085 -0.00445131 218.278 0.127371 218.016 0.389613ZM107.286 24.2971L107.474 41.3008H90.2816H73.0893V24.1092V6.91762L90.0937 7.10554L107.098 7.29346L107.286 24.2971ZM162.708 10.2735L162.494 13.6041L155.682 13.8046L148.871 14.0052L148.67 20.8165L148.47 27.6278L145.139 27.8416L141.808 28.0555V21.0051V13.9547H145.314H148.82V10.9165C148.82 9.24485 149.031 7.66719 149.288 7.41056C149.545 7.15322 152.718 6.94287 156.338 6.94287H162.922L162.708 10.2735ZM258.911 24.1218V41.3008H241.731H224.551V24.5895C224.551 15.3977 224.762 7.66719 225.019 7.41056C225.276 7.15322 233.007 6.94287 242.199 6.94287H258.911V24.1218ZM80.0684 14.3053C79.7136 18.0889 80.147 33.9139 80.6175 34.3844C80.9744 34.7413 85.5 34.9439 90.6757 34.8359L100.086 34.6396L100.28 24.2971L100.474 13.9547H90.2879C84.6852 13.9547 80.0867 14.1125 80.0684 14.3053ZM231.72 24.2971L231.914 34.6396L241.284 34.8359C246.438 34.9439 251.012 34.7349 251.451 34.3717C251.998 33.9188 252.183 30.6022 252.037 23.833L251.825 13.9547H241.676H231.526L231.72 24.2971ZM190.055 44.982L190.269 48.3126H186.724H183.18V44.7682V41.2237L186.51 41.4376L189.841 41.6514L190.055 44.982ZM80.0376 56.0257C80.0025 56.4113 79.9738 57.6734 79.9738 58.8304C79.9738 59.9873 80.0025 61.2495 80.0376 61.6351C80.0755 62.0488 82.8319 62.3363 86.7629 62.3363H93.4244V58.8304V55.3245H86.7629C82.8319 55.3245 80.0755 55.612 80.0376 56.0257ZM127.784 58.8304V62.3363H131.251H134.719L134.933 59.0057L135.147 55.6751L138.451 55.4626L141.756 55.2494L141.958 62.1238L142.159 68.9975L145.49 69.2114L148.82 69.4253V72.542V75.6588H138.302H127.784V68.9975V62.3363H124.278H120.772V59.2981C120.772 57.6265 120.982 56.0488 121.239 55.7922C121.496 55.5348 123.074 55.3245 124.746 55.3245H127.784V58.8304ZM252.178 56.3096C251.97 56.8509 251.901 58.3501 252.025 59.6402C252.242 61.9044 252.365 61.9934 255.58 62.1996L258.911 62.4134V65.8555V69.2976L252.131 69.4982L245.351 69.6987V72.5034V75.3082L252.131 75.5087L258.911 75.7093V79.1899V82.6706H262.455H266L265.786 79.34L265.572 76.0094L262.242 75.7955L258.911 75.5816V72.5034V69.4253L262.242 69.2114L265.572 68.9975L265.773 62.161L265.973 55.3245H259.265C254.15 55.3245 252.466 55.5587 252.178 56.3096ZM100.437 72.4782C100.437 74.2277 100.752 75.6735 101.138 75.6924C101.523 75.7107 104.363 75.7254 107.449 75.7254C110.534 75.7254 113.392 75.7107 113.8 75.6924C114.235 75.6728 114.452 74.4282 114.326 72.6787L114.11 69.6987L107.273 69.4982L100.437 69.2976V72.4782ZM217.539 72.5034V75.6588L214.91 75.6693C211.164 75.6847 210.392 76.395 210.654 79.5868L210.878 82.32L224.727 82.51L238.576 82.7V86.1527V89.6053L241.906 89.8192L245.237 90.033L245.375 95.9931C245.45 99.2711 245.53 102.348 245.55 102.83C245.574 103.393 246.696 103.706 248.693 103.706H251.799L252.024 110.079C252.285 117.456 251.864 118.193 247.928 117.261C245.48 116.683 245.326 116.484 245.283 113.858C245.237 111.08 245.224 111.067 242.082 110.718L238.926 110.367L238.576 103.706L238.225 97.0448L234.931 96.8324L231.637 96.6206L231.425 93.3265L231.213 90.033H224.551H217.89L217.678 93.3237L217.466 96.6143L220.833 96.8296L224.201 97.0448V100.2V103.355H221.045H217.89L217.675 99.9884L217.459 96.6206L214.168 96.8331L210.878 97.0448L210.527 107.212L210.176 117.379L207.603 117.181C206.139 117.067 204.802 117.348 204.503 117.833C204.214 118.3 203.952 121.387 203.922 124.692L203.866 130.702L200.572 130.914L197.278 131.126L197.066 134.42L196.853 137.713L193.563 137.925L190.272 138.138L190.057 134.77L189.841 131.403L186.548 131.19L183.253 130.979L183.042 127.684L182.829 124.391L179.536 124.179L176.241 123.967L176.029 120.699C175.818 117.444 175.806 117.43 173.18 117.342C171.73 117.294 170.217 117.646 169.82 118.125C169.411 118.618 169.186 121.538 169.301 124.849L169.506 130.702L172.837 130.915L176.168 131.129V134.558V137.987L172.837 138.201L169.506 138.415L169.292 141.745L169.078 145.076H172.623H176.168V151.737V158.398H183.18H190.192V155.243V152.088H193.698H197.204V148.543V144.999L200.535 145.213C203.743 145.419 203.874 145.512 204.089 147.751C204.387 150.857 203.205 152.088 199.923 152.088H197.204V155.243V158.398H199.923C201.418 158.398 202.959 158.793 203.346 159.275C203.733 159.757 204.008 162.833 203.957 166.111L203.866 172.071L200.572 172.284L197.278 172.496L197.066 175.79L196.853 179.083L193.549 179.296L190.244 179.509L190.043 172.634L189.841 165.761H186.686H183.53L183.315 169.128L183.1 172.496L179.809 172.283L176.518 172.071L176.168 168.916L175.817 165.761L169.331 165.559C164.428 165.407 162.83 165.578 162.784 166.26C162.751 166.757 162.672 168.267 162.609 169.617C162.496 172.031 162.44 172.075 159.137 172.286L155.781 172.501L155.982 165.625L156.183 158.749L159.514 158.535L162.845 158.321V155.204V152.088H165.509C168.94 152.088 169.606 151.347 169.277 147.896C169.008 145.078 169.006 145.076 165.965 145.076H162.922L162.708 141.745L162.494 138.415L159.2 138.202L155.906 137.99L155.694 134.696L155.482 131.403H152.326H149.171V138.064V144.725L152.326 145.076L155.482 145.426V148.582V151.737H148.82H142.159L141.958 144.938L141.758 138.139L138.452 137.926L135.147 137.713L134.934 134.42L134.722 131.126L131.428 130.914L128.135 130.702L127.93 124.451C127.812 120.825 128.019 118.018 128.424 117.768C128.808 117.53 130.399 117.458 131.959 117.606L134.796 117.877V120.973V124.07L148.645 123.88L162.494 123.69L162.709 120.71C162.94 117.524 162.971 117.549 158.637 117.441C156.222 117.38 156.18 117.328 155.971 114.088L155.759 110.798L159.127 110.583L162.494 110.367L162.706 107.077L162.918 103.786L159.55 103.571L156.183 103.355L155.968 99.9849L155.752 96.6143L159.123 96.8296L162.494 97.0448L162.708 100.375L162.922 103.706H166H169.078L169.292 107.037L169.506 110.367H172.662H175.817L176.029 107.077L176.241 103.786L172.873 103.571L169.506 103.355V100.2V97.0448L176.343 96.8443L183.18 96.6438V93.1631V89.6824H190.192H197.204V86.2151V82.7477L200.535 82.5339C203.743 82.3277 203.874 82.2345 204.089 79.9956C204.387 76.8893 203.205 75.6588 199.923 75.6588H197.204V72.5034V69.3481H207.372H217.539V72.5034ZM197.069 92.9766L196.853 96.3437L189.979 96.5449L183.105 96.7461L183.318 100.051L183.53 103.355L190.192 103.706L196.853 104.057V107.212V110.367L193.523 110.581L190.192 110.795V117.456V124.117L193.523 123.904L196.853 123.69L197.055 117.204L197.257 110.718H200.372C204.193 110.718 204.177 110.77 203.997 98.7978L203.866 90.033L200.575 89.8213L197.284 89.6088L197.069 92.9766ZM107.449 100.2V103.706H103.943H100.437V100.2V96.6943H103.943H107.449V100.2ZM231.563 113.818C231.563 116.657 231.395 116.954 229.561 117.357C228.459 117.599 227.276 117.744 226.931 117.68C224.755 117.275 224.551 117.852 224.551 124.391V131.052H228.057H231.563V124.465V117.877L234.325 117.613C238.254 117.239 238.576 117.488 238.576 120.905V123.963L241.906 124.177L245.237 124.391V131.052V137.713L234.894 137.908L224.551 138.101V134.577V131.052H221.045H217.539V120.885V110.718H224.551H231.563V113.818ZM73.3866 118.021C73.2372 118.439 73.0304 121.464 72.9273 124.742L72.7387 130.702L69.3827 130.916L66.0273 131.131L66.2272 137.928L66.4277 144.725H69.5832H72.7387L72.9539 141.358L73.1692 137.99L76.46 138.203L79.7508 138.415V141.57V144.725L83.0963 144.94L86.4425 145.154L86.2517 131.34L86.0617 117.528L79.8595 117.394C75.9208 117.309 73.5584 117.538 73.3866 118.021ZM114.324 134.733L114.538 138.064H110.993H107.449V134.52V130.975L110.779 131.189L114.11 131.403L114.324 134.733ZM210.527 134.558V138.064H207.43C203.973 138.064 203.725 137.748 204.1 133.813C204.363 131.058 204.37 131.052 207.445 131.052H210.527V134.558ZM134.796 151.737V158.398H131.29H127.784V152.205C127.784 148.798 127.994 145.8 128.252 145.544C128.508 145.286 130.086 145.076 131.758 145.076H134.796V151.737ZM231.563 155.262V165.447L221.221 165.254L210.878 165.06L210.681 155.981C210.572 150.988 210.641 146.492 210.833 145.99C211.099 145.297 213.648 145.076 221.374 145.076H231.563V155.262ZM66.0771 175.919V199.768H90.2781H114.48L114.295 176.103L114.11 152.438L90.0937 152.254L66.0771 152.069V175.919ZM217.539 155.243V158.398H221.045H224.551V155.243V152.088H221.045H217.539V155.243ZM251.899 158.749V165.41H248.793H245.687L245.462 159.038C245.338 155.533 245.369 152.536 245.529 152.377C245.69 152.217 247.189 152.088 248.86 152.088H251.899V158.749ZM107.098 175.928V193.107H90.269H73.4399L73.2512 176.644C73.1475 167.589 73.219 159.773 73.4097 159.277C73.6818 158.567 77.3323 158.413 90.4275 158.561L107.098 158.749V175.928ZM148.47 168.916V179.083H141.808H135.147L134.933 175.753L134.719 172.422H138.264H141.808V165.878C141.808 162.278 142.033 159.108 142.309 158.833C142.584 158.557 144.083 158.426 145.64 158.541L148.47 158.749V168.916ZM80.0621 166.268C80.0264 167.086 80.0467 184.674 80.0846 185.939C80.0937 186.239 84.5976 186.397 90.0937 186.289L100.086 186.095V175.928V165.761L90.0937 165.567C82.367 165.416 80.0923 165.575 80.0621 166.268ZM245.451 169.091L245.665 172.422H242.12H238.576V169.384C238.576 167.712 238.801 166.12 239.076 165.845C239.351 165.569 240.85 165.438 242.407 165.552L245.237 165.761L245.451 169.091ZM210.527 182.94V186.446H207.445H204.363L204.049 183.466C203.875 181.827 203.861 180.249 204.016 179.96C204.172 179.67 205.7 179.434 207.413 179.434H210.527V182.94ZM121.048 194.45C120.838 194.996 120.77 196.337 120.894 197.43C121.096 199.19 121.465 199.463 124.112 199.816C125.757 200.036 127.256 200.063 127.443 199.875C127.63 199.687 127.784 198.167 127.784 196.496V193.457H124.607C122.513 193.457 121.299 193.796 121.048 194.45ZM176.168 196.613V199.768H179.674H183.18V196.613V193.457H179.674H176.168V196.613Z" fill="#80FF00"/>
<path d="M75.88 239.9H79.82V237.14H78.58C78.2 237.14 77.96 237.06 77.84 236.92C77.72 236.78 77.66 236.56 77.66 236.26V232.6H79.82V229.82H77.66V226.88H73.16V229.82H71.02V232.6H73.16V237.04C73.16 238.96 74.06 239.9 75.88 239.9ZM81.8794 239.96H86.4194V235.2C86.4194 234.36 86.7394 233.7 87.3394 233.2C87.9594 232.7 88.7794 232.46 89.7994 232.46C90.7794 232.46 91.5194 232.68 92.0194 233.1C92.4994 233.54 92.7394 234.16 92.7394 234.96V239.96H97.3394V233.58C97.3394 232.5 96.8994 231.56 95.9994 230.8C95.0994 230.02 93.7594 229.64 91.9794 229.64H91.8394C89.6194 229.64 87.8194 230.28 86.4194 231.56V226H81.8794V239.96ZM115.839 236.28V236.26H111.339C111.339 236.34 111.299 236.42 111.239 236.5C111.199 236.58 111.079 236.68 110.939 236.82C110.779 236.94 110.579 237.06 110.319 237.16C110.079 237.28 109.739 237.36 109.299 237.44C108.859 237.52 108.339 237.56 107.779 237.56H107.759C105.459 237.56 104.159 236.9 103.859 235.58H115.899V234.9C115.899 231.26 113.359 229.46 108.259 229.46H107.019C105.579 229.46 104.359 229.6 103.319 229.88C102.299 230.16 101.499 230.54 100.959 231.04C100.399 231.54 99.9989 232.06 99.7589 232.64C99.5189 233.22 99.3989 233.84 99.3989 234.54V234.94C99.3989 235.64 99.5189 236.3 99.7789 236.88C100.059 237.46 100.479 238 101.039 238.5C101.619 239 102.419 239.4 103.459 239.68C104.499 239.96 105.719 240.1 107.139 240.1H108.299C109.559 240.1 110.659 240.02 111.599 239.84C112.559 239.66 113.279 239.42 113.799 239.16C114.319 238.88 114.739 238.58 115.079 238.2C115.399 237.84 115.599 237.52 115.699 237.2C115.799 236.9 115.839 236.6 115.839 236.28ZM107.619 231.8C109.759 231.8 110.979 232.36 111.299 233.5H103.939C104.319 232.36 105.539 231.8 107.599 231.8H107.619ZM126.414 229.36C125.614 229.36 124.914 229.5 124.254 229.78C123.614 230.06 123.154 230.34 122.874 230.6C122.614 230.86 122.394 231.14 122.214 231.4V229.58H117.954V239.9H122.234V234.58C122.234 233.86 122.434 233.28 122.834 232.8C123.234 232.32 124.034 231.86 124.554 231.8C125.074 231.74 131.154 231.74 131.154 231.74V229.36H126.414ZM149.023 236.28V236.26H144.523C144.523 236.34 144.483 236.42 144.423 236.5C144.383 236.58 144.263 236.68 144.123 236.82C143.963 236.94 143.763 237.06 143.503 237.16C143.263 237.28 142.923 237.36 142.483 237.44C142.043 237.52 141.523 237.56 140.963 237.56H140.943C138.643 237.56 137.343 236.9 137.043 235.58H149.083V234.9C149.083 231.26 146.543 229.46 141.443 229.46H140.203C138.763 229.46 137.543 229.6 136.503 229.88C135.483 230.16 134.683 230.54 134.143 231.04C133.583 231.54 133.183 232.06 132.943 232.64C132.703 233.22 132.583 233.84 132.583 234.54V234.94C132.583 235.64 132.703 236.3 132.963 236.88C133.243 237.46 133.663 238 134.223 238.5C134.803 239 135.603 239.4 136.643 239.68C137.683 239.96 138.903 240.1 140.323 240.1H141.483C142.743 240.1 143.843 240.02 144.783 239.84C145.743 239.66 146.463 239.42 146.983 239.16C147.503 238.88 147.923 238.58 148.263 238.2C148.583 237.84 148.783 237.52 148.883 237.2C148.983 236.9 149.023 236.6 149.023 236.28ZM140.803 231.8C142.943 231.8 144.163 232.36 144.483 233.5H137.123C137.503 232.36 138.723 231.8 140.783 231.8H140.803ZM151.137 239.9H155.677V235.14C155.677 234.34 155.977 233.68 156.537 233.18C157.097 232.66 157.857 232.4 158.837 232.4C160.517 232.4 161.357 233.24 161.357 234.92V239.9H165.957V235.14C165.957 234.34 166.237 233.68 166.797 233.18C167.357 232.66 168.137 232.4 169.097 232.4C170.757 232.4 171.597 233.24 171.597 234.92V239.9H176.197V233.54C176.197 232.46 175.777 231.54 174.917 230.76C174.077 229.98 172.817 229.6 171.117 229.6H170.957C168.717 229.6 166.877 230.26 165.417 231.6C164.617 230.26 163.157 229.6 161.017 229.6H160.877C158.817 229.6 157.077 230.24 155.637 231.56V229.82H151.137V239.9ZM192.327 237.3C191.967 237.3 191.787 237.12 191.787 236.78V232.8C191.787 232.44 191.747 232.12 191.707 231.86C191.647 231.6 191.507 231.32 191.247 230.98C191.007 230.66 190.667 230.4 190.227 230.18C189.787 229.98 189.167 229.8 188.327 229.66C187.507 229.52 186.507 229.46 185.347 229.46H177.827V231.86L184.907 231.84C185.687 231.84 186.307 231.9 186.727 232C187.147 232.08 187.407 232.18 187.487 232.28C187.567 232.4 187.607 232.52 187.607 232.7C187.607 233 187.387 233.18 186.967 233.24L182.187 233.68C180.627 233.82 179.507 234.14 178.827 234.62C178.147 235.12 177.827 235.84 177.827 236.78V236.92C177.827 237.9 178.207 238.7 179.007 239.34C179.807 239.98 181.027 240.3 182.667 240.3H182.907C184.247 240.3 185.307 240.14 186.087 239.8C186.867 239.46 187.407 239.08 187.727 238.7C187.887 239.64 188.427 240.12 189.387 240.12H192.887V237.3H192.327ZM187.607 235.5C187.607 236.16 187.267 236.72 186.547 237.22C185.847 237.72 184.927 237.98 183.827 237.98C183.147 237.98 182.667 237.86 182.367 237.64C182.067 237.4 181.927 237.12 181.927 236.8V236.78C181.927 236.5 182.047 236.3 182.267 236.16C182.507 236.02 182.907 235.9 183.487 235.82L187.607 235.18V235.5ZM206.901 225.88V231.1C205.581 230.04 203.741 229.5 201.381 229.5H201.061C198.741 229.5 197.041 229.96 195.941 230.9C194.861 231.84 194.321 233.04 194.321 234.52V234.88C194.321 236.4 194.881 237.66 196.041 238.62C197.181 239.6 198.921 240.08 201.241 240.08H201.501C202.321 240.08 203.081 240 203.781 239.86C204.481 239.72 205.021 239.54 205.461 239.32C205.881 239.12 206.201 238.92 206.441 238.76C206.661 238.58 206.841 238.44 206.941 238.3V239.84H211.481V225.88H206.901ZM206.901 234.74V234.8C206.901 235.5 206.541 236.12 205.801 236.64C205.061 237.16 204.061 237.42 202.781 237.42H202.681C201.441 237.42 200.501 237.16 199.901 236.64C199.281 236.12 198.981 235.5 198.981 234.8V234.74C198.981 233.98 199.261 233.36 199.801 232.88C200.361 232.38 201.301 232.14 202.641 232.14H202.741C204.021 232.14 205.021 232.4 205.781 232.92C206.521 233.42 206.901 234.04 206.901 234.74ZM229.98 236.28V236.26H225.48C225.48 236.34 225.44 236.42 225.38 236.5C225.34 236.58 225.22 236.68 225.08 236.82C224.92 236.94 224.72 237.06 224.46 237.16C224.22 237.28 223.88 237.36 223.44 237.44C223 237.52 222.48 237.56 221.92 237.56H221.9C219.6 237.56 218.3 236.9 218 235.58H230.04V234.9C230.04 231.26 227.5 229.46 222.4 229.46H221.16C219.72 229.46 218.5 229.6 217.46 229.88C216.44 230.16 215.64 230.54 215.1 231.04C214.54 231.54 214.14 232.06 213.9 232.64C213.66 233.22 213.54 233.84 213.54 234.54V234.94C213.54 235.64 213.66 236.3 213.92 236.88C214.2 237.46 214.62 238 215.18 238.5C215.76 239 216.56 239.4 217.6 239.68C218.64 239.96 219.86 240.1 221.28 240.1H222.44C223.7 240.1 224.8 240.02 225.74 239.84C226.7 239.66 227.42 239.42 227.94 239.16C228.46 238.88 228.88 238.58 229.22 238.2C229.54 237.84 229.74 237.52 229.84 237.2C229.94 236.9 229.98 236.6 229.98 236.28ZM221.76 231.8C223.9 231.8 225.12 232.36 225.44 233.5H218.08C218.46 232.36 219.68 231.8 221.74 231.8H221.76ZM235.694 237.68H231.554V240.44H235.694V237.68ZM241.751 226H237.211V228.88H241.751V226ZM241.751 229.86H237.211V239.96H241.751V229.86ZM252.733 240.06C257.973 240.06 260.593 238.32 260.593 234.84V234.5C260.593 231.1 257.973 229.4 252.733 229.4H251.273C250.053 229.4 248.953 229.5 248.013 229.72C247.073 229.92 246.313 230.18 245.733 230.52C245.153 230.86 244.693 231.24 244.333 231.72C243.973 232.18 243.733 232.62 243.593 233.08C243.453 233.54 243.393 234 243.393 234.5V234.84C243.393 235.34 243.453 235.82 243.593 236.28C243.733 236.74 243.973 237.2 244.353 237.68C244.713 238.14 245.173 238.56 245.753 238.9C246.333 239.24 247.093 239.5 248.033 239.72C248.973 239.94 250.073 240.06 251.293 240.06H252.733ZM252.013 237.34C250.593 237.34 249.573 237.08 248.973 236.56C248.353 236.06 248.053 235.44 248.053 234.74V234.64C248.053 233.9 248.353 233.28 248.953 232.8C249.553 232.32 250.573 232.08 252.013 232.08H252.033C253.433 232.08 254.453 232.32 255.053 232.82C255.673 233.3 255.973 233.92 255.973 234.64V234.74C255.973 235.44 255.673 236.06 255.053 236.56C254.453 237.08 253.433 237.34 252.013 237.34Z" fill="#FFFF00"/>
</svg>
