<svg width="280" height="288" viewBox="0 0 280 288" fill="none" xmlns="http://www.w3.org/2000/svg">
<path d="M36 220.126C26.13 220.126 18.125 228.131 18.125 238.001C18.125 247.871 26.13 255.876 36 255.876C45.87 255.876 53.875 247.871 53.875 238.001C53.875 228.131 45.8745 220.126 36 220.126ZM26.9433 238.601L27.0193 238.481L31.6713 231.205C31.6869 231.182 31.7086 231.162 31.7342 231.15C31.7597 231.137 31.7883 231.131 31.8167 231.134C31.8452 231.136 31.8725 231.145 31.896 231.162C31.9194 231.178 31.938 231.2 31.9498 231.226C32.7244 232.968 33.3977 235.134 33.0819 236.482C32.9508 237.036 32.5829 237.786 32.1673 238.481C32.114 238.582 32.0558 238.681 31.993 238.777C31.978 238.798 31.9579 238.816 31.9345 238.827C31.9111 238.839 31.8851 238.845 31.859 238.844H27.0819C27.0534 238.845 27.0253 238.837 27.0005 238.823C26.9758 238.809 26.9555 238.788 26.9416 238.763C26.9277 238.738 26.9208 238.71 26.9216 238.682C26.9224 238.653 26.931 238.625 26.9463 238.601H26.9433ZM47.6694 241.104C47.6698 241.136 47.6608 241.167 47.6436 241.194C47.6264 241.22 47.6017 241.241 47.5726 241.254C47.2106 241.408 45.9787 241.977 45.4663 242.687C44.1584 244.507 43.1604 247.111 40.9261 247.111H31.6102C30.8236 247.11 30.045 246.954 29.3189 246.652C28.5927 246.35 27.9332 245.907 27.378 245.35C26.8229 244.793 26.383 244.132 26.0835 243.404C25.784 242.677 25.6307 241.898 25.6325 241.111V241.004C25.6325 240.918 25.704 240.846 25.7934 240.846H30.9846C31.0888 240.846 31.1633 240.94 31.1559 241.043C31.1171 241.379 31.1812 241.726 31.3421 242.041C31.6489 242.666 32.2894 243.057 32.9791 243.057H35.5501V241.05H33.0059C32.9761 241.05 32.947 241.041 32.9216 241.026C32.8962 241.01 32.8756 240.988 32.862 240.961C32.8483 240.935 32.8422 240.905 32.8442 240.875C32.8462 240.846 32.8563 240.817 32.8734 240.792L32.9672 240.658C33.2055 240.314 33.5496 239.785 33.8922 239.181C34.1246 238.773 34.351 238.338 34.5328 237.9C34.5685 237.822 34.5968 237.74 34.6296 237.661C34.6787 237.521 34.7294 237.39 34.7651 237.261C34.8002 237.151 34.8325 237.04 34.862 236.928C34.9469 236.556 34.9826 236.163 34.9826 235.756C34.9826 235.595 34.9767 235.427 34.9618 235.269C34.9543 235.095 34.932 234.919 34.9111 234.745C34.8945 234.589 34.8706 234.434 34.8396 234.28C34.7995 234.046 34.7508 233.813 34.6936 233.583L34.6728 233.493C34.6281 233.333 34.5894 233.181 34.5387 233.021C34.3969 232.532 34.2339 232.049 34.0501 231.573C33.9861 231.395 33.9156 231.218 33.8386 231.045C33.7314 230.779 33.6211 230.54 33.5213 230.315C33.4717 230.218 33.425 230.121 33.3813 230.021C33.3329 229.914 33.2817 229.808 33.2279 229.704C33.1921 229.625 33.1489 229.549 33.1206 229.478L32.8063 228.9C32.7631 228.821 32.8346 228.724 32.921 228.749L34.8873 229.281H34.9022L35.1599 229.355L35.4459 229.436L35.5501 229.464V228.298C35.5501 227.733 36 227.276 36.5616 227.276C36.6942 227.276 36.8255 227.302 36.9476 227.354C37.0697 227.406 37.1801 227.481 37.2721 227.577C37.4623 227.769 37.5693 228.028 37.57 228.298V230.032L37.7801 230.09C37.7949 230.097 37.8128 230.105 37.8262 230.115C37.8769 230.151 37.9514 230.207 38.0452 230.279C38.1197 230.336 38.1986 230.407 38.291 230.483C38.5851 230.723 38.8703 230.973 39.146 231.234C39.4648 231.53 39.8223 231.877 40.1649 232.263C40.2617 232.373 40.3541 232.481 40.4509 232.6C40.5432 232.717 40.6475 232.832 40.7339 232.945C40.8516 233.1 40.9722 233.261 41.084 233.428C41.1331 233.507 41.1942 233.589 41.2404 233.668C41.3834 233.879 41.5055 234.097 41.6232 234.316C41.6738 234.416 41.723 234.526 41.7662 234.633C41.8988 234.926 42.003 235.223 42.0671 235.524C42.0883 235.588 42.1027 235.654 42.1103 235.72V235.735C42.1311 235.82 42.1386 235.914 42.146 236.009C42.188 236.45 42.1341 236.894 41.9881 237.311C41.942 237.436 41.8988 237.565 41.8421 237.69C41.7304 237.943 41.6023 238.201 41.4489 238.437C41.3983 238.527 41.3372 238.619 41.2806 238.709C41.2165 238.802 41.148 238.892 41.0914 238.977C41.0095 239.089 40.9235 239.199 40.8337 239.306C40.7548 239.413 40.6758 239.52 40.5864 239.617C40.4658 239.763 40.3481 239.9 40.2215 240.031C40.15 240.118 40.0725 240.207 39.9891 240.285C39.9116 240.374 39.8282 240.453 39.7567 240.524C39.6316 240.649 39.5333 240.743 39.4469 240.825L39.2428 241.007C39.2144 241.035 39.1758 241.052 39.1356 241.052H37.57V243.057H39.5393C39.9787 243.057 40.3973 242.902 40.7369 242.613C40.8516 242.513 41.3551 242.076 41.9524 241.418C41.9718 241.396 41.9979 241.38 42.0269 241.373L47.4638 239.799C47.4877 239.792 47.5129 239.791 47.5373 239.795C47.5618 239.8 47.5848 239.81 47.6048 239.825C47.6247 239.839 47.6409 239.859 47.6521 239.881C47.6633 239.903 47.6692 239.927 47.6694 239.952V241.104Z" fill="#80FF00"/>
<path d="M25.936 161.392C25.936 163 26.032 164.44 26.248 165.76C26.44 167.056 26.704 168.16 27.04 169.048C27.376 169.912 27.784 170.68 28.264 171.328C28.744 172 29.224 172.504 29.704 172.888C30.184 173.248 30.712 173.536 31.288 173.752C31.864 173.992 32.392 174.136 32.824 174.184C33.28 174.256 33.736 174.28 34.24 174.28L34.912 174.28C35.392 174.28 35.872 174.256 36.328 174.184C36.76 174.136 37.288 173.992 37.864 173.752C38.44 173.536 38.968 173.248 39.472 172.888C39.952 172.504 40.432 172 40.936 171.328C41.416 170.656 41.824 169.888 42.184 169.024C42.52 168.16 42.784 167.056 43 165.76C43.216 164.44 43.312 163 43.312 161.392L43.312 160.624C43.312 159.016 43.216 157.576 43 156.28C42.784 154.96 42.52 153.88 42.184 153.016C41.824 152.152 41.416 151.384 40.936 150.712C40.432 150.04 39.952 149.536 39.472 149.176C38.968 148.816 38.44 148.528 37.864 148.288C37.288 148.072 36.76 147.904 36.328 147.856C35.872 147.784 35.392 147.76 34.912 147.76L34.24 147.76C33.736 147.76 33.28 147.784 32.824 147.856C32.368 147.904 31.864 148.072 31.288 148.288C30.712 148.528 30.184 148.816 29.704 149.2C29.224 149.56 28.744 150.064 28.264 150.736C27.784 151.384 27.376 152.152 27.04 153.016C26.704 153.904 26.44 154.984 26.248 156.28C26.032 157.576 25.936 159.016 25.936 160.624L25.936 161.392ZM34.72 153.76C35.248 153.76 35.776 153.856 36.256 154.072C36.736 154.264 37.216 154.624 37.672 155.128C38.152 155.632 38.536 156.4 38.8 157.432C39.064 158.32 39.184 159.4 39.232 160.624C39.232 160.816 39.232 161.104 39.232 161.224C39.208 162.544 39.064 163.696 38.8 164.656C38.512 165.688 38.128 166.432 37.648 166.936C37.168 167.416 36.688 167.776 36.208 167.968C35.728 168.184 35.2 168.28 34.672 168.28L34.408 168.28C31.552 168.28 30.088 165.952 29.992 161.32C29.992 161.176 29.992 160.744 30.016 160.528C30.04 159.592 30.112 158.752 30.28 158.008C30.472 157.12 30.712 156.4 31 155.872C31.264 155.344 31.624 154.912 32.032 154.6C32.44 154.264 32.824 154.048 33.208 153.928C33.568 153.808 33.976 153.76 34.408 153.76L34.72 153.76ZM37.432 131.848C37.432 126.16 35.584 123.328 31.912 123.328L31.696 123.328C28.048 123.328 26.224 126.16 26.224 131.848L26.224 145.576L43.024 145.576L43.024 139.864L37.432 139.864L37.432 131.848ZM30.04 139.864L30.04 131.944C30.04 130.192 30.64 129.304 31.816 129.304L31.888 129.304C33.064 129.304 33.664 130.192 33.664 131.944L33.664 139.864L30.04 139.864ZM26.176 121.365L43 121.365L43 101.781L39.088 101.781L39.088 115.701L36.328 115.701L36.328 102.357L32.488 102.357L32.488 115.701L29.992 115.701L29.992 102.045L26.176 102.045L26.176 121.365ZM26.224 99.2397L43.024 99.2397L43.024 93.5997L31.888 93.5997L43.024 81.1677L43.024 75.5037L26.224 75.5037L26.224 81.1677L36.784 81.1677L26.224 92.8557L26.224 99.2397ZM43.312 62.5112L43.312 60.8312C43.312 59.0552 43.216 57.4952 42.976 56.1752C42.76 54.8552 42.496 53.8232 42.136 53.0552C41.8 52.2872 41.368 51.6872 40.864 51.2312C40.336 50.7752 39.832 50.4632 39.352 50.3192C38.872 50.1752 38.32 50.1032 37.696 50.1032L37.384 50.1032C35.68 50.1032 34.456 50.8472 33.664 52.3832C32.872 53.8952 32.44 56.3432 32.392 59.7752L32.368 61.5032L32.344 62.8472C32.32 64.0232 32.248 64.9352 32.104 65.5832C31.936 66.2312 31.768 66.6392 31.6 66.8072C31.408 66.9992 31.192 67.0712 30.904 67.0712C30.592 67.0712 30.352 66.9992 30.184 66.8312C30.016 66.6872 29.848 66.2312 29.68 65.5112C29.536 64.7672 29.464 63.9032 29.464 62.5112L29.464 61.6712C29.464 60.7592 29.512 60.2312 29.608 59.5592C29.728 58.8872 29.848 58.3592 29.968 58.0232C30.112 57.6632 30.28 57.3992 30.496 57.1832C30.712 56.9672 30.88 56.8232 31 56.7752C31.12 56.7272 31.288 56.6792 31.456 56.6312L31.456 50.6792L31.24 50.6792C30.688 50.6792 30.184 50.7752 29.704 50.9672C29.248 51.1352 28.768 51.4712 28.288 51.9512C27.808 52.4312 27.4 53.0552 27.064 53.8232C26.728 54.5912 26.464 55.5992 26.248 56.8952C26.032 58.1672 25.936 59.6552 25.936 61.3112L25.936 63.0152C25.936 64.6232 26.032 66.0392 26.248 67.2392C26.44 68.4632 26.704 69.4232 27.016 70.1432C27.328 70.8632 27.712 71.4392 28.168 71.8712C28.648 72.3272 29.104 72.6152 29.56 72.7592C30.016 72.9032 30.52 72.9752 31.048 72.9752L31.264 72.9752C34.384 72.9752 36.04 69.9992 36.184 64.0472L36.208 62.7032L36.256 60.9032C36.28 59.5352 36.376 58.5032 36.52 57.7832C36.688 57.0632 36.88 56.5832 37.072 56.3912C37.288 56.1992 37.576 56.1032 37.936 56.1032C38.2 56.1032 38.416 56.1512 38.608 56.2712C38.8 56.3912 38.968 56.6072 39.16 56.9672C39.352 57.3032 39.472 57.8552 39.568 58.5992C39.664 59.3672 39.736 59.8472 39.736 60.9992L39.736 62.3192C39.736 65.8232 38.848 67.1192 37.072 67.2392L37.072 73.2152L37.312 73.2152C37.84 73.2152 38.344 73.1672 38.8 73.0472C39.256 72.9272 39.784 72.6392 40.36 72.2072C40.936 71.7752 41.44 71.1752 41.848 70.4552C42.256 69.7112 42.592 68.6552 42.88 67.2872C43.168 65.9432 43.312 64.3352 43.312 62.5112ZM26.176 47.8412L43 47.8412L43 28.2572L39.088 28.2572L39.088 42.1772L36.328 42.1772L36.328 28.8332L32.488 28.8332L32.488 42.1772L29.992 42.1772L29.992 28.5212L26.176 28.5212L26.176 47.8412ZM26.392 9.78025L26.392 18.3002L42.976 27.2042L42.976 21.5882L39.952 20.0282L39.952 8.05225L42.976 6.49225L42.976 0.852247L26.392 9.78025ZM36.208 18.0842L30.112 14.9402L30.112 13.1402L36.208 9.97225L36.208 18.0842Z" fill="white"/>
<path fill-rule="evenodd" clip-rule="evenodd" d="M90.0532 0.0203272C73.7308 0.0840378 66.8603 0.224412 66.5277 0.500958C65.8049 1.10096 65.834 47.1897 66.5574 47.9132C67.3085 48.6648 113.434 48.6627 114.186 47.9108C114.614 47.4823 114.674 43.9677 114.598 24.062C114.51 1.12791 114.496 0.708893 113.808 0.323128C113.306 0.0413313 106.596 -0.0440835 90.0532 0.0203272ZM142.675 0.246465C142.003 0.547165 141.969 0.880771 141.969 7.16012V13.7577H138.89C136.963 13.7577 135.655 13.6008 135.392 13.3376C135.139 13.0845 134.972 11.8597 134.972 10.2571C134.972 8.65452 134.806 7.42966 134.553 7.17657C134.259 6.88322 132.366 6.7565 128.281 6.7565C123.427 6.7565 122.335 6.85032 121.879 7.30644C121.407 7.77937 121.329 9.17821 121.329 17.2583C121.329 28.3198 121.146 27.7765 124.865 27.7198C128.117 27.6704 128.392 27.3746 128.102 24.2423C127.77 20.6731 127.605 20.7588 134.812 20.7588C138.139 20.7588 141.111 20.6633 141.415 20.5464C141.866 20.3734 141.969 19.7199 141.969 17.0318V13.7297L145.082 13.7864C146.794 13.8175 148.368 13.736 148.58 13.6047C148.81 13.4622 148.965 12.2052 148.965 10.4815C148.965 8.70458 149.127 7.43526 149.385 7.17657C149.631 6.93013 150.813 6.7565 152.243 6.7565C155.594 6.7565 155.903 7.0796 155.693 10.3614C155.481 13.6562 155.669 13.8193 159.513 13.6849L162.433 13.5826V6.93153V0.280421L152.907 0.105391C147.563 0.00737505 143.071 0.0689853 142.675 0.246465ZM241.318 0.105391L218.055 0.280421L217.965 24.0623C217.894 42.8559 217.968 47.9027 218.315 48.1233C218.557 48.2769 229.144 48.4002 241.843 48.397C259.465 48.3925 265.055 48.2902 265.456 47.9647C265.915 47.5919 265.968 44.58 265.884 24.0042C265.793 2.12523 265.744 0.450899 265.184 0.200257C264.852 0.0518324 254.113 0.00912534 241.318 0.105391ZM190.443 0.417293C190.327 0.603524 190.197 1.96105 190.152 3.43445C190.086 5.5572 190.186 6.19816 190.631 6.52406C191.077 6.85032 194.791 7.01449 196.642 6.78976C196.793 6.77155 196.872 5.29956 196.817 3.51846L196.716 0.280421L193.684 0.179604C191.991 0.123595 190.559 0.228612 190.443 0.417293ZM107.186 7.25674C107.605 7.67576 107.686 10.4111 107.686 24.1646C107.686 36.4593 107.581 40.6775 107.267 40.9922C106.952 41.3073 102.673 41.4123 90.1627 41.4123C75.2718 41.4123 73.4559 41.3528 73.2663 40.8585C73.1494 40.5539 73.0539 32.9454 73.0539 23.9507C73.0539 11.6976 73.1592 7.49127 73.4737 7.17657C73.7882 6.86187 78.0036 6.7565 90.29 6.7565C104.034 6.7565 106.768 6.83737 107.186 7.25674ZM177.038 6.98824C176.738 7.10936 176.601 8.06782 176.601 10.0411C176.601 11.8117 176.44 13.0789 176.181 13.3376C175.932 13.5868 174.734 13.7577 173.237 13.7577C169.495 13.7577 169.605 13.6464 169.605 17.4581V20.7336L166.194 20.8338L162.783 20.9339L162.682 24.1719L162.582 27.41H160.715C159.688 27.41 158.381 27.5034 157.812 27.6172C156.025 27.9749 155.485 27.0525 155.713 24.0333C155.854 22.1664 155.783 21.3963 155.443 21.1134C155.164 20.8824 153.817 20.77 152.06 20.8317L149.14 20.9339L149.045 27.6725L148.95 34.4111H145.459H141.969V31.3306C141.969 29.4014 141.812 28.0933 141.549 27.83C140.931 27.2118 136.107 27.2755 135.472 27.9102C135.117 28.2655 134.972 29.2768 134.972 31.4108V34.4111H131.974C128.097 34.4111 127.976 34.5322 127.976 38.4119V41.4123H124.828C123.096 41.4123 121.646 41.4518 121.605 41.4998C121.564 41.5478 121.447 46.1556 121.343 51.739L121.154 61.8907L117.919 61.9915L114.683 62.092V59.1462C114.683 57.0294 114.543 56.0843 114.186 55.7881C113.782 55.4528 110.011 55.1944 108.124 55.3733C107.52 55.4304 107.516 61.2126 108.119 61.8585C108.425 62.1869 109.182 62.2712 110.712 62.1483C111.901 62.0528 113.281 62.0769 113.778 62.2019C114.656 62.4224 114.683 62.5117 114.683 65.203C114.683 68.7074 114.313 69.069 110.997 68.8026C107.87 68.5516 107.686 68.7627 107.686 72.6102V75.718H114.333C117.989 75.718 121.01 75.6785 121.047 75.6305C121.085 75.5825 121.203 72.55 121.31 68.8919L121.504 62.2408L124.74 62.14L127.976 62.0395L127.981 64.9404C127.984 66.5363 128.129 68.0664 128.303 68.3412C128.555 68.7403 129.876 68.8516 134.857 68.8936C138.287 68.9227 141.291 68.8782 141.532 68.7942C141.861 68.6797 141.969 67.0047 141.969 62.0283V55.4146L142.756 55.387C143.189 55.3719 144.527 55.3828 145.73 55.4111C148.725 55.4822 148.965 55.185 148.965 51.4138V48.4135H152.289H155.612V51.1359C155.612 55.0968 155.912 55.4146 159.655 55.4146H162.608V62.0248C162.608 69.5934 162.405 69.1817 165.968 68.8138C167.234 68.6832 168.18 68.7722 168.746 69.0753C169.558 69.5104 169.605 69.7026 169.605 72.6267V75.718H166.499C164.378 75.718 163.274 75.8622 163.016 76.1731C162.809 76.4234 162.593 77.9591 162.536 79.5862L162.433 82.5442L159.477 82.6471C157.851 82.7034 156.298 82.9352 156.025 83.1617C155.652 83.4722 155.57 84.1915 155.691 86.0881C155.78 87.4712 155.712 88.8543 155.54 89.1617C155.272 89.6405 154.34 89.7203 149.018 89.7203C144.655 89.7203 142.684 89.5954 142.389 89.3003C142.094 89.0055 141.969 87.0445 141.969 82.7192C141.969 78.3939 141.844 76.4328 141.549 76.1381C140.893 75.4821 129.139 75.5538 128.476 76.2182C128.066 76.6278 127.976 78.4943 127.976 86.5383V96.3582L127.182 96.5577C126.745 96.6673 125.289 96.7096 123.946 96.6519L121.504 96.5465L121.31 89.7203C121.203 85.966 121.086 82.8547 121.048 82.8067C121.01 82.7587 117.989 82.7192 114.333 82.7192H107.686V86.2198V89.7203H104.188H100.69V93.2209V96.7215H97.6915C95.559 96.7215 94.5484 96.5769 94.1933 96.2213C93.7844 95.8124 93.6934 93.9771 93.6934 86.1396C93.6934 79.1542 93.5797 76.4444 93.2736 76.1381C92.6559 75.5199 87.8311 75.5836 87.1969 76.2182C86.7876 76.6278 86.697 78.4901 86.697 86.5075C86.697 95.1109 86.6298 96.3225 86.1436 96.509C85.8392 96.626 84.3437 96.7215 82.8203 96.7215H80.0504V93.7747C80.0504 89.6045 80.1445 89.7203 76.7596 89.7203C74.9969 89.7203 73.7319 89.5586 73.4737 89.3003C73.0368 88.8631 72.8794 84.2822 73.2663 83.273C73.4377 82.826 74.0723 82.7192 76.5522 82.7192C79.032 82.7192 79.6666 82.6124 79.838 82.1654C80.2249 81.1562 80.0675 76.5753 79.6306 76.1381C78.975 75.4821 67.221 75.5538 66.5574 76.2182C65.855 76.9208 65.8378 95.1778 66.5385 96.1009C66.9391 96.6284 67.8175 96.7173 73.4363 96.801L79.8755 96.8965V99.9312C79.8755 101.6 79.7506 103.09 79.5981 103.243C79.4452 103.395 78.1365 103.476 76.69 103.422C75.0297 103.36 73.8739 103.478 73.5566 103.741C73.1995 104.038 73.0539 104.937 73.0539 106.846C73.0539 108.47 72.8878 109.7 72.6342 109.954C72.3812 110.207 71.1572 110.374 69.5557 110.374C67.9542 110.374 66.7302 110.541 66.4773 110.794C66.2282 111.043 66.0575 112.243 66.0575 113.745C66.0575 117.432 65.9512 117.376 72.9913 117.37C76.2006 117.367 79.0621 117.215 79.3507 117.033C79.7275 116.796 79.9248 115.834 80.0504 113.625L80.2253 110.549L83.4611 110.448L86.697 110.348V117.005C86.697 124.728 86.3402 124.137 90.899 123.956L93.5185 123.851L93.621 120.903C93.6952 118.776 93.8701 117.848 94.2493 117.571C94.8209 117.152 99.6261 117.109 100.284 117.516C100.568 117.691 100.69 119.697 100.69 124.184C100.69 131.539 100.952 131.027 97.1916 131.027C93.6179 131.027 93.6934 130.951 93.6934 134.565C93.6934 136.809 93.5713 137.685 93.2561 137.703C90.9253 137.837 80.6916 137.684 80.4128 137.511C80.2134 137.388 80.0483 136.233 80.0455 134.945C80.0374 130.947 80.1088 131.027 76.5487 131.027C74.0719 131.027 73.4377 131.134 73.2663 131.581C72.9896 132.303 72.9896 143.404 73.2663 144.126C73.4569 144.623 75.9099 144.68 97.404 144.68H121.329V147.626C121.329 149.247 121.425 150.822 121.542 151.127C121.713 151.575 122.351 151.681 124.865 151.681H127.976V154.681C127.976 158.561 128.097 158.682 131.974 158.682H134.972V162.2V165.719L131.796 165.638C129.355 165.575 128.547 165.672 128.304 166.057C127.893 166.706 127.889 177.956 128.299 178.604C128.519 178.952 129.429 179.118 131.355 179.162C132.864 179.197 134.295 179.155 134.535 179.068C134.864 178.95 134.972 177.27 134.972 172.297V165.683H138.051C139.979 165.683 141.286 165.526 141.549 165.263C141.846 164.966 141.969 162.914 141.969 158.262V151.681H145.467H148.965V158.289C148.965 163.61 149.063 164.979 149.468 165.315C149.759 165.556 150.906 165.711 152.179 165.68C153.394 165.652 154.663 165.64 155 165.655C155.559 165.681 155.612 166.226 155.612 171.959C155.612 179.004 155.792 179.597 157.812 179.192C158.381 179.079 159.694 178.985 160.728 178.985H162.608V169.387C162.608 164.108 162.704 159.54 162.821 159.236C163.004 158.758 163.935 158.682 169.605 158.682C177.142 158.682 176.601 158.407 176.601 162.236C176.601 165.444 176.279 165.767 173.184 165.675C171.889 165.637 170.553 165.623 170.217 165.644C169.658 165.68 169.605 166.239 169.605 172.138C169.605 176.911 169.491 178.664 169.169 178.863C168.93 179.012 167.395 179.139 165.758 179.146L162.783 179.16L162.683 182.573L162.583 185.986H155.774H148.965V179.373C148.965 171.796 149.233 172.334 145.467 172.334C141.702 172.334 141.969 171.796 141.969 179.373V185.986H145.46H148.951L149.045 192.9L149.14 199.814L155.391 199.91C159.705 199.975 161.792 199.881 162.125 199.604C162.505 199.289 162.608 197.788 162.608 192.595V185.986H165.607C167.696 185.986 168.752 186.133 169.09 186.472C169.407 186.788 169.611 187.975 169.678 189.885L169.78 192.813L172.7 192.915C174.552 192.98 175.799 192.868 176.11 192.61C176.452 192.326 176.603 191.391 176.606 189.532C176.61 188.063 176.739 186.661 176.895 186.416C177.111 186.075 178.7 185.993 183.623 186.066L190.069 186.161L190.174 188.783C190.344 193.04 190.383 192.988 186.984 192.988C185.198 192.988 183.926 193.149 183.668 193.408C183.107 193.969 183.107 199.008 183.668 199.569C184.157 200.059 202.705 200.174 203.464 199.691C203.792 199.484 203.888 198.544 203.814 196.283L203.712 193.163L200.683 193.062C198.783 192.999 197.518 192.796 197.288 192.52C197.086 192.276 196.875 190.747 196.819 189.119L196.716 186.161L193.48 186.061L190.244 185.96V182.973C190.244 180.85 190.389 179.84 190.744 179.485C191.14 179.089 192.551 178.985 197.553 178.985H203.862L203.962 182.398L204.062 185.811L206.988 185.914C208.897 185.98 210.082 186.185 210.399 186.501C210.776 186.879 210.884 188.381 210.884 193.275C210.884 198.687 210.961 199.594 211.437 199.776C211.741 199.893 216.29 199.989 221.545 199.989C229.934 199.989 231.124 199.921 231.311 199.435C231.428 199.13 231.523 196.229 231.523 192.988C231.523 189.746 231.619 186.845 231.736 186.54C231.905 186.098 232.523 185.986 234.814 185.986C236.454 185.986 237.847 186.153 238.07 186.376C238.323 186.63 238.392 187.664 238.266 189.328C238.011 192.707 238.234 192.926 242.065 193.06L244.991 193.163L245.094 196.121C245.151 197.748 245.367 199.283 245.574 199.534C246.069 200.131 251.153 200.159 251.743 199.569C252.037 199.274 252.163 197.33 252.163 193.068C252.163 188.264 252.268 186.882 252.663 186.487C253.018 186.131 254.027 185.986 256.148 185.986H259.134L259.234 189.399L259.334 192.813L262.275 192.915C263.965 192.974 265.369 192.865 265.575 192.658C266.091 192.142 266.09 186.963 265.575 186.424C265.303 186.14 264.097 185.986 262.145 185.986H259.134L259.234 182.573L259.334 179.16L262.133 179.123C263.672 179.103 265.128 179.063 265.368 179.036C265.701 178.997 265.806 177.395 265.806 172.334C265.806 166.247 265.754 165.68 265.194 165.647C264.857 165.627 263.362 165.641 261.87 165.677L259.159 165.744V162.766C259.159 161.129 259.064 159.54 258.947 159.236C258.774 158.785 258.123 158.682 255.461 158.682H252.188L252.088 155.269L251.988 151.856L249.032 151.753C247.406 151.696 245.871 151.48 245.621 151.273C245.31 151.015 245.166 149.91 245.166 147.787V144.68H255.449C263.357 144.68 265.767 144.578 265.888 144.242C266.19 143.403 265.828 138.653 265.426 138.167C264.821 137.437 246.396 137.448 245.666 138.179C245.311 138.534 245.166 139.545 245.166 141.679V144.68H242.168C240.035 144.68 239.025 144.535 238.67 144.179C238.006 143.516 237.935 132.103 238.59 131.447C238.839 131.198 240.037 131.027 241.534 131.027C245.277 131.027 245.166 131.14 245.166 127.314V124.026H251.743C256.392 124.026 258.443 124.149 258.739 124.446C258.997 124.704 259.159 125.97 259.159 127.734C259.159 130.026 259.27 130.645 259.713 130.815C260.533 131.13 264.859 131.062 265.39 130.725C265.739 130.504 265.852 128.92 265.866 124.06C265.875 120.554 265.782 117.584 265.658 117.46C265.534 117.337 262.676 117.28 259.305 117.334C254.915 117.404 253.033 117.312 252.67 117.011C252.249 116.66 252.163 114.907 252.163 106.655V96.7215L258.547 96.7163C262.058 96.7131 265.132 96.5836 265.376 96.4282C265.717 96.2118 265.799 94.5862 265.726 89.5198L265.631 82.8942H262.482H259.334L259.231 85.8522C259.175 87.4793 258.959 89.015 258.751 89.2653C258.497 89.5723 257.422 89.7203 255.45 89.7203C252.063 89.7203 252.225 89.5191 252.076 93.921L251.988 96.5465L245.728 96.6424C237.991 96.7607 237.998 96.7639 238.258 93.0459C238.352 91.6982 238.358 90.3988 238.27 90.1579C238.16 89.853 237.177 89.7203 235.03 89.7203C232.542 89.7203 231.907 89.6136 231.736 89.1666C231.619 88.862 231.523 85.9607 231.523 82.7192C231.523 79.4776 231.428 76.5764 231.311 76.2718C231.128 75.794 230.193 75.718 224.489 75.718H217.88V69.2171C217.88 64.2319 217.99 62.6059 218.352 62.2443C218.688 61.9075 219.464 61.8203 221.063 61.9404C225.152 62.2467 224.877 61.9852 224.877 65.573C224.877 67.3023 224.994 68.7273 225.139 68.7403C226.404 68.8537 237.396 68.8901 237.733 68.7823C238.041 68.6832 238.17 67.6761 238.17 65.3538V62.0657H231.523H224.877V59.294C224.877 57.7695 224.781 56.273 224.664 55.9684C224.481 55.4899 223.531 55.4146 217.668 55.4146H210.884V34.7986C210.884 16.3225 210.826 14.1606 210.33 13.9702C209.322 13.583 204.744 13.7405 204.307 14.1777C204.049 14.4361 203.887 15.7019 203.887 17.4658C203.887 20.853 204.003 20.7588 199.836 20.7588H196.891V17.4707C196.891 14.7952 196.788 14.1431 196.337 13.9702C195.271 13.5606 191.043 13.7409 190.652 14.2127C190.445 14.463 190.228 15.9987 190.172 17.6258L190.069 20.5838L187.149 20.686C185.297 20.7508 184.05 20.6391 183.739 20.3808C183.351 20.0591 183.248 18.6683 183.248 13.785C183.248 9.43865 183.123 7.47167 182.828 7.17657C182.416 6.7642 177.953 6.61893 177.038 6.98824ZM258.483 7.11881C259.137 7.46922 259.159 8.02547 259.159 23.8929C259.159 32.9195 259.064 40.5539 258.947 40.8585C258.757 41.3528 256.92 41.4123 241.806 41.4123H224.877V24.2885C224.877 10.9173 224.972 7.12616 225.314 6.98824C226.208 6.62733 257.797 6.7516 258.483 7.11881ZM80.4373 14.238C80.1557 14.5779 80.0665 17.5695 80.1322 24.4772L80.2253 34.2361H90.3701H100.515L100.608 24.2836C100.68 16.5546 100.602 14.2681 100.258 14.0496C100.015 13.8949 95.545 13.7661 90.3253 13.7629C82.7062 13.7587 80.757 13.8522 80.4373 14.238ZM231.943 14.1777C231.457 14.6643 231.337 33.2251 231.815 33.9791C232.033 34.3233 234.318 34.4013 242.042 34.3292L251.988 34.2361L252.081 24.4772C252.147 17.5695 252.057 14.5779 251.776 14.238C251.233 13.5837 232.593 13.527 231.943 14.1777ZM176.229 21.4166C176.45 21.8311 176.578 28.0215 176.572 38.1427C176.568 46.9803 176.668 54.4817 176.795 54.8129C176.989 55.3194 177.518 55.4146 180.137 55.4146H183.248V58.5652C183.248 61.1321 183.345 61.7157 183.773 61.7157C184.061 61.7157 184.297 61.8396 184.297 61.9912C184.297 62.1427 185.596 62.2607 187.183 62.2537L190.069 62.2408L190.159 65.0412C190.208 66.5815 190.111 68.0535 189.943 68.3118C189.706 68.6769 188.274 68.7792 183.557 68.7683C180.212 68.7603 177.279 68.7455 177.038 68.7354C176.727 68.7221 176.601 67.9163 176.601 65.93C176.601 63.5013 176.501 63.0501 175.824 62.4186C175.306 61.9359 174.752 61.7514 174.162 61.8662C172.577 62.1743 171.194 62.1977 170.392 61.9306C169.659 61.6866 169.605 61.4661 169.605 58.7374C169.605 56.8527 169.456 55.7143 169.19 55.549C168.961 55.408 167.387 55.3278 165.691 55.3716L162.608 55.4507V51.9319V48.4135H159.322C156.649 48.4135 155.997 48.3102 155.824 47.8597C155.707 47.5551 155.612 45.9799 155.612 44.3591V41.4123H152.289H148.965V44.9129V48.4135H145.887C143.959 48.4135 142.652 48.2566 142.389 47.9934C142.126 47.7301 141.969 46.422 141.969 44.4928V41.4123H138.471H134.972V44.4928C134.972 46.422 134.816 47.7301 134.553 47.9934C133.937 48.6098 129.11 48.5482 128.478 47.916C128.108 47.5457 128.009 46.6726 128.091 44.503L128.202 41.5873L131.587 41.4872L134.972 41.3871V37.8991V34.4111H138.471H141.969V37.9117V41.4123H145.467H148.965V37.9117V34.4111H152.093C154.215 34.4111 155.309 34.5518 155.496 34.8487C155.648 35.0895 155.723 36.6648 155.664 38.3493L155.557 41.4123H158.87C161.569 41.4123 162.223 41.5149 162.396 41.9661C162.513 42.2706 162.608 43.8459 162.608 45.4667V48.4135H165.687C167.615 48.4135 168.922 48.2566 169.185 47.9934C169.775 47.4025 169.775 35.4221 169.185 34.8312C168.927 34.5728 167.662 34.4111 165.899 34.4111C162.531 34.4111 162.608 34.5014 162.608 30.5647V27.8258L164.343 27.5871C165.298 27.4555 166.548 27.4513 167.121 27.5773C167.695 27.7033 168.488 27.6329 168.884 27.4208C169.53 27.0756 169.605 26.7067 169.605 23.8971V20.7588H172.741C175.452 20.7588 175.925 20.8481 176.229 21.4166ZM196.891 24.0553C196.891 26.3773 196.762 27.397 196.454 27.5048C196.213 27.5892 194.718 27.5801 193.13 27.4849L190.244 27.3112V30.3074C190.244 31.9555 190.34 33.5528 190.457 33.8573C190.639 34.3327 191.525 34.4111 196.725 34.4111C200.055 34.4111 203.03 34.5067 203.334 34.6236C203.811 34.807 203.887 35.7385 203.887 41.4123C203.887 47.086 203.811 48.0175 203.334 48.201C203.03 48.3179 201.455 48.4135 199.836 48.4135H196.891V55.0579C196.891 62.7459 197.217 62.1841 192.861 61.9961L190.419 61.8907L190.33 59.4403C190.177 55.2375 190.373 55.4559 186.655 55.3401L183.423 55.2396L183.331 41.8789C183.25 30.0777 183.304 28.4538 183.794 27.9641C184.211 27.5461 185.072 27.41 187.296 27.41H190.244V24.0844V20.7588H193.568H196.891V24.0553ZM190.457 41.9661C190.34 42.2706 190.244 43.5967 190.244 44.9129C190.244 48.4891 190.168 48.4135 193.78 48.4135H196.891V44.9129V41.4123H193.78C191.266 41.4123 190.628 41.5184 190.457 41.9661ZM134.36 55.3957C134.895 55.4122 134.972 55.8011 134.972 58.4808C134.972 62.2184 134.838 62.344 131.124 62.0783L128.501 61.8907L128.259 59.0902C127.952 55.5413 128.236 55.2091 131.492 55.3082C132.733 55.346 134.023 55.3856 134.36 55.3957ZM210.884 62.0923C210.884 67.1279 210.779 68.7305 210.446 68.7743C210.206 68.8058 208.671 68.8453 207.036 68.8618L204.062 68.8919L203.962 72.3049L203.862 75.718H206.873C210.764 75.718 210.884 75.837 210.884 79.7188V82.7192H213.882C216.015 82.7192 217.025 82.8638 217.38 83.2194C217.776 83.6157 217.88 85.0247 217.88 90.0081C217.88 97.2357 217.602 96.7215 221.512 96.7215C223.01 96.7215 224.208 96.8923 224.457 97.1416C225.082 97.7668 225.012 102.475 224.369 103.008C224.01 103.306 221.97 103.417 217.373 103.388L210.884 103.347V106.648C210.884 109.335 210.987 109.988 211.437 110.161C211.741 110.278 217.881 110.374 225.08 110.374H238.17V113.897V117.421L228.462 117.373C223.123 117.347 218.558 117.336 218.317 117.35C218.002 117.368 217.88 118.244 217.88 120.488C217.88 124.103 217.956 124.026 214.382 124.026C210.812 124.026 210.884 123.954 210.884 127.527C210.884 131.099 210.955 131.027 207.385 131.027C203.52 131.027 203.887 132.503 203.887 116.987V103.373H197.458C192.611 103.373 190.937 103.485 190.652 103.828C190.445 104.078 190.228 105.614 190.172 107.241L190.069 110.199L187.113 110.302C185.487 110.358 183.953 110.574 183.703 110.782C183.4 111.033 183.248 112.08 183.248 113.905C183.248 117.156 183.031 117.375 179.801 117.375C176.59 117.375 176.601 117.387 176.601 114.082C176.601 112.318 176.44 111.052 176.181 110.794C175.932 110.545 174.734 110.374 173.237 110.374C169.515 110.374 169.605 110.461 169.605 106.859C169.605 103.254 169.594 103.264 173.308 103.431C176.296 103.565 176.601 103.196 176.601 99.4551C176.601 96.3694 176.324 96.5913 180.025 96.7138C181.34 96.7572 182.429 96.6158 182.736 96.361C183.15 96.0165 183.247 94.7612 183.243 89.7652C183.239 86.371 183.115 83.4011 182.964 83.1648C182.769 82.8571 180.864 82.7083 176.236 82.6397L169.78 82.5442L169.68 79.1311L169.58 75.718H183.235H196.891V72.6935C196.891 68.8999 197.053 68.7431 201.001 68.728L203.887 68.7168V62.0902C203.887 54.431 203.427 55.1538 208.173 55.3537L210.884 55.4678V62.0923ZM248.343 55.3331C242.241 55.3947 238.944 55.5578 238.636 55.8133C238.317 56.0783 238.17 57.1079 238.17 59.0748C238.17 60.6557 238.236 62.0153 238.317 62.0962C238.398 62.1774 239.696 62.156 241.203 62.0489C244.961 61.7822 245.165 61.9443 245.171 65.2131C245.175 66.6589 245.317 68.0633 245.488 68.3339C245.937 69.0428 258.397 69.0284 258.846 68.3185C259.213 67.7398 259.254 56.4438 258.891 55.9142C258.451 55.2711 257.833 55.2371 248.343 55.3331ZM66.2747 55.9558C65.9473 56.8093 66.0243 67.7724 66.3615 68.3045C66.5973 68.6766 69.8545 68.7697 83.0599 68.7806C92.0828 68.7879 99.7408 68.7767 100.078 68.7554C100.611 68.7217 100.69 68.3227 100.69 65.6507C100.69 63.0956 100.588 62.5264 100.078 62.2376C99.689 62.0171 94.9566 61.9544 87.1098 62.0657C78.0844 62.1935 74.5487 62.1308 73.9915 61.8333C73.3268 61.478 73.2065 61.0516 73.0539 58.5077L72.879 55.5897L69.6855 55.4895C67.0059 55.4055 66.457 55.4808 66.2747 55.9558ZM149.378 62.2947C149.092 62.601 148.965 64.7269 148.965 69.2272V75.718H152.289C154.695 75.718 155.622 75.5972 155.647 75.2804C155.667 75.04 155.682 72.1296 155.681 68.8131C155.68 64.2154 155.568 62.6773 155.209 62.3356C154.574 61.7321 149.933 61.6996 149.378 62.2947ZM196.891 85.7195C196.891 94.136 196.974 95.8044 197.415 96.2454C197.781 96.6127 198.594 96.7544 200.126 96.718C204.288 96.6196 203.887 96.265 203.887 100.047V103.373H207.385H210.884V93.0459V82.7192H207.939C206.319 82.7192 204.745 82.6236 204.441 82.5067C203.99 82.3338 203.887 81.6816 203.887 79.0061V75.718H200.389H196.891V85.7195ZM238.607 76.2417C237.978 76.9565 238.02 81.8094 238.661 82.3411C238.972 82.5995 240.219 82.7111 242.071 82.6464L244.991 82.5442L245.096 79.9229C245.266 75.6652 245.304 75.7156 241.924 75.7313C239.889 75.7408 238.916 75.8902 238.607 76.2417ZM114.197 90.2349C114.585 90.6231 114.687 91.4594 114.61 93.648L114.508 96.5465L111.097 96.6466L107.686 96.7467V99.864C107.686 101.831 107.834 103.073 108.088 103.229C108.791 103.665 113.572 103.509 114.146 103.032C114.55 102.697 114.683 101.862 114.683 99.6543V96.7215H118.028H121.374L121.299 99.5514C121.24 101.793 121.349 102.527 121.823 103.081C122.162 103.477 122.653 103.693 122.954 103.577C123.246 103.465 126.07 103.373 129.229 103.373H134.972L134.978 100.485C134.981 98.8961 135.117 97.3863 135.28 97.129C135.7 96.4649 148.247 96.4814 148.669 97.1465C149.183 97.9572 149.018 102.543 148.458 103.008C148.099 103.306 146.058 103.417 141.462 103.388L134.972 103.347V110.361V117.375H138.051C139.979 117.375 141.286 117.218 141.549 116.955C141.808 116.696 141.969 115.424 141.969 113.636C141.969 110.92 142.018 110.725 142.756 110.545C143.189 110.439 147.793 110.397 152.988 110.45L162.433 110.549L162.535 113.607C162.656 117.283 162.935 117.557 166.287 117.288C169.441 117.034 169.605 117.202 169.605 120.681C169.605 123.021 169.495 123.643 169.051 123.814C168.747 123.931 165.599 124.026 162.055 124.026H155.612V127.527V131.027H149.344C145.896 131.027 142.827 130.932 142.522 130.815C142.08 130.645 141.969 130.026 141.969 127.734C141.969 125.97 141.807 124.704 141.549 124.446C141.3 124.197 140.102 124.026 138.604 124.026C134.88 124.026 134.972 124.116 134.972 120.488V117.375H124.828H114.683V120.693V124.011L121.242 124.106L127.801 124.201L127.896 130.553C127.974 135.703 128.091 136.988 128.519 137.343C128.917 137.674 131.312 137.763 138.275 137.707C145.361 137.651 147.674 137.74 148.234 138.09C148.885 138.497 148.965 138.883 148.965 141.613V144.68H152.301H155.637L155.537 148.093L155.437 151.506L152.201 151.606L148.965 151.707V148.193V144.68H145.887C143.959 144.68 142.652 144.836 142.389 145.1C142.126 145.363 141.969 146.671 141.969 148.6V151.681H135.147H128.326L128.271 149.668C128.241 148.561 128.247 147.301 128.284 146.869C128.322 146.436 128.183 145.767 127.977 145.381C127.644 144.759 127.246 144.68 124.465 144.68H121.329L121.324 138.641C121.322 135.32 121.225 132.248 121.109 131.815C120.91 131.073 120.717 131.027 117.79 131.027H114.683V133.995C114.683 136.702 114.613 137.003 113.896 137.425C113.237 137.812 110.73 137.938 108.11 137.717C107.77 137.688 107.685 136.885 107.76 134.44L107.861 131.202L111.272 131.102L114.683 131.002V127.514V124.026H111.185H107.686V120.73C107.686 118.406 107.815 117.389 108.124 117.283C108.364 117.2 109.938 117.208 111.622 117.302L114.683 117.472V114.343C114.683 112.376 114.527 111.058 114.263 110.794C113.969 110.5 112.038 110.374 107.82 110.374C104.507 110.374 101.548 110.278 101.243 110.161C100.766 109.978 100.69 109.043 100.69 103.335V96.7215H104.188H107.686V93.2209V89.7203H110.685C112.856 89.7203 113.825 89.8621 114.197 90.2349ZM93.14 103.585C93.5867 103.757 93.6934 104.392 93.6934 106.873C93.6934 109.355 93.5867 109.99 93.14 110.161C92.8357 110.278 91.2615 110.374 89.6418 110.374H86.697V107.241C86.697 104.626 86.7984 104.049 87.3092 103.751C87.9752 103.362 92.2448 103.241 93.14 103.585ZM244.743 103.67C245.071 103.878 245.167 104.817 245.093 107.078L244.991 110.199H241.668H238.345L238.232 107.361C238.086 103.668 238.351 103.371 241.78 103.378C243.162 103.381 244.495 103.512 244.743 103.67ZM259.596 103.604C259.293 103.727 259.159 104.725 259.159 106.865C259.159 109.354 259.266 109.99 259.713 110.161C260.66 110.525 265.401 110.396 265.645 110C266.113 109.243 266.02 104.337 265.529 103.846C265.066 103.382 260.597 103.2 259.596 103.604ZM196.818 113.67C196.892 115.93 196.795 116.87 196.468 117.077C195.712 117.557 191.516 117.421 190.76 116.893C190.146 116.464 190.082 116.073 190.183 113.379L190.296 110.348L193.506 110.448L196.716 110.549L196.818 113.67ZM149.286 117.586C149.093 117.817 148.982 119.322 149.038 120.929L149.14 123.851L152.325 123.951L155.51 124.051L155.714 121.151C155.975 117.424 155.8 117.223 152.268 117.189C150.613 117.173 149.505 117.321 149.286 117.586ZM244.746 117.445C245.01 117.708 245.166 119.016 245.166 120.946V124.026H242.061C239.82 124.026 238.841 123.889 238.547 123.534C238.291 123.225 238.178 122.02 238.242 120.296L238.345 117.55L240.968 117.35C242.411 117.241 243.757 117.123 243.959 117.088C244.162 117.053 244.516 117.214 244.746 117.445ZM183.035 124.58C183.152 124.884 183.248 126.456 183.248 128.073V131.012L189.982 131.107L196.716 131.202L196.811 137.941L196.906 144.68H199.843C201.459 144.68 203.03 144.775 203.334 144.892C203.784 145.065 203.887 145.717 203.887 148.393V151.681H200.389H196.891V161.795C196.891 170.695 196.824 171.935 196.337 172.122C195.616 172.399 184.522 172.399 183.801 172.122C183.326 171.939 183.248 171.052 183.248 165.849C183.248 162.516 183.343 159.54 183.46 159.236C183.632 158.789 184.266 158.682 186.746 158.682C190.316 158.682 190.244 158.754 190.244 155.181C190.244 151.605 190.168 151.681 193.78 151.681H196.891V148.18V144.68H193.893C191.947 144.68 190.749 144.526 190.482 144.242C190.238 143.983 190.069 142.69 190.069 141.078C190.069 139.036 189.938 138.269 189.545 138.021C189.256 137.838 187.721 137.687 186.134 137.684L183.248 137.678V134.353V131.027H179.924H176.601V127.76C176.601 125.963 176.706 124.388 176.835 124.26C176.963 124.131 178.363 124.026 179.945 124.026C182.247 124.026 182.866 124.137 183.035 124.58ZM162.535 134.26C162.616 136.727 162.751 137.378 163.234 137.625C163.958 137.996 168.879 137.844 169.285 137.438C169.444 137.279 169.62 135.811 169.677 134.176L169.78 131.202H173.103H176.426L176.528 134.341C176.592 136.31 176.788 137.58 177.053 137.749C177.285 137.897 178.215 137.922 179.118 137.806C180.022 137.689 181.32 137.698 182.004 137.827L183.248 138.06V140.816C183.248 142.332 183.152 143.821 183.035 144.126C182.852 144.603 181.937 144.68 176.426 144.68C170.916 144.68 170 144.756 169.817 145.233C169.7 145.538 169.605 146.924 169.605 148.314C169.605 149.812 169.434 151.011 169.185 151.261C168.927 151.519 167.662 151.681 165.899 151.681C162.548 151.681 162.608 151.748 162.608 148.019C162.608 146.351 162.451 145.334 162.154 145.088C161.903 144.88 160.369 144.664 158.743 144.607L155.787 144.504L155.691 138.215C155.638 134.756 155.675 131.718 155.772 131.463C155.906 131.115 156.754 131.026 159.192 131.101L162.433 131.202L162.535 134.26ZM231.311 131.581C231.628 132.408 231.557 136.733 231.217 137.269C230.99 137.628 229.524 137.734 224.838 137.732C221.492 137.73 218.558 137.717 218.317 137.703C218 137.685 217.88 136.766 217.88 134.353V131.027H224.489C230.193 131.027 231.128 131.103 231.311 131.581ZM231.311 145.233C231.428 145.538 231.523 150.075 231.523 155.315C231.523 162.259 231.409 164.957 231.103 165.263C230.438 165.929 212.055 165.855 211.384 165.183C210.695 164.494 210.635 145.188 211.321 144.911C211.562 144.814 216.11 144.722 221.428 144.707C229.94 144.683 231.124 144.746 231.311 145.233ZM66.4773 152.101C65.8704 152.708 65.8704 198.961 66.4773 199.569C66.7953 199.887 72.5621 199.989 90.29 199.989C110.098 199.989 113.76 199.912 114.183 199.489C114.932 198.739 114.932 152.93 114.183 152.181C113.76 151.757 110.098 151.681 90.29 151.681C72.5621 151.681 66.7953 151.783 66.4773 152.101ZM217.955 155.094L218.055 158.507L220.952 158.609C224.647 158.739 224.877 158.538 224.877 155.181C224.877 151.862 224.669 151.681 220.866 151.681H217.855L217.955 155.094ZM107.474 159.236C107.591 159.54 107.686 167.07 107.686 175.968C107.686 188.085 107.581 192.253 107.267 192.568C106.952 192.883 102.673 192.988 90.1627 192.988C75.2718 192.988 73.4559 192.928 73.2663 192.434C72.9889 191.711 72.9889 159.959 73.2663 159.236C73.4559 158.741 75.29 158.682 90.3701 158.682C105.45 158.682 107.284 158.741 107.474 159.236ZM252.163 161.682C252.163 165.562 252.284 165.683 256.161 165.683H259.159V172.297V178.911L256.273 179.063C252.22 179.275 252.163 179.228 252.163 175.671C252.163 172.24 252.175 172.252 248.453 172.372C245.449 172.469 245.166 172.129 245.166 168.417C245.166 166.489 245.037 165.669 244.729 165.635C244.489 165.608 243.17 165.623 241.799 165.668C239.54 165.743 239.253 165.675 238.738 164.939C238.052 163.959 237.945 159.747 238.59 159.102C238.886 158.805 240.937 158.682 245.586 158.682H252.163V161.682ZM80.6272 165.622C80.091 165.726 80.0479 166.61 80.1326 175.774L80.2253 185.811H90.3701H100.515L100.608 175.747C100.695 166.328 100.661 165.683 100.083 165.682C99.7432 165.681 95.3589 165.641 90.34 165.594C85.3211 165.547 80.9501 165.559 80.6272 165.622ZM224.2 172.696C224.774 173.004 224.876 173.442 224.871 175.584C224.868 176.973 224.737 178.313 224.58 178.561C224.218 179.133 224.382 179.126 213.245 179.049L203.887 178.985V175.864C203.887 173.694 204.021 172.689 204.325 172.566C205.204 172.211 223.518 172.331 224.2 172.696ZM237.898 172.813C238.455 173.37 238.416 178.617 237.853 178.965C237.665 179.081 236.307 179.157 234.834 179.134C232.952 179.105 232.063 178.946 231.845 178.601C231.375 177.859 231.453 173.245 231.943 172.754C232.544 172.153 237.285 172.199 237.898 172.813ZM128.391 186.534C128.076 186.891 127.956 187.959 128.009 189.933L128.085 192.813L124.902 192.913C121.28 193.027 121.407 192.908 121.292 196.313C121.17 199.895 121.254 199.989 124.606 199.989C126.38 199.989 127.647 199.827 127.906 199.569C128.169 199.305 128.326 197.997 128.326 196.068V192.988H131.649H134.972V196.068C134.972 197.997 135.129 199.305 135.392 199.569C135.65 199.827 136.915 199.989 138.678 199.989C142.014 199.989 141.969 200.037 141.969 196.488C141.969 192.894 142.068 192.988 138.258 192.988H134.972V190.041C134.972 185.87 135.065 185.984 131.699 186C129.63 186.01 128.725 186.156 128.391 186.534ZM224.377 186.487C225.011 187.121 225.075 191.949 224.457 192.568C224.194 192.831 222.886 192.988 220.959 192.988H217.88V189.691C217.88 187.382 218.011 186.342 218.317 186.218C219.361 185.797 223.888 185.997 224.377 186.487Z" fill="#80FF00"/>
<path d="M75.94 240.06C81.18 240.06 83.8 238.32 83.8 234.84V234.5C83.8 231.1 81.18 229.4 75.94 229.4H74.48C73.26 229.4 72.16 229.5 71.22 229.72C70.28 229.92 69.52 230.18 68.94 230.52C68.36 230.86 67.9 231.24 67.54 231.72C67.18 232.18 66.94 232.62 66.8 233.08C66.66 233.54 66.6 234 66.6 234.5V234.84C66.6 235.34 66.66 235.82 66.8 236.28C66.94 236.74 67.18 237.2 67.56 237.68C67.92 238.14 68.38 238.56 68.96 238.9C69.54 239.24 70.3 239.5 71.24 239.72C72.18 239.94 73.28 240.06 74.5 240.06H75.94ZM75.22 237.34C73.8 237.34 72.78 237.08 72.18 236.56C71.56 236.06 71.26 235.44 71.26 234.74V234.64C71.26 233.9 71.56 233.28 72.16 232.8C72.76 232.32 73.78 232.08 75.22 232.08H75.24C76.64 232.08 77.66 232.32 78.26 232.82C78.88 233.3 79.18 233.92 79.18 234.64V234.74C79.18 235.44 78.88 236.06 78.26 236.56C77.66 237.08 76.64 237.34 75.22 237.34ZM85.477 229.66V243.28H90.017V238.34C90.357 238.66 90.997 239.04 91.957 239.42C92.917 239.8 94.097 240 95.497 240H95.837C97.057 240 98.117 239.86 99.017 239.58C99.917 239.3 100.617 238.9 101.137 238.4C101.657 237.9 102.017 237.36 102.257 236.78C102.497 236.18 102.617 235.54 102.617 234.84V234.48C102.617 233.76 102.497 233.1 102.277 232.52C102.037 231.94 101.677 231.4 101.177 230.92C100.677 230.44 99.997 230.08 99.117 229.82C98.237 229.56 97.197 229.42 95.977 229.42H95.617C93.297 229.42 91.437 229.98 90.017 231.12V229.66H85.477ZM90.017 234.64C90.017 233.92 90.377 233.32 91.057 232.8C91.737 232.28 92.757 232.04 94.097 232.04H94.197C95.537 232.04 96.517 232.28 97.097 232.78C97.677 233.26 97.957 233.88 97.957 234.64V234.72C97.957 235.44 97.657 236.06 97.077 236.56C96.497 237.08 95.537 237.34 94.197 237.34H94.097C92.797 237.34 91.797 237.08 91.097 236.56C90.377 236.02 90.017 235.42 90.017 234.72V234.64ZM121.116 236.28V236.26H116.616C116.616 236.34 116.576 236.42 116.516 236.5C116.476 236.58 116.356 236.68 116.216 236.82C116.056 236.94 115.856 237.06 115.596 237.16C115.356 237.28 115.016 237.36 114.576 237.44C114.136 237.52 113.616 237.56 113.056 237.56H113.036C110.736 237.56 109.436 236.9 109.136 235.58H121.176V234.9C121.176 231.26 118.636 229.46 113.536 229.46H112.296C110.856 229.46 109.636 229.6 108.596 229.88C107.576 230.16 106.776 230.54 106.236 231.04C105.676 231.54 105.276 232.06 105.036 232.64C104.796 233.22 104.676 233.84 104.676 234.54V234.94C104.676 235.64 104.796 236.3 105.056 236.88C105.336 237.46 105.756 238 106.316 238.5C106.896 239 107.696 239.4 108.736 239.68C109.776 239.96 110.996 240.1 112.416 240.1H113.576C114.836 240.1 115.936 240.02 116.876 239.84C117.836 239.66 118.556 239.42 119.076 239.16C119.596 238.88 120.016 238.58 120.356 238.2C120.676 237.84 120.876 237.52 120.976 237.2C121.076 236.9 121.116 236.6 121.116 236.28ZM112.896 231.8C115.036 231.8 116.256 232.36 116.576 233.5H109.216C109.596 232.36 110.816 231.8 112.876 231.8H112.896ZM123.231 229.82V239.9H127.771V235.14C127.771 234.32 128.091 233.66 128.691 233.16C129.311 232.66 130.131 232.4 131.151 232.4C132.131 232.4 132.871 232.62 133.371 233.06C133.851 233.5 134.091 234.12 134.091 234.92V239.9H138.691V233.54C138.691 232.44 138.251 231.52 137.351 230.74C136.471 229.98 135.131 229.6 133.351 229.6H133.191C130.971 229.6 129.151 230.24 127.731 231.54V229.82H123.231ZM147.35 240.24H148.19C149.65 240.24 150.87 240.16 151.87 239.98C152.87 239.8 153.61 239.54 154.11 239.2C154.61 238.86 154.95 238.5 155.15 238.12C155.35 237.74 155.45 237.28 155.45 236.78V236.66C155.45 235.94 155.29 235.36 154.99 234.94C154.69 234.52 154.07 234.18 153.15 233.92C152.25 233.66 150.97 233.52 149.31 233.5L147.35 233.46C146.47 233.44 145.87 233.36 145.53 233.22C145.21 233.1 145.05 232.9 145.05 232.64V232.62C145.05 232.34 145.23 232.14 145.57 232.04C145.93 231.92 146.63 231.86 147.67 231.86H147.69C148.25 231.86 148.73 231.9 149.13 231.96C149.51 232.04 149.79 232.12 149.95 232.24C150.11 232.36 150.23 232.48 150.27 232.56C150.33 232.66 150.37 232.76 150.39 232.9H155.05V232.76C155.05 230.64 152.75 229.6 148.15 229.6H147.33C146.17 229.6 145.15 229.66 144.29 229.78C143.43 229.9 142.75 230.06 142.27 230.24C141.77 230.44 141.39 230.68 141.09 230.96C140.79 231.24 140.61 231.54 140.51 231.8C140.43 232.08 140.39 232.4 140.39 232.74V232.86C140.39 233.26 140.47 233.62 140.65 233.96C140.83 234.3 141.13 234.62 141.53 234.94C141.95 235.24 142.57 235.5 143.37 235.68C144.19 235.88 145.17 235.98 146.31 236L148.27 236.04C149.27 236.06 149.91 236.14 150.23 236.28C150.53 236.42 150.69 236.64 150.69 236.92V236.96C150.69 237.16 150.63 237.3 150.53 237.44C150.41 237.56 150.13 237.66 149.69 237.76C149.25 237.86 148.63 237.92 147.85 237.92H147.81C145.93 237.92 144.99 237.46 144.99 236.54H140.29V236.66C140.29 239.06 142.63 240.24 147.35 240.24ZM173.48 236.28V236.26H168.98C168.98 236.34 168.94 236.42 168.88 236.5C168.84 236.58 168.72 236.68 168.58 236.82C168.42 236.94 168.22 237.06 167.96 237.16C167.72 237.28 167.38 237.36 166.94 237.44C166.5 237.52 165.98 237.56 165.42 237.56H165.4C163.1 237.56 161.8 236.9 161.5 235.58H173.54V234.9C173.54 231.26 171 229.46 165.9 229.46H164.66C163.22 229.46 162 229.6 160.96 229.88C159.94 230.16 159.14 230.54 158.6 231.04C158.04 231.54 157.64 232.06 157.4 232.64C157.16 233.22 157.04 233.84 157.04 234.54V234.94C157.04 235.64 157.16 236.3 157.42 236.88C157.7 237.46 158.12 238 158.68 238.5C159.26 239 160.06 239.4 161.1 239.68C162.14 239.96 163.36 240.1 164.78 240.1H165.94C167.2 240.1 168.3 240.02 169.24 239.84C170.2 239.66 170.92 239.42 171.44 239.16C171.96 238.88 172.38 238.58 172.72 238.2C173.04 237.84 173.24 237.52 173.34 237.2C173.44 236.9 173.48 236.6 173.48 236.28ZM165.26 231.8C167.4 231.8 168.62 232.36 168.94 233.5H161.58C161.96 232.36 163.18 231.8 165.24 231.8H165.26ZM189.674 237.3C189.314 237.3 189.134 237.12 189.134 236.78V232.8C189.134 232.44 189.094 232.12 189.054 231.86C188.994 231.6 188.854 231.32 188.594 230.98C188.354 230.66 188.014 230.4 187.574 230.18C187.134 229.98 186.514 229.8 185.674 229.66C184.854 229.52 183.854 229.46 182.694 229.46H175.174V231.86L182.254 231.84C183.034 231.84 183.654 231.9 184.074 232C184.494 232.08 184.754 232.18 184.834 232.28C184.914 232.4 184.954 232.52 184.954 232.7C184.954 233 184.734 233.18 184.314 233.24L179.534 233.68C177.974 233.82 176.854 234.14 176.174 234.62C175.494 235.12 175.174 235.84 175.174 236.78V236.92C175.174 237.9 175.554 238.7 176.354 239.34C177.154 239.98 178.374 240.3 180.014 240.3H180.254C181.594 240.3 182.654 240.14 183.434 239.8C184.214 239.46 184.754 239.08 185.074 238.7C185.234 239.64 185.774 240.12 186.734 240.12H190.234V237.3H189.674ZM184.954 235.5C184.954 236.16 184.614 236.72 183.894 237.22C183.194 237.72 182.274 237.98 181.174 237.98C180.494 237.98 180.014 237.86 179.714 237.64C179.414 237.4 179.274 237.12 179.274 236.8V236.78C179.274 236.5 179.394 236.3 179.614 236.16C179.854 236.02 180.254 235.9 180.834 235.82L184.954 235.18V235.5ZM195.268 237.68H191.128V240.44H195.268V237.68ZM201.326 226H196.786V228.88H201.326V226ZM201.326 229.86H196.786V239.96H201.326V229.86ZM212.307 240.06C217.547 240.06 220.167 238.32 220.167 234.84V234.5C220.167 231.1 217.547 229.4 212.307 229.4H210.847C209.627 229.4 208.527 229.5 207.587 229.72C206.647 229.92 205.887 230.18 205.307 230.52C204.727 230.86 204.267 231.24 203.907 231.72C203.547 232.18 203.307 232.62 203.167 233.08C203.027 233.54 202.967 234 202.967 234.5V234.84C202.967 235.34 203.027 235.82 203.167 236.28C203.307 236.74 203.547 237.2 203.927 237.68C204.287 238.14 204.747 238.56 205.327 238.9C205.907 239.24 206.667 239.5 207.607 239.72C208.547 239.94 209.647 240.06 210.867 240.06H212.307ZM211.587 237.34C210.167 237.34 209.147 237.08 208.547 236.56C207.927 236.06 207.627 235.44 207.627 234.74V234.64C207.627 233.9 207.927 233.28 208.527 232.8C209.127 232.32 210.147 232.08 211.587 232.08H211.607C213.007 232.08 214.027 232.32 214.627 232.82C215.247 233.3 215.547 233.92 215.547 234.64V234.74C215.547 235.44 215.247 236.06 214.627 236.56C214.027 237.08 213.007 237.34 211.587 237.34ZM229.351 226.14H226.431L220.471 240.96H223.371L229.351 226.14ZM74.68 260.08H75.8C77.14 260.08 78.3 259.96 79.3 259.72C80.3 259.5 81.06 259.22 81.58 258.9C82.1 258.58 82.52 258.2 82.84 257.76C83.14 257.32 83.34 256.92 83.42 256.6C83.5 256.26 83.54 255.92 83.54 255.58V255.54H78.86C78.54 256.78 77.32 257.4 75.22 257.4H75.16C73.96 257.4 73.06 257.14 72.5 256.62C71.96 256.1 71.68 255.46 71.68 254.7V254.56C71.68 253.84 71.94 253.24 72.5 252.78C73.06 252.3 73.94 252.06 75.16 252.06H75.22C77.34 252.06 78.56 252.68 78.86 253.88H83.54V253.84C83.54 253.5 83.5 253.18 83.42 252.84C83.32 252.52 83.12 252.14 82.8 251.7C82.46 251.28 82.04 250.9 81.52 250.58C81 250.26 80.24 249.98 79.26 249.76C78.28 249.54 77.12 249.42 75.82 249.42H74.66C73.46 249.42 72.4 249.54 71.46 249.74C70.54 249.96 69.8 250.22 69.24 250.56C68.7 250.9 68.24 251.28 67.9 251.74C67.56 252.22 67.32 252.66 67.2 253.1C67.08 253.56 67.02 254.02 67.02 254.5V254.88C67.02 255.36 67.08 255.84 67.2 256.28C67.32 256.74 67.56 257.2 67.9 257.68C68.26 258.16 68.72 258.56 69.26 258.9C69.8 259.24 70.54 259.52 71.48 259.74C72.42 259.96 73.48 260.08 74.68 260.08ZM94.5142 260.06C99.7542 260.06 102.374 258.32 102.374 254.84V254.5C102.374 251.1 99.7542 249.4 94.5142 249.4H93.0542C91.8342 249.4 90.7342 249.5 89.7942 249.72C88.8542 249.92 88.0942 250.18 87.5142 250.52C86.9342 250.86 86.4742 251.24 86.1142 251.72C85.7542 252.18 85.5142 252.62 85.3742 253.08C85.2342 253.54 85.1742 254 85.1742 254.5V254.84C85.1742 255.34 85.2342 255.82 85.3742 256.28C85.5142 256.74 85.7542 257.2 86.1342 257.68C86.4942 258.14 86.9542 258.56 87.5342 258.9C88.1142 259.24 88.8742 259.5 89.8142 259.72C90.7542 259.94 91.8542 260.06 93.0742 260.06H94.5142ZM93.7942 257.34C92.3742 257.34 91.3542 257.08 90.7542 256.56C90.1342 256.06 89.8342 255.44 89.8342 254.74V254.64C89.8342 253.9 90.1342 253.28 90.7342 252.8C91.3342 252.32 92.3542 252.08 93.7942 252.08H93.8142C95.2142 252.08 96.2342 252.32 96.8342 252.82C97.4542 253.3 97.7542 253.92 97.7542 254.64V254.74C97.7542 255.44 97.4542 256.06 96.8342 256.56C96.2342 257.08 95.2142 257.34 93.7942 257.34ZM108.591 246H104.051V259.96H108.591V246ZM115.193 246H110.653V259.96H115.193V246ZM133.694 256.28V256.26H129.194C129.194 256.34 129.154 256.42 129.094 256.5C129.054 256.58 128.934 256.68 128.794 256.82C128.634 256.94 128.434 257.06 128.174 257.16C127.934 257.28 127.594 257.36 127.154 257.44C126.714 257.52 126.194 257.56 125.634 257.56H125.614C123.314 257.56 122.014 256.9 121.714 255.58H133.754V254.9C133.754 251.26 131.214 249.46 126.114 249.46H124.874C123.434 249.46 122.214 249.6 121.174 249.88C120.154 250.16 119.354 250.54 118.814 251.04C118.254 251.54 117.854 252.06 117.614 252.64C117.374 253.22 117.254 253.84 117.254 254.54V254.94C117.254 255.64 117.374 256.3 117.634 256.88C117.914 257.46 118.334 258 118.894 258.5C119.474 259 120.274 259.4 121.314 259.68C122.354 259.96 123.574 260.1 124.994 260.1H126.154C127.414 260.1 128.514 260.02 129.454 259.84C130.414 259.66 131.134 259.42 131.654 259.16C132.174 258.88 132.594 258.58 132.934 258.2C133.254 257.84 133.454 257.52 133.554 257.2C133.654 256.9 133.694 256.6 133.694 256.28ZM125.474 251.8C127.614 251.8 128.834 252.36 129.154 253.5H121.794C122.174 252.36 123.394 251.8 125.454 251.8H125.474ZM143.469 260.08H144.589C145.929 260.08 147.089 259.96 148.089 259.72C149.089 259.5 149.849 259.22 150.369 258.9C150.889 258.58 151.309 258.2 151.629 257.76C151.929 257.32 152.129 256.92 152.209 256.6C152.289 256.26 152.329 255.92 152.329 255.58V255.54H147.649C147.329 256.78 146.109 257.4 144.009 257.4H143.949C142.749 257.4 141.849 257.14 141.289 256.62C140.749 256.1 140.469 255.46 140.469 254.7V254.56C140.469 253.84 140.729 253.24 141.289 252.78C141.849 252.3 142.729 252.06 143.949 252.06H144.009C146.129 252.06 147.349 252.68 147.649 253.88H152.329V253.84C152.329 253.5 152.289 253.18 152.209 252.84C152.109 252.52 151.909 252.14 151.589 251.7C151.249 251.28 150.829 250.9 150.309 250.58C149.789 250.26 149.029 249.98 148.049 249.76C147.069 249.54 145.909 249.42 144.609 249.42H143.449C142.249 249.42 141.189 249.54 140.249 249.74C139.329 249.96 138.589 250.22 138.029 250.56C137.489 250.9 137.029 251.28 136.689 251.74C136.349 252.22 136.109 252.66 135.989 253.1C135.869 253.56 135.809 254.02 135.809 254.5V254.88C135.809 255.36 135.869 255.84 135.989 256.28C136.109 256.74 136.349 257.2 136.689 257.68C137.049 258.16 137.509 258.56 138.049 258.9C138.589 259.24 139.329 259.52 140.269 259.74C141.209 259.96 142.269 260.08 143.469 260.08ZM159.243 259.9H163.183V257.14H161.943C161.563 257.14 161.323 257.06 161.203 256.92C161.083 256.78 161.023 256.56 161.023 256.26V252.6H163.183V249.82H161.023V246.88H156.523V249.82H154.383V252.6H156.523V257.04C156.523 258.96 157.423 259.9 159.243 259.9ZM169.783 246H165.243V248.88H169.783V246ZM169.783 249.86H165.243V259.96H169.783V249.86ZM180.764 260.06C186.004 260.06 188.624 258.32 188.624 254.84V254.5C188.624 251.1 186.004 249.4 180.764 249.4H179.304C178.084 249.4 176.984 249.5 176.044 249.72C175.104 249.92 174.344 250.18 173.764 250.52C173.184 250.86 172.724 251.24 172.364 251.72C172.004 252.18 171.764 252.62 171.624 253.08C171.484 253.54 171.424 254 171.424 254.5V254.84C171.424 255.34 171.484 255.82 171.624 256.28C171.764 256.74 172.004 257.2 172.384 257.68C172.744 258.14 173.204 258.56 173.784 258.9C174.364 259.24 175.124 259.5 176.064 259.72C177.004 259.94 178.104 260.06 179.324 260.06H180.764ZM180.044 257.34C178.624 257.34 177.604 257.08 177.004 256.56C176.384 256.06 176.084 255.44 176.084 254.74V254.64C176.084 253.9 176.384 253.28 176.984 252.8C177.584 252.32 178.604 252.08 180.044 252.08H180.064C181.464 252.08 182.484 252.32 183.084 252.82C183.704 253.3 184.004 253.92 184.004 254.64V254.74C184.004 255.44 183.704 256.06 183.084 256.56C182.484 257.08 181.464 257.34 180.044 257.34ZM190.301 249.82V259.9H194.841V255.14C194.841 254.32 195.161 253.66 195.761 253.16C196.381 252.66 197.201 252.4 198.221 252.4C199.201 252.4 199.941 252.62 200.441 253.06C200.921 253.5 201.161 254.12 201.161 254.92V259.9H205.761V253.54C205.761 252.44 205.321 251.52 204.421 250.74C203.541 249.98 202.201 249.6 200.421 249.6H200.261C198.041 249.6 196.221 250.24 194.801 251.54V249.82H190.301ZM215.601 246.14H212.681L206.721 260.96H209.621L215.601 246.14ZM233.362 256.28V256.26H228.862C228.862 256.34 228.822 256.42 228.762 256.5C228.722 256.58 228.602 256.68 228.462 256.82C228.302 256.94 228.102 257.06 227.842 257.16C227.602 257.28 227.262 257.36 226.822 257.44C226.382 257.52 225.862 257.56 225.302 257.56H225.282C222.982 257.56 221.682 256.9 221.382 255.58H233.422V254.9C233.422 251.26 230.882 249.46 225.782 249.46H224.542C223.102 249.46 221.882 249.6 220.842 249.88C219.822 250.16 219.022 250.54 218.482 251.04C217.922 251.54 217.522 252.06 217.282 252.64C217.042 253.22 216.922 253.84 216.922 254.54V254.94C216.922 255.64 217.042 256.3 217.302 256.88C217.582 257.46 218.002 258 218.562 258.5C219.142 259 219.942 259.4 220.982 259.68C222.022 259.96 223.242 260.1 224.662 260.1H225.822C227.082 260.1 228.182 260.02 229.122 259.84C230.082 259.66 230.802 259.42 231.322 259.16C231.842 258.88 232.262 258.58 232.602 258.2C232.922 257.84 233.122 257.52 233.222 257.2C233.322 256.9 233.362 256.6 233.362 256.28ZM225.142 251.8C227.282 251.8 228.502 252.36 228.822 253.5H221.462C221.842 252.36 223.062 251.8 225.122 251.8H225.142ZM234.977 253V255.72H240.497V253H234.977ZM79.6 265.88V271.1C78.28 270.04 76.44 269.5 74.08 269.5H73.76C71.44 269.5 69.74 269.96 68.64 270.9C67.56 271.84 67.02 273.04 67.02 274.52V274.88C67.02 276.4 67.58 277.66 68.74 278.62C69.88 279.6 71.62 280.08 73.94 280.08H74.2C75.02 280.08 75.78 280 76.48 279.86C77.18 279.72 77.72 279.54 78.16 279.32C78.58 279.12 78.9 278.92 79.14 278.76C79.36 278.58 79.54 278.44 79.64 278.3V279.84H84.18V265.88H79.6ZM79.6 274.74V274.8C79.6 275.5 79.24 276.12 78.5 276.64C77.76 277.16 76.76 277.42 75.48 277.42H75.38C74.14 277.42 73.2 277.16 72.6 276.64C71.98 276.12 71.68 275.5 71.68 274.8V274.74C71.68 273.98 71.96 273.36 72.5 272.88C73.06 272.38 74 272.14 75.34 272.14H75.44C76.72 272.14 77.72 272.4 78.48 272.92C79.22 273.42 79.6 274.04 79.6 274.74ZM100.319 277.3C99.9588 277.3 99.7788 277.12 99.7788 276.78V272.8C99.7788 272.44 99.7388 272.12 99.6988 271.86C99.6388 271.6 99.4988 271.32 99.2388 270.98C98.9988 270.66 98.6588 270.4 98.2188 270.18C97.7788 269.98 97.1588 269.8 96.3188 269.66C95.4987 269.52 94.4988 269.46 93.3388 269.46H85.8188V271.86L92.8988 271.84C93.6788 271.84 94.2988 271.9 94.7188 272C95.1388 272.08 95.3988 272.18 95.4788 272.28C95.5588 272.4 95.5988 272.52 95.5988 272.7C95.5988 273 95.3788 273.18 94.9588 273.24L90.1788 273.68C88.6188 273.82 87.4988 274.14 86.8188 274.62C86.1388 275.12 85.8188 275.84 85.8188 276.78V276.92C85.8188 277.9 86.1988 278.7 86.9988 279.34C87.7988 279.98 89.0188 280.3 90.6588 280.3H90.8988C92.2388 280.3 93.2988 280.14 94.0788 279.8C94.8588 279.46 95.3988 279.08 95.7188 278.7C95.8788 279.64 96.4188 280.12 97.3788 280.12H100.879V277.3H100.319ZM95.5988 275.5C95.5988 276.16 95.2588 276.72 94.5388 277.22C93.8388 277.72 92.9188 277.98 91.8188 277.98C91.1388 277.98 90.6588 277.86 90.3587 277.64C90.0588 277.4 89.9188 277.12 89.9188 276.8V276.78C89.9188 276.5 90.0388 276.3 90.2588 276.16C90.4987 276.02 90.8988 275.9 91.4788 275.82L95.5988 275.18V275.5ZM102.313 279.9H106.853V275.14C106.853 274.34 107.153 273.68 107.713 273.18C108.273 272.66 109.033 272.4 110.013 272.4C111.693 272.4 112.533 273.24 112.533 274.92V279.9H117.133V275.14C117.133 274.34 117.413 273.68 117.973 273.18C118.533 272.66 119.313 272.4 120.273 272.4C121.933 272.4 122.773 273.24 122.773 274.92V279.9H127.373V273.54C127.373 272.46 126.953 271.54 126.093 270.76C125.253 269.98 123.993 269.6 122.293 269.6H122.133C119.893 269.6 118.053 270.26 116.593 271.6C115.793 270.26 114.333 269.6 112.193 269.6H112.053C109.993 269.6 108.253 270.24 106.813 271.56V269.82H102.313V279.9ZM145.862 276.28V276.26H141.362C141.362 276.34 141.322 276.42 141.262 276.5C141.222 276.58 141.102 276.68 140.962 276.82C140.802 276.94 140.602 277.06 140.342 277.16C140.102 277.28 139.762 277.36 139.322 277.44C138.882 277.52 138.362 277.56 137.802 277.56H137.782C135.482 277.56 134.182 276.9 133.882 275.58H145.922V274.9C145.922 271.26 143.382 269.46 138.282 269.46H137.042C135.602 269.46 134.382 269.6 133.342 269.88C132.322 270.16 131.522 270.54 130.982 271.04C130.422 271.54 130.022 272.06 129.782 272.64C129.542 273.22 129.422 273.84 129.422 274.54V274.94C129.422 275.64 129.542 276.3 129.802 276.88C130.082 277.46 130.502 278 131.062 278.5C131.642 279 132.442 279.4 133.482 279.68C134.522 279.96 135.742 280.1 137.162 280.1H138.322C139.582 280.1 140.682 280.02 141.622 279.84C142.582 279.66 143.302 279.42 143.822 279.16C144.342 278.88 144.762 278.58 145.102 278.2C145.422 277.84 145.622 277.52 145.722 277.2C145.822 276.9 145.862 276.6 145.862 276.28ZM137.642 271.8C139.782 271.8 141.002 272.36 141.322 273.5H133.962C134.342 272.36 135.562 271.8 137.622 271.8H137.642ZM156.437 269.36C155.637 269.36 154.937 269.5 154.277 269.78C153.637 270.06 153.177 270.34 152.897 270.6C152.637 270.86 152.417 271.14 152.237 271.4V269.58H147.977V279.9H152.257V274.58C152.257 273.86 152.457 273.28 152.857 272.8C153.257 272.32 154.057 271.86 154.577 271.8C155.097 271.74 161.177 271.74 161.177 271.74V269.36H156.437Z" fill="#FFFF00"/>
</svg>
