<svg width="280" height="288" viewBox="0 0 280 288" fill="none" xmlns="http://www.w3.org/2000/svg">
<path d="M57.3464 225.051C55.8156 225.73 54.1711 226.188 52.4422 226.395C54.2261 225.328 55.5606 223.648 56.1969 221.669C54.521 222.664 52.6867 223.365 50.7739 223.74C49.4876 222.367 47.7839 221.457 45.9272 221.151C44.0705 220.845 42.1648 221.161 40.5059 222.049C38.8469 222.937 37.5277 224.348 36.7529 226.063C35.9781 227.777 35.7911 229.7 36.2209 231.532C32.825 231.362 29.5029 230.479 26.4702 228.941C23.4375 227.404 20.762 225.246 18.6172 222.607C17.8839 223.872 17.4622 225.339 17.4622 226.901C17.4614 228.307 17.8077 229.692 18.4704 230.932C19.133 232.172 20.0915 233.23 21.2609 234.011C19.9048 233.968 18.5785 233.601 17.3926 232.942V233.052C17.3924 235.024 18.0746 236.936 19.3234 238.462C20.5722 239.989 22.3106 241.036 24.2437 241.427C22.9857 241.767 21.6667 241.817 20.3864 241.573C20.9318 243.27 21.9942 244.754 23.4249 245.817C24.8556 246.88 26.5829 247.47 28.3651 247.502C25.3398 249.877 21.6035 251.165 17.7574 251.16C17.0761 251.16 16.3954 251.12 15.7188 251.041C19.6228 253.551 24.1674 254.883 28.8087 254.878C44.5204 254.878 53.1096 241.865 53.1096 230.579C53.1096 230.212 53.1004 229.842 53.0839 229.475C54.7546 228.267 56.1968 226.771 57.3427 225.057L57.3464 225.051V225.051Z" fill="#80FF00"/>
<path d="M43.024 147.888L43.024 142.104L30.208 142.104L30.208 134.208L26.224 134.208L26.224 155.76L30.208 155.76L30.208 147.888L43.024 147.888ZM42.808 120.265L32.968 116.617L32.968 115.657L42.808 111.793L42.808 106.105L26.224 98.7853L26.224 104.353L37.312 108.913L28.984 112.513L28.984 119.809L37.624 123.097L26.224 127.753L26.224 133.921L42.808 126.505L42.808 120.265ZM26.248 91.6142L26.248 97.3262L43 97.3262L43 91.6142L26.248 91.6142ZM43.024 82.0521L43.024 76.2681L30.208 76.2681L30.208 68.3721L26.224 68.3721L26.224 89.9241L30.208 89.9241L30.208 82.0521L43.024 82.0521ZM43.024 59.9974L43.024 54.2134L30.208 54.2134L30.208 46.3174L26.224 46.3174L26.224 67.8694L30.208 67.8694L30.208 59.9974L43.024 59.9974ZM26.176 44.6147L43 44.6147L43 25.0307L39.088 25.0307L39.088 38.9507L36.328 38.9507L36.328 25.6067L32.488 25.6067L32.488 38.9507L29.992 38.9507L29.992 25.2947L26.176 25.2947L26.176 44.6147ZM36.016 2.71369C35.368 3.28969 34.936 4.05769 34.672 4.99369C34 2.95369 32.8 1.92169 31.048 1.92169L30.784 1.92169C27.928 1.92169 26.488 4.32169 26.488 9.12169L26.488 22.4897L43 22.4897L43 17.3057L37.144 17.3057L37.144 10.5377C37.144 9.26569 37.384 8.37769 37.84 7.84969C38.296 7.32169 39.04 7.05769 40.048 7.05769L43 7.05769L43 1.84969L38.464 1.84969C37.456 1.84969 36.64 2.13769 36.016 2.71369ZM31.864 7.34569C32.344 7.34569 32.752 7.51369 33.04 7.84969C33.328 8.18569 33.496 8.71369 33.496 9.43369L33.496 17.3057L30.232 17.3057L30.232 9.43369C30.232 8.71369 30.4 8.18569 30.688 7.84969C30.976 7.51369 31.36 7.34569 31.84 7.34569L31.864 7.34569Z" fill="white"/>
<path fill-rule="evenodd" clip-rule="evenodd" d="M66.555 0.457166C66.2932 0.717905 66.0791 11.5746 66.0791 24.5829V48.2332H90.2334H114.388L114.204 24.2914L114.02 0.349516L90.5253 0.16567C77.603 0.0643106 66.8167 0.195728 66.555 0.457166ZM121.835 0.466254C121.578 0.7221 121.368 3.86774 121.368 7.45657V13.9806H131.478H141.587L141.801 17.301L142.014 20.6214H148.663H155.312L155.525 17.301L155.738 13.9806H159.161H162.583L162.797 10.6602L163.01 7.33984L169.834 7.13991L176.657 6.93999V13.9555V20.971H169.659H162.66V27.9613V34.9516H159.161H155.661V38.0972V41.2429H152.162H148.663V38.0972V34.9516H145.164H141.664V38.0972V41.2429H138.95C135.675 41.2429 134.496 42.4697 134.793 45.5664C135.007 47.7984 135.138 47.8914 138.34 48.0969L141.664 48.3101V55.2235V62.1369L138.34 62.3502L135.016 62.5634V75.845V89.1266L141.839 89.3265L148.663 89.5264V96.4916V103.457H145.164H141.664V99.9616V96.4664H135.034H128.404L128.211 106.777L128.017 117.088L124.73 117.3L121.442 117.511L121.23 120.795L121.018 124.078L114.195 124.278L107.371 124.478V120.996V117.514L110.695 117.301L114.02 117.088L114.232 113.804L114.443 110.52L117.731 110.309L121.018 110.098V106.952V103.806L117.694 103.593L114.37 103.38V99.9231V96.4664H117.907H121.445L121.232 93.146L121.018 89.8256L117.694 89.6124L114.37 89.3992V85.8824V82.3655L116.994 82.5235C121.284 82.7815 121.368 82.7199 121.368 79.3401V76.1945H117.869H114.37V72.7378V69.2811L111.045 69.0678L107.721 68.8546V65.709V62.5634L114.37 62.2138L121.018 61.8643L121.23 58.581L121.442 55.2969L124.73 55.0858L128.017 54.874L128.218 48.4275C128.415 42.1076 128.386 41.9734 126.714 41.554C125.777 41.3191 124.269 41.2317 123.364 41.3596C121.781 41.5833 121.71 41.8524 121.518 48.3891L121.318 55.1865L111.02 55.3794L100.722 55.573L100.509 58.8934L100.295 62.2138H97.1978C94.5243 62.2138 94.0435 61.9874 93.6845 60.5599C93.4563 59.6505 93.3303 58.4712 93.4045 57.9386C93.7656 55.3535 93.4451 55.2235 86.725 55.2235H80.0763V58.6802V62.1369L83.4007 62.3502L86.725 62.5634L86.9385 65.8838L87.1519 69.2042H93.8006H100.449L100.236 72.5246L100.022 75.845L96.873 76.1945C93.7314 76.5433 93.723 76.5517 93.5088 79.5149C93.3093 82.26 93.1365 82.4934 91.2342 82.5906C90.1012 82.6486 88.7812 82.7269 88.2997 82.7654C87.765 82.808 87.2884 81.6113 87.075 79.6896L86.725 76.544L83.4007 76.3308L80.0763 76.1176V72.6609V69.2042H76.6022H73.1281L72.9279 62.3886L72.7278 55.573H69.5784H66.429L66.2415 72.5246L66.0539 89.4761H69.5658H73.0777V82.8353V76.1945H76.577H80.0763V86.3053V96.4161L73.2527 96.616L66.429 96.8159L66.2149 100.162L66 103.508L72.8636 103.308L79.7264 103.107L79.9406 99.7679L80.1547 96.4287L90.0886 96.6223L100.022 96.8159L100.236 100.136L100.449 103.457H97.3363C93.8965 103.457 93.3737 104.063 93.3737 108.058C93.3737 110.419 93.3373 110.447 90.2628 110.447H87.1519L86.9385 113.767L86.725 117.088L83.4406 117.299L80.1561 117.511L79.9413 114.153L79.7264 110.797L72.8636 110.596L66 110.395L66.2149 113.742L66.429 117.088L73.2527 117.288L80.0763 117.488V120.958V124.428H76.577H73.0777V127.535V130.642L69.7534 130.855L66.429 131.068L66.2289 137.884L66.0287 144.7H69.5147H73.0007L73.2142 141.379L73.4276 138.059L76.752 137.846L80.0763 137.632V131.057V124.48L86.5501 124.279L93.0238 124.078L93.224 117.263L93.4241 110.447H96.873H100.322L100.522 117.263L100.722 124.078L104.047 124.291L107.371 124.505V127.573V130.642L104.047 130.855L100.722 131.068V134.214V137.36L104.01 137.572L107.297 137.783L107.509 141.067L107.721 144.35L111.085 144.565L114.449 144.779L114.235 141.419L114.02 138.059L110.659 137.844L107.297 137.63L107.51 134.349L107.721 131.068L121.018 130.939L134.316 130.811L134.704 117.308C134.918 109.882 135.153 103.727 135.229 103.631C135.304 103.536 136.765 103.457 138.476 103.457H141.587L141.801 106.777L142.014 110.098H148.663H155.312L155.661 106.952L156.011 103.806L159.355 103.592L162.698 103.378L162.504 113.728L162.31 124.078H159.161H156.011L155.798 120.758L155.584 117.437H152.124H148.663V124.078C148.663 128.892 148.904 130.736 149.538 130.779C150.019 130.813 151.515 130.891 152.862 130.954L155.312 131.068L155.512 137.884L155.712 144.7H162.724H169.736L169.522 148.02L169.309 151.34L166.022 151.552L162.734 151.763L162.522 155.047L162.31 158.331L158.949 158.545L155.588 158.76L155.8 162.04L156.011 165.321H166.159H176.307L176.508 158.505L176.708 151.69H179.793H182.879L183.093 155.01L183.306 158.331L193.629 158.524L203.952 158.717V165.301V171.885L200.628 172.098L197.303 172.311L197.09 175.632L196.876 178.952H193.441H190.005L189.805 172.143L189.605 165.334L186.921 165.327C185.445 165.324 183.936 165.684 183.567 166.127C183.199 166.57 182.989 169.559 183.102 172.768L183.306 178.603L186.593 178.814L189.881 179.026L190.093 182.31L190.305 185.593L197.165 185.794L204.027 185.994L203.814 189.289L203.602 192.583H193.454H183.306L183.093 189.263L182.879 185.942H179.807H176.734L176.521 189.263L176.307 192.583L172.983 192.796L169.659 193.01V196.477V199.944L190.13 199.759L210.601 199.574V192.933V186.292L207.276 186.079L203.952 185.866V178.899V171.932L217.424 172.121L230.897 172.311L231.108 175.592L231.32 178.872L227.959 179.087L224.598 179.302L224.384 182.622L224.171 185.942H221.06H217.949V192.933V199.923H221.099H224.248V192.933V185.942H227.709H231.17L231.383 189.263L231.597 192.583L234.746 192.933L237.895 193.282L238.245 196.428L238.595 199.574H241.745H244.894L245.094 192.758L245.294 185.942H248.768H252.243V192.971V200L255.567 199.787L258.891 199.574L259.091 192.795L259.291 186.017L262.591 185.805C265.843 185.596 265.891 185.558 265.942 183.146C266.021 179.358 265.67 178.952 262.316 178.952H259.241V175.404V171.855L261.885 172.046C265.351 172.295 266.033 171.786 265.933 169.019C265.813 165.715 265.289 165.241 262.093 165.545L259.241 165.817V168.89V171.962H255.742H252.243V168.816C252.243 165.457 252.24 165.455 247.868 165.657L245.244 165.778V158.696V151.613L248.568 151.826L251.893 152.039L252.243 155.185L252.592 158.331H255.742H258.891L259.103 155.047L259.315 151.763L262.603 151.552L265.89 151.34V148.195V145.049L259.066 144.849L252.243 144.649V134.577V124.505L255.567 124.291L258.891 124.078L259.084 113.805L259.278 103.532L262.507 103.32L265.737 103.107L265.686 96.9907C265.658 93.6269 265.614 90.5596 265.587 90.1751C265.559 89.7613 262.825 89.4761 258.891 89.4761H252.243V86.4052C252.243 82.7283 251.81 82.4858 245.244 82.4858C238.69 82.4858 238.245 82.7325 238.245 86.3668V89.3992L241.57 89.6124L244.894 89.8256L245.094 96.6041L245.294 103.382L248.593 103.594L251.893 103.806V110.447V117.088H248.743H245.594L245.38 113.749L245.166 110.41L234.882 110.604L224.598 110.797L224.404 120.758L224.21 130.719H221.099H217.988L217.793 120.758L217.599 110.797L214.275 110.583L210.951 110.37V106.913V103.457H221.137H231.324L231.11 100.136L230.897 96.8159L227.747 96.4664L224.598 96.1169L224.384 92.7965L224.171 89.4761H227.69H231.208L231.403 79.5149L231.597 69.5537L234.746 69.2042L237.895 68.8546L238.109 65.5342L238.322 62.2138H241.822H245.321L245.107 58.8934L244.894 55.573H241.745H238.595L238.381 58.9186L238.167 62.2635L231.382 62.0642L224.598 61.8643L224.384 58.5439L224.171 55.2235H221.085H218L217.799 62.0391L217.599 68.8546L214.301 69.0664L211.002 69.279L210.802 62.4256L210.601 55.573L200.453 55.2235L190.305 54.874L190.091 51.5536L189.878 48.2332H193.377H196.876L197.09 44.9128L197.303 41.5924H200.453H203.602L203.816 44.9128L204.029 48.2332H207.49H210.951V45.1624C210.951 41.7686 210.333 41.2429 206.344 41.2429H203.952V27.6502V14.0575L207.276 13.8443L210.601 13.6311V6.99032V0.349516H200.453H190.305L190.091 3.66992L189.878 6.99032H183.268H176.657L176.647 4.36895C176.629 -0.0300584 176.545 -0.0622134 165.756 0.154487L156.011 0.349516L155.811 7.20213L155.61 14.0554L152.311 13.8429L149.013 13.6311L148.663 6.99032L148.313 0.349516H145.164H142.014L141.799 3.70627L141.584 7.06372L138.3 6.85191L135.016 6.6408L134.802 3.3204L134.589 0H128.445C125.066 0 122.091 0.209709 121.835 0.466254ZM218.416 0.466254C218.159 0.7221 217.949 11.5746 217.949 24.5829V48.2332H241.703C254.768 48.2332 265.555 47.9969 265.674 47.7089C265.793 47.4209 265.799 36.5685 265.688 23.5923L265.486 0H242.184C229.368 0 218.672 0.209709 218.416 0.466254ZM107.021 24.3319V41.3233L90.2243 41.324H73.4276L73.2394 25.0456C73.1358 16.0924 73.2072 8.36112 73.3975 7.8662C73.6691 7.15809 77.3126 7.005 90.3825 7.1525L107.021 7.33984V24.3319ZM203.817 10.7001L204.032 14.0603L200.668 13.8457C197.414 13.6381 197.296 13.5542 197.079 11.2929C196.718 7.52508 197.264 6.88197 200.621 7.12453L203.602 7.33984L203.817 10.7001ZM259.079 23.7189C259.183 32.7273 258.998 40.3677 258.667 40.6976C257.997 41.3666 225.993 41.5393 224.925 40.8794C224.156 40.404 223.964 8.20594 224.727 7.44399C224.99 7.18116 232.785 7.05044 242.048 7.15319L258.891 7.33984L259.079 23.7189ZM80.2324 24.2914L80.4263 34.6021H90.2243H100.022L100.216 24.2914L100.409 13.9806H90.2243H80.0392L80.2324 24.2914ZM190.091 17.301L190.305 20.6214L193.665 20.836L197.027 21.0506L196.815 24.3312L196.603 27.6118L186.63 27.8054L176.657 27.9997V30.3701C176.657 34.3336 176.128 34.9516 172.733 34.9516H169.659V38.0972V41.2429H172.373C175.648 41.2429 176.827 42.4697 176.53 45.5664C176.316 47.7956 176.182 47.8921 173.008 48.0955L169.708 48.308L169.509 55.0858L169.309 61.8643L166.024 62.0754L162.74 62.2872L162.525 58.9298L162.31 55.573L158.986 55.3598L155.661 55.1466V48.1948V41.2429H159.161H162.66V38.0972V34.9516H166.159H169.659V31.4564V27.9613H173.158H176.657V24.4661V20.971H179.807H182.956V17.9421C182.956 16.2756 183.166 14.7027 183.423 14.4469C183.679 14.1903 185.237 13.9806 186.884 13.9806H189.878L190.091 17.301ZM231.561 14.8705C231.364 15.3808 231.292 20.0294 231.401 25.2001L231.597 34.6021H241.745H251.893V24.4661V14.3302L241.905 14.1358C234.109 13.9848 231.839 14.1456 231.561 14.8705ZM121.503 24.2515L121.718 27.6118H124.868H128.017V24.4661V21.3205L124.653 21.1059L121.288 20.8913L121.503 24.2515ZM196.953 38.0972V41.2429H193.454H189.955V38.0972V34.9516H193.454H196.953V38.0972ZM148.663 44.738V48.2332H145.164H141.664V44.738V41.2429H145.164H148.663V44.738ZM163.127 41.7091C162.87 41.965 162.66 43.5378 162.66 45.2043V48.2332H166.159H169.659V44.738V41.2429H166.626C164.958 41.2429 163.383 41.4526 163.127 41.7091ZM188.848 41.6672C189.628 41.9664 189.955 43.01 189.955 45.2008V48.3101L186.63 48.0969C183.429 47.8914 183.298 47.7984 183.084 45.5664C182.732 41.9112 185.174 40.2593 188.848 41.6672ZM183.093 58.5439L183.306 61.8643L186.63 62.0775L189.955 62.2907V65.7474V69.2042H183.306H176.657V75.845V82.4858H179.767H182.876L183.091 79.5149L183.306 76.544L186.63 76.3308L189.955 76.1176V79.3017V82.4858H186.455H182.956V85.9809V89.4761H186.417H189.878L190.091 86.1557L190.305 82.8353L193.629 82.6221L196.953 82.4089V72.2729V62.1369L200.278 62.3502L203.602 62.5634L203.952 65.709L204.302 68.8546L207.626 69.0678L210.951 69.2811V72.7378V76.1945H214.45H217.949V72.6993V69.2042H221.137H224.325L224.112 72.5246L223.898 75.845L220.887 76.0617L217.876 76.2784L218.088 79.5568L218.299 82.8353H221.099H223.898L224.112 86.1557L224.325 89.4761H221.176H218.026L217.813 92.7965L217.599 96.1169L214.315 96.328L211.03 96.5398L210.816 93.1824L210.601 89.8256L207.24 89.611L203.879 89.3964L204.091 86.1158C204.298 82.8919 204.344 82.8339 206.751 82.75C208.099 82.7032 209.595 82.6249 210.076 82.5752C210.633 82.5186 210.951 81.3428 210.951 79.3401V76.1945H207.451H203.952V79.3401V82.4858H200.453H196.953V89.4376V96.3895L193.629 96.6027L190.305 96.8159V99.9616V103.107L196.953 103.457L203.602 103.806V106.952V110.098L196.953 110.447L190.305 110.797V113.942V117.088L197.128 117.288L203.952 117.488V124.103V130.719H210.989H218.026L217.813 134.039L217.599 137.36L210.801 137.56L204.002 137.76L203.802 144.55L203.602 151.34H200.453H197.303V144.7V138.059L200.628 137.846L203.952 137.632V134.176V130.719H200.453H196.953V127.573V124.428H193.454H189.955V127.573V130.719H186.455H182.956V134.214V137.709H179.845H176.734L176.521 141.03L176.307 144.35L172.957 144.564L169.607 144.779L169.808 137.923L170.009 131.068L176.482 130.867L182.956 130.667V110.071V89.4761H179.845H176.734L176.521 86.1557L176.307 82.8353H169.659H163.01L162.81 89.6508L162.61 96.4664H166.096H169.582L169.795 93.146L170.009 89.8256H173.158H176.307V92.9712V96.1169L172.983 96.3301L169.659 96.5433V99.9616V103.38L172.983 103.593C175.866 103.778 176.338 104.024 176.54 105.45C176.669 106.354 176.584 107.849 176.352 108.771C175.986 110.228 175.521 110.447 172.795 110.447H169.659V106.952V103.457H166.159H162.66V99.9616V96.4664H159.199H155.738L155.525 93.146L155.312 89.8256L152.024 89.6138L148.736 89.4027L148.525 86.1186C148.317 82.8975 148.266 82.8332 145.863 82.7206C144.516 82.6577 143.021 82.5794 142.539 82.5459C141.978 82.5074 141.664 81.3624 141.664 79.359V76.2315L151.987 76.0386L162.31 75.845L162.524 72.5246L162.737 69.2042H169.697H176.657V62.2138V55.2235H179.768H182.879L183.093 58.5439ZM252.243 58.6802V62.1369L255.567 62.3502L258.891 62.5634L259.105 65.8838L259.318 69.2042H252.243H245.167L245.38 72.5246L245.594 75.845L252.38 76.0449L259.166 76.2441L259.379 79.5142C259.59 82.7731 259.6 82.7842 262.223 82.8723C265.398 82.9786 266.143 82.2083 265.979 78.9906C265.856 76.5901 265.791 76.5398 262.547 76.3308L259.241 76.1176V72.6609V69.2042H262.391H265.54V62.2138V55.2235H258.891H252.243V58.6802ZM155.525 65.5342L155.312 68.8546H152.162C149.102 68.8546 149.006 68.7882 148.789 66.5164C148.434 62.8192 148.96 62.2138 152.528 62.2138H155.738L155.525 65.5342ZM114.37 79.3401V82.4858H110.87H107.371V85.9809V89.4761H110.87H114.37V92.9712V96.4664H110.87H107.371V92.9964V89.5264L100.547 89.3265L93.7237 89.1266V85.9809V82.8353L100.547 82.6354L107.371 82.4354V79.315V76.1945H110.87H114.37V79.3401ZM114.37 106.99V110.524L111.045 110.311C107.836 110.105 107.713 110.016 107.497 107.759C107.143 104.07 107.671 103.457 111.199 103.457H114.37V106.99ZM176.53 120.104C176.834 123.263 175.603 124.547 172.518 124.289C170.051 124.082 170.005 124.022 169.794 120.718L169.579 117.358L172.943 117.572C176.19 117.779 176.315 117.868 176.53 120.104ZM238.382 120.758L238.595 124.078L241.92 124.291L245.244 124.505V131.126V137.746L234.921 137.553L224.598 137.36V134.214V131.068L227.747 131.017L230.897 130.966L231.085 125.075C231.188 121.836 231.415 118.792 231.587 118.311C231.776 117.789 233.164 117.437 235.036 117.437H238.168L238.382 120.758ZM121.528 151.515L121.718 165.321H124.868H128.017L128.23 162.001L128.444 158.68H131.555C133.554 158.68 134.681 158.368 134.709 157.806C134.775 156.469 134.785 142.551 134.722 139.981L134.666 137.709H128.002H121.339L121.528 151.515ZM141.943 145.682C141.736 146.221 141.666 147.716 141.79 149.002C142.006 151.259 142.13 151.348 145.339 151.554L148.663 151.767V148.233V144.7H145.492C143.414 144.7 142.19 145.038 141.943 145.682ZM189.955 148.195V151.69H186.455H182.956V148.661C182.956 146.995 183.166 145.422 183.423 145.166C183.679 144.909 185.254 144.7 186.922 144.7H189.955V148.195ZM231.091 155.01L230.897 165.321H221.099H211.301L211.107 155.01L210.914 144.7H221.099H231.284L231.091 155.01ZM66.245 175.632L66.429 199.574H90.2243H114.02L114.204 175.632L114.388 151.69H90.2243H66.0609L66.245 175.632ZM217.949 155.185V158.68H221.099H224.248V155.185V151.69H221.099H217.949V155.185ZM107.371 175.807V192.933H90.2243H73.0777V175.807V158.68H90.2243H107.371V175.807ZM141.664 161.813C141.664 164.535 141.884 165 143.342 165.366C144.266 165.597 145.762 165.682 146.667 165.554C148.095 165.352 148.341 164.88 148.526 162.001L148.74 158.68H145.202H141.664V161.813ZM80.3675 165.613C80.2072 165.773 80.0763 170.412 80.0763 175.923V185.942H90.2432H100.409L100.216 175.764L100.022 165.586L90.3405 165.453C85.016 165.38 80.5277 165.452 80.3675 165.613ZM245.244 168.816V171.962H248.743H252.243V175.457V178.952H255.742H259.241V182.447V185.942H255.742H252.243V182.447V178.952H248.743H245.244V182.447V185.942H238.245H231.247V182.447V178.952H238.245H245.244V175.457V171.962H241.745H238.245V168.816V165.671H241.745H245.244V168.816ZM121.868 172.395C121.593 172.669 121.368 175.813 121.368 179.38V185.866L124.693 186.079L128.017 186.292V189.438V192.583L124.693 192.796L121.368 193.01V196.466V199.923H128.017H134.666V189.438V178.952H131.555H128.444L128.23 175.632L128.017 172.311L125.192 172.104C123.639 171.99 122.142 172.121 121.868 172.395ZM149.163 172.395C148.888 172.669 148.663 174.257 148.663 175.923V178.952H152.201H155.738L155.525 175.632L155.312 172.311L152.487 172.104C150.933 171.99 149.437 172.121 149.163 172.395ZM149.163 186.376C148.888 186.65 148.663 188.221 148.663 189.865V192.856L145.339 193.069L142.014 193.282V196.428V199.574L145.339 199.787L148.663 200V196.466V192.933H152.201H155.738L155.525 189.612L155.312 186.292L152.487 186.084C150.933 185.97 149.437 186.101 149.163 186.376Z" fill="#80FF00"/>
<path d="M73.76 240.02H78.58V229.34H85.16V226.02H67.2V229.34H73.76V240.02ZM86.3989 239.96H90.9389V235.2C90.9389 234.36 91.2589 233.7 91.8589 233.2C92.4789 232.7 93.2989 232.46 94.3189 232.46C95.2989 232.46 96.0389 232.68 96.5389 233.1C97.0189 233.54 97.2589 234.16 97.2589 234.96V239.96H101.859V233.58C101.859 232.5 101.419 231.56 100.519 230.8C99.6189 230.02 98.2789 229.64 96.4989 229.64H96.3589C94.1389 229.64 92.3389 230.28 90.9389 231.56V226H86.3989V239.96ZM120.358 236.28V236.26H115.858C115.858 236.34 115.818 236.42 115.758 236.5C115.718 236.58 115.598 236.68 115.458 236.82C115.298 236.94 115.098 237.06 114.838 237.16C114.598 237.28 114.258 237.36 113.818 237.44C113.378 237.52 112.858 237.56 112.298 237.56H112.278C109.978 237.56 108.678 236.9 108.378 235.58H120.418V234.9C120.418 231.26 117.878 229.46 112.778 229.46H111.538C110.098 229.46 108.878 229.6 107.838 229.88C106.818 230.16 106.018 230.54 105.478 231.04C104.918 231.54 104.518 232.06 104.278 232.64C104.038 233.22 103.918 233.84 103.918 234.54V234.94C103.918 235.64 104.038 236.3 104.298 236.88C104.578 237.46 104.998 238 105.558 238.5C106.138 239 106.938 239.4 107.978 239.68C109.018 239.96 110.238 240.1 111.658 240.1H112.818C114.078 240.1 115.178 240.02 116.118 239.84C117.078 239.66 117.798 239.42 118.318 239.16C118.838 238.88 119.258 238.58 119.598 238.2C119.918 237.84 120.118 237.52 120.218 237.2C120.318 236.9 120.358 236.6 120.358 236.28ZM112.138 231.8C114.278 231.8 115.498 232.36 115.818 233.5H108.458C108.838 232.36 110.058 231.8 112.118 231.8H112.138ZM139.133 234.18C138.653 233.64 138.013 233.28 137.233 233.06C138.933 232.5 139.793 231.5 139.793 230.04V229.82C139.793 227.44 137.793 226.24 133.793 226.24H122.653V240H126.973V235.12H132.613C133.673 235.12 134.413 235.32 134.853 235.7C135.293 236.08 135.513 236.7 135.513 237.54V240H139.853V236.22C139.853 235.38 139.613 234.7 139.133 234.18ZM135.273 230.72C135.273 231.12 135.133 231.46 134.853 231.7C134.573 231.94 134.133 232.08 133.533 232.08H126.973V229.36H133.533C134.133 229.36 134.573 229.5 134.853 229.74C135.133 229.98 135.273 230.3 135.273 230.7V230.72ZM158.249 236.28V236.26H153.749C153.749 236.34 153.709 236.42 153.649 236.5C153.609 236.58 153.489 236.68 153.349 236.82C153.189 236.94 152.989 237.06 152.729 237.16C152.489 237.28 152.149 237.36 151.709 237.44C151.269 237.52 150.749 237.56 150.189 237.56H150.169C147.869 237.56 146.569 236.9 146.269 235.58H158.309V234.9C158.309 231.26 155.769 229.46 150.669 229.46H149.429C147.989 229.46 146.769 229.6 145.729 229.88C144.709 230.16 143.909 230.54 143.369 231.04C142.809 231.54 142.409 232.06 142.169 232.64C141.929 233.22 141.809 233.84 141.809 234.54V234.94C141.809 235.64 141.929 236.3 142.189 236.88C142.469 237.46 142.889 238 143.449 238.5C144.029 239 144.829 239.4 145.869 239.68C146.909 239.96 148.129 240.1 149.549 240.1H150.709C151.969 240.1 153.069 240.02 154.009 239.84C154.969 239.66 155.689 239.42 156.209 239.16C156.729 238.88 157.149 238.58 157.489 238.2C157.809 237.84 158.009 237.52 158.109 237.2C158.209 236.9 158.249 236.6 158.249 236.28ZM150.029 231.8C152.169 231.8 153.389 232.36 153.709 233.5H146.349C146.729 232.36 147.949 231.8 150.009 231.8H150.029ZM160.364 239.9H164.904V235.14C164.904 234.34 165.204 233.68 165.764 233.18C166.324 232.66 167.084 232.4 168.064 232.4C169.744 232.4 170.584 233.24 170.584 234.92V239.9H175.184V235.14C175.184 234.34 175.464 233.68 176.024 233.18C176.584 232.66 177.364 232.4 178.324 232.4C179.984 232.4 180.824 233.24 180.824 234.92V239.9H185.424V233.54C185.424 232.46 185.004 231.54 184.144 230.76C183.304 229.98 182.044 229.6 180.344 229.6H180.184C177.944 229.6 176.104 230.26 174.644 231.6C173.844 230.26 172.384 229.6 170.244 229.6H170.104C168.044 229.6 166.304 230.24 164.864 231.56V229.82H160.364V239.9ZM201.553 237.3C201.193 237.3 201.013 237.12 201.013 236.78V232.8C201.013 232.44 200.973 232.12 200.933 231.86C200.873 231.6 200.733 231.32 200.473 230.98C200.233 230.66 199.893 230.4 199.453 230.18C199.013 229.98 198.393 229.8 197.553 229.66C196.733 229.52 195.733 229.46 194.573 229.46H187.053V231.86L194.133 231.84C194.913 231.84 195.533 231.9 195.953 232C196.373 232.08 196.633 232.18 196.713 232.28C196.793 232.4 196.833 232.52 196.833 232.7C196.833 233 196.613 233.18 196.193 233.24L191.413 233.68C189.853 233.82 188.733 234.14 188.053 234.62C187.373 235.12 187.053 235.84 187.053 236.78V236.92C187.053 237.9 187.433 238.7 188.233 239.34C189.033 239.98 190.253 240.3 191.893 240.3H192.133C193.473 240.3 194.533 240.14 195.313 239.8C196.093 239.46 196.633 239.08 196.953 238.7C197.113 239.64 197.653 240.12 198.613 240.12H202.113V237.3H201.553ZM196.833 235.5C196.833 236.16 196.493 236.72 195.773 237.22C195.073 237.72 194.153 237.98 193.053 237.98C192.373 237.98 191.893 237.86 191.593 237.64C191.293 237.4 191.153 237.12 191.153 236.8V236.78C191.153 236.5 191.273 236.3 191.493 236.16C191.733 236.02 192.133 235.9 192.713 235.82L196.833 235.18V235.5ZM216.127 225.88V231.1C214.807 230.04 212.967 229.5 210.607 229.5H210.287C207.967 229.5 206.267 229.96 205.167 230.9C204.087 231.84 203.547 233.04 203.547 234.52V234.88C203.547 236.4 204.107 237.66 205.267 238.62C206.407 239.6 208.147 240.08 210.467 240.08H210.727C211.547 240.08 212.307 240 213.007 239.86C213.707 239.72 214.247 239.54 214.687 239.32C215.107 239.12 215.427 238.92 215.667 238.76C215.887 238.58 216.067 238.44 216.167 238.3V239.84H220.707V225.88H216.127ZM216.127 234.74V234.8C216.127 235.5 215.767 236.12 215.027 236.64C214.287 237.16 213.287 237.42 212.007 237.42H211.907C210.667 237.42 209.727 237.16 209.127 236.64C208.507 236.12 208.207 235.5 208.207 234.8V234.74C208.207 233.98 208.487 233.36 209.027 232.88C209.587 232.38 210.527 232.14 211.867 232.14H211.967C213.247 232.14 214.247 232.4 215.007 232.92C215.747 233.42 216.127 234.04 216.127 234.74ZM239.206 236.28V236.26H234.706C234.706 236.34 234.666 236.42 234.606 236.5C234.566 236.58 234.446 236.68 234.306 236.82C234.146 236.94 233.946 237.06 233.686 237.16C233.446 237.28 233.106 237.36 232.666 237.44C232.226 237.52 231.706 237.56 231.146 237.56H231.126C228.826 237.56 227.526 236.9 227.226 235.58H239.266V234.9C239.266 231.26 236.726 229.46 231.626 229.46H230.386C228.946 229.46 227.726 229.6 226.686 229.88C225.666 230.16 224.866 230.54 224.326 231.04C223.766 231.54 223.366 232.06 223.126 232.64C222.886 233.22 222.766 233.84 222.766 234.54V234.94C222.766 235.64 222.886 236.3 223.146 236.88C223.426 237.46 223.846 238 224.406 238.5C224.986 239 225.786 239.4 226.826 239.68C227.866 239.96 229.086 240.1 230.506 240.1H231.666C232.926 240.1 234.026 240.02 234.966 239.84C235.926 239.66 236.646 239.42 237.166 239.16C237.686 238.88 238.106 238.58 238.446 238.2C238.766 237.84 238.966 237.52 239.066 237.2C239.166 236.9 239.206 236.6 239.206 236.28ZM230.986 231.8C233.126 231.8 234.346 232.36 234.666 233.5H227.306C227.686 232.36 228.906 231.8 230.966 231.8H230.986ZM240.561 241.44H254.581V239.36H240.561V241.44Z" fill="#FFFF00"/>
</svg>
