<svg width="530" height="220" viewBox="0 0 530 220" fill="none" xmlns="http://www.w3.org/2000/svg">
<mask id="path-1-outside-1_568_11172" maskUnits="userSpaceOnUse" x="7.16016" y="23.4414" width="513" height="180" fill="black">
<rect fill="white" x="7.16016" y="23.4414" width="513" height="180"/>
<path d="M13.5762 91.6414H36.4242V65.2414H85.4802V91.6414H108.424V24.6334H85.4802V49.0174H36.4242V24.6334H13.5762V91.6414Z"/>
<path d="M175.377 91.9294C200.529 91.9294 213.105 83.5774 213.105 66.8734V65.2414C213.105 58.6843 211.075 53.4445 207.014 49.522C200.969 43.6816 190.423 40.7614 175.377 40.7614H168.369C162.513 40.7614 157.233 41.2414 152.721 42.2974C148.209 43.2574 144.561 44.5054 141.777 46.1374C138.993 47.7694 136.785 49.5934 135.057 51.8974C133.329 54.1054 132.177 56.2174 131.505 58.4254C130.833 60.6334 130.545 62.8414 130.545 65.2414V66.8734C130.545 69.2734 130.833 71.5774 131.505 73.7854C132.177 75.9934 133.329 78.2014 135.153 80.5054C135.804 81.3382 136.525 82.1437 137.318 82.9116C138.628 84.1796 140.139 85.345 141.873 86.3614C144.657 87.9934 148.305 89.2414 152.817 90.2974C157.329 91.3534 162.609 91.9294 168.465 91.9294H175.377ZM171.921 78.8734C165.105 78.8734 160.209 77.6254 157.329 75.1294C156.984 74.8518 156.661 74.5665 156.358 74.2738C154.039 72.0359 152.913 69.3648 152.913 66.3934V65.9134C152.913 62.3614 154.353 59.3854 157.233 57.0814C160.113 54.7774 165.009 53.6254 171.921 53.6254H172.017C178.737 53.6254 183.633 54.7774 186.513 57.1774C186.909 57.4841 187.278 57.8026 187.62 58.1326C189.846 60.2821 190.929 62.9174 190.929 65.9134V66.3934C190.929 69.7534 189.489 72.7294 186.513 75.1294C183.633 77.6254 178.737 78.8734 171.921 78.8734Z"/>
<path d="M325.794 42.5854L313.986 73.8814L306.402 54.7774L305.154 51.8014H274.722L272.802 56.7934L266.178 73.8814L253.986 42.5854H230.946L253.122 91.4494H276.066L286.914 64.7614H291.426L302.274 91.4494H325.794L346.53 42.5854H325.794Z"/>
<path d="M452.954 24.4414H431.162V38.2654H452.954V24.4414ZM452.954 42.9694H431.162V91.4494H452.954V42.9694Z"/>
<path d="M490.087 88.0292C492.256 90.1244 495.429 91.1614 499.617 91.1614H518.529V77.9134H512.577C510.753 77.9134 509.601 77.5294 509.025 76.8574C508.449 76.1854 508.161 75.1294 508.161 73.6894V56.1214H518.529V42.7774H508.161V28.6654H486.561V42.7774H476.289V56.1214H486.561V77.4334C486.561 82.2312 487.732 85.7541 490.087 88.0292Z"/>
<path d="M104.008 152.585L92.2002 183.881L84.6162 164.777L83.3682 161.801H52.9362L51.0162 166.793L44.3922 183.881L32.2002 152.585H9.16016L31.3362 201.449H54.2802L65.1282 174.761H69.6402L80.4882 201.449H104.008L124.744 152.585H104.008Z"/>
<path d="M187.283 201.929C212.435 201.929 225.011 193.577 225.011 176.873V175.241C225.011 168.684 222.981 163.445 218.921 159.522C212.875 153.682 202.329 150.761 187.283 150.761H180.275C174.419 150.761 169.139 151.241 164.627 152.297C160.115 153.257 156.467 154.505 153.683 156.137C150.899 157.769 148.691 159.593 146.963 161.897C145.235 164.105 144.083 166.217 143.411 168.425C142.739 170.633 142.451 172.841 142.451 175.241V176.873C142.451 179.273 142.739 181.577 143.411 183.785C144.083 185.993 145.235 188.201 147.059 190.505C147.711 191.338 148.431 192.144 149.224 192.912C150.535 194.18 152.045 195.345 153.779 196.361C156.563 197.993 160.211 199.241 164.723 200.297C169.235 201.353 174.515 201.929 180.371 201.929H187.283ZM183.827 188.873C177.011 188.873 172.115 187.625 169.235 185.129C168.891 184.852 168.567 184.567 168.264 184.274C165.945 182.036 164.819 179.365 164.819 176.393V175.913C164.819 172.361 166.259 169.385 169.139 167.081C172.019 164.777 176.915 163.625 183.827 163.625H183.923C190.643 163.625 195.539 164.777 198.419 167.177C198.815 167.484 199.184 167.803 199.526 168.133C201.753 170.282 202.835 172.917 202.835 175.913V176.393C202.835 179.753 201.395 182.729 198.419 185.129C195.539 187.625 190.643 188.873 183.827 188.873Z"/>
<path d="M287.109 150.569C283.269 150.569 279.909 151.241 276.741 152.585C273.669 153.929 271.461 155.273 270.117 156.521C268.869 157.769 267.813 159.113 266.949 160.361V151.625H246.501V201.161H267.045V175.625C267.045 172.169 268.005 169.385 269.925 167.081C271.845 164.777 275.685 162.569 278.181 162.281C280.677 161.993 309.861 161.993 309.861 161.993V150.569H287.109Z"/>
<path d="M330.159 201.449H351.951V179.177C351.951 179.177 357.528 184.568 363.193 190.045C369.045 195.701 374.991 201.449 374.991 201.449H400.623C400.623 201.449 400.257 201.101 399.608 200.483C398.072 199.021 394.954 196.053 391.367 192.638C388.337 189.754 384.973 186.552 381.944 183.669C378.357 180.254 375.238 177.286 373.703 175.824C373.054 175.206 372.687 174.857 372.687 174.857L397.647 152.969H373.359L351.951 172.361V134.441H330.159V201.449Z"/>
</mask>
<path d="M13.5762 91.6414H36.4242V65.2414H85.4802V91.6414H108.424V24.6334H85.4802V49.0174H36.4242V24.6334H13.5762V91.6414Z" fill="#108E3A"/>
<path d="M175.377 91.9294C200.529 91.9294 213.105 83.5774 213.105 66.8734V65.2414C213.105 58.6843 211.075 53.4445 207.014 49.522C200.969 43.6816 190.423 40.7614 175.377 40.7614H168.369C162.513 40.7614 157.233 41.2414 152.721 42.2974C148.209 43.2574 144.561 44.5054 141.777 46.1374C138.993 47.7694 136.785 49.5934 135.057 51.8974C133.329 54.1054 132.177 56.2174 131.505 58.4254C130.833 60.6334 130.545 62.8414 130.545 65.2414V66.8734C130.545 69.2734 130.833 71.5774 131.505 73.7854C132.177 75.9934 133.329 78.2014 135.153 80.5054C135.804 81.3382 136.525 82.1437 137.318 82.9116C138.628 84.1796 140.139 85.345 141.873 86.3614C144.657 87.9934 148.305 89.2414 152.817 90.2974C157.329 91.3534 162.609 91.9294 168.465 91.9294H175.377ZM171.921 78.8734C165.105 78.8734 160.209 77.6254 157.329 75.1294C156.984 74.8518 156.661 74.5665 156.358 74.2738C154.039 72.0359 152.913 69.3648 152.913 66.3934V65.9134C152.913 62.3614 154.353 59.3854 157.233 57.0814C160.113 54.7774 165.009 53.6254 171.921 53.6254H172.017C178.737 53.6254 183.633 54.7774 186.513 57.1774C186.909 57.4841 187.278 57.8026 187.62 58.1326C189.846 60.2821 190.929 62.9174 190.929 65.9134V66.3934C190.929 69.7534 189.489 72.7294 186.513 75.1294C183.633 77.6254 178.737 78.8734 171.921 78.8734Z" fill="#108E3A"/>
<path d="M325.794 42.5854L313.986 73.8814L306.402 54.7774L305.154 51.8014H274.722L272.802 56.7934L266.178 73.8814L253.986 42.5854H230.946L253.122 91.4494H276.066L286.914 64.7614H291.426L302.274 91.4494H325.794L346.53 42.5854H325.794Z" fill="#108E3A"/>
<path d="M452.954 24.4414H431.162V38.2654H452.954V24.4414ZM452.954 42.9694H431.162V91.4494H452.954V42.9694Z" fill="#108E3A"/>
<path d="M490.087 88.0292C492.256 90.1244 495.429 91.1614 499.617 91.1614H518.529V77.9134H512.577C510.753 77.9134 509.601 77.5294 509.025 76.8574C508.449 76.1854 508.161 75.1294 508.161 73.6894V56.1214H518.529V42.7774H508.161V28.6654H486.561V42.7774H476.289V56.1214H486.561V77.4334C486.561 82.2312 487.732 85.7541 490.087 88.0292Z" fill="#108E3A"/>
<path d="M104.008 152.585L92.2002 183.881L84.6162 164.777L83.3682 161.801H52.9362L51.0162 166.793L44.3922 183.881L32.2002 152.585H9.16016L31.3362 201.449H54.2802L65.1282 174.761H69.6402L80.4882 201.449H104.008L124.744 152.585H104.008Z" fill="#108E3A"/>
<path d="M187.283 201.929C212.435 201.929 225.011 193.577 225.011 176.873V175.241C225.011 168.684 222.981 163.445 218.921 159.522C212.875 153.682 202.329 150.761 187.283 150.761H180.275C174.419 150.761 169.139 151.241 164.627 152.297C160.115 153.257 156.467 154.505 153.683 156.137C150.899 157.769 148.691 159.593 146.963 161.897C145.235 164.105 144.083 166.217 143.411 168.425C142.739 170.633 142.451 172.841 142.451 175.241V176.873C142.451 179.273 142.739 181.577 143.411 183.785C144.083 185.993 145.235 188.201 147.059 190.505C147.711 191.338 148.431 192.144 149.224 192.912C150.535 194.18 152.045 195.345 153.779 196.361C156.563 197.993 160.211 199.241 164.723 200.297C169.235 201.353 174.515 201.929 180.371 201.929H187.283ZM183.827 188.873C177.011 188.873 172.115 187.625 169.235 185.129C168.891 184.852 168.567 184.567 168.264 184.274C165.945 182.036 164.819 179.365 164.819 176.393V175.913C164.819 172.361 166.259 169.385 169.139 167.081C172.019 164.777 176.915 163.625 183.827 163.625H183.923C190.643 163.625 195.539 164.777 198.419 167.177C198.815 167.484 199.184 167.803 199.526 168.133C201.753 170.282 202.835 172.917 202.835 175.913V176.393C202.835 179.753 201.395 182.729 198.419 185.129C195.539 187.625 190.643 188.873 183.827 188.873Z" fill="#108E3A"/>
<path d="M287.109 150.569C283.269 150.569 279.909 151.241 276.741 152.585C273.669 153.929 271.461 155.273 270.117 156.521C268.869 157.769 267.813 159.113 266.949 160.361V151.625H246.501V201.161H267.045V175.625C267.045 172.169 268.005 169.385 269.925 167.081C271.845 164.777 275.685 162.569 278.181 162.281C280.677 161.993 309.861 161.993 309.861 161.993V150.569H287.109Z" fill="#108E3A"/>
<path d="M330.159 201.449H351.951V179.177C351.951 179.177 357.528 184.568 363.193 190.045C369.045 195.701 374.991 201.449 374.991 201.449H400.623C400.623 201.449 400.257 201.101 399.608 200.483C398.072 199.021 394.954 196.053 391.367 192.638C388.337 189.754 384.973 186.552 381.944 183.669C378.357 180.254 375.238 177.286 373.703 175.824C373.054 175.206 372.687 174.857 372.687 174.857L397.647 152.969H373.359L351.951 172.361V134.441H330.159V201.449Z" fill="#108E3A"/>
<path d="M13.5762 91.6414H36.4242V65.2414H85.4802V91.6414H108.424V24.6334H85.4802V49.0174H36.4242V24.6334H13.5762V91.6414Z" stroke="#0AFB3F" stroke-width="2" mask="url(#path-1-outside-1_568_11172)"/>
<path d="M175.377 91.9294C200.529 91.9294 213.105 83.5774 213.105 66.8734V65.2414C213.105 58.6843 211.075 53.4445 207.014 49.522C200.969 43.6816 190.423 40.7614 175.377 40.7614H168.369C162.513 40.7614 157.233 41.2414 152.721 42.2974C148.209 43.2574 144.561 44.5054 141.777 46.1374C138.993 47.7694 136.785 49.5934 135.057 51.8974C133.329 54.1054 132.177 56.2174 131.505 58.4254C130.833 60.6334 130.545 62.8414 130.545 65.2414V66.8734C130.545 69.2734 130.833 71.5774 131.505 73.7854C132.177 75.9934 133.329 78.2014 135.153 80.5054C135.804 81.3382 136.525 82.1437 137.318 82.9116C138.628 84.1796 140.139 85.345 141.873 86.3614C144.657 87.9934 148.305 89.2414 152.817 90.2974C157.329 91.3534 162.609 91.9294 168.465 91.9294H175.377ZM171.921 78.8734C165.105 78.8734 160.209 77.6254 157.329 75.1294C156.984 74.8518 156.661 74.5665 156.358 74.2738C154.039 72.0359 152.913 69.3648 152.913 66.3934V65.9134C152.913 62.3614 154.353 59.3854 157.233 57.0814C160.113 54.7774 165.009 53.6254 171.921 53.6254H172.017C178.737 53.6254 183.633 54.7774 186.513 57.1774C186.909 57.4841 187.278 57.8026 187.62 58.1326C189.846 60.2821 190.929 62.9174 190.929 65.9134V66.3934C190.929 69.7534 189.489 72.7294 186.513 75.1294C183.633 77.6254 178.737 78.8734 171.921 78.8734Z" stroke="#0AFB3F" stroke-width="2" mask="url(#path-1-outside-1_568_11172)"/>
<path d="M325.794 42.5854L313.986 73.8814L306.402 54.7774L305.154 51.8014H274.722L272.802 56.7934L266.178 73.8814L253.986 42.5854H230.946L253.122 91.4494H276.066L286.914 64.7614H291.426L302.274 91.4494H325.794L346.53 42.5854H325.794Z" stroke="#0AFB3F" stroke-width="2" mask="url(#path-1-outside-1_568_11172)"/>
<path d="M452.954 24.4414H431.162V38.2654H452.954V24.4414ZM452.954 42.9694H431.162V91.4494H452.954V42.9694Z" stroke="#0AFB3F" stroke-width="2" mask="url(#path-1-outside-1_568_11172)"/>
<path d="M490.087 88.0292C492.256 90.1244 495.429 91.1614 499.617 91.1614H518.529V77.9134H512.577C510.753 77.9134 509.601 77.5294 509.025 76.8574C508.449 76.1854 508.161 75.1294 508.161 73.6894V56.1214H518.529V42.7774H508.161V28.6654H486.561V42.7774H476.289V56.1214H486.561V77.4334C486.561 82.2312 487.732 85.7541 490.087 88.0292Z" stroke="#0AFB3F" stroke-width="2" mask="url(#path-1-outside-1_568_11172)"/>
<path d="M104.008 152.585L92.2002 183.881L84.6162 164.777L83.3682 161.801H52.9362L51.0162 166.793L44.3922 183.881L32.2002 152.585H9.16016L31.3362 201.449H54.2802L65.1282 174.761H69.6402L80.4882 201.449H104.008L124.744 152.585H104.008Z" stroke="#0AFB3F" stroke-width="2" mask="url(#path-1-outside-1_568_11172)"/>
<path d="M187.283 201.929C212.435 201.929 225.011 193.577 225.011 176.873V175.241C225.011 168.684 222.981 163.445 218.921 159.522C212.875 153.682 202.329 150.761 187.283 150.761H180.275C174.419 150.761 169.139 151.241 164.627 152.297C160.115 153.257 156.467 154.505 153.683 156.137C150.899 157.769 148.691 159.593 146.963 161.897C145.235 164.105 144.083 166.217 143.411 168.425C142.739 170.633 142.451 172.841 142.451 175.241V176.873C142.451 179.273 142.739 181.577 143.411 183.785C144.083 185.993 145.235 188.201 147.059 190.505C147.711 191.338 148.431 192.144 149.224 192.912C150.535 194.18 152.045 195.345 153.779 196.361C156.563 197.993 160.211 199.241 164.723 200.297C169.235 201.353 174.515 201.929 180.371 201.929H187.283ZM183.827 188.873C177.011 188.873 172.115 187.625 169.235 185.129C168.891 184.852 168.567 184.567 168.264 184.274C165.945 182.036 164.819 179.365 164.819 176.393V175.913C164.819 172.361 166.259 169.385 169.139 167.081C172.019 164.777 176.915 163.625 183.827 163.625H183.923C190.643 163.625 195.539 164.777 198.419 167.177C198.815 167.484 199.184 167.803 199.526 168.133C201.753 170.282 202.835 172.917 202.835 175.913V176.393C202.835 179.753 201.395 182.729 198.419 185.129C195.539 187.625 190.643 188.873 183.827 188.873Z" stroke="#0AFB3F" stroke-width="2" mask="url(#path-1-outside-1_568_11172)"/>
<path d="M287.109 150.569C283.269 150.569 279.909 151.241 276.741 152.585C273.669 153.929 271.461 155.273 270.117 156.521C268.869 157.769 267.813 159.113 266.949 160.361V151.625H246.501V201.161H267.045V175.625C267.045 172.169 268.005 169.385 269.925 167.081C271.845 164.777 275.685 162.569 278.181 162.281C280.677 161.993 309.861 161.993 309.861 161.993V150.569H287.109Z" stroke="#0AFB3F" stroke-width="2" mask="url(#path-1-outside-1_568_11172)"/>
<path d="M330.159 201.449H351.951V179.177C351.951 179.177 357.528 184.568 363.193 190.045C369.045 195.701 374.991 201.449 374.991 201.449H400.623C400.623 201.449 400.257 201.101 399.608 200.483C398.072 199.021 394.954 196.053 391.367 192.638C388.337 189.754 384.973 186.552 381.944 183.669C378.357 180.254 375.238 177.286 373.703 175.824C373.054 175.206 372.687 174.857 372.687 174.857L397.647 152.969H373.359L351.951 172.361V134.441H330.159V201.449Z" stroke="#0AFB3F" stroke-width="2" mask="url(#path-1-outside-1_568_11172)"/>
<path d="M28.8594 16.6325C28.7662 16.5425 28.6417 16.4922 28.5121 16.4922H5.66406C5.46024 16.4922 5.27682 16.6159 5.20047 16.8049C5.12412 16.9939 5.17012 17.2103 5.31673 17.3519L13.2295 24.9931C13.3227 25.0831 13.4472 25.1334 13.5768 25.1334H36.4248C36.6286 25.1334 36.812 25.0097 36.8884 24.8207C36.9647 24.6318 36.9187 24.4153 36.7721 24.2738L28.8594 16.6325Z" fill="#108E3A" stroke="#0AFB3F" stroke-linejoin="round"/>
<path d="M6.01139 16.6325C5.86706 16.4931 5.65339 16.4535 5.4687 16.5319C5.284 16.6103 5.16406 16.7915 5.16406 16.9922V84.0002C5.16406 84.1358 5.21917 84.2656 5.31673 84.3599L13.2295 92.0011C13.3738 92.1405 13.5875 92.1801 13.7722 92.1017C13.9569 92.0233 14.0768 91.8421 14.0768 91.6414V24.6334C14.0768 24.4978 14.0217 24.368 13.9241 24.2738L6.01139 16.6325Z" fill="#108E3A" stroke="#0AFB3F" stroke-linejoin="round"/>
<path d="M28.0117 41.3762C28.0117 41.5118 28.0668 41.6416 28.1644 41.7359L36.0771 49.3771C36.2215 49.5165 36.4351 49.5561 36.6198 49.4777C36.8045 49.3993 36.9245 49.2181 36.9245 49.0174V24.6334C36.9245 24.4978 36.8694 24.368 36.7718 24.2738L28.859 16.6325C28.7147 16.4931 28.501 16.4535 28.3164 16.5319C28.1317 16.6103 28.0117 16.7915 28.0117 16.9922V41.3762Z" fill="#108E3A" stroke="#0AFB3F" stroke-linejoin="round"/>
<path d="M77.915 41.0163C77.8218 40.9263 77.6973 40.876 77.5677 40.876H28.5117C28.3079 40.876 28.1245 40.9997 28.0481 41.1887C27.9718 41.3777 28.0178 41.5941 28.1644 41.7356L36.0771 49.3769C36.1703 49.4669 36.2949 49.5172 36.4245 49.5172H85.4805C85.6843 49.5172 85.8677 49.3935 85.944 49.2045C86.0204 49.0155 85.9744 48.7991 85.8278 48.6575L77.915 41.0163Z" fill="#108E3A" stroke="#0AFB3F" stroke-linejoin="round"/>
<path d="M28.0117 83.9996C28.0117 84.1352 28.0668 84.2651 28.1644 84.3593L36.0771 92.0005C36.2215 92.1399 36.4351 92.1795 36.6198 92.1011C36.8045 92.0227 36.9245 91.8415 36.9245 91.6409V65.2409C36.9245 65.1052 36.8694 64.9754 36.7718 64.8812L28.859 57.2399C28.7147 57.1006 28.501 57.061 28.3164 57.1394C28.1317 57.2178 28.0117 57.399 28.0117 57.5996V83.9996Z" fill="#108E3A" stroke="#0AFB3F" stroke-linejoin="round"/>
<path d="M5.66406 83.5C5.46024 83.5 5.27682 83.6237 5.20047 83.8127C5.12412 84.0017 5.17012 84.2181 5.31673 84.3597L13.2295 92.0009C13.3227 92.0909 13.4472 92.1412 13.5768 92.1412H36.4248C36.6286 92.1412 36.812 92.0175 36.8884 91.8285C36.9647 91.6396 36.9187 91.4232 36.7721 91.2816L28.8594 83.6403C28.7662 83.5503 28.6417 83.5 28.5121 83.5H5.66406Z" fill="#108E3A" stroke="#0AFB3F" stroke-linejoin="round"/>
<path d="M100.86 16.6325C100.766 16.5425 100.642 16.4922 100.512 16.4922H77.5684C77.3645 16.4922 77.1811 16.6159 77.1048 16.8049C77.0284 16.9939 77.0744 17.2103 77.221 17.3519L85.1338 24.9931C85.227 25.0831 85.3515 25.1334 85.4811 25.1334H108.425C108.629 25.1334 108.812 25.0097 108.889 24.8207C108.965 24.6318 108.919 24.4153 108.772 24.2738L100.86 16.6325Z" fill="#108E3A" stroke="#0AFB3F" stroke-linejoin="round"/>
<path d="M77.9157 16.6325C77.7714 16.4931 77.5577 16.4535 77.373 16.5319C77.1883 16.6103 77.0684 16.7915 77.0684 16.9922V41.3762C77.0684 41.5118 77.1235 41.6416 77.221 41.7359L85.1338 49.3771C85.2781 49.5165 85.4918 49.5561 85.6765 49.4777C85.8612 49.3993 85.9811 49.2181 85.9811 49.0174V24.6334C85.9811 24.4978 85.926 24.368 85.8284 24.2738L77.9157 16.6325Z" fill="#108E3A" stroke="#0AFB3F" stroke-linejoin="round"/>
<path d="M28.5117 57.0996C28.3079 57.0996 28.1245 57.2233 28.0481 57.4123C27.9718 57.6013 28.0178 57.8177 28.1644 57.9593L36.0771 65.6005C36.1703 65.6905 36.2949 65.7409 36.4245 65.7409H85.4805C85.6843 65.7409 85.8677 65.6171 85.944 65.4282C86.0204 65.2392 85.9744 65.0228 85.8278 64.8812L77.915 57.2399C77.8218 57.1499 77.6973 57.0996 77.5677 57.0996H28.5117Z" fill="#108E3A" stroke="#0AFB3F" stroke-linejoin="round"/>
<path d="M77.9157 57.2399C77.7714 57.1006 77.5577 57.061 77.373 57.1394C77.1883 57.2178 77.0684 57.399 77.0684 57.5996V83.9996C77.0684 84.1352 77.1235 84.2651 77.221 84.3593L85.1338 92.0005C85.2781 92.1399 85.4918 92.1795 85.6765 92.1011C85.8612 92.0227 85.9811 91.8415 85.9811 91.6409V65.2409C85.9811 65.1052 85.926 64.9754 85.8284 64.8812L77.9157 57.2399Z" fill="#108E3A" stroke="#0AFB3F" stroke-linejoin="round"/>
<path d="M100.012 84.0002C100.012 84.1358 100.067 84.2656 100.164 84.3599L108.077 92.0011C108.221 92.1405 108.435 92.1801 108.62 92.1017C108.805 92.0233 108.924 91.8421 108.924 91.6414V24.6334C108.924 24.4978 108.869 24.368 108.772 24.2738L100.859 16.6325C100.715 16.4931 100.501 16.4535 100.316 16.5319C100.132 16.6103 100.012 16.7915 100.012 16.9922V84.0002Z" fill="#108E3A" stroke="#0AFB3F" stroke-linejoin="round"/>
<path d="M24.6354 144.584C24.5422 144.494 24.4176 144.443 24.288 144.443H1.24805C1.04423 144.443 0.860807 144.567 0.784455 144.756C0.708102 144.945 0.754102 145.161 0.900718 145.303L8.81346 152.944C8.90667 153.034 9.0312 153.085 9.16078 153.085H32.2008C32.4046 153.085 32.588 152.961 32.6644 152.772C32.7407 152.583 32.6947 152.367 32.5481 152.225L24.6354 144.584Z" fill="#108E3A" stroke="#0AFB3F" stroke-linejoin="round"/>
<path d="M77.5684 83.5C77.3645 83.5 77.1811 83.6237 77.1048 83.8127C77.0284 84.0017 77.0744 84.2181 77.221 84.3597L85.1338 92.0009C85.227 92.0909 85.3515 92.1412 85.4811 92.1412H108.425C108.629 92.1412 108.812 92.0175 108.889 91.8285C108.965 91.6396 108.919 91.4232 108.772 91.2816L100.86 83.6403C100.766 83.5503 100.642 83.5 100.512 83.5H77.5684Z" fill="#108E3A" stroke="#0AFB3F" stroke-linejoin="round"/>
<path d="M134.212 38.1364C134.051 37.9806 133.805 37.9513 133.612 38.0647C130.786 39.7214 128.522 41.5864 126.745 43.9561C126.593 44.1578 126.616 44.4406 126.797 44.6158L134.71 52.257C134.813 52.3566 134.954 52.4072 135.097 52.3958C135.24 52.3843 135.371 52.3121 135.457 52.1973C137.136 49.959 139.288 48.1761 142.03 46.5687C142.165 46.4896 142.255 46.3519 142.274 46.1966C142.292 46.0413 142.237 45.8863 142.125 45.7777L134.212 38.1364Z" fill="#108E3A" stroke="#0AFB3F" stroke-linejoin="round"/>
<path d="M127.492 43.8962C127.39 43.7978 127.251 43.7472 127.11 43.7571C126.969 43.7669 126.838 43.8362 126.751 43.9477C124.993 46.1937 123.808 48.3597 123.114 50.6383C123.06 50.8179 123.11 51.0131 123.245 51.1435L131.158 58.7848C131.283 58.9057 131.463 58.9528 131.631 58.9091C131.8 58.8654 131.933 58.7372 131.984 58.5707C132.634 56.4332 133.753 54.3753 135.451 52.2053C135.609 52.0036 135.589 51.7153 135.405 51.5374L127.492 43.8962Z" fill="#108E3A" stroke="#0AFB3F" stroke-linejoin="round"/>
<path d="M145.157 34.2966C145.037 34.1811 144.868 34.1326 144.705 34.1672C140.166 35.133 136.46 36.3953 133.612 38.0649C133.477 38.144 133.387 38.2817 133.369 38.437C133.35 38.5922 133.405 38.7473 133.518 38.8559L141.431 46.4972C141.592 46.653 141.837 46.6823 142.031 46.5688C144.751 44.9744 148.341 43.7408 152.826 42.7865C153.007 42.7481 153.152 42.613 153.203 42.4353C153.254 42.2576 153.202 42.0662 153.069 41.9378L145.157 34.2966Z" fill="#108E3A" stroke="#0AFB3F" stroke-linejoin="round"/>
<path d="M123.94 50.4235C123.815 50.3026 123.636 50.2555 123.467 50.2992C123.299 50.3429 123.165 50.4711 123.114 50.6376C122.426 52.8992 122.133 55.1571 122.133 57.5992C122.133 57.7348 122.188 57.8647 122.285 57.9589L130.198 65.6001C130.343 65.7395 130.556 65.7791 130.741 65.7007C130.926 65.6223 131.046 65.4411 131.046 65.2404C131.046 62.8826 131.328 60.7244 131.984 58.57C132.039 58.3904 131.988 58.1952 131.853 58.0648L123.94 50.4235Z" fill="#108E3A" stroke="#0AFB3F" stroke-linejoin="round"/>
<path d="M1.59538 144.584C1.42271 144.417 1.15592 144.396 0.959795 144.535C0.763667 144.673 0.693545 144.931 0.792741 145.15L22.9687 194.014C22.9948 194.071 23.0314 194.123 23.0767 194.167L30.9895 201.808C31.1621 201.975 31.4289 201.996 31.625 201.857C31.8212 201.719 31.8913 201.461 31.7921 201.242L9.61609 152.378C9.59006 152.321 9.55342 152.269 9.50811 152.225L1.59538 144.584Z" fill="#108E3A" stroke="#0AFB3F" stroke-linejoin="round"/>
<path d="M122.98 57.2399C122.836 57.1006 122.622 57.061 122.437 57.1394C122.253 57.2178 122.133 57.399 122.133 57.5996V59.2316C122.133 59.3672 122.188 59.4971 122.285 59.5913L130.198 67.2325C130.343 67.3719 130.556 67.4115 130.741 67.3331C130.926 67.2547 131.046 67.0735 131.046 66.8729V65.2409C131.046 65.1052 130.99 64.9754 130.893 64.8812L122.98 57.2399Z" fill="#108E3A" stroke="#0AFB3F" stroke-linejoin="round"/>
<path d="M122.98 58.8718C122.836 58.7324 122.622 58.6928 122.437 58.7712C122.253 58.8496 122.133 59.0308 122.133 59.2314C122.133 61.6715 122.426 64.0257 123.114 66.289C123.139 66.3704 123.184 66.4441 123.245 66.5031L131.158 74.1444C131.322 74.3026 131.572 74.3301 131.767 74.2112C131.961 74.0923 132.05 73.857 131.984 73.6391C131.329 71.4864 131.046 69.2326 131.046 66.8727C131.046 66.7371 130.99 66.6072 130.893 66.513L122.98 58.8718Z" fill="#108E3A" stroke="#0AFB3F" stroke-linejoin="round"/>
<path d="M160.804 32.7604C160.711 32.6704 160.586 32.6201 160.457 32.6201C154.576 32.6201 149.255 33.1019 144.695 34.1693C144.516 34.211 144.375 34.3468 144.327 34.5232C144.278 34.6997 144.33 34.8886 144.461 35.0158L152.374 42.657C152.496 42.775 152.67 42.8229 152.835 42.7842C157.299 41.7396 162.538 41.2614 168.369 41.2614C168.573 41.2614 168.757 41.1376 168.833 40.9487C168.909 40.7597 168.863 40.5433 168.717 40.4017L160.804 32.7604Z" fill="#108E3A" stroke="#0AFB3F" stroke-linejoin="round"/>
<path d="M36.0142 176.421C36.0404 176.488 36.0808 176.549 36.1328 176.599L44.0455 184.24C44.2145 184.403 44.4743 184.427 44.6698 184.297C44.8654 184.167 44.944 183.918 44.8587 183.699L32.6667 152.403C32.6405 152.336 32.6001 152.275 32.5482 152.225L24.6354 144.584C24.4664 144.421 24.2066 144.397 24.0111 144.527C23.8155 144.657 23.7369 144.906 23.8222 145.125L36.0142 176.421Z" fill="#108E3A" stroke="#0AFB3F" stroke-linejoin="round"/>
<path d="M123.94 65.7839C123.776 65.6256 123.526 65.5982 123.332 65.7171C123.137 65.836 123.048 66.0712 123.114 66.2891C123.807 68.5638 124.991 70.8267 126.849 73.1739C126.863 73.1913 126.877 73.2078 126.893 73.2232L134.806 80.8645C134.996 81.0473 135.294 81.052 135.489 80.8753C135.684 80.6985 135.709 80.4008 135.546 80.1944C133.756 77.9336 132.636 75.7806 131.984 73.6392C131.959 73.5579 131.914 73.4842 131.853 73.4251L123.94 65.7839Z" fill="#108E3A" stroke="#0AFB3F" stroke-linejoin="round"/>
<path d="M45.3708 153.8C45.2502 153.684 45.0792 153.636 44.9155 153.672C44.7517 153.708 44.617 153.824 44.5568 153.981L42.6368 158.973C42.5648 159.16 42.6118 159.372 42.7562 159.512L50.6689 167.153C50.7896 167.27 50.9606 167.318 51.1243 167.282C51.2881 167.245 51.4227 167.129 51.4829 166.973L53.4029 161.981C53.475 161.794 53.428 161.581 53.2836 161.442L45.3708 153.8Z" fill="#108E3A" stroke="#0AFB3F" stroke-linejoin="round"/>
<path d="M167.812 32.7604C167.719 32.6704 167.595 32.6201 167.465 32.6201H160.457C160.253 32.6201 160.07 32.7438 159.993 32.9328C159.917 33.1218 159.963 33.3382 160.11 33.4798L168.022 41.121C168.116 41.211 168.24 41.2614 168.37 41.2614H175.378C175.582 41.2614 175.765 41.1376 175.841 40.9487C175.918 40.7597 175.872 40.5433 175.725 40.4017L167.812 32.7604Z" fill="#108E3A" stroke="#0AFB3F" stroke-linejoin="round"/>
<path d="M144.5 58.2715C144.5 58.4071 144.555 58.5369 144.653 58.6311L152.565 66.2724C152.71 66.4117 152.923 66.4513 153.108 66.3729C153.293 66.2946 153.413 66.1133 153.413 65.9127C153.413 62.5169 154.78 59.6829 157.545 57.4711C157.657 57.3813 157.726 57.2476 157.732 57.104C157.739 56.9604 157.683 56.8209 157.58 56.721L149.667 49.0798C149.486 48.9051 149.204 48.8919 149.008 49.049C146.012 51.4452 144.5 54.5633 144.5 58.2715Z" fill="#108E3A" stroke="#0AFB3F" stroke-linejoin="round"/>
<path d="M127.588 72.5036C127.399 72.3211 127.101 72.316 126.906 72.4918C126.71 72.6677 126.685 72.9646 126.846 73.1714C127.512 74.0218 128.247 74.8445 129.058 75.6288L129.058 75.6292L136.971 83.2701L136.971 83.2704C137.17 83.4622 137.486 83.4567 137.678 83.2583C137.87 83.0598 137.864 82.7434 137.666 82.5515C136.89 81.8 136.185 81.0116 135.547 80.1964C135.532 80.1781 135.517 80.1609 135.5 80.1449L127.588 72.5036Z" fill="#108E3A" stroke="#0AFB3F" stroke-linejoin="round"/>
<path d="M144.5 58.7515C144.5 58.8871 144.555 59.0169 144.653 59.1112L152.565 66.7524C152.71 66.8918 152.923 66.9314 153.108 66.853C153.293 66.7746 153.413 66.5934 153.413 66.3927V65.9127C153.413 65.7771 153.358 65.6473 153.26 65.5531L145.347 57.9118C145.203 57.7724 144.989 57.7328 144.805 57.8112C144.62 57.8896 144.5 58.0708 144.5 58.2715V58.7515Z" fill="#108E3A" stroke="#0AFB3F" stroke-linejoin="round"/>
<path d="M43.4518 158.793C43.3313 158.676 43.1606 158.628 42.9971 158.664C42.8335 158.7 42.6988 158.815 42.6383 158.972L36.0143 176.06C35.9415 176.247 35.9884 176.46 36.1331 176.6L44.0459 184.241C44.1663 184.358 44.3371 184.406 44.5006 184.37C44.6642 184.334 44.7989 184.218 44.8594 184.062L51.4834 166.974C51.5561 166.787 51.5093 166.574 51.3645 166.434L43.4518 158.793Z" fill="#108E3A" stroke="#0AFB3F" stroke-linejoin="round"/>
<path d="M149.008 49.0499C148.896 49.1397 148.828 49.2735 148.821 49.4171C148.814 49.5607 148.87 49.7002 148.973 49.8L156.886 57.4413C157.067 57.616 157.349 57.6291 157.545 57.4721C160.287 55.2787 165.036 54.1256 171.921 54.1256C172.125 54.1256 172.308 54.0019 172.385 53.8129C172.461 53.6239 172.415 53.4075 172.268 53.2659L164.356 45.6247C164.262 45.5347 164.138 45.4844 164.008 45.4844C157.069 45.4844 152.026 46.6353 149.008 49.0499Z" fill="#108E3A" stroke="#0AFB3F" stroke-linejoin="round"/>
<path d="M129.754 74.9099C129.555 74.7181 129.239 74.7235 129.047 74.922C128.855 75.1205 128.86 75.4369 129.059 75.6288L129.059 75.6292L129.094 75.6633L129.095 75.6637L136.971 83.2701C136.971 83.2702 136.971 83.2702 136.972 83.2703C138.31 84.5655 139.852 85.7551 141.621 86.7919C141.839 86.9199 142.119 86.8645 142.272 86.6628C142.425 86.4611 142.403 86.1768 142.221 86.0009L134.308 78.3596C134.28 78.3321 134.248 78.308 134.214 78.288C132.53 77.3009 131.063 76.1713 129.789 74.9436L129.754 74.9102L129.754 74.9099Z" fill="#108E3A" stroke="#0AFB3F" stroke-linejoin="round"/>
<path d="M156.005 74.6282L156.005 74.6283C156.005 74.6283 156.005 74.6283 156.005 74.6283L156.01 74.6334L156.01 74.6333C156.209 74.82 156.522 74.8128 156.712 74.616C156.902 74.4191 156.899 74.1062 156.705 73.9139L156.705 73.9138L156.7 73.909C156.7 73.909 156.7 73.909 156.7 73.9089C156.7 73.9088 156.699 73.9086 156.699 73.9084C154.478 71.7621 153.413 69.2213 153.413 66.3932C153.413 66.2576 153.358 66.1277 153.26 66.0335L145.347 58.3923C145.203 58.2529 144.989 58.2133 144.805 58.2917C144.62 58.3701 144.5 58.5513 144.5 58.752C144.5 61.8642 145.685 64.6636 148.098 66.9921L156.005 74.6282Z" fill="#108E3A" stroke="#0AFB3F" stroke-linejoin="round"/>
<path d="M164.009 45.4844C163.805 45.4844 163.622 45.6081 163.545 45.7971C163.469 45.9861 163.515 46.2025 163.661 46.344L171.574 53.9853C171.667 54.0753 171.792 54.1256 171.922 54.1256H172.018C172.221 54.1256 172.405 54.0019 172.481 53.8129C172.557 53.6239 172.511 53.4075 172.365 53.2659L164.452 45.6247C164.359 45.5347 164.234 45.4844 164.105 45.4844H164.009Z" fill="#108E3A" stroke="#0AFB3F" stroke-linejoin="round"/>
<path d="M75.8028 153.8C75.7095 153.71 75.585 153.66 75.4554 153.66H45.0234C44.8196 153.66 44.6362 153.784 44.5598 153.973C44.4835 154.162 44.5295 154.378 44.6761 154.52L52.5888 162.161C52.6821 162.251 52.8066 162.301 52.9362 162.301H83.3682C83.572 162.301 83.7554 162.178 83.8318 161.989C83.9081 161.8 83.8621 161.583 83.7155 161.442L75.8028 153.8Z" fill="#108E3A" stroke="#0AFB3F" stroke-linejoin="round"/>
<path d="M149.764 67.1287C149.753 67.1184 149.742 67.1085 149.73 67.0992C149.397 66.8306 149.085 66.5551 148.793 66.2731C148.793 66.2731 148.793 66.2731 148.793 66.2731C148.594 66.0813 148.277 66.0869 148.086 66.2855C147.894 66.4842 147.899 66.8007 148.098 66.9925L148.098 66.9926L156.011 74.6337L156.011 74.6338C156.325 74.9372 156.66 75.2323 157.015 75.5188C157.224 75.6868 157.527 75.6611 157.704 75.4606C157.881 75.2601 157.869 74.9558 157.677 74.77L149.764 67.1287Z" fill="#108E3A" stroke="#0AFB3F" stroke-linejoin="round"/>
<path d="M134.214 78.2884C133.995 78.1603 133.716 78.2158 133.563 78.4175C133.41 78.6192 133.431 78.9035 133.614 79.0794L141.526 86.7206C141.555 86.7482 141.587 86.7723 141.621 86.7923C144.468 88.4612 148.172 89.7231 152.704 90.7838C152.923 90.8351 153.149 90.7337 153.257 90.5362C153.364 90.3387 153.327 90.0936 153.165 89.9373L145.252 82.2961C145.187 82.2334 145.107 82.1894 145.019 82.1689C140.527 81.1176 136.935 79.8835 134.214 78.2884Z" fill="#108E3A" stroke="#0AFB3F" stroke-linejoin="round"/>
<path d="M164.104 45.4844C163.901 45.4844 163.717 45.6081 163.641 45.7971C163.565 45.9861 163.611 46.2025 163.757 46.344L171.67 53.9853C171.763 54.0753 171.888 54.1256 172.017 54.1256C178.709 54.1256 183.453 55.2787 186.193 57.5617C186.4 57.7339 186.706 57.7118 186.885 57.5115C187.065 57.3113 187.054 57.0048 186.861 56.8179L178.948 49.1767C178.939 49.1682 178.93 49.1601 178.921 49.1523C175.9 46.6353 170.852 45.4844 164.104 45.4844Z" fill="#108E3A" stroke="#0AFB3F" stroke-linejoin="round"/>
<path d="M206.663 49.8764L206.668 49.8815L206.668 49.8814C206.867 50.0674 207.179 50.06 207.369 49.8633C207.559 49.6667 207.555 49.3548 207.363 49.1624L207.363 49.1624L207.356 49.1564L207.356 49.1563C207.355 49.1551 207.354 49.1538 207.353 49.1526L199.45 41.5211C199.45 41.5211 199.45 41.521 199.45 41.521C193.261 35.5418 182.548 32.6201 167.465 32.6201C167.261 32.6201 167.078 32.7438 167.001 32.9328C166.925 33.1218 166.971 33.3382 167.118 33.4798L175.03 41.121C175.123 41.211 175.248 41.2614 175.378 41.2614C190.383 41.2614 200.759 44.178 206.662 49.8758C206.662 49.876 206.662 49.8762 206.663 49.8764Z" fill="#108E3A" stroke="#0AFB3F" stroke-linejoin="round"/>
<path d="M57.2158 166.62C57.012 166.62 56.8286 166.744 56.7522 166.933C56.6759 167.122 56.7219 167.338 56.8685 167.48L64.7812 175.121C64.8744 175.211 64.999 175.261 65.1286 175.261H69.6406C69.8444 175.261 70.0278 175.138 70.1041 174.949C70.1805 174.76 70.1345 174.543 69.9879 174.402L62.0751 166.76C61.9819 166.67 61.8574 166.62 61.7278 166.62H57.2158Z" fill="#108E3A" stroke="#0AFB3F" stroke-linejoin="round"/>
<path d="M23.4238 193.308C23.22 193.308 23.0366 193.431 22.9602 193.62C22.8839 193.809 22.9299 194.026 23.0765 194.167L30.9892 201.809C31.0825 201.899 31.207 201.949 31.3366 201.949H54.2806C54.4844 201.949 54.6678 201.825 54.7442 201.636C54.8205 201.447 54.7745 201.231 54.6279 201.089L46.7152 193.448C46.6219 193.358 46.4974 193.308 46.3678 193.308H23.4238Z" fill="#108E3A" stroke="#0AFB3F" stroke-linejoin="round"/>
<path d="M164.355 70.8726C164.262 70.7826 164.138 70.7323 164.008 70.7323C157.226 70.7323 152.484 69.4853 149.743 67.1104C149.539 66.933 149.23 66.9509 149.047 67.1508C148.864 67.3506 148.874 67.6598 149.069 67.848L156.981 75.4892C156.988 75.4954 156.995 75.5015 157.001 75.5074C160.021 78.1245 165.071 79.3735 171.921 79.3735C172.125 79.3735 172.308 79.2498 172.384 79.0608C172.461 78.8718 172.415 78.6554 172.268 78.5139L164.355 70.8726Z" fill="#108E3A" stroke="#0AFB3F" stroke-linejoin="round"/>
<path d="M45.905 193.62C45.8281 193.809 45.8739 194.026 46.0208 194.168L53.9336 201.809C54.053 201.924 54.2219 201.973 54.3843 201.939C54.5468 201.904 54.6816 201.791 54.7441 201.638L65.5921 174.95C65.669 174.76 65.6231 174.544 65.4762 174.402L57.5635 166.76C57.4441 166.645 57.2752 166.597 57.1127 166.631C56.9503 166.665 56.8155 166.778 56.753 166.932L45.905 193.62Z" fill="#108E3A" stroke="#0AFB3F" stroke-linejoin="round"/>
<path d="M76.243 157.33C76.2692 157.392 76.3079 157.449 76.3567 157.496L84.2695 165.137C84.4402 165.302 84.7032 165.324 84.8991 165.19C85.095 165.056 85.1697 164.803 85.0779 164.584L83.8299 161.608C83.8036 161.545 83.7649 161.489 83.7161 161.442L75.8034 153.8C75.6327 153.636 75.3696 153.613 75.1737 153.747C74.9779 153.881 74.9032 154.135 74.995 154.354L76.243 157.33Z" fill="#108E3A" stroke="#0AFB3F" stroke-linejoin="round"/>
<path d="M178.907 49.1408C178.697 48.9782 178.396 49.0081 178.223 49.2089C178.049 49.4097 178.062 49.7113 178.253 49.8958L186.166 57.537C186.179 57.5497 186.193 57.5616 186.207 57.5727C186.59 57.8688 186.945 58.1755 187.273 58.4923C187.472 58.6841 187.788 58.6785 187.98 58.4799C188.172 58.2812 188.166 57.9647 187.968 57.7729L187.967 57.7728C187.967 57.7727 187.967 57.7726 187.967 57.7725L180.055 50.1317L180.055 50.1316C179.699 49.7884 179.316 49.458 178.907 49.1408Z" fill="#108E3A" stroke="#0AFB3F" stroke-linejoin="round"/>
<path d="M145.018 82.1694C144.799 82.1181 144.573 82.2195 144.465 82.417C144.358 82.6145 144.395 82.8596 144.557 83.0159L152.47 90.6572C152.535 90.7198 152.615 90.7638 152.703 90.7843C157.259 91.8505 162.578 92.4295 168.465 92.4295C168.669 92.4295 168.852 92.3058 168.929 92.1168C169.005 91.9278 168.959 91.7114 168.812 91.5698L160.9 83.9286C160.806 83.8386 160.682 83.7883 160.552 83.7883C154.728 83.7883 149.487 83.2152 145.018 82.1694Z" fill="#108E3A" stroke="#0AFB3F" stroke-linejoin="round"/>
<path d="M179.36 50.851L179.364 50.8551C179.364 50.8551 179.364 50.8552 179.364 50.8552C181.489 52.9083 182.516 55.4117 182.516 58.272C182.516 58.4077 182.571 58.5375 182.669 58.6317L190.582 66.2729C190.726 66.4123 190.94 66.4519 191.124 66.3735C191.309 66.2951 191.429 66.1139 191.429 65.9133C191.429 62.7834 190.293 60.0177 187.967 57.7727L180.059 50.1359L180.059 50.1358C180.059 50.1358 180.059 50.1358 180.059 50.1358L180.054 50.1315L180.054 50.1315C179.855 49.9441 179.542 49.9511 179.352 50.1481C179.161 50.3453 179.165 50.6587 179.36 50.8509L179.36 50.851Z" fill="#108E3A" stroke="#0AFB3F" stroke-linejoin="round"/>
<path d="M178.948 67.1286C178.762 66.9487 178.469 66.9408 178.273 67.1104C175.533 69.4853 170.791 70.7323 164.009 70.7323C163.805 70.7323 163.622 70.856 163.545 71.045C163.469 71.234 163.515 71.4504 163.661 71.592L171.574 79.2332C171.667 79.3232 171.792 79.3735 171.922 79.3735C178.772 79.3735 183.821 78.1245 186.841 75.5074C186.947 75.4155 187.01 75.2832 187.013 75.143C187.017 75.0027 186.962 74.8673 186.861 74.7699L178.948 67.1286Z" fill="#108E3A" stroke="#0AFB3F" stroke-linejoin="round"/>
<path d="M183.364 57.9118C183.22 57.7724 183.006 57.7328 182.821 57.8112C182.637 57.8896 182.517 58.0708 182.517 58.2715V58.7515C182.517 58.8871 182.572 59.0169 182.669 59.1112L190.582 66.7524C190.726 66.8918 190.94 66.9314 191.125 66.853C191.309 66.7746 191.429 66.5934 191.429 66.3927V65.9127C191.429 65.7771 191.374 65.6473 191.277 65.5531L183.364 57.9118Z" fill="#108E3A" stroke="#0AFB3F" stroke-linejoin="round"/>
<path d="M62.0758 166.76C61.9059 166.596 61.6442 166.574 61.4485 166.706C61.2527 166.838 61.1763 167.09 61.2653 167.308L72.1133 193.996C72.1396 194.061 72.179 194.119 72.2292 194.168L80.1419 201.809C80.3119 201.973 80.5735 201.996 80.7693 201.864C80.965 201.731 81.0414 201.48 80.9525 201.261L70.1045 174.573C70.0782 174.508 70.0387 174.45 69.9886 174.402L62.0758 166.76Z" fill="#108E3A" stroke="#0AFB3F" stroke-linejoin="round"/>
<path d="M83.8234 176.424C83.8496 176.49 83.8896 176.55 83.9408 176.599L91.8535 184.241C92.0229 184.404 92.2835 184.427 92.4792 184.296C92.6748 184.165 92.7525 183.915 92.6656 183.697L85.0816 164.592C85.0553 164.526 85.0153 164.467 84.9642 164.417L77.0514 156.776C76.882 156.612 76.6214 156.589 76.4258 156.72C76.2301 156.851 76.1525 157.101 76.2394 157.32L83.8234 176.424Z" fill="#108E3A" stroke="#0AFB3F" stroke-linejoin="round"/>
<path d="M183.364 58.3923C183.22 58.2529 183.006 58.2133 182.821 58.2917C182.637 58.3701 182.517 58.5513 182.517 58.752C182.517 61.948 181.155 64.7854 178.287 67.0987C178.175 67.1888 178.107 67.3224 178.101 67.4656C178.095 67.6089 178.15 67.748 178.253 67.8476L186.166 75.4889C186.347 75.6641 186.631 75.6767 186.827 75.5184C189.911 73.0318 191.429 69.9172 191.429 66.3932C191.429 66.2576 191.374 66.1277 191.277 66.0335L183.364 58.3923Z" fill="#108E3A" stroke="#0AFB3F" stroke-linejoin="round"/>
<path d="M96.4434 144.584C96.3224 144.467 96.1507 144.419 95.9865 144.456C95.8223 144.492 95.6877 144.609 95.6283 144.767L83.8203 176.063C83.7498 176.25 83.7972 176.46 83.9408 176.599L91.8535 184.24C91.9745 184.357 92.1463 184.405 92.3104 184.368C92.4746 184.332 92.6092 184.215 92.6686 184.057L104.477 152.761C104.547 152.574 104.5 152.364 104.356 152.225L96.4434 144.584Z" fill="#108E3A" stroke="#0AFB3F" stroke-linejoin="round"/>
<path d="M160.553 83.7881C160.349 83.7881 160.165 83.9118 160.089 84.1008C160.013 84.2898 160.059 84.5062 160.205 84.6478L168.118 92.289C168.211 92.379 168.336 92.4293 168.465 92.4293H175.377C175.581 92.4293 175.765 92.3056 175.841 92.1166C175.917 91.9277 175.871 91.7112 175.725 91.5697L167.812 83.9284C167.719 83.8384 167.594 83.7881 167.465 83.7881H160.553Z" fill="#108E3A" stroke="#0AFB3F" stroke-linejoin="round"/>
<path d="M117.179 144.584C117.086 144.494 116.961 144.443 116.832 144.443H96.0957C95.8919 144.443 95.7085 144.567 95.6321 144.756C95.5558 144.945 95.6018 145.161 95.7484 145.303L103.661 152.944C103.754 153.034 103.879 153.085 104.008 153.085H124.744C124.948 153.085 125.132 152.961 125.208 152.772C125.284 152.583 125.238 152.367 125.092 152.225L117.179 144.584Z" fill="#108E3A" stroke="#0AFB3F" stroke-linejoin="round"/>
<path d="M204.692 57.6003C204.692 57.7359 204.747 57.8657 204.845 57.96L212.757 65.6012C212.902 65.7406 213.115 65.7802 213.3 65.7018C213.485 65.6234 213.605 65.4422 213.605 65.2415C213.605 58.5727 211.535 53.1946 207.362 49.1625L207.362 49.1624L199.449 41.5213L199.449 41.5212C199.25 41.3294 198.934 41.3349 198.742 41.5335C198.55 41.7321 198.556 42.0486 198.754 42.2405C198.754 42.2405 198.754 42.2405 198.754 42.2405C202.701 46.0535 204.692 51.1551 204.692 57.6003Z" fill="#108E3A" stroke="#0AFB3F" stroke-linejoin="round"/>
<path d="M167.465 83.7874C167.261 83.7874 167.078 83.9112 167.001 84.1001C166.925 84.2891 166.971 84.5055 167.118 84.6471L175.03 92.2884C175.123 92.3784 175.248 92.4287 175.378 92.4287C187.993 92.4287 197.542 90.337 203.95 86.0812C210.394 81.8015 213.606 75.3712 213.606 66.8727C213.606 66.7371 213.55 66.6072 213.453 66.513L205.54 58.8718C205.396 58.7324 205.182 58.6928 204.997 58.7712C204.813 58.8496 204.693 59.0308 204.693 59.2314C204.693 67.437 201.616 73.5346 195.484 77.6069C189.316 81.7031 180.001 83.7874 167.465 83.7874Z" fill="#108E3A" stroke="#0AFB3F" stroke-linejoin="round"/>
<path d="M204.692 59.2316C204.692 59.3672 204.747 59.4971 204.845 59.5913L212.758 67.2325C212.902 67.3719 213.116 67.4115 213.3 67.3331C213.485 67.2547 213.605 67.0735 213.605 66.8729V65.2409C213.605 65.1052 213.55 64.9754 213.452 64.8812L205.54 57.2399C205.395 57.1006 205.182 57.061 204.997 57.1394C204.812 57.2178 204.692 57.399 204.692 57.5996V59.2316Z" fill="#108E3A" stroke="#0AFB3F" stroke-linejoin="round"/>
<path d="M246.422 34.5837C246.328 34.4937 246.204 34.4434 246.074 34.4434H223.034C222.83 34.4434 222.647 34.5671 222.571 34.7561C222.494 34.945 222.54 35.1614 222.687 35.303L230.6 42.9443C230.693 43.0343 230.817 43.0846 230.947 43.0846H253.987C254.191 43.0846 254.374 42.9609 254.451 42.7719C254.527 42.5829 254.481 42.3665 254.334 42.2249L246.422 34.5837Z" fill="#108E3A" stroke="#0AFB3F" stroke-linejoin="round"/>
<path d="M95.6354 193.612C95.5546 193.803 95.5995 194.023 95.7484 194.167L103.661 201.808C103.78 201.923 103.947 201.971 104.108 201.939C104.27 201.906 104.404 201.796 104.469 201.644L125.205 152.78C125.286 152.589 125.241 152.369 125.092 152.225L117.179 144.584C117.061 144.469 116.893 144.421 116.732 144.453C116.571 144.486 116.436 144.596 116.371 144.748L95.6354 193.612Z" fill="#108E3A" stroke="#0AFB3F" stroke-linejoin="round"/>
<path d="M72.5762 193.308C72.3724 193.308 72.1889 193.431 72.1126 193.62C72.0362 193.809 72.0822 194.026 72.2288 194.167L80.1416 201.809C80.2348 201.899 80.3593 201.949 80.4889 201.949H104.009C104.213 201.949 104.396 201.825 104.473 201.636C104.549 201.447 104.503 201.231 104.356 201.089L96.4435 193.448C96.3503 193.358 96.2258 193.308 96.0962 193.308H72.5762Z" fill="#108E3A" stroke="#0AFB3F" stroke-linejoin="round"/>
<path d="M146.118 148.136C145.957 147.981 145.711 147.951 145.518 148.065C142.692 149.721 140.428 151.586 138.651 153.956C138.499 154.158 138.522 154.441 138.703 154.616L146.616 162.257C146.719 162.357 146.86 162.407 147.003 162.396C147.146 162.384 147.277 162.312 147.364 162.197C149.042 159.959 151.194 158.176 153.936 156.569C154.071 156.49 154.161 156.352 154.18 156.197C154.199 156.041 154.143 155.886 154.031 155.778L146.118 148.136Z" fill="#108E3A" stroke="#0AFB3F" stroke-linejoin="round"/>
<path d="M139.398 153.896C139.296 153.798 139.158 153.747 139.016 153.757C138.875 153.767 138.745 153.836 138.657 153.948C136.9 156.194 135.714 158.36 135.021 160.638C134.966 160.818 135.017 161.013 135.152 161.144L143.064 168.785C143.19 168.906 143.369 168.953 143.537 168.909C143.706 168.865 143.839 168.737 143.89 168.571C144.541 166.433 145.659 164.375 147.358 162.205C147.515 162.004 147.495 161.715 147.311 161.537L139.398 153.896Z" fill="#108E3A" stroke="#0AFB3F" stroke-linejoin="round"/>
<path d="M223.382 34.5837C223.209 34.4169 222.942 34.3964 222.746 34.5348C222.55 34.6732 222.48 34.9314 222.579 35.15L244.755 84.014C244.781 84.0714 244.818 84.1233 244.863 84.167L252.776 91.8083C252.948 91.975 253.215 91.9955 253.411 91.8572C253.607 91.7188 253.677 91.4605 253.578 91.242L231.402 42.378C231.376 42.3206 231.34 42.2687 231.294 42.2249L223.382 34.5837Z" fill="#108E3A" stroke="#0AFB3F" stroke-linejoin="round"/>
<path d="M157.063 144.297C156.943 144.181 156.774 144.133 156.611 144.167C152.072 145.133 148.367 146.395 145.519 148.065C145.384 148.144 145.294 148.282 145.275 148.437C145.256 148.592 145.312 148.747 145.424 148.856L153.337 156.497C153.498 156.653 153.744 156.682 153.937 156.569C156.657 154.974 160.247 153.741 164.732 152.787C164.913 152.748 165.058 152.613 165.109 152.435C165.16 152.258 165.109 152.066 164.976 151.938L157.063 144.297Z" fill="#108E3A" stroke="#0AFB3F" stroke-linejoin="round"/>
<path d="M135.846 160.425C135.721 160.304 135.542 160.256 135.374 160.3C135.205 160.344 135.071 160.472 135.021 160.639C134.332 162.9 134.039 165.158 134.039 167.6C134.039 167.736 134.094 167.866 134.192 167.96L142.104 175.601C142.249 175.74 142.462 175.78 142.647 175.702C142.832 175.623 142.952 175.442 142.952 175.241C142.952 172.884 143.234 170.725 143.89 168.571C143.945 168.391 143.894 168.196 143.759 168.066L135.846 160.425Z" fill="#108E3A" stroke="#0AFB3F" stroke-linejoin="round"/>
<path d="M134.886 167.24C134.742 167.101 134.528 167.061 134.344 167.139C134.159 167.218 134.039 167.399 134.039 167.6V169.232C134.039 169.367 134.094 169.497 134.192 169.591L142.104 177.233C142.249 177.372 142.462 177.412 142.647 177.333C142.832 177.255 142.952 177.073 142.952 176.873V175.241C142.952 175.105 142.897 174.975 142.799 174.881L134.886 167.24Z" fill="#108E3A" stroke="#0AFB3F" stroke-linejoin="round"/>
<path d="M257.8 66.4209C257.827 66.4881 257.867 66.5489 257.919 66.599L265.832 74.2403C266.001 74.4035 266.26 74.427 266.456 74.2969C266.652 74.1667 266.73 73.918 266.645 73.6991L254.453 42.4031C254.427 42.3359 254.386 42.2751 254.334 42.2249L246.422 34.5837C246.253 34.4205 245.993 34.397 245.797 34.5271C245.602 34.6572 245.523 34.906 245.608 35.1249L257.8 66.4209Z" fill="#108E3A" stroke="#0AFB3F" stroke-linejoin="round"/>
<path d="M134.886 168.872C134.742 168.732 134.528 168.693 134.344 168.771C134.159 168.85 134.039 169.031 134.039 169.231C134.039 171.672 134.332 174.026 135.021 176.289C135.045 176.37 135.091 176.444 135.152 176.503L143.064 184.144C143.228 184.303 143.478 184.33 143.673 184.211C143.867 184.092 143.956 183.857 143.89 183.639C143.235 181.486 142.952 179.233 142.952 176.873C142.952 176.737 142.897 176.607 142.799 176.513L134.886 168.872Z" fill="#108E3A" stroke="#0AFB3F" stroke-linejoin="round"/>
<path d="M172.71 142.76C172.617 142.67 172.492 142.62 172.363 142.62C166.482 142.62 161.162 143.102 156.601 144.169C156.423 144.211 156.281 144.347 156.233 144.523C156.184 144.7 156.236 144.889 156.368 145.016L164.28 152.657C164.402 152.775 164.576 152.823 164.742 152.784C169.205 151.74 174.444 151.261 180.276 151.261C180.479 151.261 180.663 151.138 180.739 150.949C180.816 150.76 180.77 150.543 180.623 150.402L172.71 142.76Z" fill="#108E3A" stroke="#0AFB3F" stroke-linejoin="round"/>
<path d="M135.846 175.784C135.682 175.626 135.432 175.598 135.238 175.717C135.044 175.836 134.954 176.071 135.021 176.289C135.713 178.564 136.897 180.827 138.755 183.174C138.769 183.191 138.784 183.208 138.8 183.223L146.712 190.864C146.902 191.047 147.2 191.052 147.396 190.875C147.591 190.699 147.615 190.401 147.452 190.194C145.662 187.934 144.542 185.781 143.89 183.639C143.865 183.558 143.82 183.484 143.759 183.425L135.846 175.784Z" fill="#108E3A" stroke="#0AFB3F" stroke-linejoin="round"/>
<path d="M267.158 43.8005C267.037 43.684 266.866 43.6357 266.703 43.672C266.539 43.7082 266.404 43.8241 266.344 43.9807L264.424 48.9727C264.352 49.1601 264.399 49.3724 264.543 49.5118L272.456 57.1531C272.577 57.2696 272.748 57.3178 272.911 57.2816C273.075 57.2453 273.21 57.1294 273.27 56.9729L275.19 51.9809C275.262 51.7935 275.215 51.5812 275.071 51.4417L267.158 43.8005Z" fill="#108E3A" stroke="#0AFB3F" stroke-linejoin="round"/>
<path d="M179.719 142.76C179.625 142.67 179.501 142.62 179.371 142.62H172.363C172.159 142.62 171.976 142.744 171.9 142.933C171.823 143.122 171.869 143.338 172.016 143.48L179.929 151.121C180.022 151.211 180.146 151.261 180.276 151.261H187.284C187.488 151.261 187.671 151.138 187.748 150.949C187.824 150.76 187.778 150.543 187.631 150.402L179.719 142.76Z" fill="#108E3A" stroke="#0AFB3F" stroke-linejoin="round"/>
<path d="M265.237 48.7927C265.117 48.6763 264.946 48.628 264.782 48.664C264.619 48.7 264.484 48.8155 264.423 48.9716L257.799 66.0596C257.727 66.2473 257.774 66.4602 257.918 66.6L265.831 74.2413C265.952 74.3576 266.122 74.4059 266.286 74.3699C266.449 74.3339 266.584 74.2185 266.645 74.0623L273.269 56.9743C273.341 56.7867 273.294 56.5737 273.15 56.4339L265.237 48.7927Z" fill="#108E3A" stroke="#0AFB3F" stroke-linejoin="round"/>
<path d="M156.406 168.271C156.406 168.407 156.461 168.537 156.559 168.631L164.472 176.272C164.616 176.412 164.83 176.451 165.014 176.373C165.199 176.295 165.319 176.113 165.319 175.913C165.319 172.517 166.687 169.683 169.451 167.471C169.564 167.381 169.632 167.248 169.638 167.104C169.645 166.96 169.59 166.821 169.486 166.721L161.574 159.08C161.393 158.905 161.11 158.892 160.914 159.049C157.919 161.445 156.406 164.563 156.406 168.271Z" fill="#108E3A" stroke="#0AFB3F" stroke-linejoin="round"/>
<path d="M139.494 182.504C139.305 182.321 139.007 182.316 138.812 182.492C138.617 182.668 138.591 182.965 138.753 183.171C139.418 184.022 140.154 184.844 140.964 185.629L140.964 185.629L148.877 193.27L148.877 193.27C149.076 193.462 149.392 193.457 149.584 193.258C149.776 193.06 149.771 192.743 149.572 192.551C148.796 191.8 148.091 191.012 147.453 190.196C147.439 190.178 147.423 190.161 147.407 190.145L139.494 182.504Z" fill="#108E3A" stroke="#0AFB3F" stroke-linejoin="round"/>
<path d="M156.406 168.751C156.406 168.887 156.461 169.017 156.559 169.111L164.472 176.752C164.616 176.892 164.83 176.931 165.014 176.853C165.199 176.775 165.319 176.593 165.319 176.393V175.913C165.319 175.777 165.264 175.647 165.166 175.553L157.254 167.912C157.109 167.772 156.896 167.733 156.711 167.811C156.526 167.89 156.406 168.071 156.406 168.271V168.751Z" fill="#108E3A" stroke="#0AFB3F" stroke-linejoin="round"/>
<path d="M160.914 159.05C160.802 159.14 160.734 159.273 160.727 159.417C160.72 159.561 160.776 159.7 160.879 159.8L168.792 167.441C168.973 167.616 169.255 167.629 169.452 167.472C172.193 165.279 176.943 164.126 183.827 164.126C184.031 164.126 184.215 164.002 184.291 163.813C184.367 163.624 184.321 163.408 184.175 163.266L176.262 155.625C176.169 155.535 176.044 155.484 175.915 155.484C168.975 155.484 163.933 156.635 160.914 159.05Z" fill="#108E3A" stroke="#0AFB3F" stroke-linejoin="round"/>
<path d="M141.66 184.91C141.461 184.718 141.145 184.724 140.953 184.922C140.761 185.12 140.766 185.437 140.965 185.629L140.965 185.629L141 185.663L141.001 185.664L148.878 193.27C150.216 194.565 151.758 195.755 153.527 196.792C153.745 196.92 154.025 196.864 154.178 196.663C154.331 196.461 154.309 196.177 154.127 196.001L146.214 188.36C146.186 188.332 146.154 188.308 146.12 188.288C144.436 187.301 142.969 186.171 141.695 184.944L141.66 184.91L141.66 184.91Z" fill="#108E3A" stroke="#0AFB3F" stroke-linejoin="round"/>
<path d="M297.59 43.8005C297.497 43.7105 297.372 43.6602 297.243 43.6602H266.811C266.607 43.6602 266.423 43.7839 266.347 43.9729C266.271 44.1618 266.317 44.3782 266.463 44.5198L274.376 52.1611C274.469 52.2511 274.594 52.3014 274.723 52.3014H305.155C305.359 52.3014 305.543 52.1777 305.619 51.9887C305.695 51.7997 305.649 51.5833 305.503 51.4417L297.59 43.8005Z" fill="#108E3A" stroke="#0AFB3F" stroke-linejoin="round"/>
<path d="M167.911 184.628L167.911 184.628C167.911 184.628 167.911 184.628 167.911 184.628L167.917 184.633L167.917 184.633C168.116 184.82 168.428 184.813 168.618 184.616C168.809 184.419 168.805 184.106 168.611 183.914L168.611 183.914L168.606 183.909C168.606 183.909 168.606 183.909 168.606 183.909C168.606 183.909 168.606 183.909 168.605 183.908C166.384 181.762 165.319 179.221 165.319 176.393C165.319 176.258 165.264 176.128 165.166 176.034L157.254 168.392C157.109 168.253 156.896 168.213 156.711 168.292C156.526 168.37 156.406 168.551 156.406 168.752C156.406 171.864 157.591 174.664 160.004 176.992L167.911 184.628Z" fill="#108E3A" stroke="#0AFB3F" stroke-linejoin="round"/>
<path d="M175.915 155.484C175.711 155.484 175.528 155.608 175.451 155.797C175.375 155.986 175.421 156.202 175.568 156.344L183.48 163.985C183.574 164.075 183.698 164.126 183.828 164.126H183.924C184.128 164.126 184.311 164.002 184.387 163.813C184.464 163.624 184.418 163.408 184.271 163.266L176.358 155.625C176.265 155.535 176.141 155.484 176.011 155.484H175.915Z" fill="#108E3A" stroke="#0AFB3F" stroke-linejoin="round"/>
<path d="M161.67 177.129C161.659 177.118 161.648 177.109 161.637 177.099C161.303 176.831 160.991 176.555 160.699 176.273C160.699 176.273 160.699 176.273 160.699 176.273C160.5 176.081 160.184 176.087 159.992 176.286C159.8 176.484 159.806 176.801 160.004 176.992L160.004 176.993L167.917 184.634L167.917 184.634C168.231 184.937 168.566 185.232 168.922 185.519C169.13 185.687 169.433 185.661 169.61 185.461C169.787 185.26 169.775 184.956 169.583 184.77L161.67 177.129Z" fill="#108E3A" stroke="#0AFB3F" stroke-linejoin="round"/>
<path d="M146.12 188.288C145.902 188.16 145.622 188.216 145.469 188.417C145.316 188.619 145.338 188.904 145.52 189.079L153.433 196.721C153.461 196.748 153.493 196.772 153.527 196.792C156.374 198.461 160.078 199.723 164.61 200.784C164.829 200.835 165.055 200.734 165.163 200.536C165.271 200.339 165.233 200.094 165.071 199.937L157.159 192.296C157.094 192.233 157.013 192.189 156.925 192.169C152.433 191.118 148.841 189.884 146.12 188.288Z" fill="#108E3A" stroke="#0AFB3F" stroke-linejoin="round"/>
<path d="M176.011 155.484C175.807 155.484 175.624 155.608 175.547 155.797C175.471 155.986 175.517 156.202 175.663 156.344L183.576 163.985C183.669 164.075 183.794 164.126 183.923 164.126C190.616 164.126 195.36 165.279 198.099 167.562C198.306 167.734 198.612 167.712 198.792 167.512C198.971 167.311 198.96 167.005 198.767 166.818L190.854 159.177C190.845 159.168 190.836 159.16 190.827 159.152C187.807 156.635 182.759 155.484 176.011 155.484Z" fill="#108E3A" stroke="#0AFB3F" stroke-linejoin="round"/>
<path d="M279.002 56.6201C278.798 56.6201 278.615 56.7438 278.538 56.9328C278.462 57.1218 278.508 57.3382 278.655 57.4798L286.567 65.121C286.661 65.211 286.785 65.2614 286.915 65.2614H291.427C291.631 65.2614 291.814 65.1376 291.89 64.9487C291.967 64.7597 291.921 64.5433 291.774 64.4017L283.861 56.7604C283.768 56.6704 283.644 56.6201 283.514 56.6201H279.002Z" fill="#108E3A" stroke="#0AFB3F" stroke-linejoin="round"/>
<path d="M245.211 83.3076C245.007 83.3076 244.824 83.4313 244.747 83.6203C244.671 83.8093 244.717 84.0257 244.864 84.1673L252.776 91.8085C252.87 91.8985 252.994 91.9489 253.124 91.9489H276.068C276.271 91.9489 276.455 91.8251 276.531 91.6362C276.608 91.4472 276.562 91.2308 276.415 91.0892L268.502 83.4479C268.409 83.3579 268.285 83.3076 268.155 83.3076H245.211Z" fill="#108E3A" stroke="#0AFB3F" stroke-linejoin="round"/>
<path d="M218.571 159.879L218.574 159.882L218.574 159.881C218.773 160.067 219.085 160.06 219.275 159.863C219.465 159.667 219.461 159.355 219.269 159.162L219.269 159.162L219.266 159.159L219.263 159.157C219.263 159.157 219.263 159.157 219.263 159.156C219.263 159.156 219.263 159.156 219.263 159.156L219.263 159.156C219.261 159.155 219.26 159.154 219.259 159.153L211.356 151.521C211.356 151.521 211.356 151.521 211.356 151.521C205.167 145.542 194.454 142.62 179.371 142.62C179.167 142.62 178.984 142.744 178.908 142.933C178.831 143.122 178.877 143.338 179.024 143.48L186.937 151.121C187.03 151.211 187.154 151.261 187.284 151.261C202.289 151.261 212.665 154.178 218.568 159.876C218.568 159.876 218.569 159.876 218.569 159.876L218.571 159.879Z" fill="#108E3A" stroke="#0AFB3F" stroke-linejoin="round"/>
<path d="M267.691 83.6198C267.614 83.809 267.66 84.0259 267.807 84.1678L275.72 91.809C275.839 91.9244 276.008 91.9729 276.17 91.9385C276.333 91.9042 276.468 91.7915 276.53 91.6376L287.378 64.9496C287.455 64.7605 287.409 64.5435 287.262 64.4017L279.35 56.7604C279.23 56.6451 279.061 56.5966 278.899 56.6309C278.736 56.6653 278.602 56.778 278.539 56.9318L267.691 83.6198Z" fill="#108E3A" stroke="#0AFB3F" stroke-linejoin="round"/>
<path d="M176.262 180.873C176.168 180.783 176.044 180.732 175.914 180.732C169.132 180.732 164.39 179.485 161.65 177.11C161.445 176.933 161.136 176.951 160.953 177.151C160.771 177.351 160.78 177.66 160.975 177.848L168.888 185.489C168.894 185.495 168.901 185.501 168.908 185.507C171.927 188.125 176.977 189.374 183.827 189.374C184.031 189.374 184.214 189.25 184.291 189.061C184.367 188.872 184.321 188.655 184.174 188.514L176.262 180.873Z" fill="#108E3A" stroke="#0AFB3F" stroke-linejoin="round"/>
<path d="M298.029 47.3295C298.055 47.3921 298.094 47.4487 298.143 47.4958L306.056 55.1371C306.226 55.3019 306.489 55.3241 306.685 55.1901C306.881 55.0561 306.956 54.8029 306.864 54.584L305.616 51.608C305.59 51.5455 305.551 51.4889 305.502 51.4417L297.59 43.8005C297.419 43.6356 297.156 43.6135 296.96 43.7475C296.764 43.8815 296.689 44.1347 296.781 44.3535L298.029 47.3295Z" fill="#108E3A" stroke="#0AFB3F" stroke-linejoin="round"/>
<path d="M190.813 159.141C190.603 158.978 190.303 159.008 190.129 159.209C189.955 159.41 189.968 159.711 190.16 159.896L198.072 167.537C198.085 167.55 198.099 167.562 198.113 167.573C198.496 167.869 198.851 168.175 199.179 168.492C199.378 168.684 199.694 168.679 199.886 168.48C200.078 168.281 200.072 167.965 199.874 167.773L199.874 167.773C199.874 167.773 199.873 167.773 199.873 167.772L191.961 160.132L191.961 160.132C191.605 159.788 191.223 159.458 190.813 159.141Z" fill="#108E3A" stroke="#0AFB3F" stroke-linejoin="round"/>
<path d="M156.924 192.169C156.705 192.118 156.479 192.219 156.371 192.417C156.264 192.615 156.301 192.86 156.463 193.016L164.376 200.657C164.441 200.72 164.521 200.764 164.609 200.784C169.165 201.851 174.484 202.429 180.371 202.429C180.575 202.429 180.759 202.306 180.835 202.117C180.911 201.928 180.865 201.711 180.719 201.57L172.806 193.929C172.713 193.839 172.588 193.788 172.459 193.788C166.634 193.788 161.393 193.215 156.924 192.169Z" fill="#108E3A" stroke="#0AFB3F" stroke-linejoin="round"/>
<path d="M191.266 160.851L191.27 160.855C191.27 160.855 191.27 160.855 191.27 160.855C193.395 162.908 194.422 165.412 194.422 168.272C194.422 168.408 194.478 168.537 194.575 168.632L202.488 176.273C202.632 176.412 202.846 176.452 203.031 176.373C203.215 176.295 203.335 176.114 203.335 175.913C203.335 172.783 202.199 170.018 199.873 167.773L191.965 160.136L191.965 160.136C191.965 160.136 191.965 160.136 191.965 160.136L191.961 160.131L191.96 160.131C191.762 159.944 191.448 159.951 191.258 160.148C191.068 160.345 191.072 160.659 191.266 160.851L191.266 160.851Z" fill="#108E3A" stroke="#0AFB3F" stroke-linejoin="round"/>
<path d="M190.854 177.129C190.668 176.949 190.375 176.941 190.18 177.11C187.439 179.485 182.697 180.732 175.915 180.732C175.711 180.732 175.528 180.856 175.451 181.045C175.375 181.234 175.421 181.45 175.568 181.592L183.48 189.233C183.574 189.323 183.698 189.374 183.828 189.374C190.678 189.374 195.727 188.125 198.747 185.507C198.853 185.415 198.916 185.283 198.92 185.143C198.923 185.003 198.868 184.867 198.767 184.77L190.854 177.129Z" fill="#108E3A" stroke="#0AFB3F" stroke-linejoin="round"/>
<path d="M283.861 56.7604C283.691 56.5963 283.429 56.5736 283.234 56.7059C283.038 56.8382 282.962 57.0895 283.05 57.3084L293.898 83.9964C293.925 84.061 293.964 84.1194 294.014 84.1678L301.927 91.809C302.097 91.9732 302.359 91.9959 302.554 91.8636C302.75 91.7313 302.827 91.48 302.738 91.2611L291.89 64.5731C291.863 64.5085 291.824 64.4501 291.774 64.4017L283.861 56.7604Z" fill="#108E3A" stroke="#0AFB3F" stroke-linejoin="round"/>
<path d="M305.61 66.4242C305.636 66.4903 305.676 66.55 305.727 66.5994L313.64 74.2407C313.809 74.4043 314.07 74.4275 314.265 74.2963C314.461 74.1652 314.539 73.9154 314.452 73.6965L306.868 54.5925C306.841 54.5264 306.801 54.4667 306.75 54.4173L298.838 46.7761C298.668 46.6125 298.408 46.5893 298.212 46.7204C298.016 46.8515 297.939 47.1013 298.026 47.3202L305.61 66.4242Z" fill="#108E3A" stroke="#0AFB3F" stroke-linejoin="round"/>
<path d="M195.27 167.912C195.126 167.772 194.912 167.733 194.727 167.811C194.543 167.89 194.423 168.071 194.423 168.271V168.751C194.423 168.887 194.478 169.017 194.576 169.111L202.488 176.752C202.633 176.892 202.846 176.931 203.031 176.853C203.216 176.775 203.336 176.593 203.336 176.393V175.913C203.336 175.777 203.28 175.647 203.183 175.553L195.27 167.912Z" fill="#108E3A" stroke="#0AFB3F" stroke-linejoin="round"/>
<path d="M195.27 168.392C195.126 168.253 194.912 168.213 194.727 168.292C194.543 168.37 194.423 168.551 194.423 168.752C194.423 171.948 193.062 174.785 190.193 177.099C190.081 177.189 190.014 177.322 190.007 177.466C190.001 177.609 190.056 177.748 190.16 177.848L198.072 185.489C198.254 185.664 198.537 185.677 198.733 185.518C201.817 183.032 203.336 179.917 203.336 176.393C203.336 176.258 203.28 176.128 203.183 176.034L195.27 168.392Z" fill="#108E3A" stroke="#0AFB3F" stroke-linejoin="round"/>
<path d="M318.23 34.5837C318.108 34.4668 317.937 34.4186 317.773 34.4555C317.608 34.4924 317.474 34.6094 317.414 34.7669L305.606 66.0629C305.536 66.2496 305.583 66.4604 305.727 66.599L313.64 74.2403C313.761 74.3572 313.932 74.4053 314.097 74.3684C314.261 74.3315 314.395 74.2145 314.455 74.0571L326.263 42.7611C326.333 42.5744 326.286 42.3636 326.142 42.2249L318.23 34.5837Z" fill="#108E3A" stroke="#0AFB3F" stroke-linejoin="round"/>
<path d="M338.966 34.5837C338.873 34.4937 338.748 34.4434 338.619 34.4434H317.883C317.679 34.4434 317.496 34.5671 317.419 34.7561C317.343 34.945 317.389 35.1614 317.535 35.303L325.448 42.9443C325.541 43.0343 325.666 43.0846 325.796 43.0846H346.532C346.735 43.0846 346.919 42.9609 346.995 42.7719C347.072 42.5829 347.026 42.3665 346.879 42.2249L338.966 34.5837Z" fill="#108E3A" stroke="#0AFB3F" stroke-linejoin="round"/>
<path d="M172.459 193.788C172.255 193.788 172.072 193.912 171.995 194.101C171.919 194.29 171.965 194.506 172.112 194.648L180.024 202.289C180.118 202.379 180.242 202.429 180.372 202.429H187.284C187.488 202.429 187.671 202.306 187.747 202.117C187.824 201.928 187.778 201.711 187.631 201.57L179.718 193.928C179.625 193.838 179.501 193.788 179.371 193.788H172.459Z" fill="#108E3A" stroke="#0AFB3F" stroke-linejoin="round"/>
<path d="M216.598 167.6C216.598 167.736 216.653 167.866 216.751 167.96L224.664 175.601C224.808 175.741 225.022 175.78 225.206 175.702C225.391 175.623 225.511 175.442 225.511 175.242C225.511 168.573 223.442 163.195 219.268 159.163L219.268 159.162L211.355 151.521L211.355 151.521C211.157 151.329 210.84 151.335 210.648 151.533C210.456 151.732 210.462 152.049 210.66 152.24C210.66 152.24 210.66 152.241 210.66 152.241C214.607 156.054 216.598 161.155 216.598 167.6Z" fill="#108E3A" stroke="#0AFB3F" stroke-linejoin="round"/>
<path d="M179.371 193.787C179.167 193.787 178.984 193.911 178.908 194.1C178.831 194.289 178.877 194.506 179.024 194.647L186.937 202.288C187.03 202.378 187.154 202.429 187.284 202.429C199.899 202.429 209.448 200.337 215.856 196.081C222.301 191.801 225.512 185.371 225.512 176.873C225.512 176.737 225.457 176.607 225.359 176.513L217.446 168.872C217.302 168.732 217.088 168.693 216.904 168.771C216.719 168.85 216.599 169.031 216.599 169.231C216.599 177.437 213.522 183.535 207.39 187.607C201.223 191.703 191.908 193.787 179.371 193.787Z" fill="#108E3A" stroke="#0AFB3F" stroke-linejoin="round"/>
<path d="M216.599 169.232C216.599 169.367 216.654 169.497 216.751 169.591L224.664 177.233C224.808 177.372 225.022 177.412 225.207 177.333C225.391 177.255 225.511 177.073 225.511 176.873V175.241C225.511 175.105 225.456 174.975 225.359 174.881L217.446 167.24C217.302 167.101 217.088 167.061 216.903 167.139C216.719 167.218 216.599 167.399 216.599 167.6V169.232Z" fill="#108E3A" stroke="#0AFB3F" stroke-linejoin="round"/>
<path d="M317.423 83.612C317.342 83.8026 317.387 84.0232 317.535 84.167L325.448 91.8083C325.567 91.9227 325.734 91.9714 325.895 91.9386C326.057 91.9057 326.191 91.7955 326.256 91.6439L346.992 42.7799C347.073 42.5894 347.028 42.3687 346.879 42.2249L338.966 34.5837C338.848 34.4693 338.681 34.4206 338.519 34.4534C338.358 34.4862 338.223 34.5964 338.159 34.748L317.423 83.612Z" fill="#108E3A" stroke="#0AFB3F" stroke-linejoin="round"/>
<path d="M294.362 83.3076C294.158 83.3076 293.975 83.4313 293.899 83.6203C293.822 83.8093 293.868 84.0257 294.015 84.1673L301.928 91.8085C302.021 91.8985 302.145 91.9489 302.275 91.9489H325.795C325.999 91.9489 326.182 91.8251 326.259 91.6362C326.335 91.4472 326.289 91.2308 326.142 91.0892L318.23 83.4479C318.136 83.3579 318.012 83.3076 317.882 83.3076H294.362Z" fill="#108E3A" stroke="#0AFB3F" stroke-linejoin="round"/>
<path d="M259.383 143.625C259.29 143.535 259.165 143.484 259.036 143.484H238.588C238.384 143.484 238.201 143.608 238.124 143.797C238.048 143.986 238.094 144.202 238.241 144.344L246.153 151.985C246.247 152.075 246.371 152.126 246.501 152.126H266.949C267.152 152.126 267.336 152.002 267.412 151.813C267.489 151.624 267.443 151.408 267.296 151.266L259.383 143.625Z" fill="#108E3A" stroke="#0AFB3F" stroke-linejoin="round"/>
<path d="M238.935 143.625C238.791 143.485 238.577 143.446 238.393 143.524C238.208 143.603 238.088 143.784 238.088 143.984V193.52C238.088 193.656 238.143 193.786 238.241 193.88L246.153 201.521C246.298 201.661 246.511 201.7 246.696 201.622C246.881 201.543 247.001 201.362 247.001 201.162V151.626C247.001 151.49 246.946 151.36 246.848 151.266L238.935 143.625Z" fill="#108E3A" stroke="#0AFB3F" stroke-linejoin="round"/>
<path d="M258.537 152.72C258.537 152.856 258.592 152.986 258.69 153.08L266.603 160.721C266.747 160.861 266.961 160.9 267.145 160.822C267.33 160.743 267.45 160.562 267.45 160.362V151.626C267.45 151.49 267.395 151.36 267.297 151.266L259.384 143.625C259.24 143.485 259.026 143.446 258.842 143.524C258.657 143.603 258.537 143.784 258.537 143.984V152.72Z" fill="#108E3A" stroke="#0AFB3F" stroke-linejoin="round"/>
<path d="M262.552 148.52C262.356 148.331 262.044 148.333 261.852 148.526C260.577 149.801 259.502 151.17 258.626 152.435C258.487 152.637 258.514 152.909 258.69 153.08L266.603 160.721C266.708 160.823 266.853 160.873 266.999 160.859C267.145 160.844 267.277 160.766 267.361 160.646C268.213 159.415 269.25 158.096 270.471 156.875C270.566 156.78 270.619 156.651 270.618 156.517C270.617 156.383 270.562 156.255 270.465 156.161L262.552 148.52Z" fill="#108E3A" stroke="#0AFB3F" stroke-linejoin="round"/>
<path d="M269.176 144.584C269.031 144.443 268.814 144.404 268.629 144.485C265.534 145.839 263.268 147.21 261.865 148.513C261.764 148.606 261.706 148.737 261.705 148.874C261.704 149.012 261.759 149.144 261.858 149.239L269.77 156.88C269.962 157.065 270.263 157.068 270.458 156.887C271.743 155.694 273.893 154.377 276.942 153.043C277.095 152.976 277.204 152.837 277.234 152.673C277.263 152.509 277.209 152.341 277.089 152.225L269.176 144.584Z" fill="#108E3A" stroke="#0AFB3F" stroke-linejoin="round"/>
<path d="M279.543 142.568C279.45 142.478 279.326 142.428 279.196 142.428C275.294 142.428 271.867 143.111 268.633 144.483C268.478 144.549 268.367 144.688 268.337 144.853C268.306 145.018 268.36 145.187 268.481 145.303L276.394 152.945C276.538 153.084 276.751 153.124 276.936 153.045C280.038 151.729 283.331 151.069 287.109 151.069C287.313 151.069 287.496 150.945 287.572 150.756C287.649 150.567 287.603 150.351 287.456 150.209L279.543 142.568Z" fill="#108E3A" stroke="#0AFB3F" stroke-linejoin="round"/>
<path d="M261.629 159.12C261.461 159.321 261.477 159.617 261.665 159.799L269.578 167.441C269.678 167.537 269.814 167.588 269.952 167.58C270.091 167.573 270.221 167.508 270.31 167.401C271.222 166.306 272.611 165.213 274.088 164.358C275.57 163.499 277.086 162.911 278.239 162.778C278.431 162.755 278.593 162.624 278.655 162.441C278.717 162.258 278.668 162.056 278.529 161.921L270.616 154.28C270.508 154.176 270.36 154.126 270.211 154.143C268.868 154.298 267.216 154.958 265.674 155.851C264.127 156.747 262.636 157.91 261.629 159.12Z" fill="#108E3A" stroke="#0AFB3F" stroke-linejoin="round"/>
<path d="M258.633 167.983C258.633 168.119 258.688 168.249 258.785 168.343L266.698 175.984C266.843 176.124 267.056 176.163 267.241 176.085C267.426 176.007 267.546 175.825 267.546 175.625C267.546 172.271 268.474 169.604 270.31 167.401C270.477 167.2 270.461 166.903 270.273 166.721L262.36 159.08C262.26 158.983 262.125 158.933 261.986 158.94C261.847 158.948 261.718 159.013 261.629 159.119C259.625 161.524 258.633 164.425 258.633 167.983Z" fill="#108E3A" stroke="#0AFB3F" stroke-linejoin="round"/>
<path d="M302.297 142.568C302.203 142.478 302.079 142.428 301.949 142.428H279.197C278.993 142.428 278.81 142.551 278.734 142.74C278.657 142.929 278.703 143.146 278.85 143.287L286.763 150.929C286.856 151.019 286.98 151.069 287.11 151.069H309.862C310.066 151.069 310.249 150.945 310.326 150.756C310.402 150.567 310.356 150.351 310.209 150.209L302.297 142.568Z" fill="#108E3A" stroke="#0AFB3F" stroke-linejoin="round"/>
<path d="M258.633 193.52C258.633 193.656 258.688 193.786 258.785 193.88L266.698 201.521C266.843 201.661 267.056 201.7 267.241 201.622C267.426 201.543 267.546 201.362 267.546 201.162V175.626C267.546 175.49 267.49 175.36 267.393 175.266L259.48 167.625C259.336 167.485 259.122 167.446 258.937 167.524C258.753 167.603 258.633 167.784 258.633 167.984V193.52Z" fill="#108E3A" stroke="#0AFB3F" stroke-linejoin="round"/>
<path d="M270.211 154.143C270.019 154.165 269.857 154.296 269.795 154.479C269.733 154.662 269.782 154.865 269.921 154.999L277.834 162.64C277.942 162.744 278.09 162.795 278.239 162.778C278.83 162.709 281.087 162.655 284.191 162.614C287.276 162.574 291.156 162.547 294.96 162.529C298.763 162.511 302.488 162.502 305.263 162.497C306.65 162.495 307.8 162.494 308.603 162.493L309.533 162.493L309.778 162.493L309.84 162.493L309.856 162.493H309.86H309.861C309.861 162.493 309.861 162.493 309.861 161.993V162.493C310.065 162.493 310.249 162.369 310.325 162.18C310.401 161.991 310.355 161.775 310.209 161.633L302.296 153.992C302.203 153.902 302.078 153.852 301.949 153.852V154.352C301.949 153.852 301.948 153.852 301.948 153.852L301.947 153.852L301.943 153.852L301.927 153.852L301.865 153.852L301.62 153.852L300.689 153.852C299.886 153.853 298.736 153.854 297.349 153.856C294.573 153.861 290.847 153.87 287.042 153.888C283.238 153.906 279.354 153.933 276.265 153.973C273.195 154.013 270.868 154.067 270.211 154.143Z" fill="#108E3A" stroke="#0AFB3F" stroke-linejoin="round"/>
<path d="M238.588 193.02C238.384 193.02 238.201 193.143 238.124 193.332C238.048 193.521 238.094 193.738 238.241 193.879L246.153 201.52C246.247 201.61 246.371 201.661 246.501 201.661H267.045C267.248 201.661 267.432 201.537 267.508 201.348C267.585 201.159 267.539 200.943 267.392 200.801L259.479 193.16C259.386 193.07 259.261 193.02 259.132 193.02H238.588Z" fill="#108E3A" stroke="#0AFB3F" stroke-linejoin="round"/>
<path d="M301.449 154.352C301.449 154.487 301.504 154.617 301.602 154.711L309.515 162.353C309.659 162.492 309.873 162.532 310.057 162.453C310.242 162.375 310.362 162.194 310.362 161.993V150.569C310.362 150.433 310.307 150.304 310.209 150.209L302.297 142.568C302.152 142.429 301.939 142.389 301.754 142.467C301.569 142.546 301.449 142.727 301.449 142.928V154.352Z" fill="#108E3A" stroke="#0AFB3F" stroke-linejoin="round"/>
<path d="M423.597 16.4401C423.453 16.3008 423.239 16.2612 423.055 16.3396C422.87 16.418 422.75 16.5992 422.75 16.7998V30.6238C422.75 30.7594 422.805 30.8893 422.903 30.9835L430.815 38.6247C430.96 38.7641 431.173 38.8037 431.358 38.7253C431.543 38.6469 431.663 38.4657 431.663 38.265V24.441C431.663 24.3054 431.608 24.1756 431.51 24.0814L423.597 16.4401Z" fill="#108E3A" stroke="#0AFB3F" stroke-linejoin="round"/>
<path d="M445.389 16.4401C445.296 16.3501 445.172 16.2998 445.042 16.2998H423.25C423.046 16.2998 422.863 16.4235 422.786 16.6125C422.71 16.8015 422.756 17.0179 422.903 17.1595L430.815 24.8007C430.909 24.8907 431.033 24.941 431.163 24.941H452.955C453.159 24.941 453.342 24.8173 453.418 24.6284C453.495 24.4394 453.449 24.223 453.302 24.0814L445.389 16.4401Z" fill="#108E3A" stroke="#0AFB3F" stroke-linejoin="round"/>
<path d="M344.386 126.44C344.293 126.35 344.169 126.3 344.039 126.3H322.247C322.043 126.3 321.86 126.424 321.783 126.613C321.707 126.801 321.753 127.018 321.9 127.159L329.812 134.801C329.906 134.891 330.03 134.941 330.16 134.941H351.952C352.156 134.941 352.339 134.817 352.415 134.628C352.492 134.439 352.446 134.223 352.299 134.081L344.386 126.44Z" fill="#108E3A" stroke="#0AFB3F" stroke-linejoin="round"/>
<path d="M423.25 30.124C423.046 30.124 422.863 30.2477 422.786 30.4367C422.71 30.6257 422.756 30.8421 422.903 30.9837L430.815 38.6249C430.909 38.715 431.033 38.7653 431.163 38.7653H452.955C453.159 38.7653 453.342 38.6415 453.418 38.4526C453.495 38.2636 453.449 38.0472 453.302 37.9056L445.389 30.2644C445.296 30.1743 445.172 30.124 445.042 30.124H423.25Z" fill="#108E3A" stroke="#0AFB3F" stroke-linejoin="round"/>
<path d="M444.542 30.6238C444.542 30.7594 444.597 30.8893 444.695 30.9835L452.607 38.6247C452.752 38.7641 452.965 38.8037 453.15 38.7253C453.335 38.6469 453.455 38.4657 453.455 38.265V24.441C453.455 24.3054 453.4 24.1756 453.302 24.0814L445.389 16.4401C445.245 16.3008 445.031 16.2612 444.847 16.3396C444.662 16.418 444.542 16.5992 444.542 16.7998V30.6238Z" fill="#108E3A" stroke="#0AFB3F" stroke-linejoin="round"/>
<path d="M445.389 34.9685C445.296 34.8784 445.172 34.8281 445.042 34.8281H423.25C423.046 34.8281 422.863 34.9518 422.786 35.1408C422.71 35.3298 422.756 35.5462 422.903 35.6878L430.815 43.329C430.909 43.4191 431.033 43.4694 431.163 43.4694H452.955C453.159 43.4694 453.342 43.3456 453.418 43.1567C453.495 42.9677 453.449 42.7513 453.302 42.6097L445.389 34.9685Z" fill="#108E3A" stroke="#0AFB3F" stroke-linejoin="round"/>
<path d="M322.594 126.44C322.45 126.301 322.236 126.261 322.052 126.34C321.867 126.418 321.747 126.599 321.747 126.8V193.808C321.747 193.943 321.802 194.073 321.9 194.167L329.812 201.809C329.957 201.948 330.17 201.988 330.355 201.909C330.54 201.831 330.66 201.65 330.66 201.449V134.441C330.66 134.305 330.605 134.176 330.507 134.081L322.594 126.44Z" fill="#108E3A" stroke="#0AFB3F" stroke-linejoin="round"/>
<path d="M423.597 34.9685C423.453 34.8291 423.239 34.7895 423.055 34.8679C422.87 34.9463 422.75 35.1275 422.75 35.3281V83.8081C422.75 83.9438 422.805 84.0736 422.903 84.1678L430.815 91.809C430.96 91.9484 431.173 91.988 431.358 91.9096C431.543 91.8312 431.663 91.65 431.663 91.4494V42.9694C431.663 42.8337 431.608 42.7039 431.51 42.6097L423.597 34.9685Z" fill="#108E3A" stroke="#0AFB3F" stroke-linejoin="round"/>
<path d="M343.539 164.72C343.539 164.855 343.594 164.985 343.692 165.079L351.604 172.721C351.749 172.86 351.962 172.9 352.147 172.821C352.332 172.743 352.452 172.562 352.452 172.361V134.441C352.452 134.305 352.397 134.176 352.299 134.081L344.386 126.44C344.242 126.301 344.028 126.261 343.844 126.34C343.659 126.418 343.539 126.599 343.539 126.8V164.72Z" fill="#108E3A" stroke="#0AFB3F" stroke-linejoin="round"/>
<path d="M444.542 83.8081C444.542 83.9438 444.597 84.0736 444.695 84.1678L452.607 91.809C452.752 91.9484 452.965 91.988 453.15 91.9096C453.335 91.8312 453.455 91.65 453.455 91.4494V42.9694C453.455 42.8337 453.4 42.7039 453.302 42.6097L445.389 34.9685C445.245 34.8291 445.031 34.7895 444.847 34.8679C444.662 34.9463 444.542 35.1275 444.542 35.3281V83.8081Z" fill="#108E3A" stroke="#0AFB3F" stroke-linejoin="round"/>
<path d="M365.794 144.968C365.605 144.786 365.306 144.781 365.111 144.958L343.703 164.35C343.601 164.442 343.541 164.574 343.539 164.712C343.537 164.851 343.592 164.984 343.692 165.08L351.604 172.721C351.794 172.904 352.092 172.909 352.287 172.732L373.695 153.34C373.798 153.247 373.858 153.116 373.86 152.977C373.862 152.839 373.807 152.706 373.707 152.61L365.794 144.968Z" fill="#108E3A" stroke="#0AFB3F" stroke-linejoin="round"/>
<path d="M478.997 20.6638C478.852 20.5244 478.639 20.4848 478.454 20.5632C478.269 20.6416 478.149 20.8228 478.149 21.0234V35.1354C478.149 35.2711 478.205 35.4009 478.302 35.4951L486.215 43.1364C486.359 43.2757 486.573 43.3153 486.758 43.2369C486.942 43.1585 487.062 42.9773 487.062 42.7767V28.6647C487.062 28.529 487.007 28.3992 486.909 28.305L478.997 20.6638Z" fill="#108E3A" stroke="#0AFB3F" stroke-linejoin="round"/>
<path d="M478.996 34.7761C478.903 34.6861 478.779 34.6357 478.649 34.6357H468.377C468.173 34.6357 467.99 34.7595 467.913 34.9484C467.837 35.1374 467.883 35.3538 468.03 35.4954L475.942 43.1367C476.036 43.2267 476.16 43.277 476.29 43.277H486.562C486.766 43.277 486.949 43.1533 487.025 42.9643C487.102 42.7753 487.056 42.5589 486.909 42.4173L478.996 34.7761Z" fill="#108E3A" stroke="#0AFB3F" stroke-linejoin="round"/>
<path d="M468.724 34.7761C468.58 34.6367 468.366 34.5971 468.182 34.6755C467.997 34.7539 467.877 34.9351 467.877 35.1357V48.4797C467.877 48.6154 467.932 48.7452 468.03 48.8394L475.942 56.4807C476.087 56.62 476.3 56.6596 476.485 56.5812C476.67 56.5028 476.79 56.3216 476.79 56.121V42.777C476.79 42.6413 476.735 42.5115 476.637 42.4173L468.724 34.7761Z" fill="#108E3A" stroke="#0AFB3F" stroke-linejoin="round"/>
<path d="M500.597 20.6638C500.504 20.5737 500.379 20.5234 500.249 20.5234H478.649C478.446 20.5234 478.262 20.6472 478.186 20.8361C478.109 21.0251 478.155 21.2415 478.302 21.3831L486.215 29.0243C486.308 29.1144 486.433 29.1647 486.562 29.1647H508.162C508.366 29.1647 508.549 29.041 508.626 28.852C508.702 28.663 508.656 28.4466 508.509 28.305L500.597 20.6638Z" fill="#108E3A" stroke="#0AFB3F" stroke-linejoin="round"/>
<path d="M423.25 83.3076C423.046 83.3076 422.863 83.4313 422.786 83.6203C422.71 83.8093 422.756 84.0257 422.903 84.1673L430.815 91.8085C430.909 91.8985 431.033 91.9489 431.163 91.9489H452.955C453.159 91.9489 453.342 91.8251 453.418 91.6362C453.495 91.4472 453.449 91.2308 453.302 91.0892L445.389 83.4479C445.296 83.3579 445.172 83.3076 445.042 83.3076H423.25Z" fill="#108E3A" stroke="#0AFB3F" stroke-linejoin="round"/>
<path d="M390.083 144.968C389.989 144.878 389.865 144.828 389.735 144.828H365.447C365.243 144.828 365.06 144.952 364.984 145.141C364.907 145.33 364.953 145.546 365.1 145.688L373.013 153.329C373.106 153.419 373.23 153.469 373.36 153.469H397.648C397.852 153.469 398.035 153.346 398.112 153.157C398.188 152.968 398.142 152.751 397.995 152.61L390.083 144.968Z" fill="#108E3A" stroke="#0AFB3F" stroke-linejoin="round"/>
<path d="M322.247 193.308C322.043 193.308 321.86 193.431 321.783 193.62C321.707 193.809 321.753 194.026 321.9 194.167L329.812 201.809C329.906 201.899 330.03 201.949 330.16 201.949H351.952C352.156 201.949 352.339 201.825 352.415 201.636C352.492 201.447 352.446 201.231 352.299 201.089L344.386 193.448C344.293 193.358 344.169 193.308 344.039 193.308H322.247Z" fill="#108E3A" stroke="#0AFB3F" stroke-linejoin="round"/>
<path d="M468.377 47.9795C468.173 47.9795 467.99 48.1032 467.913 48.2922C467.837 48.4812 467.883 48.6976 468.03 48.8392L475.942 56.4804C476.036 56.5704 476.16 56.6207 476.29 56.6207H486.562C486.766 56.6207 486.949 56.497 487.025 56.308C487.102 56.1191 487.056 55.9026 486.909 55.7611L478.996 48.1198C478.903 48.0298 478.779 47.9795 478.649 47.9795H468.377Z" fill="#108E3A" stroke="#0AFB3F" stroke-linejoin="round"/>
<path d="M343.539 193.808C343.539 193.944 343.594 194.074 343.692 194.168L351.604 201.809C351.749 201.948 351.962 201.988 352.147 201.91C352.332 201.831 352.452 201.65 352.452 201.449V179.177C352.452 179.042 352.397 178.912 352.299 178.818L344.386 171.176C344.242 171.037 344.028 170.997 343.844 171.076C343.659 171.154 343.539 171.335 343.539 171.536V193.808Z" fill="#108E3A" stroke="#0AFB3F" stroke-linejoin="round"/>
<path d="M344.386 171.176C344.188 170.985 343.871 170.99 343.679 171.189C343.488 171.387 343.493 171.704 343.692 171.896L343.692 171.896L354.933 182.763L354.934 182.763L362.846 190.404L362.846 190.404C363.045 190.596 363.361 190.591 363.553 190.392C363.745 190.193 363.74 189.877 363.541 189.685L363.541 189.685L363.541 189.685L352.299 178.818L352.299 178.818L344.387 171.177L344.386 171.176Z" fill="#108E3A" stroke="#0AFB3F" stroke-linejoin="round"/>
<path d="M366.138 167.823L366.138 167.823L366.135 167.82L365.12 166.854C364.921 166.664 364.605 166.671 364.414 166.87C364.224 167.069 364.23 167.384 364.428 167.575L364.431 167.578L372.341 175.217L372.341 175.217L372.343 175.219L373.356 176.183L373.359 176.186C373.558 176.376 373.874 176.368 374.064 176.17C374.255 175.971 374.249 175.655 374.051 175.464L374.048 175.461L366.138 167.823Z" fill="#108E3A" stroke="#0AFB3F" stroke-linejoin="round"/>
<path d="M499.75 35.1354C499.75 35.2711 499.805 35.4009 499.903 35.4951L507.815 43.1364C507.96 43.2757 508.173 43.3153 508.358 43.2369C508.543 43.1585 508.663 42.9773 508.663 42.7767V28.6647C508.663 28.529 508.608 28.3992 508.51 28.305L500.597 20.6638C500.453 20.5244 500.239 20.4848 500.055 20.5632C499.87 20.6416 499.75 20.8228 499.75 21.0234V35.1354Z" fill="#108E3A" stroke="#0AFB3F" stroke-linejoin="round"/>
<path d="M364.446 166.84C364.341 166.932 364.279 167.064 364.276 167.204C364.272 167.344 364.327 167.479 364.428 167.576L372.341 175.217C372.528 175.398 372.822 175.405 373.018 175.233L397.978 153.345C398.083 153.253 398.145 153.121 398.148 152.981C398.151 152.842 398.096 152.707 397.995 152.61L390.083 144.968C389.896 144.788 389.601 144.781 389.406 144.952L364.446 166.84Z" fill="#108E3A" stroke="#0AFB3F" stroke-linejoin="round"/>
<path d="M478.997 48.1198C478.852 47.9804 478.639 47.9408 478.454 48.0192C478.269 48.0976 478.149 48.2788 478.149 48.4795V69.7915C478.149 69.9271 478.205 70.0569 478.302 70.1512L486.215 77.7924C486.359 77.9318 486.573 77.9714 486.758 77.893C486.942 77.8146 487.062 77.6334 487.062 77.4327V56.1207C487.062 55.9851 487.007 55.8553 486.909 55.7611L478.997 48.1198Z" fill="#108E3A" stroke="#0AFB3F" stroke-linejoin="round"/>
<path d="M374.38 175.668L374.38 175.668L374.377 175.666L366.138 167.823L366.136 167.82C365.936 167.631 365.621 167.638 365.43 167.837C365.239 168.035 365.246 168.351 365.444 168.542L365.446 168.545L373.356 176.184L373.356 176.184L373.359 176.186L381.598 184.029L381.601 184.031C381.8 184.221 382.116 184.214 382.306 184.015C382.497 183.816 382.491 183.501 382.293 183.309L382.29 183.307L374.38 175.668Z" fill="#108E3A" stroke="#0AFB3F" stroke-linejoin="round"/>
<path d="M510.965 34.7761C510.872 34.6861 510.748 34.6357 510.618 34.6357H500.25C500.046 34.6357 499.863 34.7595 499.786 34.9484C499.71 35.1374 499.756 35.3538 499.903 35.4954L507.815 43.1367C507.909 43.2267 508.033 43.277 508.163 43.277H518.531C518.735 43.277 518.918 43.1533 518.994 42.9643C519.071 42.7753 519.025 42.5589 518.878 42.4173L510.965 34.7761Z" fill="#108E3A" stroke="#0AFB3F" stroke-linejoin="round"/>
<path d="M355.629 182.044C355.43 181.852 355.114 181.857 354.922 182.056C354.73 182.254 354.735 182.571 354.934 182.763L354.934 182.763L366.732 194.168L366.732 194.168L374.645 201.809L374.645 201.809C374.843 202.001 375.16 201.995 375.352 201.797C375.544 201.598 375.538 201.282 375.34 201.09L375.339 201.09L375.337 201.088L363.541 189.685L363.541 189.685L355.629 182.044L355.629 182.044Z" fill="#108E3A" stroke="#0AFB3F" stroke-linejoin="round"/>
<path d="M510.117 48.4797C510.117 48.6154 510.172 48.7452 510.27 48.8394L518.183 56.4807C518.327 56.62 518.541 56.6596 518.725 56.5812C518.91 56.5028 519.03 56.3216 519.03 56.121V42.777C519.03 42.6413 518.975 42.5115 518.877 42.4173L510.965 34.7761C510.82 34.6367 510.607 34.5971 510.422 34.6755C510.237 34.7539 510.117 34.9351 510.117 35.1357V48.4797Z" fill="#108E3A" stroke="#0AFB3F" stroke-linejoin="round"/>
<path d="M500.25 47.9795C500.046 47.9795 499.863 48.1032 499.786 48.2922C499.71 48.4812 499.756 48.6976 499.903 48.8392L507.815 56.4804C507.909 56.5704 508.033 56.6207 508.163 56.6207H518.531C518.735 56.6207 518.918 56.497 518.994 56.308C519.071 56.1191 519.025 55.9026 518.878 55.7611L510.965 48.1198C510.872 48.0298 510.748 47.9795 510.618 47.9795H500.25Z" fill="#108E3A" stroke="#0AFB3F" stroke-linejoin="round"/>
<path d="M478.997 69.4323C478.852 69.2929 478.639 69.2533 478.454 69.3317C478.269 69.4101 478.149 69.5913 478.149 69.792C478.149 74.6619 479.337 78.3415 481.828 80.7474L481.828 80.7475L489.741 88.3886L489.741 88.3887C489.939 88.5805 490.256 88.575 490.448 88.3764C490.639 88.1778 490.634 87.8613 490.435 87.6694C490.435 87.6694 490.435 87.6694 490.435 87.6694C490.435 87.6691 490.435 87.6689 490.435 87.6687C488.215 85.5242 487.062 82.1583 487.062 77.4332C487.062 77.2976 487.007 77.1678 486.909 77.0736L478.997 69.4323Z" fill="#108E3A" stroke="#0AFB3F" stroke-linejoin="round"/>
<path d="M383.802 184.637L383.802 184.637L383.799 184.634L374.38 175.668L374.377 175.665C374.177 175.475 373.862 175.482 373.671 175.681C373.481 175.88 373.487 176.196 373.685 176.387L373.687 176.39L381.598 184.028L381.598 184.028L381.6 184.031L391.02 192.997L391.023 193C391.222 193.19 391.538 193.182 391.728 192.984C391.919 192.785 391.913 192.469 391.715 192.278L391.712 192.275L383.802 184.637Z" fill="#108E3A" stroke="#0AFB3F" stroke-linejoin="round"/>
<path d="M499.75 66.0475C499.75 66.1831 499.805 66.3129 499.903 66.4072L507.815 74.0484C507.96 74.1878 508.173 74.2274 508.358 74.149C508.543 74.0706 508.663 73.8894 508.663 73.6887V56.1207C508.663 55.9851 508.608 55.8553 508.51 55.7611L500.597 48.1198C500.453 47.9804 500.239 47.9408 500.055 48.0192C499.87 48.0976 499.75 48.2788 499.75 48.4795V66.0475Z" fill="#108E3A" stroke="#0AFB3F" stroke-linejoin="round"/>
<path d="M500.734 69.5412C500.745 69.5532 500.755 69.5646 500.767 69.5755L508.679 77.2168C508.871 77.4022 509.175 77.4041 509.37 77.221C509.564 77.0379 509.58 76.7344 509.406 76.5317C508.944 75.9921 508.663 75.0797 508.663 73.6891C508.663 73.5535 508.608 73.4236 508.51 73.3294L500.597 65.6882C500.453 65.5488 500.239 65.5092 500.055 65.5876C499.87 65.666 499.75 65.8472 499.75 66.0479C499.75 67.5373 500.045 68.7368 500.734 69.5412Z" fill="#108E3A" stroke="#0AFB3F" stroke-linejoin="round"/>
<path d="M481.828 80.7473L481.831 80.7498C481.831 80.7498 481.831 80.7498 481.831 80.7498L481.831 80.7499L489.741 88.3885C489.741 88.3886 489.741 88.3886 489.741 88.3886C492.035 90.6045 495.353 91.6611 499.619 91.6611C499.822 91.6611 500.006 91.5374 500.082 91.3484C500.159 91.1595 500.113 90.943 499.966 90.8015L492.053 83.1602C491.96 83.0702 491.835 83.0199 491.706 83.0199C487.597 83.0199 484.569 82.0034 482.526 80.0305C482.526 80.0305 482.526 80.0305 482.526 80.0305C482.526 80.0304 482.526 80.0304 482.526 80.0304L482.523 80.0281L482.523 80.0281C482.324 79.8387 482.01 79.845 481.819 80.0428C481.628 80.2406 481.632 80.5552 481.828 80.7473L481.828 80.7473Z" fill="#108E3A" stroke="#0AFB3F" stroke-linejoin="round"/>
<path d="M367.079 193.308C366.875 193.308 366.692 193.431 366.616 193.62C366.539 193.809 366.585 194.026 366.732 194.167L374.645 201.809C374.738 201.899 374.862 201.949 374.992 201.949H400.624C400.828 201.949 401.011 201.825 401.087 201.636C401.164 201.447 401.118 201.231 400.971 201.089L393.058 193.448C392.965 193.358 392.841 193.308 392.711 193.308H367.079Z" fill="#108E3A" stroke="#0AFB3F" stroke-linejoin="round"/>
<path d="M392.044 192.482L392.044 192.481L392.041 192.479L383.802 184.636L383.8 184.634C383.6 184.444 383.285 184.451 383.094 184.65C382.904 184.849 382.91 185.164 383.108 185.356L383.11 185.358L391.02 192.997L391.02 192.997L391.023 192.999L399.262 200.842L399.265 200.845C399.464 201.034 399.78 201.027 399.97 200.828C400.161 200.63 400.155 200.314 399.957 200.123L399.954 200.12L392.044 192.482Z" fill="#108E3A" stroke="#0AFB3F" stroke-linejoin="round"/>
<path d="M505.013 69.9122C504.919 69.8221 504.795 69.7718 504.665 69.7718C503.143 69.7718 502.214 69.4937 501.71 69.0971L501.461 68.8562C501.269 68.6707 500.965 68.6688 500.77 68.8519C500.576 69.035 500.56 69.3385 500.734 69.5412C500.828 69.651 500.933 69.7532 501.048 69.8477L508.663 77.2013C509.392 78.0346 510.734 78.4131 512.578 78.4131C512.782 78.4131 512.965 78.2893 513.042 78.1004C513.118 77.9114 513.072 77.695 512.925 77.5534L505.013 69.9122Z" fill="#108E3A" stroke="#0AFB3F" stroke-linejoin="round"/>
<path d="M510.965 69.9118C510.872 69.8218 510.748 69.7715 510.618 69.7715H504.666C504.462 69.7715 504.279 69.8952 504.202 70.0842C504.126 70.2732 504.172 70.4896 504.319 70.6312L512.231 78.2724C512.325 78.3624 512.449 78.4127 512.579 78.4127H518.531C518.735 78.4127 518.918 78.289 518.994 78.1C519.071 77.9111 519.025 77.6946 518.878 77.5531L510.965 69.9118Z" fill="#108E3A" stroke="#0AFB3F" stroke-linejoin="round"/>
<path d="M393.058 193.449L393.058 193.449L393.055 193.446L392.04 192.48C391.841 192.29 391.525 192.297 391.334 192.496C391.144 192.695 391.15 193.01 391.348 193.201L391.351 193.204L399.261 200.843L399.261 200.843L399.263 200.845L400.276 201.809L400.279 201.812C400.478 202.002 400.794 201.994 400.984 201.796C401.175 201.597 401.169 201.281 400.971 201.09L400.968 201.087L393.058 193.449Z" fill="#108E3A" stroke="#0AFB3F" stroke-linejoin="round"/>
<path d="M491.705 83.0195C491.501 83.0195 491.318 83.1432 491.241 83.3322C491.165 83.5212 491.211 83.7376 491.358 83.8792L499.27 91.5204C499.364 91.6105 499.488 91.6608 499.618 91.6608H518.53C518.734 91.6608 518.917 91.5371 518.993 91.3481C519.07 91.1591 519.024 90.9427 518.877 90.8011L510.964 83.1599C510.871 83.0698 510.747 83.0195 510.617 83.0195H491.705Z" fill="#108E3A" stroke="#0AFB3F" stroke-linejoin="round"/>
<path d="M510.117 83.5195C510.117 83.6551 510.172 83.7849 510.27 83.8792L518.183 91.5204C518.327 91.6598 518.541 91.6994 518.725 91.621C518.91 91.5426 519.03 91.3614 519.03 91.1607V77.9127C519.03 77.7771 518.975 77.6473 518.877 77.5531L510.965 69.9118C510.82 69.7724 510.607 69.7328 510.422 69.8112C510.237 69.8896 510.117 70.0708 510.117 70.2715V83.5195Z" fill="#108E3A" stroke="#0AFB3F" stroke-linejoin="round"/>
<path d="M5.664 84H28.512L28.512 57.6L77.568 57.6V84H100.512L100.512 16.992L77.568 16.992V41.376L28.512 41.376L28.512 16.992L5.664 16.992L5.664 84ZM167.465 84.288C192.617 84.288 205.193 75.936 205.193 59.232V57.6C205.193 41.28 192.617 33.12 167.465 33.12H160.457C154.601 33.12 149.321 33.6 144.809 34.656C140.297 35.616 136.649 36.864 133.865 38.496C131.081 40.128 128.873 41.952 127.145 44.256C125.417 46.464 124.265 48.576 123.593 50.784C122.921 52.992 122.633 55.2 122.633 57.6V59.232C122.633 61.632 122.921 63.936 123.593 66.144C124.265 68.352 125.417 70.56 127.241 72.864C128.969 75.072 131.177 77.088 133.961 78.72C136.745 80.352 140.393 81.6 144.905 82.656C149.417 83.712 154.697 84.288 160.553 84.288H167.465ZM164.009 71.232C157.193 71.232 152.297 69.984 149.417 67.488C146.441 65.088 145.001 62.112 145.001 58.752V58.272C145.001 54.72 146.441 51.744 149.321 49.44C152.201 47.136 157.097 45.984 164.009 45.984H164.105C170.825 45.984 175.721 47.136 178.601 49.536C181.577 51.84 183.017 54.816 183.017 58.272V58.752C183.017 62.112 181.577 65.088 178.601 67.488C175.721 69.984 170.825 71.232 164.009 71.232ZM317.882 34.944L306.074 66.24L298.49 47.136L297.242 44.16L266.81 44.16L264.89 49.152L258.266 66.24L246.074 34.944L223.034 34.944L245.21 83.808H268.154L279.002 57.12H283.514L294.362 83.808L317.882 83.808L338.618 34.944L317.882 34.944ZM445.042 16.8L423.25 16.8V30.624L445.042 30.624V16.8ZM445.042 35.328H423.25V83.808H445.042V35.328ZM491.705 83.52H510.617V70.272H504.665C502.841 70.272 501.689 69.888 501.113 69.216C500.537 68.544 500.249 67.488 500.249 66.048V48.48L510.617 48.48V35.136L500.249 35.136V21.024L478.649 21.024V35.136H468.377V48.48H478.649V69.792C478.649 79.008 482.969 83.52 491.705 83.52ZM96.096 144.944L84.288 176.24L76.704 157.136L75.456 154.16H45.024L43.104 159.152L36.48 176.24L24.288 144.944H1.248L23.424 193.808H46.368L57.216 167.12H61.728L72.576 193.808L96.096 193.808L116.832 144.944H96.096ZM179.371 194.288C204.523 194.288 217.099 185.936 217.099 169.232V167.6C217.099 151.28 204.523 143.12 179.371 143.12H172.363C166.507 143.12 161.227 143.6 156.715 144.656C152.203 145.616 148.555 146.864 145.771 148.496C142.987 150.128 140.779 151.952 139.051 154.256C137.323 156.464 136.171 158.576 135.499 160.784C134.827 162.992 134.539 165.2 134.539 167.6V169.232C134.539 171.632 134.827 173.936 135.499 176.144C136.171 178.352 137.323 180.56 139.147 182.864C140.875 185.072 143.083 187.088 145.867 188.72C148.651 190.352 152.299 191.6 156.811 192.656C161.323 193.712 166.603 194.288 172.459 194.288H179.371ZM175.915 181.232C169.099 181.232 164.203 179.984 161.323 177.488C158.347 175.088 156.907 172.112 156.907 168.752V168.272C156.907 164.72 158.347 161.744 161.227 159.44C164.107 157.136 169.003 155.984 175.915 155.984H176.011C182.731 155.984 187.627 157.136 190.507 159.536C193.483 161.84 194.923 164.816 194.923 168.272V168.752C194.923 172.112 193.483 175.088 190.507 177.488C187.627 179.984 182.731 181.232 175.915 181.232ZM279.197 142.928C275.357 142.928 271.997 143.6 268.829 144.944C265.757 146.288 263.549 147.632 262.205 148.88C260.957 150.128 259.901 151.472 259.037 152.72V143.984H238.589V193.52H259.133L259.133 167.984C259.133 164.528 260.093 161.744 262.013 159.44C263.933 157.136 267.773 154.928 270.269 154.64C272.765 154.352 301.949 154.352 301.949 154.352V142.928H279.197ZM322.247 193.808H344.039L344.039 171.536L367.079 193.808H392.711L364.775 167.216L389.735 145.328H365.447L344.039 164.72V126.8H322.247L322.247 193.808Z" fill="#80FF00"/>
</svg>
