<svg width="480" height="110" viewBox="0 0 480 110" fill="none" xmlns="http://www.w3.org/2000/svg">
<mask id="path-1-outside-1_568_11057" maskUnits="userSpaceOnUse" x="6.91309" y="22.8652" width="473" height="71" fill="black">
<rect fill="white" x="6.91309" y="22.8652" width="473" height="71"/>
<path d="M78.6091 25.2092H44.5291L8.91309 91.5452H31.3771L37.6171 79.4492H85.5211L91.7611 91.5452H114.321L78.6091 25.2092ZM45.3931 64.4732L57.9691 40.0892H65.1691L77.8411 64.4732H45.3931Z"/>
<path d="M132.535 23.8652V90.8732H152.695C153.079 87.6092 153.559 85.4012 154.039 83.9612C155.863 85.6892 159.127 87.4172 163.639 89.2412C168.151 91.0652 173.623 92.0252 180.151 92.0252H181.879C187.543 92.0252 192.535 91.3532 196.855 90.0092C201.175 88.6652 204.631 86.8412 207.127 84.4412C209.719 82.1372 211.639 79.5452 212.887 76.6652C214.231 73.7852 214.807 70.6172 214.807 67.2572V65.5292C214.807 58.2332 212.215 52.3772 207.127 47.9612C201.943 43.4492 193.783 41.2412 182.551 41.2412H180.727C170.455 41.2412 161.623 43.8332 154.327 49.1132V23.8652H132.535ZM154.327 66.2972C154.327 62.8412 155.959 59.8652 159.319 57.4652C162.583 54.9692 167.287 53.7212 173.431 53.7212H174.007C180.535 53.7212 185.239 54.9692 188.119 57.2732C190.999 59.6732 192.439 62.6492 192.439 66.2972V66.5852C192.439 70.0412 190.999 73.0172 188.119 75.5132C185.143 78.0092 180.439 79.2572 174.007 79.2572H173.431C167.383 79.2572 162.679 77.9132 159.415 75.4172C158.835 74.9703 158.305 74.5148 157.823 74.0497C155.51 71.8177 154.327 69.3659 154.327 66.5852V66.2972Z"/>
<path d="M280.947 91.9292C306.099 91.9292 318.675 83.5772 318.675 66.8732V65.2412C318.675 58.6842 316.645 53.4444 312.585 49.5218C306.539 43.6814 295.994 40.7612 280.947 40.7612H273.939C268.083 40.7612 262.803 41.2412 258.291 42.2972C253.779 43.2572 250.131 44.5052 247.347 46.1372C244.563 47.7692 242.355 49.5932 240.627 51.8972C238.899 54.1052 237.747 56.2172 237.075 58.4252C236.403 60.6332 236.115 62.8412 236.115 65.2412V66.8732C236.115 69.2732 236.403 71.5772 237.075 73.7852C237.747 75.9932 238.899 78.2012 240.723 80.5052C241.375 81.3381 242.095 82.1436 242.888 82.9115C244.199 84.1794 245.709 85.3448 247.443 86.3612C250.227 87.9932 253.875 89.2412 258.387 90.2972C262.899 91.3532 268.179 91.9292 274.035 91.9292H280.947ZM277.491 78.8732C270.675 78.8732 265.779 77.6252 262.899 75.1292C262.555 74.8516 262.231 74.5664 261.928 74.2737C259.609 72.0357 258.483 69.3646 258.483 66.3932V65.9132C258.483 62.3612 259.923 59.3852 262.803 57.0812C265.683 54.7772 270.579 53.6252 277.491 53.6252H277.587C284.307 53.6252 289.203 54.7772 292.083 57.1772C292.479 57.4839 292.848 57.8024 293.19 58.1324C295.417 60.2819 296.499 62.9172 296.499 65.9132V66.3932C296.499 69.7532 295.059 72.7292 292.083 75.1292C289.203 77.6252 284.307 78.8732 277.491 78.8732Z"/>
<path d="M413.317 90.9692V42.4892H391.429V65.3372C391.429 69.2732 389.989 72.5372 387.205 74.9372C384.325 77.3372 380.485 78.4892 375.781 78.4892C371.269 78.4892 367.813 77.4332 365.605 75.2252C363.301 73.1132 362.245 70.1372 362.245 66.3932V42.4892H340.165V72.6332C340.165 77.8172 342.181 82.3292 346.405 86.1692C350.629 90.1052 356.869 92.0252 365.221 92.0252H365.989C368.869 92.0252 371.653 91.7372 374.341 91.1612C377.029 90.5852 379.237 90.0092 380.773 89.4332C382.405 88.8572 384.133 87.9932 385.957 86.7452C387.877 85.5932 389.029 84.8252 389.413 84.4412C389.797 84.1532 390.565 83.4812 391.621 82.5212V90.9692H413.317Z"/>
<path d="M450.465 88.0291C452.634 90.1242 455.807 91.1612 459.995 91.1612H478.907V77.9132H472.955C471.131 77.9132 469.979 77.5292 469.403 76.8572C468.827 76.1852 468.539 75.1292 468.539 73.6892V56.1212H478.907V42.7772H468.539V28.6652H446.939V42.7772H436.667V56.1212H446.939V77.4332C446.939 82.231 448.11 85.7539 450.465 88.0291Z"/>
</mask>
<path d="M78.6091 25.2092H44.5291L8.91309 91.5452H31.3771L37.6171 79.4492H85.5211L91.7611 91.5452H114.321L78.6091 25.2092ZM45.3931 64.4732L57.9691 40.0892H65.1691L77.8411 64.4732H45.3931Z" fill="#108E3A"/>
<path d="M132.535 23.8652V90.8732H152.695C153.079 87.6092 153.559 85.4012 154.039 83.9612C155.863 85.6892 159.127 87.4172 163.639 89.2412C168.151 91.0652 173.623 92.0252 180.151 92.0252H181.879C187.543 92.0252 192.535 91.3532 196.855 90.0092C201.175 88.6652 204.631 86.8412 207.127 84.4412C209.719 82.1372 211.639 79.5452 212.887 76.6652C214.231 73.7852 214.807 70.6172 214.807 67.2572V65.5292C214.807 58.2332 212.215 52.3772 207.127 47.9612C201.943 43.4492 193.783 41.2412 182.551 41.2412H180.727C170.455 41.2412 161.623 43.8332 154.327 49.1132V23.8652H132.535ZM154.327 66.2972C154.327 62.8412 155.959 59.8652 159.319 57.4652C162.583 54.9692 167.287 53.7212 173.431 53.7212H174.007C180.535 53.7212 185.239 54.9692 188.119 57.2732C190.999 59.6732 192.439 62.6492 192.439 66.2972V66.5852C192.439 70.0412 190.999 73.0172 188.119 75.5132C185.143 78.0092 180.439 79.2572 174.007 79.2572H173.431C167.383 79.2572 162.679 77.9132 159.415 75.4172C158.835 74.9703 158.305 74.5148 157.823 74.0497C155.51 71.8177 154.327 69.3659 154.327 66.5852V66.2972Z" fill="#108E3A"/>
<path d="M280.947 91.9292C306.099 91.9292 318.675 83.5772 318.675 66.8732V65.2412C318.675 58.6842 316.645 53.4444 312.585 49.5218C306.539 43.6814 295.994 40.7612 280.947 40.7612H273.939C268.083 40.7612 262.803 41.2412 258.291 42.2972C253.779 43.2572 250.131 44.5052 247.347 46.1372C244.563 47.7692 242.355 49.5932 240.627 51.8972C238.899 54.1052 237.747 56.2172 237.075 58.4252C236.403 60.6332 236.115 62.8412 236.115 65.2412V66.8732C236.115 69.2732 236.403 71.5772 237.075 73.7852C237.747 75.9932 238.899 78.2012 240.723 80.5052C241.375 81.3381 242.095 82.1436 242.888 82.9115C244.199 84.1794 245.709 85.3448 247.443 86.3612C250.227 87.9932 253.875 89.2412 258.387 90.2972C262.899 91.3532 268.179 91.9292 274.035 91.9292H280.947ZM277.491 78.8732C270.675 78.8732 265.779 77.6252 262.899 75.1292C262.555 74.8516 262.231 74.5664 261.928 74.2737C259.609 72.0357 258.483 69.3646 258.483 66.3932V65.9132C258.483 62.3612 259.923 59.3852 262.803 57.0812C265.683 54.7772 270.579 53.6252 277.491 53.6252H277.587C284.307 53.6252 289.203 54.7772 292.083 57.1772C292.479 57.4839 292.848 57.8024 293.19 58.1324C295.417 60.2819 296.499 62.9172 296.499 65.9132V66.3932C296.499 69.7532 295.059 72.7292 292.083 75.1292C289.203 77.6252 284.307 78.8732 277.491 78.8732Z" fill="#108E3A"/>
<path d="M413.317 90.9692V42.4892H391.429V65.3372C391.429 69.2732 389.989 72.5372 387.205 74.9372C384.325 77.3372 380.485 78.4892 375.781 78.4892C371.269 78.4892 367.813 77.4332 365.605 75.2252C363.301 73.1132 362.245 70.1372 362.245 66.3932V42.4892H340.165V72.6332C340.165 77.8172 342.181 82.3292 346.405 86.1692C350.629 90.1052 356.869 92.0252 365.221 92.0252H365.989C368.869 92.0252 371.653 91.7372 374.341 91.1612C377.029 90.5852 379.237 90.0092 380.773 89.4332C382.405 88.8572 384.133 87.9932 385.957 86.7452C387.877 85.5932 389.029 84.8252 389.413 84.4412C389.797 84.1532 390.565 83.4812 391.621 82.5212V90.9692H413.317Z" fill="#108E3A"/>
<path d="M450.465 88.0291C452.634 90.1242 455.807 91.1612 459.995 91.1612H478.907V77.9132H472.955C471.131 77.9132 469.979 77.5292 469.403 76.8572C468.827 76.1852 468.539 75.1292 468.539 73.6892V56.1212H478.907V42.7772H468.539V28.6652H446.939V42.7772H436.667V56.1212H446.939V77.4332C446.939 82.231 448.11 85.7539 450.465 88.0291Z" fill="#108E3A"/>
<path d="M78.6091 25.2092H44.5291L8.91309 91.5452H31.3771L37.6171 79.4492H85.5211L91.7611 91.5452H114.321L78.6091 25.2092ZM45.3931 64.4732L57.9691 40.0892H65.1691L77.8411 64.4732H45.3931Z" stroke="#0AFB3F" stroke-width="2" mask="url(#path-1-outside-1_568_11057)"/>
<path d="M132.535 23.8652V90.8732H152.695C153.079 87.6092 153.559 85.4012 154.039 83.9612C155.863 85.6892 159.127 87.4172 163.639 89.2412C168.151 91.0652 173.623 92.0252 180.151 92.0252H181.879C187.543 92.0252 192.535 91.3532 196.855 90.0092C201.175 88.6652 204.631 86.8412 207.127 84.4412C209.719 82.1372 211.639 79.5452 212.887 76.6652C214.231 73.7852 214.807 70.6172 214.807 67.2572V65.5292C214.807 58.2332 212.215 52.3772 207.127 47.9612C201.943 43.4492 193.783 41.2412 182.551 41.2412H180.727C170.455 41.2412 161.623 43.8332 154.327 49.1132V23.8652H132.535ZM154.327 66.2972C154.327 62.8412 155.959 59.8652 159.319 57.4652C162.583 54.9692 167.287 53.7212 173.431 53.7212H174.007C180.535 53.7212 185.239 54.9692 188.119 57.2732C190.999 59.6732 192.439 62.6492 192.439 66.2972V66.5852C192.439 70.0412 190.999 73.0172 188.119 75.5132C185.143 78.0092 180.439 79.2572 174.007 79.2572H173.431C167.383 79.2572 162.679 77.9132 159.415 75.4172C158.835 74.9703 158.305 74.5148 157.823 74.0497C155.51 71.8177 154.327 69.3659 154.327 66.5852V66.2972Z" stroke="#0AFB3F" stroke-width="2" mask="url(#path-1-outside-1_568_11057)"/>
<path d="M280.947 91.9292C306.099 91.9292 318.675 83.5772 318.675 66.8732V65.2412C318.675 58.6842 316.645 53.4444 312.585 49.5218C306.539 43.6814 295.994 40.7612 280.947 40.7612H273.939C268.083 40.7612 262.803 41.2412 258.291 42.2972C253.779 43.2572 250.131 44.5052 247.347 46.1372C244.563 47.7692 242.355 49.5932 240.627 51.8972C238.899 54.1052 237.747 56.2172 237.075 58.4252C236.403 60.6332 236.115 62.8412 236.115 65.2412V66.8732C236.115 69.2732 236.403 71.5772 237.075 73.7852C237.747 75.9932 238.899 78.2012 240.723 80.5052C241.375 81.3381 242.095 82.1436 242.888 82.9115C244.199 84.1794 245.709 85.3448 247.443 86.3612C250.227 87.9932 253.875 89.2412 258.387 90.2972C262.899 91.3532 268.179 91.9292 274.035 91.9292H280.947ZM277.491 78.8732C270.675 78.8732 265.779 77.6252 262.899 75.1292C262.555 74.8516 262.231 74.5664 261.928 74.2737C259.609 72.0357 258.483 69.3646 258.483 66.3932V65.9132C258.483 62.3612 259.923 59.3852 262.803 57.0812C265.683 54.7772 270.579 53.6252 277.491 53.6252H277.587C284.307 53.6252 289.203 54.7772 292.083 57.1772C292.479 57.4839 292.848 57.8024 293.19 58.1324C295.417 60.2819 296.499 62.9172 296.499 65.9132V66.3932C296.499 69.7532 295.059 72.7292 292.083 75.1292C289.203 77.6252 284.307 78.8732 277.491 78.8732Z" stroke="#0AFB3F" stroke-width="2" mask="url(#path-1-outside-1_568_11057)"/>
<path d="M413.317 90.9692V42.4892H391.429V65.3372C391.429 69.2732 389.989 72.5372 387.205 74.9372C384.325 77.3372 380.485 78.4892 375.781 78.4892C371.269 78.4892 367.813 77.4332 365.605 75.2252C363.301 73.1132 362.245 70.1372 362.245 66.3932V42.4892H340.165V72.6332C340.165 77.8172 342.181 82.3292 346.405 86.1692C350.629 90.1052 356.869 92.0252 365.221 92.0252H365.989C368.869 92.0252 371.653 91.7372 374.341 91.1612C377.029 90.5852 379.237 90.0092 380.773 89.4332C382.405 88.8572 384.133 87.9932 385.957 86.7452C387.877 85.5932 389.029 84.8252 389.413 84.4412C389.797 84.1532 390.565 83.4812 391.621 82.5212V90.9692H413.317Z" stroke="#0AFB3F" stroke-width="2" mask="url(#path-1-outside-1_568_11057)"/>
<path d="M450.465 88.0291C452.634 90.1242 455.807 91.1612 459.995 91.1612H478.907V77.9132H472.955C471.131 77.9132 469.979 77.5292 469.403 76.8572C468.827 76.1852 468.539 75.1292 468.539 73.6892V56.1212H478.907V42.7772H468.539V28.6652H446.939V42.7772H436.667V56.1212H446.939V77.4332C446.939 82.231 448.11 85.7539 450.465 88.0291Z" stroke="#0AFB3F" stroke-width="2" mask="url(#path-1-outside-1_568_11057)"/>
<path d="M36.9633 17.2087C36.8507 17.0999 36.6935 17.0502 36.5388 17.0744C36.384 17.0985 36.2496 17.1938 36.1755 17.3318L0.559478 83.6678C0.453607 83.865 0.491674 84.1086 0.652671 84.264L8.56541 91.9053C8.67807 92.0141 8.83521 92.0638 8.98996 92.0396C9.1447 92.0154 9.27917 91.9201 9.35326 91.7821L44.9693 25.4461C45.0751 25.2489 45.0371 25.0054 44.8761 24.8499L36.9633 17.2087Z" fill="#108E3A" stroke="#0AFB3F" stroke-linejoin="round"/>
<path d="M71.0435 17.2087C70.9503 17.1187 70.8258 17.0684 70.6962 17.0684H36.6162C36.4124 17.0684 36.229 17.1921 36.1526 17.3811C36.0763 17.57 36.1223 17.7864 36.2689 17.928L44.1816 25.5693C44.2748 25.6593 44.3994 25.7096 44.5289 25.7096H78.609C78.8128 25.7096 78.9962 25.5859 79.0725 25.3969C79.1489 25.2079 79.1029 24.9915 78.9563 24.8499L71.0435 17.2087Z" fill="#108E3A" stroke="#0AFB3F" stroke-linejoin="round"/>
<path d="M50.0566 31.9482C49.8528 31.9482 49.6694 32.072 49.593 32.2609C49.5167 32.4499 49.5627 32.6663 49.7093 32.8079L57.622 40.4492C57.7153 40.5392 57.8398 40.5895 57.9694 40.5895H65.1694C65.3732 40.5895 65.5566 40.4658 65.633 40.2768C65.7093 40.0878 65.6633 39.8714 65.5167 39.7298L57.604 32.0886C57.5108 31.9986 57.3862 31.9482 57.2566 31.9482H50.0566Z" fill="#108E3A" stroke="#0AFB3F" stroke-linejoin="round"/>
<path d="M37.0361 56.6031C36.9349 56.7992 36.9743 57.0386 37.1331 57.1919L45.0459 64.8332C45.1596 64.943 45.3185 64.9925 45.4745 64.9668C45.6305 64.9411 45.7651 64.8432 45.8376 64.7027L58.4136 40.3187C58.5148 40.1225 58.4753 39.8832 58.3165 39.7298L50.4038 32.0886C50.2901 31.9788 50.1311 31.9292 49.9752 31.9549C49.8192 31.9806 49.6845 32.0786 49.6121 32.2191L37.0361 56.6031Z" fill="#108E3A" stroke="#0AFB3F" stroke-linejoin="round"/>
<path d="M1 83.4043C0.79618 83.4043 0.612761 83.528 0.536408 83.717C0.460056 83.906 0.506055 84.1224 0.652671 84.264L8.56541 91.9052C8.65863 91.9952 8.78315 92.0455 8.91274 92.0455H31.3767C31.5806 92.0455 31.764 91.9218 31.8403 91.7328C31.9167 91.5439 31.8707 91.3275 31.7241 91.1859L23.8113 83.5446C23.7181 83.4546 23.5936 83.4043 23.464 83.4043H1Z" fill="#108E3A" stroke="#0AFB3F" stroke-linejoin="round"/>
<path d="M23.0195 83.6754C22.9183 83.8716 22.9577 84.1109 23.1165 84.2643L31.0293 91.9055C31.143 92.0153 31.3019 92.0649 31.4579 92.0392C31.6139 92.0135 31.7485 91.9155 31.821 91.7751L38.061 79.6791C38.1622 79.4829 38.1227 79.2435 37.9639 79.0902L30.0512 71.4489C29.9375 71.3391 29.7786 71.2895 29.6226 71.3152C29.4666 71.3409 29.332 71.4389 29.2595 71.5794L23.0195 83.6754Z" fill="#108E3A" stroke="#0AFB3F" stroke-linejoin="round"/>
<path d="M57.6032 32.0886C57.4269 31.9183 57.1532 31.901 56.9568 32.0475C56.7604 32.1941 56.6992 32.4614 56.8122 32.6788L69.4842 57.0628C69.5091 57.1108 69.5416 57.1544 69.5805 57.1919L77.4933 64.8332C77.6695 65.0034 77.9432 65.0208 78.1396 64.8742C78.336 64.7277 78.3973 64.4604 78.2843 64.2429L65.6123 39.8589C65.5873 39.811 65.5548 39.7674 65.5159 39.7298L57.6032 32.0886Z" fill="#108E3A" stroke="#0AFB3F" stroke-linejoin="round"/>
<path d="M70.2758 56.4724C70.1826 56.3823 70.0581 56.332 69.9285 56.332H37.4805C37.2766 56.332 37.0932 56.4557 37.0169 56.6447C36.9405 56.8337 36.9865 57.0501 37.1331 57.1917L45.0459 64.8329C45.1391 64.923 45.2636 64.9733 45.3932 64.9733H77.8412C78.045 64.9733 78.2284 64.8496 78.3048 64.6606C78.3811 64.4716 78.3352 64.2552 78.1885 64.1136L70.2758 56.4724Z" fill="#108E3A" stroke="#0AFB3F" stroke-linejoin="round"/>
<path d="M29.7041 71.3086C29.5003 71.3086 29.3169 71.4323 29.2405 71.6213C29.1642 71.8103 29.2102 72.0267 29.3568 72.1683L37.2695 79.8095C37.3627 79.8995 37.4873 79.9498 37.6168 79.9498H85.5208C85.7247 79.9498 85.9081 79.8261 85.9844 79.6371C86.0608 79.4482 86.0148 79.2318 85.8682 79.0902L77.9554 71.4489C77.8622 71.3589 77.7377 71.3086 77.6081 71.3086H29.7041Z" fill="#108E3A" stroke="#0AFB3F" stroke-linejoin="round"/>
<path d="M105.968 84.1414C105.992 84.1868 106.024 84.2282 106.061 84.264L113.974 91.9053C114.151 92.0765 114.427 92.093 114.623 91.9441C114.819 91.7953 114.878 91.5256 114.761 91.3086L79.0493 24.9726C79.0248 24.9272 78.9935 24.8858 78.9564 24.8499L71.0436 17.2087C70.8663 17.0375 70.5908 17.021 70.3944 17.1698C70.1979 17.3186 70.1392 17.5884 70.256 17.8054L105.968 84.1414Z" fill="#108E3A" stroke="#0AFB3F" stroke-linejoin="round"/>
<path d="M146.761 15.8649C146.668 15.7749 146.544 15.7246 146.414 15.7246H124.622C124.418 15.7246 124.235 15.8483 124.158 16.0373C124.082 16.2263 124.128 16.4427 124.275 16.5843L132.187 24.2255C132.281 24.3155 132.405 24.3659 132.535 24.3659H154.327C154.531 24.3659 154.714 24.2421 154.79 24.0532C154.867 23.8642 154.821 23.6478 154.674 23.5062L146.761 15.8649Z" fill="#108E3A" stroke="#0AFB3F" stroke-linejoin="round"/>
<path d="M77.9557 71.4489C77.7797 71.2789 77.5064 71.2613 77.31 71.4074C77.1136 71.5535 77.0518 71.8203 77.164 72.0378L83.404 84.1338C83.429 84.1823 83.4618 84.2264 83.5011 84.2643L91.4138 91.9055C91.5899 92.0755 91.8632 92.0931 92.0596 91.947C92.2559 91.8009 92.3177 91.5341 92.2055 91.3166L85.9655 79.2206C85.9405 79.1721 85.9077 79.1281 85.8685 79.0902L77.9557 71.4489Z" fill="#108E3A" stroke="#0AFB3F" stroke-linejoin="round"/>
<path d="M124.969 15.8649C124.825 15.7256 124.611 15.686 124.427 15.7644C124.242 15.8428 124.122 16.024 124.122 16.2246V83.2326C124.122 83.3682 124.177 83.4981 124.275 83.5923L132.187 91.2335C132.332 91.3729 132.545 91.4125 132.73 91.3341C132.915 91.2557 133.035 91.0745 133.035 90.8739V23.8659C133.035 23.7302 132.98 23.6004 132.882 23.5062L124.969 15.8649Z" fill="#108E3A" stroke="#0AFB3F" stroke-linejoin="round"/>
<path d="M145.914 41.4726C145.914 41.6082 145.969 41.7381 146.067 41.8323L153.979 49.4735C154.124 49.6129 154.337 49.6525 154.522 49.5741C154.707 49.4957 154.827 49.3145 154.827 49.1139V23.8659C154.827 23.7302 154.772 23.6004 154.674 23.5062L146.761 15.8649C146.617 15.7256 146.403 15.686 146.219 15.7644C146.034 15.8428 145.914 16.024 145.914 16.2246V41.4726Z" fill="#108E3A" stroke="#0AFB3F" stroke-linejoin="round"/>
<path d="M83.8477 83.4043C83.6438 83.4043 83.4604 83.528 83.3841 83.717C83.3077 83.906 83.3537 84.1224 83.5003 84.264L91.4131 91.9052C91.5063 91.9952 91.6308 92.0455 91.7604 92.0455H114.32C114.524 92.0455 114.708 91.9218 114.784 91.7328C114.86 91.5439 114.814 91.3275 114.668 91.1859L106.755 83.5446C106.662 83.4546 106.537 83.4043 106.408 83.4043H83.8477Z" fill="#108E3A" stroke="#0AFB3F" stroke-linejoin="round"/>
<path d="M173.161 33.2409C173.068 33.1509 172.944 33.1006 172.814 33.1006C162.455 33.1006 153.516 35.7161 146.121 41.0675C146.001 41.1543 145.926 41.2897 145.915 41.4372C145.905 41.5848 145.96 41.7295 146.067 41.8323L153.979 49.4735C154.154 49.6418 154.424 49.6609 154.62 49.5189C161.817 44.3103 170.542 41.7418 180.727 41.7418C180.931 41.7418 181.114 41.6181 181.19 41.4291C181.267 41.2402 181.221 41.0237 181.074 40.8822L173.161 33.2409Z" fill="#108E3A" stroke="#0AFB3F" stroke-linejoin="round"/>
<path d="M145.914 58.6562C145.914 58.7919 145.969 58.9217 146.067 59.0159L153.979 66.6571C154.124 66.7965 154.337 66.8361 154.522 66.7577C154.707 66.6793 154.827 66.4981 154.827 66.2975C154.827 63.0289 156.358 60.1947 159.609 57.8723C159.73 57.786 159.806 57.6504 159.817 57.5024C159.828 57.3543 159.773 57.2089 159.666 57.1058L151.753 49.4645C151.58 49.297 151.312 49.2772 151.115 49.4174C147.647 51.895 145.914 55.0127 145.914 58.6562Z" fill="#108E3A" stroke="#0AFB3F" stroke-linejoin="round"/>
<path d="M145.914 58.9442C145.914 59.0799 145.969 59.2097 146.067 59.3039L153.979 66.9452C154.124 67.0845 154.337 67.1241 154.522 67.0457C154.707 66.9673 154.827 66.7861 154.827 66.5855V66.2975C154.827 66.1619 154.772 66.032 154.674 65.9378L146.761 58.2966C146.617 58.1572 146.403 58.1176 146.219 58.196C146.034 58.2744 145.914 58.4556 145.914 58.6562V58.9442Z" fill="#108E3A" stroke="#0AFB3F" stroke-linejoin="round"/>
<path d="M151.103 49.4269C150.987 49.5154 150.915 49.6499 150.907 49.7953C150.899 49.9407 150.954 50.0826 151.059 50.1837L158.972 57.825C159.15 57.9968 159.426 58.0127 159.623 57.8625C162.766 55.459 167.345 54.2213 173.431 54.2213C173.635 54.2213 173.818 54.0976 173.895 53.9086C173.971 53.7196 173.925 53.5032 173.778 53.3617L165.866 45.7204C165.772 45.6304 165.648 45.5801 165.518 45.5801C159.316 45.5801 154.488 46.8384 151.103 49.4269Z" fill="#108E3A" stroke="#0AFB3F" stroke-linejoin="round"/>
<path d="M174.985 33.2409C174.892 33.1509 174.767 33.1006 174.637 33.1006H172.813C172.61 33.1006 172.426 33.2243 172.35 33.4133C172.274 33.6023 172.32 33.8187 172.466 33.9603L180.379 41.6015C180.472 41.6915 180.597 41.7418 180.726 41.7418H182.55C182.754 41.7418 182.937 41.6181 183.014 41.4291C183.09 41.2402 183.044 41.0237 182.898 40.8822L174.985 33.2409Z" fill="#108E3A" stroke="#0AFB3F" stroke-linejoin="round"/>
<path d="M157.469 74.4038L157.469 74.4037C157.469 74.4037 157.469 74.4037 157.469 74.4036C157.469 74.4033 157.468 74.403 157.468 74.4027L149.563 66.7686C147.174 64.4631 145.914 61.8878 145.914 58.9443C145.914 58.7437 146.034 58.5625 146.219 58.4841C146.403 58.4057 146.617 58.4453 146.761 58.5847L154.674 66.2259C154.772 66.3201 154.827 66.4499 154.827 66.5856C154.827 69.201 155.932 71.5277 158.164 73.6845C158.166 73.6865 158.168 73.6884 158.17 73.6904M157.469 74.4038C157.471 74.4058 157.473 74.4078 157.476 74.4097M157.469 74.4038L157.475 74.4098L157.476 74.4097M157.469 74.4038L158.164 73.6844L157.817 74.0441L158.164 73.6845L158.17 73.6903L158.17 73.6904M158.17 73.6904L157.476 74.4097M158.17 73.6904C158.363 73.8828 158.366 74.1949 158.176 74.3915C157.986 74.588 157.674 74.5954 157.476 74.4097M157.817 74.0441L157.823 74.0501" fill="#108E3A" stroke="#0AFB3F" stroke-linejoin="round"/>
<path d="M165.518 45.5801C165.314 45.5801 165.13 45.7038 165.054 45.8928C164.978 46.0818 165.024 46.2982 165.17 46.4397L173.083 54.081C173.176 54.171 173.301 54.2213 173.43 54.2213H174.006C174.21 54.2213 174.394 54.0976 174.47 53.9086C174.546 53.7196 174.5 53.5032 174.354 53.3617L166.441 45.7204C166.348 45.6304 166.223 45.5801 166.094 45.5801H165.518Z" fill="#108E3A" stroke="#0AFB3F" stroke-linejoin="round"/>
<path d="M124.622 82.7324C124.418 82.7324 124.235 82.8561 124.158 83.0451C124.082 83.2341 124.128 83.4505 124.275 83.5921L132.187 91.2333C132.281 91.3234 132.405 91.3737 132.535 91.3737H152.695C152.899 91.3737 153.082 91.2499 153.158 91.061C153.235 90.872 153.189 90.6556 153.042 90.514L145.129 82.8728C145.036 82.7827 144.912 82.7324 144.782 82.7324H124.622Z" fill="#108E3A" stroke="#0AFB3F" stroke-linejoin="round"/>
<path d="M151.85 67.417C151.836 67.4042 151.822 67.3921 151.808 67.3808C151.241 66.944 150.725 66.5005 150.257 66.0495C150.257 66.0495 150.257 66.0494 150.257 66.0494C150.059 65.8577 149.742 65.8633 149.55 66.0619C149.359 66.2605 149.364 66.577 149.563 66.7688L149.563 66.7689L157.476 74.4101L157.476 74.4102C157.972 74.8893 158.517 75.3568 159.11 75.8138C159.32 75.9759 159.62 75.9456 159.793 75.7448C159.967 75.544 159.953 75.2426 159.762 75.0583L151.85 67.417Z" fill="#108E3A" stroke="#0AFB3F" stroke-linejoin="round"/>
<path d="M166.094 45.5801C165.89 45.5801 165.707 45.7038 165.63 45.8928C165.554 46.0818 165.6 46.2982 165.746 46.4397L173.659 54.081C173.752 54.171 173.877 54.2213 174.006 54.2213C180.49 54.2213 185.057 55.4645 187.806 57.6638C188.015 57.8306 188.318 57.8041 188.494 57.6035C188.67 57.403 188.658 57.0992 188.466 56.9136L180.553 49.2724C180.542 49.2616 180.53 49.2513 180.518 49.2416C177.507 46.8329 172.666 45.5801 166.094 45.5801Z" fill="#108E3A" stroke="#0AFB3F" stroke-linejoin="round"/>
<path d="M144.285 83.1739C144.266 83.3289 144.322 83.4836 144.434 83.592L152.347 91.2332C152.483 91.3652 152.683 91.4083 152.862 91.3445C153.041 91.2806 153.168 91.1207 153.191 90.932C153.572 87.6856 154.047 85.5148 154.512 84.1197C154.573 83.937 154.524 83.7356 154.385 83.6019L146.473 75.9606C146.349 75.8413 146.173 75.7938 146.006 75.8347C145.839 75.8756 145.705 75.9993 145.651 76.1622C145.156 77.6471 144.671 79.8922 144.285 83.1739Z" fill="#108E3A" stroke="#0AFB3F" stroke-linejoin="round"/>
<path d="M199.561 39.9609C199.555 39.9549 199.548 39.9491 199.542 39.9434C194.224 35.3146 185.917 33.1006 174.638 33.1006C174.434 33.1006 174.25 33.2243 174.174 33.4133C174.098 33.6023 174.144 33.8187 174.29 33.9603L182.203 41.6015C182.296 41.6915 182.421 41.7418 182.55 41.7418C193.735 41.7418 201.748 43.9438 206.798 48.339C207.003 48.517 207.312 48.4996 207.495 48.2997C207.678 48.0999 207.669 47.7905 207.474 47.6022L199.561 39.9609Z" fill="#108E3A" stroke="#0AFB3F" stroke-linejoin="round"/>
<path d="M165.865 71.2567C165.772 71.1667 165.648 71.1164 165.518 71.1164C159.537 71.1164 154.954 69.7865 151.806 67.3792C151.595 67.2182 151.296 67.2494 151.123 67.4503C150.95 67.6512 150.964 67.952 151.155 68.136L159.067 75.7773C159.081 75.7906 159.096 75.8031 159.111 75.8148C162.491 78.3995 167.316 79.7576 173.431 79.7576C173.635 79.7576 173.818 79.6339 173.894 79.4449C173.971 79.2559 173.925 79.0395 173.778 78.8979L165.865 71.2567Z" fill="#108E3A" stroke="#0AFB3F" stroke-linejoin="round"/>
<path d="M146.47 75.9573C146.27 75.7681 145.955 75.7758 145.765 75.9747C145.574 76.1736 145.581 76.4888 145.779 76.68L153.691 84.3212L153.691 84.3212L153.695 84.3245C155.593 86.1229 158.936 87.8796 163.451 89.7051C163.673 89.7948 163.928 89.7147 164.058 89.5139C164.188 89.3132 164.158 89.0482 163.986 88.8819L156.073 81.2406C156.027 81.1961 155.973 81.1608 155.913 81.1368C151.405 79.3143 148.22 77.615 146.47 75.9573Z" fill="#108E3A" stroke="#0AFB3F" stroke-linejoin="round"/>
<path d="M180.526 49.2487C180.319 49.0765 180.014 49.0987 179.834 49.2989C179.654 49.4991 179.665 49.8056 179.859 49.9925L181.353 51.4351C183.135 53.4562 184.026 55.8383 184.026 58.6568C184.026 58.7924 184.081 58.9223 184.179 59.0165L192.091 66.6577C192.236 66.7971 192.449 66.8367 192.634 66.7583C192.819 66.6799 192.939 66.4987 192.939 66.2981C192.939 62.5008 191.432 59.3903 188.453 56.9018L182.076 50.743C181.612 50.2207 181.095 49.723 180.526 49.2487Z" fill="#108E3A" stroke="#0AFB3F" stroke-linejoin="round"/>
<path d="M166.441 71.2565C166.348 71.1665 166.223 71.1162 166.094 71.1162H165.518C165.314 71.1162 165.13 71.2399 165.054 71.4289C164.978 71.6179 165.024 71.8343 165.17 71.9759L173.083 79.6171C173.176 79.7071 173.301 79.7575 173.43 79.7575H174.006C174.21 79.7575 174.394 79.6337 174.47 79.4448C174.546 79.2558 174.5 79.0394 174.354 78.8978L166.441 71.2565Z" fill="#108E3A" stroke="#0AFB3F" stroke-linejoin="round"/>
<path d="M180.553 67.5134C180.369 67.3356 180.081 67.3255 179.884 67.49C177.041 69.8747 172.48 71.117 166.094 71.117C165.89 71.117 165.707 71.2408 165.63 71.4297C165.554 71.6187 165.6 71.8351 165.746 71.9767L173.659 79.618C173.752 79.708 173.877 79.7583 174.006 79.7583C180.485 79.7583 185.331 78.5047 188.44 75.8974C188.548 75.8063 188.613 75.6734 188.618 75.5318C188.623 75.3902 188.568 75.2531 188.466 75.1546L180.553 67.5134Z" fill="#108E3A" stroke="#0AFB3F" stroke-linejoin="round"/>
<path d="M184.873 58.2966C184.728 58.1572 184.515 58.1176 184.33 58.196C184.145 58.2744 184.025 58.4556 184.025 58.6562V58.9442C184.025 59.0799 184.08 59.2097 184.178 59.3039L192.091 66.9452C192.235 67.0845 192.449 67.1241 192.633 67.0457C192.818 66.9673 192.938 66.7861 192.938 66.5855V66.2975C192.938 66.1619 192.883 66.032 192.785 65.9378L184.873 58.2966Z" fill="#108E3A" stroke="#0AFB3F" stroke-linejoin="round"/>
<path d="M184.873 58.5847C184.729 58.4453 184.515 58.4057 184.331 58.4841C184.146 58.5625 184.026 58.7437 184.026 58.9443C184.026 62.2394 182.662 65.0825 179.879 67.4945C179.773 67.5864 179.71 67.7186 179.706 67.8589C179.702 67.9991 179.758 68.1345 179.859 68.232L187.771 75.8733C187.958 76.0531 188.251 76.061 188.446 75.8914C191.423 73.3114 192.939 70.2025 192.939 66.5856C192.939 66.4499 192.884 66.3201 192.786 66.2259L184.873 58.5847Z" fill="#108E3A" stroke="#0AFB3F" stroke-linejoin="round"/>
<path d="M155.913 81.137C155.691 81.0473 155.437 81.1275 155.306 81.3282C155.176 81.529 155.206 81.794 155.378 81.9603L163.291 89.6015C163.337 89.6461 163.391 89.6813 163.451 89.7054C168.036 91.5591 173.575 92.5258 180.15 92.5258C180.354 92.5258 180.538 92.4021 180.614 92.2131C180.69 92.0242 180.644 91.8077 180.498 91.6662L172.585 84.0249C172.492 83.9349 172.367 83.8846 172.238 83.8846C165.757 83.8846 160.352 82.9314 155.913 81.137Z" fill="#108E3A" stroke="#0AFB3F" stroke-linejoin="round"/>
<path d="M206.394 57.8883C206.394 58.0239 206.449 58.1538 206.547 58.248L214.459 65.8892C214.604 66.0286 214.817 66.0682 215.002 65.9898C215.187 65.9114 215.307 65.7302 215.307 65.5296C215.307 58.1044 212.663 52.1096 207.464 47.5927L201.416 41.7518C200.833 41.1239 200.208 40.5209 199.542 39.9427C199.337 39.7651 199.028 39.7828 198.845 39.9827C198.662 40.1825 198.672 40.4918 198.867 40.68L200.702 42.4521C204.469 46.5181 206.394 51.6512 206.394 57.8883Z" fill="#108E3A" stroke="#0AFB3F" stroke-linejoin="round"/>
<path d="M172.238 83.8848C172.034 83.8848 171.851 84.0085 171.775 84.1975C171.698 84.3864 171.744 84.6028 171.891 84.7444L179.804 92.3857C179.897 92.4757 180.021 92.526 180.151 92.526H181.879C182.083 92.526 182.266 92.4023 182.343 92.2133C182.419 92.0243 182.373 91.8079 182.226 91.6663L174.314 84.0251C174.22 83.9351 174.096 83.8848 173.966 83.8848H172.238Z" fill="#108E3A" stroke="#0AFB3F" stroke-linejoin="round"/>
<path d="M173.966 83.8842C173.762 83.8842 173.579 84.0079 173.502 84.1969C173.426 84.3858 173.472 84.6022 173.618 84.7438L181.531 92.3851C181.624 92.4751 181.749 92.5254 181.879 92.5254C187.581 92.5254 192.625 91.849 197.003 90.4868C197.172 90.4344 197.3 90.2968 197.341 90.1249C197.382 89.9531 197.329 89.7724 197.202 89.6497L189.289 82.0085C189.158 81.8816 188.968 81.8365 188.793 81.8907C184.532 83.2166 179.592 83.8842 173.966 83.8842Z" fill="#108E3A" stroke="#0AFB3F" stroke-linejoin="round"/>
<path d="M206.394 59.6167C206.394 59.7523 206.449 59.8821 206.546 59.9763L214.459 67.6176C214.603 67.757 214.817 67.7966 215.002 67.7182C215.186 67.6398 215.306 67.4586 215.306 67.2579V65.5299C215.306 65.3943 215.251 65.2645 215.154 65.1702L207.241 57.529C207.097 57.3896 206.883 57.35 206.698 57.4284C206.513 57.5068 206.394 57.688 206.394 57.8887V59.6167Z" fill="#108E3A" stroke="#0AFB3F" stroke-linejoin="round"/>
<path d="M204.521 68.8128C204.43 69.0062 204.473 69.2356 204.626 69.3839L212.539 77.0251C212.655 77.1374 212.819 77.1865 212.977 77.1571C213.136 77.1277 213.271 77.0233 213.339 76.8769C214.72 73.9175 215.306 70.6745 215.306 67.2575C215.306 67.1218 215.251 66.992 215.154 66.8978L207.241 59.2565C207.097 59.1172 206.883 59.0776 206.698 59.156C206.514 59.2344 206.394 59.4156 206.394 59.6162C206.394 62.9192 205.828 66.0121 204.521 68.8128Z" fill="#108E3A" stroke="#0AFB3F" stroke-linejoin="round"/>
<path d="M188.793 81.8914C188.624 81.9438 188.496 82.0814 188.455 82.2533C188.414 82.4251 188.467 82.6057 188.594 82.7285L196.507 90.3697C196.638 90.4966 196.828 90.5417 197.003 90.4875C201.369 89.1291 204.903 87.2736 207.473 84.8024C207.571 84.7083 207.626 84.5784 207.626 84.4426C207.626 84.3067 207.571 84.1767 207.473 84.0824L199.561 76.4411C199.367 76.2543 199.061 76.254 198.867 76.4404C196.445 78.7692 193.067 80.5617 188.793 81.8914Z" fill="#108E3A" stroke="#0AFB3F" stroke-linejoin="round"/>
<path d="M198.882 76.4267C198.778 76.5192 198.717 76.6509 198.714 76.7901C198.711 76.9293 198.766 77.0634 198.867 77.1601L206.779 84.8013C206.967 84.9829 207.263 84.989 207.459 84.8154C210.099 82.4681 212.066 79.818 213.345 76.8645C213.428 76.6733 213.384 76.4507 213.234 76.306L205.321 68.6647C205.203 68.5508 205.037 68.502 204.876 68.5341C204.715 68.5662 204.58 68.6751 204.515 68.8256C203.299 71.6321 201.425 74.166 198.882 76.4267Z" fill="#108E3A" stroke="#0AFB3F" stroke-linejoin="round"/>
<path d="M239.781 38.1364C239.62 37.9806 239.375 37.9513 239.181 38.0647C236.355 39.7214 234.091 41.5864 232.314 43.9561C232.163 44.1578 232.185 44.4406 232.367 44.6158L240.279 52.257C240.382 52.3566 240.523 52.4072 240.666 52.3958C240.809 52.3843 240.941 52.3121 241.027 52.1973C242.705 49.959 244.857 48.1761 247.599 46.5687C247.734 46.4896 247.825 46.3519 247.843 46.1966C247.862 46.0413 247.806 45.8863 247.694 45.7777L239.781 38.1364Z" fill="#108E3A" stroke="#0AFB3F" stroke-linejoin="round"/>
<path d="M233.061 43.8972C232.96 43.7988 232.821 43.7482 232.679 43.758C232.538 43.7679 232.408 43.8371 232.32 43.9487C230.563 46.1946 229.377 48.3607 228.684 50.6393C228.629 50.8189 228.68 51.0141 228.815 51.1445L236.728 58.7857C236.853 58.9067 237.032 58.9538 237.2 58.9101C237.369 58.8664 237.502 58.7382 237.553 58.5717C238.204 56.4342 239.322 54.3763 241.021 52.2062C241.178 52.0046 241.158 51.7163 240.974 51.5384L233.061 43.8972Z" fill="#108E3A" stroke="#0AFB3F" stroke-linejoin="round"/>
<path d="M250.725 34.2966C250.605 34.1811 250.436 34.1326 250.274 34.1672C245.734 35.133 242.029 36.3953 239.181 38.0649C239.046 38.144 238.956 38.2817 238.937 38.437C238.919 38.5922 238.974 38.7473 239.086 38.8559L246.999 46.4972C247.16 46.653 247.406 46.6823 247.599 46.5688C250.319 44.9744 253.91 43.7408 258.394 42.7865C258.575 42.7481 258.72 42.613 258.771 42.4353C258.822 42.2576 258.771 42.0662 258.638 41.9378L250.725 34.2966Z" fill="#108E3A" stroke="#0AFB3F" stroke-linejoin="round"/>
<path d="M229.509 50.4245C229.384 50.3036 229.205 50.2565 229.037 50.3002C228.868 50.3439 228.734 50.4721 228.684 50.6386C227.995 52.9002 227.702 55.158 227.702 57.6002C227.702 57.7358 227.757 57.8656 227.855 57.9599L235.768 65.6011C235.912 65.7405 236.126 65.7801 236.31 65.7017C236.495 65.6233 236.615 65.4421 236.615 65.2414C236.615 62.8836 236.898 60.7254 237.553 58.571C237.608 58.3913 237.557 58.1962 237.422 58.0658L229.509 50.4245Z" fill="#108E3A" stroke="#0AFB3F" stroke-linejoin="round"/>
<path d="M228.549 57.2409C228.405 57.1015 228.191 57.0619 228.007 57.1403C227.822 57.2187 227.702 57.3999 227.702 57.6006V59.2326C227.702 59.3682 227.757 59.498 227.855 59.5923L235.768 67.2335C235.912 67.3729 236.126 67.4125 236.31 67.3341C236.495 67.2557 236.615 67.0745 236.615 66.8738V65.2418C236.615 65.1062 236.56 64.9764 236.462 64.8822L228.549 57.2409Z" fill="#108E3A" stroke="#0AFB3F" stroke-linejoin="round"/>
<path d="M228.549 58.8728C228.405 58.7334 228.191 58.6938 228.007 58.7722C227.822 58.8506 227.702 59.0318 227.702 59.2324C227.702 61.6725 227.995 64.0267 228.684 66.29C228.709 66.3713 228.754 66.445 228.815 66.5041L236.728 74.1453C236.891 74.3036 237.142 74.3311 237.336 74.2121C237.53 74.0932 237.62 73.858 237.553 73.6401C236.898 71.4874 236.615 69.2336 236.615 66.8737C236.615 66.738 236.56 66.6082 236.462 66.514L228.549 58.8728Z" fill="#108E3A" stroke="#0AFB3F" stroke-linejoin="round"/>
<path d="M266.373 32.7614C266.28 32.6714 266.156 32.6211 266.026 32.6211C260.145 32.6211 254.825 33.1029 250.264 34.1703C250.086 34.212 249.945 34.3477 249.896 34.5242C249.847 34.7007 249.899 34.8896 250.031 35.0168L257.943 42.658C258.066 42.776 258.239 42.8239 258.405 42.7852C262.868 41.7406 268.107 41.2623 273.939 41.2623C274.142 41.2623 274.326 41.1386 274.402 40.9496C274.479 40.7607 274.433 40.5443 274.286 40.4027L266.373 32.7614Z" fill="#108E3A" stroke="#0AFB3F" stroke-linejoin="round"/>
<path d="M229.509 65.7849C229.346 65.6266 229.095 65.5991 228.901 65.718C228.707 65.837 228.617 66.0722 228.684 66.2901C229.376 68.5647 230.56 70.8277 232.418 73.1749C232.432 73.1923 232.447 73.2088 232.463 73.2242L240.376 80.8654C240.565 81.0483 240.864 81.053 241.059 80.8763C241.254 80.6995 241.278 80.4018 241.115 80.1954C239.325 77.9346 238.205 75.7816 237.553 73.6402C237.528 73.5589 237.483 73.4852 237.422 73.4261L229.509 65.7849Z" fill="#108E3A" stroke="#0AFB3F" stroke-linejoin="round"/>
<path d="M273.382 32.7614C273.288 32.6714 273.164 32.6211 273.034 32.6211H266.026C265.823 32.6211 265.639 32.7448 265.563 32.9338C265.486 33.1228 265.532 33.3392 265.679 33.4808L273.592 41.122C273.685 41.212 273.81 41.2623 273.939 41.2623H280.947C281.151 41.2623 281.334 41.1386 281.411 40.9496C281.487 40.7607 281.441 40.5443 281.294 40.4027L273.382 32.7614Z" fill="#108E3A" stroke="#0AFB3F" stroke-linejoin="round"/>
<path d="M250.07 58.2724C250.07 58.4081 250.125 58.5379 250.223 58.6321L258.136 66.2733C258.28 66.4127 258.494 66.4523 258.678 66.3739C258.863 66.2955 258.983 66.1143 258.983 65.9137C258.983 62.5178 260.351 59.6839 263.115 57.4721C263.228 57.3823 263.296 57.2486 263.303 57.105C263.309 56.9614 263.254 56.8219 263.15 56.722L255.238 49.0808C255.057 48.9061 254.774 48.8929 254.578 49.05C251.583 51.4462 250.07 54.5643 250.07 58.2724Z" fill="#108E3A" stroke="#0AFB3F" stroke-linejoin="round"/>
<path d="M233.158 72.5046C232.969 72.3221 232.671 72.317 232.476 72.4928C232.281 72.6687 232.255 72.9655 232.417 73.1724C233.082 74.0228 233.818 74.8455 234.628 75.6298L234.629 75.6302L242.541 83.271L242.541 83.2714C242.74 83.4632 243.056 83.4577 243.248 83.2593C243.44 83.0608 243.435 82.7444 243.236 82.5524C242.46 81.801 241.755 81.0126 241.117 80.1973C241.103 80.1791 241.087 80.1619 241.071 80.1458L233.158 72.5046Z" fill="#108E3A" stroke="#0AFB3F" stroke-linejoin="round"/>
<path d="M250.07 58.7525C250.07 58.8881 250.125 59.0179 250.223 59.1121L258.136 66.7534C258.28 66.8927 258.494 66.9323 258.678 66.854C258.863 66.7756 258.983 66.5943 258.983 66.3937V65.9137C258.983 65.7781 258.928 65.6483 258.83 65.554L250.918 57.9128C250.773 57.7734 250.56 57.7338 250.375 57.8122C250.19 57.8906 250.07 58.0718 250.07 58.2725V58.7525Z" fill="#108E3A" stroke="#0AFB3F" stroke-linejoin="round"/>
<path d="M254.578 49.0499C254.466 49.1397 254.398 49.2735 254.391 49.4171C254.384 49.5607 254.44 49.7002 254.543 49.8L262.456 57.4413C262.637 57.616 262.919 57.6291 263.116 57.4721C265.857 55.2787 270.607 54.1256 277.491 54.1256C277.695 54.1256 277.879 54.0019 277.955 53.8129C278.031 53.6239 277.985 53.4075 277.839 53.2659L269.926 45.6247C269.833 45.5347 269.708 45.4844 269.579 45.4844C262.639 45.4844 257.597 46.6353 254.578 49.0499Z" fill="#108E3A" stroke="#0AFB3F" stroke-linejoin="round"/>
<path d="M235.323 74.9108C235.124 74.7191 234.808 74.7245 234.616 74.923C234.424 75.1215 234.43 75.4379 234.628 75.6298L234.628 75.6302L234.664 75.6643L234.664 75.6647L242.541 83.2711C242.541 83.2711 242.541 83.2712 242.541 83.2713C243.879 84.5665 245.421 85.7561 247.19 86.7929C247.409 86.9209 247.688 86.8654 247.841 86.6637C247.994 86.462 247.972 86.1777 247.79 86.0018L239.878 78.3606C239.849 78.333 239.817 78.309 239.783 78.2889C238.099 77.3019 236.632 76.1723 235.358 74.9446L235.323 74.9112L235.323 74.9108Z" fill="#108E3A" stroke="#0AFB3F" stroke-linejoin="round"/>
<path d="M261.575 74.6282L261.575 74.6283C261.575 74.6283 261.575 74.6283 261.575 74.6283L261.581 74.6334L261.581 74.6333C261.78 74.82 262.092 74.8128 262.282 74.616C262.473 74.4191 262.469 74.1062 262.275 73.9139L262.275 73.9138L262.27 73.909C262.27 73.909 262.27 73.909 262.27 73.909C262.27 73.9088 262.27 73.9086 262.27 73.9084C260.048 71.7621 258.983 69.2213 258.983 66.3932C258.983 66.2576 258.928 66.1277 258.83 66.0335L250.918 58.3923C250.773 58.2529 250.56 58.2133 250.375 58.2917C250.19 58.3701 250.07 58.5513 250.07 58.752C250.07 61.8642 251.255 64.6636 253.668 66.9921L261.575 74.6282Z" fill="#108E3A" stroke="#0AFB3F" stroke-linejoin="round"/>
<path d="M269.578 45.4844C269.374 45.4844 269.191 45.6081 269.115 45.7971C269.038 45.9861 269.084 46.2025 269.231 46.344L277.144 53.9853C277.237 54.0753 277.361 54.1256 277.491 54.1256H277.587C277.791 54.1256 277.974 54.0019 278.05 53.8129C278.127 53.6239 278.081 53.4075 277.934 53.2659L270.021 45.6247C269.928 45.5347 269.804 45.4844 269.674 45.4844H269.578Z" fill="#108E3A" stroke="#0AFB3F" stroke-linejoin="round"/>
<path d="M255.333 67.1287C255.322 67.1184 255.311 67.1085 255.3 67.0992C254.967 66.8306 254.654 66.5551 254.362 66.2731C254.362 66.2731 254.362 66.2731 254.362 66.2731C254.163 66.0813 253.847 66.0869 253.655 66.2855C253.463 66.4842 253.469 66.8007 253.667 66.9925L253.667 66.9926L261.58 74.6337L261.58 74.6338C261.895 74.9372 262.229 75.2323 262.585 75.5188C262.793 75.6868 263.096 75.6611 263.273 75.4606C263.45 75.2601 263.438 74.9558 263.246 74.77L255.333 67.1287Z" fill="#108E3A" stroke="#0AFB3F" stroke-linejoin="round"/>
<path d="M239.783 78.2894C239.565 78.1613 239.285 78.2168 239.132 78.4185C238.979 78.6202 239.001 78.9045 239.183 79.0804L247.096 86.7216C247.124 86.7492 247.156 86.7732 247.19 86.7933C250.037 88.4622 253.741 89.7241 258.273 90.7848C258.492 90.8361 258.718 90.7347 258.826 90.5372C258.934 90.3396 258.896 90.0945 258.734 89.9383L250.822 82.297C250.757 82.2344 250.676 82.1904 250.588 82.1699C246.096 81.1186 242.504 79.8845 239.783 78.2894Z" fill="#108E3A" stroke="#0AFB3F" stroke-linejoin="round"/>
<path d="M269.674 45.4844C269.47 45.4844 269.287 45.6081 269.21 45.7971C269.134 45.9861 269.18 46.2025 269.326 46.344L277.239 53.9853C277.332 54.0753 277.457 54.1256 277.587 54.1256C284.279 54.1256 289.023 55.2787 291.762 57.5617C291.969 57.734 292.275 57.7118 292.455 57.5116C292.634 57.3113 292.623 57.0048 292.43 56.8179L284.517 49.1767C284.508 49.1682 284.499 49.1601 284.49 49.1523C281.47 46.6353 276.422 45.4844 269.674 45.4844Z" fill="#108E3A" stroke="#0AFB3F" stroke-linejoin="round"/>
<path d="M312.232 49.8775L312.237 49.8825L312.237 49.8824C312.436 50.0684 312.748 50.061 312.938 49.8643C313.128 49.6677 313.125 49.3558 312.932 49.1634L312.932 49.1633L312.926 49.1574L312.926 49.1573C312.924 49.1561 312.923 49.1548 312.922 49.1536L305.019 41.5221C305.019 41.522 305.019 41.522 305.019 41.522C298.83 35.5428 288.117 32.6211 273.034 32.6211C272.83 32.6211 272.647 32.7448 272.571 32.9338C272.494 33.1228 272.54 33.3392 272.687 33.4808L280.6 41.122C280.693 41.212 280.817 41.2623 280.947 41.2623C295.952 41.2623 306.329 44.179 312.231 49.8768C312.232 49.877 312.232 49.8772 312.232 49.8775Z" fill="#108E3A" stroke="#0AFB3F" stroke-linejoin="round"/>
<path d="M269.926 70.8726C269.832 70.7826 269.708 70.7323 269.578 70.7323C262.796 70.7323 258.054 69.4853 255.314 67.1104C255.109 66.933 254.8 66.9509 254.617 67.1508C254.435 67.3506 254.444 67.6598 254.639 67.848L262.552 75.4892C262.558 75.4954 262.565 75.5015 262.572 75.5074C265.591 78.1245 270.641 79.3735 277.491 79.3735C277.695 79.3735 277.878 79.2498 277.955 79.0608C278.031 78.8718 277.985 78.6554 277.838 78.5139L269.926 70.8726Z" fill="#108E3A" stroke="#0AFB3F" stroke-linejoin="round"/>
<path d="M284.476 49.1408C284.266 48.9782 283.966 49.0081 283.792 49.2089C283.618 49.4097 283.632 49.7113 283.823 49.8958L291.735 57.537C291.748 57.5497 291.762 57.5616 291.777 57.5727C292.159 57.8688 292.514 58.1755 292.842 58.4923C293.041 58.6841 293.357 58.6785 293.549 58.4798C293.741 58.2812 293.735 57.9647 293.537 57.7729L293.537 57.7728C293.537 57.7727 293.537 57.7726 293.536 57.7725L285.624 50.1316L285.624 50.1316C285.268 49.7884 284.886 49.458 284.476 49.1408Z" fill="#108E3A" stroke="#0AFB3F" stroke-linejoin="round"/>
<path d="M250.589 82.1694C250.37 82.1181 250.143 82.2195 250.036 82.417C249.928 82.6145 249.965 82.8596 250.127 83.0159L258.04 90.6572C258.105 90.7198 258.186 90.7638 258.273 90.7843C262.829 91.8505 268.148 92.4295 274.035 92.4295C274.239 92.4295 274.423 92.3058 274.499 92.1168C274.575 91.9278 274.529 91.7114 274.383 91.5698L266.47 83.9286C266.377 83.8386 266.252 83.7883 266.123 83.7883C260.298 83.7883 255.057 83.2152 250.589 82.1694Z" fill="#108E3A" stroke="#0AFB3F" stroke-linejoin="round"/>
<path d="M284.93 50.8519L284.934 50.8561C284.934 50.8561 284.934 50.8561 284.934 50.8562C287.059 52.9093 288.086 55.4127 288.086 58.273C288.086 58.4086 288.142 58.5385 288.239 58.6327L296.152 66.2739C296.296 66.4133 296.51 66.4529 296.695 66.3745C296.879 66.2961 296.999 66.1149 296.999 65.9142C296.999 62.7844 295.863 60.0187 293.537 57.7737L285.629 50.1369L285.629 50.1368C285.629 50.1368 285.629 50.1368 285.629 50.1368L285.625 50.1324L285.625 50.1325C285.426 49.9451 285.113 49.952 284.922 50.1491C284.732 50.3463 284.736 50.6597 284.93 50.8519L284.93 50.8519Z" fill="#108E3A" stroke="#0AFB3F" stroke-linejoin="round"/>
<path d="M284.517 67.1286C284.331 66.9487 284.038 66.9408 283.843 67.1104C281.102 69.4853 276.36 70.7323 269.578 70.7323C269.374 70.7323 269.191 70.856 269.115 71.045C269.038 71.234 269.084 71.4504 269.231 71.592L277.144 79.2332C277.237 79.3232 277.361 79.3735 277.491 79.3735C284.341 79.3735 289.391 78.1245 292.41 75.5074C292.516 75.4155 292.579 75.2832 292.583 75.143C292.586 75.0027 292.531 74.8673 292.43 74.7699L284.517 67.1286Z" fill="#108E3A" stroke="#0AFB3F" stroke-linejoin="round"/>
<path d="M288.933 57.9128C288.789 57.7734 288.575 57.7338 288.391 57.8122C288.206 57.8906 288.086 58.0718 288.086 58.2725V58.7525C288.086 58.8881 288.141 59.0179 288.239 59.1121L296.151 66.7534C296.296 66.8927 296.509 66.9323 296.694 66.854C296.879 66.7756 296.999 66.5943 296.999 66.3937V65.9137C296.999 65.7781 296.944 65.6483 296.846 65.554L288.933 57.9128Z" fill="#108E3A" stroke="#0AFB3F" stroke-linejoin="round"/>
<path d="M288.933 58.3923C288.789 58.2529 288.575 58.2133 288.391 58.2917C288.206 58.3701 288.086 58.5513 288.086 58.752C288.086 61.948 286.725 64.7854 283.856 67.0988C283.744 67.1888 283.677 67.3224 283.67 67.4656C283.664 67.6089 283.719 67.748 283.823 67.8476L291.735 75.4889C291.917 75.6641 292.2 75.6767 292.397 75.5184C295.48 73.0318 296.999 69.9171 296.999 66.3932C296.999 66.2576 296.944 66.1277 296.846 66.0335L288.933 58.3923Z" fill="#108E3A" stroke="#0AFB3F" stroke-linejoin="round"/>
<path d="M266.122 83.7891C265.918 83.7891 265.735 83.9128 265.658 84.1018C265.582 84.2907 265.628 84.5071 265.775 84.6487L273.687 92.29C273.781 92.38 273.905 92.4303 274.035 92.4303H280.947C281.151 92.4303 281.334 92.3066 281.41 92.1176C281.487 91.9286 281.441 91.7122 281.294 91.5706L273.381 83.9294C273.288 83.8394 273.164 83.7891 273.034 83.7891H266.122Z" fill="#108E3A" stroke="#0AFB3F" stroke-linejoin="round"/>
<path d="M310.262 57.6003C310.262 57.7359 310.317 57.8657 310.415 57.96L318.328 65.6012C318.472 65.7406 318.686 65.7802 318.87 65.7018C319.055 65.6234 319.175 65.4422 319.175 65.2415C319.175 58.5727 317.106 53.1946 312.932 49.1625L312.932 49.1624L305.019 41.5213L305.019 41.5212C304.821 41.3294 304.504 41.3349 304.312 41.5335C304.12 41.7321 304.126 42.0486 304.324 42.2405C304.324 42.2405 304.325 42.2405 304.325 42.2405C308.271 46.0535 310.262 51.1551 310.262 57.6003Z" fill="#108E3A" stroke="#0AFB3F" stroke-linejoin="round"/>
<path d="M273.034 83.7884C272.83 83.7884 272.647 83.9121 272.571 84.1011C272.494 84.2901 272.54 84.5065 272.687 84.6481L280.6 92.2893C280.693 92.3794 280.817 92.4297 280.947 92.4297C293.562 92.4297 303.111 90.338 309.52 86.0822C315.964 81.8025 319.175 75.3721 319.175 66.8737C319.175 66.738 319.12 66.6082 319.022 66.514L311.11 58.8728C310.965 58.7334 310.752 58.6938 310.567 58.7722C310.382 58.8506 310.262 59.0318 310.262 59.2324C310.262 67.4379 307.185 73.5356 301.054 77.6079C294.886 81.7041 285.571 83.7884 273.034 83.7884Z" fill="#108E3A" stroke="#0AFB3F" stroke-linejoin="round"/>
<path d="M310.262 59.2326C310.262 59.3682 310.317 59.498 310.414 59.5923L318.327 67.2335C318.471 67.3729 318.685 67.4125 318.87 67.3341C319.055 67.2557 319.174 67.0745 319.174 66.8738V65.2418C319.174 65.1062 319.119 64.9764 319.022 64.8822L311.109 57.2409C310.965 57.1015 310.751 57.0619 310.566 57.1403C310.382 57.2187 310.262 57.3999 310.262 57.6006V59.2326Z" fill="#108E3A" stroke="#0AFB3F" stroke-linejoin="round"/>
<path d="M354.679 34.489C354.586 34.3989 354.462 34.3486 354.332 34.3486H332.252C332.048 34.3486 331.865 34.4724 331.788 34.6613C331.712 34.8503 331.758 35.0667 331.905 35.2083L339.817 42.8495C339.911 42.9396 340.035 42.9899 340.165 42.9899H362.245C362.448 42.9899 362.632 42.8662 362.708 42.6772C362.785 42.4882 362.739 42.2718 362.592 42.1302L354.679 34.489Z" fill="#108E3A" stroke="#0AFB3F" stroke-linejoin="round"/>
<path d="M332.599 34.489C332.455 34.3496 332.241 34.31 332.057 34.3884C331.872 34.4668 331.752 34.648 331.752 34.8486V64.9926C331.752 65.1283 331.807 65.2581 331.905 65.3523L339.817 72.9935C339.962 73.1329 340.175 73.1725 340.36 73.0941C340.545 73.0157 340.665 72.8345 340.665 72.6339V42.4899C340.665 42.3542 340.61 42.2244 340.512 42.1302L332.599 34.489Z" fill="#108E3A" stroke="#0AFB3F" stroke-linejoin="round"/>
<path d="M353.832 58.7526C353.832 58.8883 353.887 59.0181 353.985 59.1123L361.897 66.7535C362.042 66.8929 362.255 66.9325 362.44 66.8541C362.625 66.7757 362.745 66.5945 362.745 66.3939V42.4899C362.745 42.3542 362.69 42.2244 362.592 42.1302L354.679 34.489C354.535 34.3496 354.321 34.31 354.137 34.3884C353.952 34.4668 353.832 34.648 353.832 34.8486V58.7526Z" fill="#108E3A" stroke="#0AFB3F" stroke-linejoin="round"/>
<path d="M332.599 64.6325C332.455 64.4931 332.241 64.4535 332.057 64.5319C331.872 64.6103 331.752 64.7915 331.752 64.9922C331.752 70.3238 333.832 74.9656 338.15 78.8931L345.018 85.5251C345.352 85.8685 345.702 86.2066 346.068 86.5394C346.271 86.7232 346.583 86.7107 346.77 86.5113C346.956 86.3119 346.949 85.9995 346.752 85.8098L345.723 84.8165C342.296 81.2915 340.665 77.2383 340.665 72.6334C340.665 72.4978 340.61 72.368 340.512 72.2738L332.599 64.6325Z" fill="#108E3A" stroke="#0AFB3F" stroke-linejoin="round"/>
<path d="M357.349 67.9481L364.886 75.2259C365.009 75.3513 365.136 75.4739 365.267 75.5938C365.469 75.7787 365.781 75.7671 365.969 75.5678C366.156 75.3686 366.149 75.0556 365.952 74.8655L365.59 74.5157C363.661 72.5499 362.745 69.8399 362.745 66.3932C362.745 66.2576 362.69 66.1277 362.592 66.0335L354.679 58.3923C354.535 58.2529 354.321 58.2133 354.137 58.2917C353.952 58.3701 353.832 58.5513 353.832 58.752C353.832 62.5898 354.917 65.7157 357.349 67.9481Z" fill="#108E3A" stroke="#0AFB3F" stroke-linejoin="round"/>
<path d="M338.833 78.1625C338.632 77.9754 338.318 77.9851 338.129 78.1842C337.941 78.3833 337.947 78.6974 338.145 78.888L346.058 86.5292L346.058 86.5293L346.064 86.5354C350.416 90.5904 356.8 92.5256 365.221 92.5256C365.425 92.5256 365.608 92.4018 365.685 92.2129C365.761 92.0239 365.715 91.8075 365.568 91.6659L357.656 84.0247C357.562 83.9346 357.438 83.8843 357.308 83.8843C349.025 83.8843 342.929 81.9795 338.833 78.1625Z" fill="#108E3A" stroke="#0AFB3F" stroke-linejoin="round"/>
<path d="M405.751 34.489C405.658 34.3989 405.533 34.3486 405.404 34.3486H383.516C383.312 34.3486 383.128 34.4724 383.052 34.6613C382.976 34.8503 383.022 35.0667 383.168 35.2083L391.081 42.8495C391.174 42.9396 391.299 42.9899 391.428 42.9899H413.316C413.52 42.9899 413.704 42.8662 413.78 42.6772C413.856 42.4882 413.81 42.2718 413.664 42.1302L405.751 34.489Z" fill="#108E3A" stroke="#0AFB3F" stroke-linejoin="round"/>
<path d="M383.863 34.489C383.719 34.3496 383.505 34.31 383.32 34.3884C383.136 34.4668 383.016 34.648 383.016 34.8486V57.6966C383.016 57.8323 383.071 57.9621 383.168 58.0563L391.081 65.6975C391.225 65.8369 391.439 65.8765 391.624 65.7981C391.808 65.7197 391.928 65.5385 391.928 65.3379V42.4899C391.928 42.3542 391.873 42.2244 391.776 42.1302L383.863 34.489Z" fill="#108E3A" stroke="#0AFB3F" stroke-linejoin="round"/>
<path d="M368.215 70.4883C368.122 70.3983 367.997 70.348 367.867 70.348C363.565 70.348 360.337 69.3724 358.253 67.4308L358.039 67.2243C357.841 67.0337 357.527 67.0378 357.335 67.2335C357.142 67.4293 357.144 67.7435 357.338 67.9375C357.412 68.0117 357.487 68.0846 357.564 68.1562L365.254 75.5819C367.595 77.9207 371.206 78.9892 375.78 78.9892C375.984 78.9892 376.167 78.8655 376.244 78.6765C376.32 78.4876 376.274 78.2711 376.127 78.1296L368.215 70.4883Z" fill="#108E3A" stroke="#0AFB3F" stroke-linejoin="round"/>
<path d="M357.308 83.8848C357.104 83.8848 356.92 84.0085 356.844 84.1975C356.768 84.3864 356.814 84.6028 356.96 84.7444L364.873 92.3857C364.966 92.4757 365.091 92.526 365.22 92.526H365.988C366.192 92.526 366.376 92.4023 366.452 92.2133C366.528 92.0243 366.482 91.8079 366.336 91.6663L358.423 84.0251C358.33 83.9351 358.205 83.8848 358.076 83.8848H357.308Z" fill="#108E3A" stroke="#0AFB3F" stroke-linejoin="round"/>
<path d="M379.639 66.9372C379.456 66.7599 379.168 66.7494 378.972 66.9128C376.207 69.2174 372.492 70.3489 367.868 70.3489C367.664 70.3489 367.481 70.4726 367.405 70.6616C367.328 70.8505 367.374 71.067 367.521 71.2085L375.434 78.8498C375.527 78.9398 375.651 78.9901 375.781 78.9901C380.565 78.9901 384.531 77.8176 387.525 75.3222C387.634 75.2313 387.699 75.0983 387.705 74.9564C387.71 74.8145 387.654 74.6771 387.552 74.5784L379.639 66.9372Z" fill="#108E3A" stroke="#0AFB3F" stroke-linejoin="round"/>
<path d="M383.863 57.3366C383.719 57.1972 383.505 57.1576 383.321 57.236C383.136 57.3144 383.016 57.4956 383.016 57.6963C383.016 61.4979 381.631 64.6196 378.966 66.9176C378.859 67.0094 378.796 67.1417 378.792 67.2822C378.788 67.4227 378.844 67.5583 378.945 67.656L386.857 75.2972C387.043 75.4767 387.335 75.485 387.531 75.3162C390.434 72.8142 391.929 69.4079 391.929 65.3375C391.929 65.2019 391.874 65.0721 391.776 64.9779L383.863 57.3366Z" fill="#108E3A" stroke="#0AFB3F" stroke-linejoin="round"/>
<path d="M358.076 83.8845C357.872 83.8845 357.689 84.0082 357.613 84.1972C357.536 84.3862 357.582 84.6026 357.729 84.7442L365.642 92.3854C365.735 92.4754 365.859 92.5257 365.989 92.5257C368.902 92.5257 371.722 92.2344 374.446 91.6507C374.626 91.6119 374.771 91.4768 374.822 91.2992C374.872 91.1216 374.821 90.9304 374.688 90.8021L366.776 83.1608C366.656 83.0452 366.486 82.9967 366.323 83.0316C363.671 83.5999 360.923 83.8845 358.076 83.8845Z" fill="#108E3A" stroke="#0AFB3F" stroke-linejoin="round"/>
<path d="M366.323 83.0321C366.142 83.0708 365.998 83.2059 365.947 83.3836C365.896 83.5612 365.948 83.7523 366.08 83.8806L373.993 91.5219C374.113 91.6376 374.282 91.686 374.445 91.6511C377.139 91.0739 379.376 90.4918 380.948 89.9024C381.109 89.8421 381.227 89.7038 381.262 89.5358C381.297 89.3678 381.243 89.1937 381.12 89.0745L373.207 81.4333C373.068 81.2993 372.865 81.2571 372.684 81.3248C371.184 81.8874 369.005 82.4573 366.323 83.0321Z" fill="#108E3A" stroke="#0AFB3F" stroke-linejoin="round"/>
<path d="M372.693 81.321C372.53 81.3787 372.408 81.5168 372.371 81.6861C372.334 81.8555 372.387 82.0318 372.512 82.1522L380.425 89.7934C380.561 89.925 380.76 89.9683 380.939 89.9052C382.615 89.3136 384.381 88.429 386.238 87.1584C386.362 87.0735 386.442 86.9374 386.454 86.7877C386.467 86.6379 386.412 86.4905 386.303 86.3861L378.391 78.7448C378.22 78.58 377.957 78.5578 377.761 78.6918C375.97 79.9172 374.281 80.7606 372.693 81.321Z" fill="#108E3A" stroke="#0AFB3F" stroke-linejoin="round"/>
<path d="M377.787 78.676C377.653 78.756 377.565 78.8935 377.547 79.048C377.53 79.2025 377.585 79.3564 377.697 79.4644L385.609 87.1057C385.772 87.2628 386.02 87.2911 386.214 87.1748C387.177 86.5968 387.953 86.1123 388.538 85.722C389.112 85.3393 389.535 85.0269 389.766 84.7956C389.861 84.7007 389.914 84.5718 389.913 84.4377C389.911 84.3035 389.856 84.1755 389.76 84.0824L381.847 76.4411C381.651 76.2516 381.339 76.2544 381.146 76.4472C380.994 76.6 380.649 76.8635 380.071 77.2488C379.504 77.6265 378.743 78.102 377.787 78.676Z" fill="#108E3A" stroke="#0AFB3F" stroke-linejoin="round"/>
<path d="M381.2 76.4009C381.083 76.4887 381.01 76.6236 381.001 76.7698C380.992 76.916 381.047 77.0588 381.153 77.1605L389.065 84.8018C389.242 84.9723 389.516 84.9894 389.713 84.8421C390.119 84.5371 390.906 83.8478 391.957 82.8921C392.059 82.7991 392.119 82.6679 392.121 82.5296C392.123 82.3914 392.068 82.2585 391.968 82.1624L384.055 74.5212C383.866 74.3381 383.567 74.3336 383.372 74.5109C382.311 75.4751 381.561 76.1298 381.2 76.4009Z" fill="#108E3A" stroke="#0AFB3F" stroke-linejoin="round"/>
<path d="M384.055 74.5212C383.911 74.3818 383.697 74.3422 383.513 74.4206C383.328 74.499 383.208 74.6802 383.208 74.8809V83.3289C383.208 83.4645 383.263 83.5943 383.361 83.6885L391.273 91.3298C391.418 91.4692 391.631 91.5088 391.816 91.4304C392.001 91.352 392.121 91.1707 392.121 90.9701V82.5221C392.121 82.3865 392.066 82.2567 391.968 82.1624L384.055 74.5212Z" fill="#108E3A" stroke="#0AFB3F" stroke-linejoin="round"/>
<path d="M404.904 83.3286C404.904 83.4643 404.959 83.5941 405.057 83.6883L412.97 91.3295C413.114 91.4689 413.328 91.5085 413.512 91.4301C413.697 91.3517 413.817 91.1705 413.817 90.9699V42.4899C413.817 42.3542 413.762 42.2244 413.664 42.1302L405.752 34.489C405.607 34.3496 405.394 34.31 405.209 34.3884C405.024 34.4668 404.904 34.648 404.904 34.8486V83.3286Z" fill="#108E3A" stroke="#0AFB3F" stroke-linejoin="round"/>
<path d="M439.374 20.6647C439.229 20.5254 439.016 20.4858 438.831 20.5642C438.646 20.6426 438.526 20.8238 438.526 21.0244V35.1364C438.526 35.272 438.581 35.4019 438.679 35.4961L446.592 43.1373C446.736 43.2767 446.95 43.3163 447.134 43.2379C447.319 43.1595 447.439 42.9783 447.439 42.7777V28.6657C447.439 28.53 447.384 28.4002 447.286 28.306L439.374 20.6647Z" fill="#108E3A" stroke="#0AFB3F" stroke-linejoin="round"/>
<path d="M439.373 34.777C439.28 34.687 439.155 34.6367 439.026 34.6367H428.754C428.55 34.6367 428.367 34.7604 428.29 34.9494C428.214 35.1384 428.26 35.3548 428.407 35.4964L436.319 43.1376C436.413 43.2276 436.537 43.278 436.667 43.278H446.939C447.142 43.278 447.326 43.1542 447.402 42.9653C447.479 42.7763 447.433 42.5599 447.286 42.4183L439.373 34.777Z" fill="#108E3A" stroke="#0AFB3F" stroke-linejoin="round"/>
<path d="M429.101 34.777C428.957 34.6377 428.743 34.5981 428.559 34.6765C428.374 34.7549 428.254 34.9361 428.254 35.1367V48.4807C428.254 48.6164 428.309 48.7462 428.407 48.8404L436.319 56.4816C436.464 56.621 436.677 56.6606 436.862 56.5822C437.047 56.5038 437.167 56.3226 437.167 56.122V42.778C437.167 42.6423 437.112 42.5125 437.014 42.4183L429.101 34.777Z" fill="#108E3A" stroke="#0AFB3F" stroke-linejoin="round"/>
<path d="M460.974 20.6647C460.88 20.5747 460.756 20.5244 460.626 20.5244H439.026C438.823 20.5244 438.639 20.6481 438.563 20.8371C438.486 21.0261 438.532 21.2425 438.679 21.3841L446.592 29.0253C446.685 29.1153 446.81 29.1657 446.939 29.1657H468.539C468.743 29.1657 468.926 29.0419 469.003 28.853C469.079 28.664 469.033 28.4476 468.886 28.306L460.974 20.6647Z" fill="#108E3A" stroke="#0AFB3F" stroke-linejoin="round"/>
<path d="M383.708 82.8281C383.504 82.8281 383.321 82.9518 383.244 83.1408C383.168 83.3298 383.214 83.5462 383.361 83.6878L391.273 91.329C391.367 91.4191 391.491 91.4694 391.621 91.4694H413.317C413.521 91.4694 413.704 91.3456 413.78 91.1567C413.857 90.9677 413.811 90.7513 413.664 90.6097L405.751 82.9685C405.658 82.8784 405.534 82.8281 405.404 82.8281H383.708Z" fill="#108E3A" stroke="#0AFB3F" stroke-linejoin="round"/>
<path d="M428.754 47.9805C428.55 47.9805 428.367 48.1042 428.29 48.2932C428.214 48.4821 428.26 48.6986 428.407 48.8401L436.319 56.4814C436.413 56.5714 436.537 56.6217 436.667 56.6217H446.939C447.142 56.6217 447.326 56.498 447.402 56.309C447.479 56.12 447.433 55.9036 447.286 55.762L439.373 48.1208C439.28 48.0308 439.155 47.9805 439.026 47.9805H428.754Z" fill="#108E3A" stroke="#0AFB3F" stroke-linejoin="round"/>
<path d="M460.126 35.1364C460.126 35.272 460.181 35.4019 460.279 35.4961L468.191 43.1373C468.336 43.2767 468.549 43.3163 468.734 43.2379C468.919 43.1595 469.039 42.9783 469.039 42.7777V28.6657C469.039 28.53 468.984 28.4002 468.886 28.306L460.973 20.6647C460.829 20.5254 460.615 20.4858 460.431 20.5642C460.246 20.6426 460.126 20.8238 460.126 21.0244V35.1364Z" fill="#108E3A" stroke="#0AFB3F" stroke-linejoin="round"/>
<path d="M439.374 48.1208C439.229 47.9814 439.016 47.9418 438.831 48.0202C438.646 48.0986 438.526 48.2798 438.526 48.4805V69.7925C438.526 69.9281 438.581 70.0579 438.679 70.1521L446.592 77.7934C446.736 77.9328 446.95 77.9724 447.134 77.894C447.319 77.8156 447.439 77.6344 447.439 77.4337V56.1217C447.439 55.9861 447.384 55.8563 447.286 55.762L439.374 48.1208Z" fill="#108E3A" stroke="#0AFB3F" stroke-linejoin="round"/>
<path d="M471.341 34.777C471.248 34.687 471.124 34.6367 470.994 34.6367H460.626C460.422 34.6367 460.239 34.7604 460.162 34.9494C460.086 35.1384 460.132 35.3548 460.279 35.4964L468.191 43.1376C468.285 43.2276 468.409 43.278 468.539 43.278H478.907C479.111 43.278 479.294 43.1542 479.37 42.9653C479.447 42.7763 479.401 42.5599 479.254 42.4183L471.341 34.777Z" fill="#108E3A" stroke="#0AFB3F" stroke-linejoin="round"/>
<path d="M470.494 48.4807C470.494 48.6164 470.549 48.7462 470.647 48.8404L478.56 56.4816C478.704 56.621 478.918 56.6606 479.102 56.5822C479.287 56.5038 479.407 56.3226 479.407 56.122V42.778C479.407 42.6423 479.352 42.5125 479.254 42.4183L471.341 34.777C471.197 34.6377 470.983 34.5981 470.799 34.6765C470.614 34.7549 470.494 34.9361 470.494 35.1367V48.4807Z" fill="#108E3A" stroke="#0AFB3F" stroke-linejoin="round"/>
<path d="M460.626 47.9805C460.422 47.9805 460.239 48.1042 460.162 48.2932C460.086 48.4821 460.132 48.6986 460.279 48.8401L468.191 56.4814C468.285 56.5714 468.409 56.6217 468.539 56.6217H478.907C479.111 56.6217 479.294 56.498 479.37 56.309C479.447 56.12 479.401 55.9036 479.254 55.762L471.341 48.1208C471.248 48.0308 471.124 47.9805 470.994 47.9805H460.626Z" fill="#108E3A" stroke="#0AFB3F" stroke-linejoin="round"/>
<path d="M439.374 69.4333C439.229 69.2939 439.016 69.2543 438.831 69.3327C438.646 69.4111 438.526 69.5923 438.526 69.793C438.526 74.6628 439.714 78.3425 442.205 80.7484L442.205 80.7485L450.117 88.3886C450.117 88.389 450.117 88.3893 450.118 88.3896L450.118 88.3897C450.316 88.5815 450.633 88.576 450.825 88.3774C451.016 88.1788 451.011 87.8623 450.812 87.6704C448.593 85.526 447.439 82.1599 447.439 77.4342C447.439 77.2986 447.384 77.1688 447.286 77.0745L439.374 69.4333Z" fill="#108E3A" stroke="#0AFB3F" stroke-linejoin="round"/>
<path d="M460.126 66.0485C460.126 66.1841 460.181 66.3139 460.279 66.4081L468.191 74.0494C468.336 74.1888 468.549 74.2284 468.734 74.15C468.919 74.0716 469.039 73.8904 469.039 73.6897V56.1217C469.039 55.9861 468.984 55.8563 468.886 55.762L460.973 48.1208C460.829 47.9814 460.615 47.9418 460.431 48.0202C460.246 48.0986 460.126 48.2798 460.126 48.4805V66.0485Z" fill="#108E3A" stroke="#0AFB3F" stroke-linejoin="round"/>
<path d="M461.11 69.5422C461.121 69.5541 461.131 69.5656 461.143 69.5765L469.055 77.2177C469.247 77.4032 469.551 77.4051 469.746 77.222C469.94 77.0388 469.956 76.7354 469.782 76.5327C469.32 75.9931 469.039 75.0807 469.039 73.6901C469.039 73.5544 468.984 73.4246 468.886 73.3304L460.973 65.6892C460.829 65.5498 460.615 65.5102 460.431 65.5886C460.246 65.667 460.126 65.8482 460.126 66.0488C460.126 67.5382 460.421 68.7378 461.11 69.5422Z" fill="#108E3A" stroke="#0AFB3F" stroke-linejoin="round"/>
<path d="M442.205 80.7483L442.208 80.7508C442.208 80.7508 442.208 80.7508 442.208 80.7508L442.208 80.7508L450.118 88.3895C450.118 88.3895 450.118 88.3896 450.118 88.3896C452.412 90.6054 455.73 91.6621 459.996 91.6621C460.199 91.6621 460.383 91.5384 460.459 91.3494C460.536 91.1604 460.49 90.944 460.343 90.8024L452.43 83.1612C452.337 83.0712 452.212 83.0209 452.083 83.0209C447.974 83.0209 444.946 82.0043 442.903 80.0314C442.903 80.0314 442.903 80.0314 442.903 80.0314L442.9 80.0291L442.9 80.0291C442.701 79.8396 442.387 79.846 442.196 80.0438C442.005 80.2416 442.009 80.5562 442.205 80.7483L442.205 80.7483Z" fill="#108E3A" stroke="#0AFB3F" stroke-linejoin="round"/>
<path d="M465.39 69.9131C465.296 69.8231 465.172 69.7728 465.042 69.7728C463.52 69.7728 462.591 69.4946 462.087 69.0981L461.838 68.8571C461.646 68.6717 461.342 68.6698 461.147 68.8529C460.953 69.036 460.937 69.3395 461.111 69.5422C461.205 69.652 461.31 69.7542 461.425 69.8487L469.04 77.2023C469.769 78.0355 471.111 78.414 472.955 78.414C473.159 78.414 473.342 78.2903 473.419 78.1013C473.495 77.9124 473.449 77.696 473.302 77.5544L465.39 69.9131Z" fill="#108E3A" stroke="#0AFB3F" stroke-linejoin="round"/>
<path d="M471.341 69.9128C471.248 69.8228 471.124 69.7725 470.994 69.7725H465.042C464.838 69.7725 464.655 69.8962 464.578 70.0852C464.502 70.2741 464.548 70.4905 464.695 70.6321L472.607 78.2734C472.701 78.3634 472.825 78.4137 472.955 78.4137H478.907C479.111 78.4137 479.294 78.29 479.37 78.101C479.447 77.912 479.401 77.6956 479.254 77.554L471.341 69.9128Z" fill="#108E3A" stroke="#0AFB3F" stroke-linejoin="round"/>
<path d="M452.082 83.0205C451.878 83.0205 451.695 83.1442 451.618 83.3332C451.542 83.5222 451.588 83.7386 451.735 83.8802L459.647 91.5214C459.741 91.6114 459.865 91.6617 459.995 91.6617H478.907C479.111 91.6617 479.294 91.538 479.37 91.3491C479.447 91.1601 479.401 90.9437 479.254 90.8021L471.341 83.1608C471.248 83.0708 471.124 83.0205 470.994 83.0205H452.082Z" fill="#108E3A" stroke="#0AFB3F" stroke-linejoin="round"/>
<path d="M470.494 83.5205C470.494 83.6561 470.549 83.7859 470.647 83.8801L478.56 91.5214C478.704 91.6608 478.918 91.7004 479.102 91.622C479.287 91.5436 479.407 91.3623 479.407 91.1617V77.9137C479.407 77.7781 479.352 77.6483 479.254 77.554L471.341 69.9128C471.197 69.7734 470.983 69.7338 470.799 69.8122C470.614 69.8906 470.494 70.0718 470.494 70.2725V83.5205Z" fill="#108E3A" stroke="#0AFB3F" stroke-linejoin="round"/>
<path d="M70.6964 17.568L36.6164 17.568L1.00038 83.904H23.4644L29.7044 71.808L77.6084 71.808L83.8484 83.904H106.408L70.6964 17.568ZM37.4804 56.832L50.0564 32.448H57.2564L69.9284 56.832L37.4804 56.832ZM124.622 16.224L124.622 83.232L144.782 83.232C145.166 79.968 145.646 77.76 146.126 76.32C147.95 78.048 151.214 79.776 155.726 81.6C160.238 83.424 165.71 84.384 172.238 84.384H173.966C179.63 84.384 184.622 83.712 188.942 82.368C193.262 81.024 196.718 79.2 199.214 76.8C201.806 74.496 203.726 71.904 204.974 69.024C206.318 66.144 206.894 62.976 206.894 59.616V57.888C206.894 50.592 204.302 44.736 199.214 40.32C194.03 35.808 185.87 33.6 174.638 33.6H172.814C162.542 33.6 153.71 36.192 146.414 41.472V16.224L124.622 16.224ZM146.414 58.656C146.414 55.2 148.046 52.224 151.406 49.824C154.67 47.328 159.374 46.08 165.518 46.08H166.094C172.622 46.08 177.326 47.328 180.206 49.632C183.086 52.032 184.526 55.008 184.526 58.656V58.944C184.526 62.4 183.086 65.376 180.206 67.872C177.23 70.368 172.526 71.616 166.094 71.616H165.518C159.47 71.616 154.766 70.272 151.502 67.776C148.142 65.184 146.414 62.304 146.414 58.944V58.656ZM273.034 84.288C298.186 84.288 310.762 75.936 310.762 59.232V57.6C310.762 41.28 298.186 33.12 273.034 33.12H266.026C260.17 33.12 254.89 33.6 250.378 34.656C245.866 35.616 242.218 36.864 239.434 38.496C236.65 40.128 234.442 41.952 232.714 44.256C230.986 46.464 229.834 48.576 229.162 50.784C228.49 52.992 228.202 55.2 228.202 57.6V59.232C228.202 61.632 228.49 63.936 229.162 66.144C229.834 68.352 230.986 70.56 232.81 72.864C234.538 75.072 236.746 77.088 239.53 78.72C242.314 80.352 245.962 81.6 250.474 82.656C254.986 83.712 260.266 84.288 266.122 84.288H273.034ZM269.578 71.232C262.762 71.232 257.866 69.984 254.986 67.488C252.01 65.088 250.57 62.112 250.57 58.752V58.272C250.57 54.72 252.01 51.744 254.89 49.44C257.77 47.136 262.666 45.984 269.578 45.984H269.674C276.394 45.984 281.29 47.136 284.17 49.536C287.146 51.84 288.586 54.816 288.586 58.272V58.752C288.586 62.112 287.146 65.088 284.17 67.488C281.29 69.984 276.394 71.232 269.578 71.232ZM405.404 83.328V34.848H383.516V57.696C383.516 61.632 382.076 64.896 379.292 67.296C376.412 69.696 372.572 70.848 367.868 70.848C363.356 70.848 359.9 69.792 357.692 67.584C355.388 65.472 354.332 62.496 354.332 58.752V34.848L332.252 34.848V64.992C332.252 70.176 334.268 74.688 338.492 78.528C342.716 82.464 348.956 84.384 357.308 84.384H358.076C360.956 84.384 363.74 84.096 366.428 83.52C369.116 82.944 371.324 82.368 372.86 81.792C374.492 81.216 376.22 80.352 378.044 79.104C379.964 77.952 381.116 77.184 381.5 76.8C381.884 76.512 382.652 75.84 383.708 74.88V83.328L405.404 83.328ZM452.083 83.52H470.995V70.272H465.043C463.219 70.272 462.067 69.888 461.491 69.216C460.915 68.544 460.627 67.488 460.627 66.048V48.48L470.995 48.48V35.136L460.627 35.136V21.024L439.027 21.024V35.136H428.755V48.48H439.027V69.792C439.027 79.008 443.347 83.52 452.083 83.52Z" fill="#80FF00"/>
</svg>
