<svg xmlns="http://www.w3.org/2000/svg" viewBox="0 0 17.36 19.48"><defs><style>.cls-1{fill:#ffec00;}</style></defs><g id="圖層_2" data-name="圖層 2"><g id="圖層_1-2" data-name="圖層 1"><path class="cls-1" d="M9.32,7.52a3.38,3.38,0,0,0-.79-.38A4,4,0,0,0,6.25,7,4.09,4.09,0,0,0,3.71,8.81L.94,13.25a4.07,4.07,0,0,0,6.9,4.32l1.85-3a.28.28,0,0,0,0-.22.29.29,0,0,0-.35-.21l-.11,0a4.87,4.87,0,0,1-1.9.07.28.28,0,0,0-.29.13L5.87,16.33a1.75,1.75,0,1,1-3-1.85L5.69,10A1.76,1.76,0,0,1,8.1,9.48a1.2,1.2,0,0,0,1.59-.37,1.15,1.15,0,0,0-.37-1.59Z"/><path class="cls-1" d="M17,4.76a4.07,4.07,0,0,0-5.39-2L7.67,4.55a.28.28,0,0,0-.17.28.28.28,0,0,0,.19.26l.1,0a4.88,4.88,0,0,1,1.62,1,.29.29,0,0,0,.32,0l2.81-1.28A1.75,1.75,0,1,1,14,8.05L10.49,9.66h0l-1.22.56a1.76,1.76,0,0,1-2.32-.86A1.2,1.2,0,0,0,5.39,8.8a1.17,1.17,0,0,0-.57,1.54,4.09,4.09,0,0,0,.81,1.17l.14.13.15.13.16.13.14.1.31.19a3.54,3.54,0,0,0,.39.19l.19.07h0l.17,0,.2.05.1,0,.2,0,.09,0,.17,0h0a4.14,4.14,0,0,0,2.14-.34L15,10.16A4.08,4.08,0,0,0,17,4.76Z"/><path class="cls-1" d="M5,4.32A1,1,0,0,1,4.69,4L3.36,1.33A.91.91,0,0,1,5,.5L6.33,3.13A.92.92,0,0,1,5,4.32Z"/><path class="cls-1" d="M.43,5.69a.93.93,0,0,1-.41-1A.91.91,0,0,1,1.11,4L4,4.65A.92.92,0,1,1,3.6,6.44L.72,5.81A1.1,1.1,0,0,1,.43,5.69Z"/></g></g></svg>